G04 EAGLE Gerber X2 export*
%TF.Part,Single*%
%TF.FileFunction,Copper,L2,Bot,Mixed*%
%TF.FilePolarity,Positive*%
%TF.GenerationSoftware,Autodesk,EAGLE,9.1.3*%
%TF.CreationDate,2018-09-23T19:11:10Z*%
G75*
%MOMM*%
%FSLAX34Y34*%
%LPD*%
%AMOC8*
5,1,8,0,0,1.08239X$1,22.5*%
G01*
%ADD10C,1.879600*%
%ADD11R,0.850000X1.700000*%
%ADD12C,1.200000*%
%ADD13P,1.732040X8X22.500000*%
%ADD14C,0.604000*%
%ADD15C,0.203200*%
%ADD16C,0.304800*%

G36*
X138685Y3815D02*
X138685Y3815D01*
X138714Y3812D01*
X138825Y3835D01*
X138937Y3851D01*
X138964Y3863D01*
X138992Y3868D01*
X139093Y3920D01*
X139196Y3967D01*
X139219Y3986D01*
X139245Y3999D01*
X139327Y4077D01*
X139413Y4150D01*
X139430Y4175D01*
X139451Y4195D01*
X139508Y4293D01*
X139571Y4387D01*
X139580Y4415D01*
X139595Y4440D01*
X139622Y4550D01*
X139657Y4658D01*
X139657Y4688D01*
X139665Y4716D01*
X139661Y4829D01*
X139664Y4942D01*
X139657Y4971D01*
X139656Y5000D01*
X139621Y5108D01*
X139592Y5217D01*
X139577Y5243D01*
X139568Y5271D01*
X139523Y5334D01*
X139447Y5462D01*
X139401Y5505D01*
X139373Y5544D01*
X135055Y9862D01*
X134985Y9914D01*
X134922Y9974D01*
X134872Y10000D01*
X134828Y10033D01*
X134746Y10064D01*
X134668Y10104D01*
X134621Y10112D01*
X134562Y10134D01*
X134415Y10146D01*
X134337Y10159D01*
X70750Y10159D01*
X53593Y27316D01*
X53593Y75155D01*
X53581Y75242D01*
X53578Y75329D01*
X53561Y75382D01*
X53553Y75437D01*
X53518Y75517D01*
X53491Y75600D01*
X53463Y75639D01*
X53437Y75696D01*
X53341Y75810D01*
X53296Y75873D01*
X37265Y91904D01*
X37196Y91956D01*
X37132Y92016D01*
X37082Y92042D01*
X37038Y92075D01*
X36956Y92106D01*
X36878Y92146D01*
X36831Y92154D01*
X36772Y92176D01*
X36625Y92188D01*
X36547Y92201D01*
X26162Y92201D01*
X26104Y92193D01*
X26046Y92195D01*
X25964Y92173D01*
X25881Y92161D01*
X25827Y92137D01*
X25771Y92123D01*
X25698Y92080D01*
X25621Y92045D01*
X25577Y92007D01*
X25526Y91977D01*
X25469Y91916D01*
X25404Y91861D01*
X25372Y91813D01*
X25332Y91770D01*
X25293Y91695D01*
X25247Y91625D01*
X25229Y91569D01*
X25202Y91517D01*
X25191Y91449D01*
X25161Y91354D01*
X25158Y91254D01*
X25147Y91186D01*
X25147Y90169D01*
X25145Y90169D01*
X25145Y91186D01*
X25138Y91234D01*
X25138Y91239D01*
X25137Y91244D01*
X25138Y91302D01*
X25117Y91384D01*
X25105Y91467D01*
X25081Y91521D01*
X25067Y91577D01*
X25024Y91650D01*
X24989Y91727D01*
X24951Y91772D01*
X24921Y91822D01*
X24860Y91880D01*
X24805Y91944D01*
X24757Y91976D01*
X24714Y92016D01*
X24639Y92055D01*
X24569Y92101D01*
X24513Y92119D01*
X24461Y92146D01*
X24393Y92157D01*
X24298Y92187D01*
X24198Y92190D01*
X24130Y92201D01*
X14604Y92201D01*
X14604Y94537D01*
X19321Y99253D01*
X19356Y99300D01*
X19398Y99340D01*
X19441Y99413D01*
X19492Y99480D01*
X19512Y99535D01*
X19542Y99585D01*
X19563Y99667D01*
X19593Y99746D01*
X19598Y99804D01*
X19612Y99861D01*
X19609Y99945D01*
X19616Y100029D01*
X19605Y100086D01*
X19603Y100145D01*
X19577Y100225D01*
X19560Y100308D01*
X19534Y100360D01*
X19516Y100415D01*
X19475Y100472D01*
X19429Y100560D01*
X19361Y100633D01*
X19321Y100689D01*
X14096Y105913D01*
X14096Y115067D01*
X20569Y121540D01*
X29723Y121540D01*
X36196Y115067D01*
X36196Y106328D01*
X36203Y106273D01*
X36202Y106235D01*
X36209Y106209D01*
X36211Y106154D01*
X36228Y106101D01*
X36236Y106046D01*
X36271Y105966D01*
X36298Y105883D01*
X36326Y105844D01*
X36352Y105787D01*
X36448Y105673D01*
X36493Y105610D01*
X62739Y79364D01*
X62739Y31525D01*
X62751Y31438D01*
X62754Y31351D01*
X62771Y31298D01*
X62779Y31243D01*
X62814Y31163D01*
X62841Y31080D01*
X62869Y31041D01*
X62895Y30984D01*
X62991Y30870D01*
X63036Y30807D01*
X74241Y19602D01*
X74311Y19550D01*
X74374Y19490D01*
X74424Y19464D01*
X74468Y19431D01*
X74550Y19400D01*
X74628Y19360D01*
X74675Y19352D01*
X74734Y19330D01*
X74881Y19318D01*
X74959Y19305D01*
X80789Y19305D01*
X80819Y19309D01*
X80848Y19306D01*
X80959Y19329D01*
X81071Y19345D01*
X81098Y19357D01*
X81126Y19362D01*
X81227Y19415D01*
X81330Y19461D01*
X81353Y19480D01*
X81379Y19493D01*
X81461Y19571D01*
X81547Y19644D01*
X81564Y19669D01*
X81585Y19689D01*
X81642Y19787D01*
X81705Y19881D01*
X81714Y19909D01*
X81729Y19934D01*
X81756Y20044D01*
X81791Y20152D01*
X81791Y20182D01*
X81799Y20210D01*
X81795Y20323D01*
X81798Y20436D01*
X81791Y20465D01*
X81790Y20494D01*
X81755Y20602D01*
X81726Y20711D01*
X81711Y20737D01*
X81702Y20765D01*
X81657Y20828D01*
X81581Y20956D01*
X81535Y20999D01*
X81507Y21038D01*
X79381Y23164D01*
X78003Y26490D01*
X78003Y42090D01*
X79381Y45416D01*
X81926Y47961D01*
X85252Y49339D01*
X88852Y49339D01*
X92178Y47961D01*
X92858Y47281D01*
X92905Y47245D01*
X92945Y47203D01*
X93018Y47160D01*
X93086Y47110D01*
X93140Y47089D01*
X93191Y47059D01*
X93272Y47038D01*
X93351Y47008D01*
X93410Y47004D01*
X93466Y46989D01*
X93550Y46992D01*
X93635Y46985D01*
X93692Y46996D01*
X93750Y46998D01*
X93831Y47024D01*
X93913Y47041D01*
X93965Y47068D01*
X94021Y47086D01*
X94077Y47126D01*
X94166Y47172D01*
X94238Y47240D01*
X94294Y47281D01*
X118403Y71390D01*
X118455Y71458D01*
X118514Y71521D01*
X118540Y71572D01*
X118574Y71617D01*
X118605Y71697D01*
X118644Y71774D01*
X118655Y71829D01*
X118676Y71883D01*
X118683Y71968D01*
X118699Y72053D01*
X118694Y72109D01*
X118699Y72166D01*
X118682Y72250D01*
X118675Y72336D01*
X118654Y72389D01*
X118643Y72445D01*
X118604Y72521D01*
X118573Y72601D01*
X118538Y72647D01*
X118512Y72697D01*
X118453Y72759D01*
X118401Y72828D01*
X118356Y72862D01*
X118316Y72903D01*
X118242Y72947D01*
X118173Y72998D01*
X118120Y73018D01*
X118071Y73047D01*
X117988Y73068D01*
X117907Y73098D01*
X117851Y73103D01*
X117796Y73117D01*
X117710Y73114D01*
X117624Y73121D01*
X117576Y73110D01*
X117511Y73108D01*
X117374Y73063D01*
X117297Y73046D01*
X114030Y71692D01*
X110430Y71692D01*
X107104Y73070D01*
X104559Y75615D01*
X103181Y78941D01*
X103181Y94493D01*
X103177Y94522D01*
X103179Y94551D01*
X103157Y94662D01*
X103141Y94774D01*
X103129Y94801D01*
X103123Y94830D01*
X103071Y94930D01*
X103025Y95034D01*
X103006Y95056D01*
X102992Y95082D01*
X102915Y95164D01*
X102841Y95251D01*
X102817Y95267D01*
X102797Y95288D01*
X102699Y95346D01*
X102605Y95408D01*
X102577Y95417D01*
X102551Y95432D01*
X102442Y95460D01*
X102334Y95494D01*
X102304Y95495D01*
X102276Y95502D01*
X102163Y95499D01*
X102049Y95501D01*
X102021Y95494D01*
X101992Y95493D01*
X101884Y95458D01*
X101774Y95430D01*
X101749Y95415D01*
X101721Y95406D01*
X101657Y95360D01*
X101530Y95284D01*
X101487Y95239D01*
X101448Y95211D01*
X96576Y90339D01*
X96523Y90269D01*
X96463Y90205D01*
X96438Y90156D01*
X96405Y90111D01*
X96374Y90030D01*
X96334Y89952D01*
X96326Y89904D01*
X96304Y89846D01*
X96291Y89698D01*
X96279Y89621D01*
X96279Y78941D01*
X94901Y75615D01*
X92356Y73070D01*
X89030Y71692D01*
X85430Y71692D01*
X82104Y73070D01*
X79559Y75615D01*
X78181Y78941D01*
X78181Y94541D01*
X79559Y97867D01*
X82104Y100412D01*
X85430Y101790D01*
X89030Y101790D01*
X92356Y100412D01*
X93036Y99732D01*
X93083Y99696D01*
X93123Y99654D01*
X93196Y99611D01*
X93263Y99561D01*
X93318Y99540D01*
X93368Y99510D01*
X93450Y99489D01*
X93529Y99459D01*
X93587Y99455D01*
X93644Y99440D01*
X93728Y99443D01*
X93812Y99436D01*
X93870Y99447D01*
X93928Y99449D01*
X94008Y99475D01*
X94091Y99492D01*
X94143Y99519D01*
X94199Y99537D01*
X94255Y99577D01*
X94343Y99623D01*
X94416Y99691D01*
X94472Y99732D01*
X100045Y105304D01*
X100062Y105328D01*
X100085Y105347D01*
X100147Y105441D01*
X100215Y105531D01*
X100226Y105559D01*
X100242Y105583D01*
X100276Y105691D01*
X100317Y105797D01*
X100319Y105826D01*
X100328Y105854D01*
X100331Y105968D01*
X100340Y106080D01*
X100334Y106109D01*
X100335Y106138D01*
X100307Y106248D01*
X100284Y106359D01*
X100271Y106385D01*
X100263Y106413D01*
X100206Y106511D01*
X100153Y106611D01*
X100133Y106633D01*
X100118Y106658D01*
X100036Y106735D01*
X99958Y106817D01*
X99932Y106832D01*
X99911Y106852D01*
X99810Y106904D01*
X99712Y106961D01*
X99684Y106968D01*
X99658Y106982D01*
X99580Y106995D01*
X99437Y107031D01*
X99374Y107029D01*
X99327Y107037D01*
X95919Y107037D01*
X94133Y108823D01*
X94133Y128349D01*
X95919Y130135D01*
X106680Y130135D01*
X106738Y130143D01*
X106796Y130141D01*
X106878Y130163D01*
X106962Y130175D01*
X107015Y130198D01*
X107071Y130213D01*
X107144Y130256D01*
X107221Y130291D01*
X107266Y130329D01*
X107316Y130358D01*
X107374Y130420D01*
X107438Y130474D01*
X107470Y130523D01*
X107510Y130566D01*
X107549Y130641D01*
X107596Y130711D01*
X107613Y130767D01*
X107640Y130819D01*
X107651Y130887D01*
X107681Y130982D01*
X107684Y131082D01*
X107695Y131150D01*
X107695Y268892D01*
X121904Y283100D01*
X121956Y283170D01*
X122016Y283234D01*
X122042Y283283D01*
X122075Y283328D01*
X122106Y283409D01*
X122146Y283487D01*
X122154Y283535D01*
X122176Y283593D01*
X122188Y283741D01*
X122201Y283818D01*
X122201Y284925D01*
X123125Y287156D01*
X124832Y288863D01*
X127063Y289787D01*
X129477Y289787D01*
X131708Y288863D01*
X133415Y287156D01*
X134339Y284925D01*
X134339Y282511D01*
X133415Y280280D01*
X131708Y278573D01*
X129477Y277649D01*
X128370Y277649D01*
X128284Y277637D01*
X128196Y277634D01*
X128144Y277617D01*
X128089Y277609D01*
X128009Y277574D01*
X127926Y277547D01*
X127886Y277519D01*
X127829Y277493D01*
X127716Y277397D01*
X127652Y277352D01*
X116122Y265822D01*
X116070Y265752D01*
X116010Y265688D01*
X115984Y265639D01*
X115951Y265594D01*
X115920Y265513D01*
X115880Y265435D01*
X115872Y265387D01*
X115850Y265329D01*
X115838Y265181D01*
X115825Y265104D01*
X115825Y161150D01*
X115832Y161096D01*
X115831Y161058D01*
X115832Y161056D01*
X115831Y161034D01*
X115853Y160952D01*
X115865Y160868D01*
X115888Y160815D01*
X115903Y160759D01*
X115946Y160686D01*
X115981Y160609D01*
X116019Y160564D01*
X116048Y160514D01*
X116110Y160456D01*
X116164Y160392D01*
X116213Y160360D01*
X116256Y160320D01*
X116331Y160281D01*
X116401Y160234D01*
X116457Y160217D01*
X116509Y160190D01*
X116577Y160179D01*
X116672Y160149D01*
X116772Y160146D01*
X116840Y160135D01*
X126996Y160135D01*
X127017Y160119D01*
X127045Y160108D01*
X127069Y160092D01*
X127177Y160058D01*
X127283Y160017D01*
X127312Y160015D01*
X127340Y160006D01*
X127453Y160003D01*
X127566Y159994D01*
X127595Y159999D01*
X127624Y159999D01*
X127734Y160027D01*
X127845Y160050D01*
X127871Y160063D01*
X127899Y160071D01*
X127997Y160128D01*
X128097Y160181D01*
X128119Y160201D01*
X128144Y160216D01*
X128221Y160298D01*
X128303Y160376D01*
X128318Y160402D01*
X128338Y160423D01*
X128390Y160524D01*
X128447Y160622D01*
X128454Y160650D01*
X128468Y160676D01*
X128481Y160753D01*
X128517Y160897D01*
X128515Y160960D01*
X128523Y161007D01*
X128523Y200312D01*
X150070Y221858D01*
X150122Y221928D01*
X150182Y221992D01*
X150208Y222041D01*
X150241Y222086D01*
X150272Y222167D01*
X150312Y222245D01*
X150320Y222293D01*
X150342Y222351D01*
X150354Y222499D01*
X150367Y222576D01*
X150367Y241442D01*
X150360Y241490D01*
X150361Y241496D01*
X150359Y241503D01*
X150355Y241528D01*
X150352Y241616D01*
X150335Y241668D01*
X150327Y241723D01*
X150292Y241803D01*
X150265Y241886D01*
X150237Y241926D01*
X150211Y241983D01*
X150115Y242096D01*
X150070Y242160D01*
X149033Y243196D01*
X148109Y245427D01*
X148109Y247841D01*
X149033Y250072D01*
X150740Y251779D01*
X152971Y252703D01*
X155385Y252703D01*
X157616Y251779D01*
X159323Y250072D01*
X160247Y247841D01*
X160247Y245427D01*
X159323Y243196D01*
X158794Y242668D01*
X158742Y242598D01*
X158682Y242534D01*
X158656Y242485D01*
X158623Y242440D01*
X158592Y242359D01*
X158552Y242281D01*
X158544Y242233D01*
X158522Y242175D01*
X158510Y242027D01*
X158497Y241950D01*
X158497Y218788D01*
X136950Y197242D01*
X136898Y197172D01*
X136838Y197108D01*
X136812Y197059D01*
X136779Y197014D01*
X136748Y196933D01*
X136708Y196855D01*
X136700Y196807D01*
X136678Y196749D01*
X136666Y196601D01*
X136653Y196524D01*
X136653Y139446D01*
X136661Y139388D01*
X136659Y139330D01*
X136681Y139248D01*
X136693Y139164D01*
X136716Y139111D01*
X136731Y139055D01*
X136774Y138982D01*
X136809Y138905D01*
X136847Y138860D01*
X136876Y138810D01*
X136938Y138752D01*
X136992Y138688D01*
X137041Y138656D01*
X137084Y138616D01*
X137159Y138577D01*
X137229Y138530D01*
X137285Y138513D01*
X137337Y138486D01*
X137405Y138475D01*
X137500Y138445D01*
X137600Y138442D01*
X137668Y138431D01*
X153118Y138431D01*
X153176Y138439D01*
X153234Y138437D01*
X153316Y138459D01*
X153400Y138471D01*
X153453Y138494D01*
X153509Y138509D01*
X153582Y138552D01*
X153659Y138587D01*
X153704Y138625D01*
X153754Y138654D01*
X153812Y138716D01*
X153876Y138770D01*
X153908Y138819D01*
X153948Y138862D01*
X153987Y138937D01*
X154034Y139007D01*
X154051Y139063D01*
X154078Y139115D01*
X154089Y139183D01*
X154119Y139278D01*
X154122Y139378D01*
X154133Y139446D01*
X154133Y158349D01*
X155919Y160135D01*
X165354Y160135D01*
X165412Y160143D01*
X165470Y160141D01*
X165552Y160163D01*
X165636Y160175D01*
X165689Y160198D01*
X165745Y160213D01*
X165818Y160256D01*
X165895Y160291D01*
X165940Y160329D01*
X165990Y160358D01*
X166048Y160420D01*
X166112Y160474D01*
X166144Y160523D01*
X166184Y160566D01*
X166223Y160641D01*
X166270Y160711D01*
X166287Y160767D01*
X166314Y160819D01*
X166325Y160887D01*
X166355Y160982D01*
X166358Y161082D01*
X166369Y161150D01*
X166369Y161432D01*
X166357Y161518D01*
X166354Y161606D01*
X166337Y161658D01*
X166329Y161713D01*
X166294Y161793D01*
X166267Y161876D01*
X166239Y161916D01*
X166213Y161973D01*
X166117Y162086D01*
X166072Y162150D01*
X165289Y162932D01*
X164365Y165163D01*
X164365Y167577D01*
X164862Y168775D01*
X164890Y168887D01*
X164925Y168996D01*
X164926Y169024D01*
X164933Y169051D01*
X164929Y169165D01*
X164932Y169280D01*
X164925Y169307D01*
X164924Y169335D01*
X164889Y169444D01*
X164860Y169555D01*
X164846Y169579D01*
X164838Y169606D01*
X164774Y169701D01*
X164715Y169800D01*
X164695Y169819D01*
X164679Y169842D01*
X164592Y169916D01*
X164508Y169994D01*
X164483Y170007D01*
X164462Y170025D01*
X164357Y170071D01*
X164255Y170124D01*
X164230Y170128D01*
X164202Y170140D01*
X163938Y170177D01*
X163924Y170179D01*
X158354Y170179D01*
X158268Y170167D01*
X158180Y170164D01*
X158128Y170147D01*
X158073Y170139D01*
X157993Y170104D01*
X157910Y170077D01*
X157870Y170049D01*
X157813Y170023D01*
X157700Y169927D01*
X157636Y169882D01*
X156854Y169099D01*
X154623Y168175D01*
X152209Y168175D01*
X149978Y169099D01*
X148271Y170806D01*
X147347Y173037D01*
X147347Y175451D01*
X148271Y177682D01*
X149978Y179389D01*
X152209Y180313D01*
X154623Y180313D01*
X156854Y179389D01*
X157636Y178606D01*
X157706Y178554D01*
X157770Y178494D01*
X157819Y178468D01*
X157864Y178435D01*
X157945Y178404D01*
X158023Y178364D01*
X158071Y178356D01*
X158129Y178334D01*
X158277Y178322D01*
X158354Y178309D01*
X205138Y178309D01*
X226569Y156878D01*
X226569Y144852D01*
X226581Y144766D01*
X226584Y144678D01*
X226601Y144626D01*
X226609Y144571D01*
X226644Y144491D01*
X226671Y144408D01*
X226699Y144368D01*
X226725Y144311D01*
X226821Y144198D01*
X226866Y144134D01*
X232400Y138600D01*
X232424Y138583D01*
X232443Y138560D01*
X232537Y138497D01*
X232627Y138429D01*
X232655Y138419D01*
X232679Y138403D01*
X232787Y138368D01*
X232893Y138328D01*
X232922Y138326D01*
X232950Y138317D01*
X233064Y138314D01*
X233176Y138305D01*
X233205Y138310D01*
X233234Y138310D01*
X233344Y138338D01*
X233455Y138360D01*
X233481Y138374D01*
X233509Y138381D01*
X233607Y138439D01*
X233707Y138491D01*
X233729Y138512D01*
X233754Y138527D01*
X233831Y138609D01*
X233913Y138687D01*
X233928Y138713D01*
X233948Y138734D01*
X234000Y138835D01*
X234057Y138933D01*
X234064Y138961D01*
X234078Y138987D01*
X234091Y139064D01*
X234127Y139208D01*
X234125Y139271D01*
X234133Y139318D01*
X234133Y158349D01*
X235919Y160135D01*
X246945Y160135D01*
X248731Y158349D01*
X248731Y138823D01*
X246945Y137037D01*
X236414Y137037D01*
X236385Y137033D01*
X236356Y137036D01*
X236245Y137013D01*
X236133Y136997D01*
X236106Y136985D01*
X236077Y136980D01*
X235977Y136928D01*
X235873Y136881D01*
X235851Y136862D01*
X235825Y136849D01*
X235743Y136771D01*
X235656Y136698D01*
X235640Y136673D01*
X235619Y136653D01*
X235561Y136555D01*
X235499Y136461D01*
X235490Y136433D01*
X235475Y136408D01*
X235447Y136298D01*
X235413Y136190D01*
X235412Y136160D01*
X235405Y136132D01*
X235408Y136019D01*
X235406Y135906D01*
X235413Y135877D01*
X235414Y135848D01*
X235449Y135740D01*
X235477Y135631D01*
X235492Y135605D01*
X235501Y135577D01*
X235547Y135514D01*
X235623Y135386D01*
X235668Y135343D01*
X235696Y135304D01*
X241416Y129584D01*
X244095Y126906D01*
X244095Y101313D01*
X244095Y101312D01*
X244095Y101310D01*
X244116Y101166D01*
X244135Y101032D01*
X244135Y101031D01*
X244135Y101029D01*
X244196Y100895D01*
X244251Y100773D01*
X244252Y100771D01*
X244253Y100770D01*
X244346Y100661D01*
X244434Y100556D01*
X244436Y100555D01*
X244437Y100553D01*
X244450Y100545D01*
X244671Y100398D01*
X244700Y100389D01*
X244722Y100375D01*
X244940Y100285D01*
X247485Y97740D01*
X248863Y94414D01*
X248863Y78814D01*
X247485Y75488D01*
X244940Y72943D01*
X241614Y71565D01*
X238014Y71565D01*
X234688Y72943D01*
X232143Y75488D01*
X230765Y78814D01*
X230765Y94414D01*
X232143Y97740D01*
X234688Y100285D01*
X235339Y100554D01*
X235340Y100555D01*
X235341Y100556D01*
X235460Y100626D01*
X235583Y100699D01*
X235584Y100700D01*
X235586Y100701D01*
X235682Y100804D01*
X235779Y100906D01*
X235779Y100907D01*
X235780Y100908D01*
X235844Y101032D01*
X235909Y101158D01*
X235909Y101160D01*
X235910Y101161D01*
X235912Y101176D01*
X235964Y101437D01*
X235961Y101468D01*
X235965Y101492D01*
X235965Y123118D01*
X235953Y123204D01*
X235950Y123292D01*
X235933Y123344D01*
X235925Y123399D01*
X235890Y123479D01*
X235863Y123562D01*
X235835Y123602D01*
X235809Y123659D01*
X235713Y123772D01*
X235668Y123836D01*
X230464Y129040D01*
X230440Y129057D01*
X230421Y129080D01*
X230327Y129143D01*
X230237Y129211D01*
X230209Y129221D01*
X230185Y129237D01*
X230077Y129272D01*
X229971Y129312D01*
X229942Y129314D01*
X229914Y129323D01*
X229800Y129326D01*
X229688Y129335D01*
X229659Y129330D01*
X229630Y129330D01*
X229520Y129302D01*
X229409Y129280D01*
X229383Y129266D01*
X229355Y129259D01*
X229257Y129201D01*
X229157Y129149D01*
X229135Y129128D01*
X229110Y129113D01*
X229033Y129031D01*
X228951Y128953D01*
X228936Y128927D01*
X228916Y128906D01*
X228864Y128805D01*
X228807Y128707D01*
X228800Y128679D01*
X228786Y128653D01*
X228773Y128576D01*
X228737Y128432D01*
X228739Y128369D01*
X228731Y128322D01*
X228731Y108823D01*
X226945Y107037D01*
X215919Y107037D01*
X214133Y108823D01*
X214133Y128349D01*
X215919Y130135D01*
X226918Y130135D01*
X226947Y130139D01*
X226976Y130136D01*
X227087Y130159D01*
X227199Y130175D01*
X227226Y130187D01*
X227255Y130192D01*
X227355Y130244D01*
X227459Y130291D01*
X227481Y130310D01*
X227507Y130323D01*
X227589Y130401D01*
X227676Y130474D01*
X227692Y130499D01*
X227713Y130519D01*
X227771Y130617D01*
X227833Y130711D01*
X227842Y130739D01*
X227857Y130764D01*
X227885Y130874D01*
X227919Y130982D01*
X227920Y131012D01*
X227927Y131040D01*
X227924Y131153D01*
X227926Y131266D01*
X227919Y131295D01*
X227918Y131324D01*
X227883Y131432D01*
X227855Y131541D01*
X227840Y131567D01*
X227831Y131595D01*
X227785Y131658D01*
X227709Y131786D01*
X227664Y131829D01*
X227636Y131868D01*
X218439Y141064D01*
X218439Y153090D01*
X218432Y153142D01*
X218433Y153169D01*
X218427Y153192D01*
X218424Y153264D01*
X218407Y153316D01*
X218399Y153371D01*
X218364Y153451D01*
X218337Y153534D01*
X218309Y153574D01*
X218283Y153631D01*
X218187Y153744D01*
X218142Y153808D01*
X202068Y169882D01*
X201998Y169934D01*
X201934Y169994D01*
X201885Y170020D01*
X201840Y170053D01*
X201759Y170084D01*
X201681Y170124D01*
X201633Y170132D01*
X201575Y170154D01*
X201427Y170166D01*
X201350Y170179D01*
X176944Y170179D01*
X176831Y170163D01*
X176716Y170153D01*
X176690Y170143D01*
X176663Y170139D01*
X176558Y170092D01*
X176451Y170051D01*
X176429Y170035D01*
X176403Y170023D01*
X176316Y169949D01*
X176224Y169880D01*
X176208Y169857D01*
X176186Y169840D01*
X176123Y169744D01*
X176054Y169652D01*
X176044Y169626D01*
X176029Y169603D01*
X175994Y169493D01*
X175954Y169386D01*
X175951Y169358D01*
X175943Y169332D01*
X175940Y169217D01*
X175931Y169103D01*
X175937Y169078D01*
X175936Y169048D01*
X176003Y168791D01*
X176006Y168775D01*
X176503Y167577D01*
X176503Y165163D01*
X175579Y162932D01*
X174796Y162150D01*
X174744Y162080D01*
X174684Y162016D01*
X174658Y161967D01*
X174625Y161922D01*
X174594Y161841D01*
X174554Y161763D01*
X174546Y161715D01*
X174524Y161657D01*
X174512Y161509D01*
X174499Y161432D01*
X174499Y138016D01*
X166784Y130301D01*
X149229Y130301D01*
X149200Y130297D01*
X149171Y130300D01*
X149060Y130277D01*
X148948Y130261D01*
X148921Y130249D01*
X148892Y130244D01*
X148792Y130191D01*
X148688Y130145D01*
X148666Y130126D01*
X148640Y130113D01*
X148558Y130035D01*
X148471Y129962D01*
X148455Y129937D01*
X148434Y129917D01*
X148377Y129819D01*
X148314Y129725D01*
X148305Y129697D01*
X148290Y129672D01*
X148262Y129562D01*
X148228Y129454D01*
X148227Y129424D01*
X148220Y129396D01*
X148224Y129283D01*
X148221Y129170D01*
X148228Y129141D01*
X148229Y129112D01*
X148264Y129004D01*
X148293Y128895D01*
X148307Y128869D01*
X148317Y128841D01*
X148362Y128777D01*
X148438Y128650D01*
X148483Y128607D01*
X148511Y128568D01*
X148731Y128349D01*
X148731Y108823D01*
X146945Y107037D01*
X135919Y107037D01*
X134133Y108823D01*
X134133Y121870D01*
X134129Y121899D01*
X134132Y121928D01*
X134109Y122039D01*
X134093Y122151D01*
X134081Y122178D01*
X134076Y122207D01*
X134023Y122308D01*
X133977Y122411D01*
X133958Y122433D01*
X133945Y122459D01*
X133867Y122541D01*
X133794Y122628D01*
X133769Y122644D01*
X133749Y122665D01*
X133651Y122722D01*
X133557Y122785D01*
X133529Y122794D01*
X133504Y122809D01*
X133394Y122837D01*
X133286Y122871D01*
X133256Y122872D01*
X133228Y122879D01*
X133115Y122876D01*
X133002Y122878D01*
X132973Y122871D01*
X132944Y122870D01*
X132836Y122835D01*
X132727Y122807D01*
X132701Y122792D01*
X132673Y122783D01*
X132609Y122737D01*
X132482Y122661D01*
X132439Y122616D01*
X132400Y122588D01*
X130854Y121042D01*
X130802Y120972D01*
X130742Y120908D01*
X130716Y120859D01*
X130683Y120814D01*
X130652Y120733D01*
X130612Y120655D01*
X130604Y120607D01*
X130582Y120549D01*
X130570Y120401D01*
X130557Y120324D01*
X130557Y101291D01*
X130573Y101177D01*
X130583Y101062D01*
X130593Y101037D01*
X130597Y101009D01*
X130644Y100904D01*
X130685Y100797D01*
X130701Y100775D01*
X130713Y100750D01*
X130787Y100662D01*
X130856Y100570D01*
X130879Y100554D01*
X130896Y100533D01*
X130992Y100469D01*
X131084Y100400D01*
X131110Y100391D01*
X131133Y100375D01*
X131243Y100340D01*
X131350Y100300D01*
X131378Y100298D01*
X131404Y100289D01*
X131519Y100286D01*
X131633Y100277D01*
X131658Y100283D01*
X131688Y100282D01*
X131945Y100349D01*
X131961Y100353D01*
X135430Y101790D01*
X139030Y101790D01*
X142356Y100412D01*
X144901Y97867D01*
X146279Y94541D01*
X146279Y78941D01*
X144901Y75615D01*
X142356Y73070D01*
X142252Y73027D01*
X142250Y73026D01*
X142249Y73026D01*
X142131Y72955D01*
X142007Y72882D01*
X142006Y72881D01*
X142004Y72880D01*
X141906Y72776D01*
X141812Y72676D01*
X141811Y72674D01*
X141810Y72673D01*
X141745Y72546D01*
X141681Y72423D01*
X141681Y72421D01*
X141680Y72420D01*
X141678Y72405D01*
X141626Y72144D01*
X141629Y72113D01*
X141625Y72089D01*
X141625Y48869D01*
X141625Y48867D01*
X141625Y48865D01*
X141646Y48719D01*
X141665Y48587D01*
X141665Y48586D01*
X141665Y48584D01*
X141724Y48455D01*
X141781Y48328D01*
X141782Y48326D01*
X141783Y48325D01*
X141873Y48219D01*
X141964Y48111D01*
X141966Y48110D01*
X141967Y48109D01*
X141980Y48101D01*
X142155Y47984D01*
X144723Y45416D01*
X146101Y42090D01*
X146101Y26490D01*
X144723Y23164D01*
X142146Y20587D01*
X142129Y20577D01*
X142007Y20505D01*
X142006Y20504D01*
X142004Y20503D01*
X141903Y20395D01*
X141812Y20298D01*
X141811Y20297D01*
X141810Y20296D01*
X141745Y20168D01*
X141681Y20046D01*
X141681Y20044D01*
X141680Y20043D01*
X141678Y20027D01*
X141626Y19767D01*
X141629Y19736D01*
X141625Y19711D01*
X141625Y16647D01*
X141637Y16560D01*
X141640Y16473D01*
X141657Y16420D01*
X141665Y16365D01*
X141700Y16285D01*
X141727Y16202D01*
X141755Y16163D01*
X141781Y16106D01*
X141877Y15992D01*
X141922Y15929D01*
X143075Y14776D01*
X143145Y14724D01*
X143208Y14664D01*
X143258Y14638D01*
X143302Y14605D01*
X143384Y14574D01*
X143462Y14534D01*
X143509Y14526D01*
X143568Y14504D01*
X143715Y14492D01*
X143793Y14479D01*
X251685Y14479D01*
X251772Y14491D01*
X251859Y14494D01*
X251912Y14511D01*
X251967Y14519D01*
X252047Y14554D01*
X252130Y14581D01*
X252169Y14609D01*
X252226Y14635D01*
X252339Y14731D01*
X252403Y14776D01*
X258122Y20495D01*
X258157Y20542D01*
X258200Y20582D01*
X258243Y20655D01*
X258293Y20722D01*
X258314Y20777D01*
X258344Y20827D01*
X258364Y20909D01*
X258394Y20988D01*
X258399Y21046D01*
X258414Y21103D01*
X258411Y21187D01*
X258418Y21271D01*
X258406Y21329D01*
X258405Y21387D01*
X258379Y21467D01*
X258362Y21550D01*
X258335Y21602D01*
X258317Y21658D01*
X258277Y21714D01*
X258231Y21802D01*
X258162Y21875D01*
X258122Y21931D01*
X257143Y22910D01*
X255765Y26236D01*
X255765Y41836D01*
X257143Y45162D01*
X259720Y47739D01*
X259735Y47748D01*
X259859Y47821D01*
X259860Y47822D01*
X259862Y47823D01*
X259960Y47928D01*
X260054Y48028D01*
X260055Y48029D01*
X260056Y48030D01*
X260121Y48158D01*
X260185Y48280D01*
X260185Y48282D01*
X260186Y48283D01*
X260188Y48299D01*
X260240Y48559D01*
X260237Y48590D01*
X260241Y48615D01*
X260241Y72035D01*
X260241Y72037D01*
X260241Y72039D01*
X260221Y72178D01*
X260201Y72317D01*
X260201Y72318D01*
X260201Y72320D01*
X260142Y72449D01*
X260085Y72576D01*
X260084Y72578D01*
X260083Y72579D01*
X259994Y72684D01*
X259902Y72793D01*
X259900Y72794D01*
X259899Y72795D01*
X259886Y72803D01*
X259711Y72920D01*
X257143Y75488D01*
X255765Y78814D01*
X255765Y94414D01*
X257143Y97740D01*
X259688Y100285D01*
X263014Y101663D01*
X266614Y101663D01*
X269940Y100285D01*
X272485Y97740D01*
X273863Y94414D01*
X273863Y78814D01*
X272485Y75488D01*
X269908Y72911D01*
X269891Y72901D01*
X269769Y72829D01*
X269768Y72828D01*
X269766Y72827D01*
X269668Y72722D01*
X269574Y72622D01*
X269573Y72621D01*
X269572Y72620D01*
X269505Y72490D01*
X269443Y72370D01*
X269443Y72368D01*
X269442Y72367D01*
X269440Y72351D01*
X269388Y72091D01*
X269391Y72060D01*
X269387Y72035D01*
X269387Y48615D01*
X269387Y48613D01*
X269387Y48611D01*
X269408Y48465D01*
X269427Y48333D01*
X269427Y48332D01*
X269427Y48330D01*
X269486Y48201D01*
X269543Y48074D01*
X269544Y48072D01*
X269545Y48071D01*
X269635Y47965D01*
X269726Y47857D01*
X269728Y47856D01*
X269729Y47855D01*
X269742Y47847D01*
X269917Y47730D01*
X272485Y45162D01*
X273863Y41836D01*
X273863Y26236D01*
X272485Y22910D01*
X269908Y20333D01*
X269891Y20323D01*
X269769Y20251D01*
X269768Y20250D01*
X269766Y20249D01*
X269668Y20144D01*
X269574Y20044D01*
X269573Y20043D01*
X269572Y20042D01*
X269507Y19914D01*
X269443Y19792D01*
X269443Y19790D01*
X269442Y19789D01*
X269440Y19773D01*
X269388Y19513D01*
X269391Y19482D01*
X269387Y19457D01*
X269387Y18826D01*
X258870Y8309D01*
X256105Y5544D01*
X256087Y5520D01*
X256065Y5501D01*
X256002Y5407D01*
X255934Y5317D01*
X255923Y5289D01*
X255907Y5265D01*
X255873Y5157D01*
X255833Y5051D01*
X255830Y5022D01*
X255821Y4994D01*
X255818Y4880D01*
X255809Y4768D01*
X255815Y4739D01*
X255814Y4710D01*
X255843Y4600D01*
X255865Y4489D01*
X255878Y4463D01*
X255886Y4435D01*
X255944Y4337D01*
X255996Y4237D01*
X256016Y4215D01*
X256031Y4190D01*
X256114Y4113D01*
X256192Y4031D01*
X256217Y4016D01*
X256238Y3996D01*
X256339Y3944D01*
X256437Y3887D01*
X256465Y3880D01*
X256492Y3866D01*
X256569Y3853D01*
X256712Y3817D01*
X256775Y3819D01*
X256823Y3811D01*
X312674Y3811D01*
X312732Y3819D01*
X312790Y3817D01*
X312872Y3839D01*
X312956Y3851D01*
X313009Y3874D01*
X313065Y3889D01*
X313138Y3932D01*
X313215Y3967D01*
X313260Y4005D01*
X313310Y4034D01*
X313368Y4096D01*
X313432Y4150D01*
X313464Y4199D01*
X313504Y4242D01*
X313543Y4317D01*
X313590Y4387D01*
X313607Y4443D01*
X313634Y4495D01*
X313645Y4563D01*
X313675Y4658D01*
X313678Y4758D01*
X313689Y4826D01*
X313689Y184551D01*
X313682Y184605D01*
X313683Y184642D01*
X313676Y184665D01*
X313675Y184722D01*
X313657Y184776D01*
X313649Y184832D01*
X313614Y184910D01*
X313588Y184992D01*
X313556Y185040D01*
X313533Y185092D01*
X313478Y185157D01*
X313430Y185228D01*
X313386Y185265D01*
X313350Y185309D01*
X313278Y185356D01*
X313212Y185411D01*
X313160Y185435D01*
X313113Y185466D01*
X313031Y185492D01*
X312952Y185527D01*
X312896Y185535D01*
X312842Y185552D01*
X312756Y185554D01*
X312671Y185566D01*
X312615Y185558D01*
X312558Y185559D01*
X312475Y185538D01*
X312389Y185525D01*
X312338Y185502D01*
X312283Y185487D01*
X312209Y185444D01*
X312130Y185408D01*
X312087Y185371D01*
X312038Y185342D01*
X311979Y185279D01*
X311914Y185224D01*
X311888Y185182D01*
X311844Y185135D01*
X311784Y185019D01*
X311748Y184964D01*
X311744Y184952D01*
X311736Y184939D01*
X310856Y182814D01*
X307355Y179313D01*
X302780Y177418D01*
X297828Y177418D01*
X293254Y179313D01*
X289752Y182814D01*
X288542Y185736D01*
X288527Y185761D01*
X288518Y185789D01*
X288455Y185884D01*
X288398Y185981D01*
X288376Y186001D01*
X288360Y186026D01*
X288273Y186099D01*
X288191Y186176D01*
X288165Y186190D01*
X288142Y186209D01*
X288039Y186255D01*
X287938Y186306D01*
X287909Y186312D01*
X287883Y186324D01*
X287770Y186340D01*
X287659Y186361D01*
X287630Y186359D01*
X287601Y186363D01*
X287489Y186347D01*
X287376Y186337D01*
X287349Y186326D01*
X287320Y186322D01*
X287217Y186276D01*
X287111Y186235D01*
X287087Y186217D01*
X287061Y186205D01*
X286974Y186132D01*
X286884Y186063D01*
X286867Y186040D01*
X286844Y186021D01*
X286803Y185954D01*
X286714Y185836D01*
X286692Y185777D01*
X286666Y185736D01*
X285456Y182814D01*
X281955Y179313D01*
X277380Y177418D01*
X272428Y177418D01*
X267854Y179313D01*
X264352Y182814D01*
X262457Y187389D01*
X262457Y192341D01*
X264352Y196916D01*
X264585Y197148D01*
X264603Y197172D01*
X264625Y197191D01*
X264688Y197285D01*
X264756Y197375D01*
X264766Y197403D01*
X264783Y197427D01*
X264817Y197535D01*
X264857Y197641D01*
X264860Y197670D01*
X264868Y197698D01*
X264871Y197811D01*
X264881Y197924D01*
X264875Y197953D01*
X264876Y197982D01*
X264847Y198092D01*
X264825Y198203D01*
X264811Y198229D01*
X264804Y198257D01*
X264746Y198355D01*
X264694Y198455D01*
X264674Y198477D01*
X264659Y198502D01*
X264576Y198579D01*
X264498Y198661D01*
X264473Y198676D01*
X264451Y198696D01*
X264351Y198748D01*
X264253Y198805D01*
X264224Y198812D01*
X264198Y198826D01*
X264121Y198839D01*
X263977Y198875D01*
X263915Y198873D01*
X263867Y198881D01*
X262748Y198881D01*
X262662Y198869D01*
X262574Y198866D01*
X262522Y198849D01*
X262467Y198841D01*
X262387Y198806D01*
X262304Y198779D01*
X262264Y198751D01*
X262207Y198725D01*
X262094Y198629D01*
X262030Y198584D01*
X262010Y198563D01*
X259779Y197639D01*
X257365Y197639D01*
X255134Y198563D01*
X253427Y200270D01*
X252503Y202501D01*
X252503Y204915D01*
X253427Y207146D01*
X255134Y208853D01*
X256086Y209247D01*
X256160Y209291D01*
X256239Y209326D01*
X256282Y209363D01*
X256331Y209392D01*
X256390Y209454D01*
X256456Y209510D01*
X256487Y209557D01*
X256526Y209598D01*
X256565Y209675D01*
X256613Y209746D01*
X256630Y209800D01*
X256656Y209851D01*
X256673Y209935D01*
X256699Y210017D01*
X256700Y210074D01*
X256711Y210130D01*
X256704Y210215D01*
X256706Y210301D01*
X256692Y210356D01*
X256687Y210413D01*
X256656Y210494D01*
X256634Y210576D01*
X256605Y210625D01*
X256585Y210678D01*
X256533Y210747D01*
X256489Y210821D01*
X256448Y210860D01*
X256413Y210905D01*
X256344Y210957D01*
X256282Y211015D01*
X256231Y211041D01*
X256186Y211075D01*
X256105Y211106D01*
X256029Y211145D01*
X255980Y211153D01*
X255920Y211176D01*
X255775Y211187D01*
X255698Y211200D01*
X252929Y211200D01*
X252843Y211188D01*
X252755Y211185D01*
X252703Y211168D01*
X252648Y211160D01*
X252568Y211125D01*
X252485Y211098D01*
X252450Y211073D01*
X196182Y211073D01*
X192642Y214614D01*
X192572Y214666D01*
X192508Y214726D01*
X192459Y214752D01*
X192414Y214785D01*
X192333Y214816D01*
X192255Y214856D01*
X192207Y214864D01*
X192149Y214886D01*
X192001Y214898D01*
X191924Y214911D01*
X190817Y214911D01*
X188586Y215835D01*
X186879Y217542D01*
X185955Y219773D01*
X185955Y222187D01*
X186879Y224418D01*
X188586Y226125D01*
X190817Y227049D01*
X193231Y227049D01*
X195462Y226125D01*
X197169Y224418D01*
X198093Y222187D01*
X198093Y221080D01*
X198105Y220994D01*
X198106Y220970D01*
X198105Y220958D01*
X198106Y220955D01*
X198108Y220906D01*
X198125Y220854D01*
X198133Y220799D01*
X198167Y220722D01*
X198177Y220683D01*
X198183Y220673D01*
X198195Y220636D01*
X198223Y220596D01*
X198249Y220539D01*
X198295Y220485D01*
X198322Y220438D01*
X198363Y220400D01*
X198390Y220362D01*
X199252Y219500D01*
X199322Y219448D01*
X199386Y219388D01*
X199435Y219362D01*
X199480Y219329D01*
X199561Y219298D01*
X199639Y219258D01*
X199687Y219250D01*
X199745Y219228D01*
X199893Y219216D01*
X199970Y219203D01*
X248594Y219203D01*
X248680Y219215D01*
X248768Y219218D01*
X248820Y219235D01*
X248875Y219243D01*
X248955Y219278D01*
X249038Y219305D01*
X249073Y219330D01*
X262437Y219330D01*
X262439Y219330D01*
X262440Y219330D01*
X262580Y219350D01*
X262719Y219370D01*
X262720Y219370D01*
X262722Y219370D01*
X262848Y219427D01*
X262978Y219486D01*
X262979Y219487D01*
X262981Y219488D01*
X263088Y219579D01*
X263195Y219669D01*
X263196Y219671D01*
X263197Y219672D01*
X263205Y219685D01*
X263353Y219906D01*
X263362Y219935D01*
X263375Y219956D01*
X264352Y222316D01*
X267854Y225817D01*
X270775Y227027D01*
X270801Y227042D01*
X270829Y227051D01*
X270923Y227114D01*
X271020Y227172D01*
X271040Y227193D01*
X271065Y227209D01*
X271138Y227296D01*
X271215Y227378D01*
X271229Y227404D01*
X271248Y227427D01*
X271294Y227530D01*
X271346Y227631D01*
X271351Y227660D01*
X271363Y227687D01*
X271379Y227799D01*
X271401Y227910D01*
X271398Y227939D01*
X271402Y227968D01*
X271386Y228080D01*
X271376Y228193D01*
X271366Y228220D01*
X271361Y228249D01*
X271315Y228353D01*
X271274Y228458D01*
X271256Y228482D01*
X271244Y228509D01*
X271171Y228595D01*
X271103Y228685D01*
X271079Y228703D01*
X271060Y228725D01*
X270994Y228767D01*
X270875Y228855D01*
X270816Y228877D01*
X270775Y228903D01*
X267854Y230113D01*
X264352Y233614D01*
X262457Y238189D01*
X262457Y243141D01*
X264352Y247716D01*
X267854Y251217D01*
X272428Y253112D01*
X277380Y253112D01*
X281955Y251217D01*
X285456Y247716D01*
X286973Y244054D01*
X287008Y243994D01*
X287034Y243930D01*
X287080Y243872D01*
X287117Y243809D01*
X287168Y243761D01*
X287211Y243707D01*
X287270Y243664D01*
X287324Y243614D01*
X287386Y243582D01*
X287442Y243542D01*
X287511Y243517D01*
X287577Y243483D01*
X287645Y243470D01*
X287710Y243447D01*
X287783Y243443D01*
X287856Y243428D01*
X287925Y243434D01*
X287994Y243430D01*
X288066Y243446D01*
X288139Y243453D01*
X288203Y243478D01*
X288271Y243493D01*
X288336Y243528D01*
X288404Y243555D01*
X288459Y243596D01*
X288520Y243630D01*
X288572Y243682D01*
X288631Y243726D01*
X288672Y243782D01*
X288721Y243831D01*
X288750Y243886D01*
X288801Y243954D01*
X288842Y244062D01*
X288876Y244128D01*
X289240Y245248D01*
X290093Y246922D01*
X291198Y248443D01*
X292527Y249771D01*
X294047Y250876D01*
X295721Y251729D01*
X297509Y252310D01*
X298273Y252431D01*
X298273Y241681D01*
X298281Y241623D01*
X298280Y241565D01*
X298301Y241483D01*
X298313Y241400D01*
X298337Y241346D01*
X298351Y241290D01*
X298395Y241217D01*
X298429Y241140D01*
X298467Y241096D01*
X298497Y241045D01*
X298558Y240988D01*
X298613Y240923D01*
X298661Y240891D01*
X298704Y240851D01*
X298779Y240812D01*
X298849Y240766D01*
X298905Y240748D01*
X298957Y240721D01*
X299025Y240710D01*
X299120Y240680D01*
X299220Y240677D01*
X299288Y240666D01*
X301320Y240666D01*
X301378Y240674D01*
X301436Y240673D01*
X301518Y240694D01*
X301602Y240706D01*
X301655Y240730D01*
X301712Y240744D01*
X301784Y240787D01*
X301861Y240822D01*
X301906Y240860D01*
X301956Y240890D01*
X302014Y240951D01*
X302078Y241006D01*
X302110Y241054D01*
X302150Y241097D01*
X302189Y241172D01*
X302236Y241242D01*
X302253Y241298D01*
X302280Y241350D01*
X302291Y241418D01*
X302321Y241513D01*
X302324Y241613D01*
X302335Y241681D01*
X302335Y252431D01*
X303100Y252310D01*
X304887Y251729D01*
X306561Y250876D01*
X308082Y249771D01*
X309410Y248443D01*
X310515Y246922D01*
X311368Y245248D01*
X311708Y244201D01*
X311764Y244088D01*
X311815Y243974D01*
X311826Y243961D01*
X311833Y243945D01*
X311917Y243852D01*
X311999Y243757D01*
X312013Y243747D01*
X312024Y243735D01*
X312131Y243669D01*
X312235Y243599D01*
X312251Y243594D01*
X312266Y243585D01*
X312387Y243551D01*
X312506Y243513D01*
X312523Y243513D01*
X312539Y243508D01*
X312665Y243509D01*
X312790Y243506D01*
X312807Y243510D01*
X312824Y243510D01*
X312944Y243546D01*
X313065Y243578D01*
X313080Y243586D01*
X313096Y243591D01*
X313202Y243659D01*
X313310Y243723D01*
X313321Y243735D01*
X313336Y243745D01*
X313418Y243839D01*
X313504Y243930D01*
X313512Y243945D01*
X313523Y243958D01*
X313577Y244072D01*
X313634Y244183D01*
X313636Y244199D01*
X313644Y244215D01*
X313689Y244496D01*
X313688Y244505D01*
X313689Y244514D01*
X313689Y299422D01*
X313685Y299451D01*
X313688Y299480D01*
X313665Y299591D01*
X313649Y299703D01*
X313637Y299730D01*
X313632Y299759D01*
X313580Y299859D01*
X313533Y299962D01*
X313514Y299985D01*
X313501Y300011D01*
X313423Y300093D01*
X313350Y300179D01*
X313325Y300196D01*
X313305Y300217D01*
X313207Y300274D01*
X313113Y300337D01*
X313085Y300346D01*
X313060Y300361D01*
X312950Y300389D01*
X312842Y300423D01*
X312812Y300424D01*
X312784Y300431D01*
X312671Y300427D01*
X312558Y300430D01*
X312529Y300423D01*
X312500Y300422D01*
X312392Y300387D01*
X312283Y300358D01*
X312257Y300343D01*
X312229Y300334D01*
X312166Y300289D01*
X312038Y300213D01*
X311995Y300167D01*
X311956Y300139D01*
X306561Y294745D01*
X306526Y294698D01*
X306484Y294658D01*
X306441Y294585D01*
X306390Y294517D01*
X306370Y294463D01*
X306340Y294412D01*
X306319Y294331D01*
X306289Y294252D01*
X306284Y294193D01*
X306270Y294137D01*
X306273Y294053D01*
X306266Y293969D01*
X306277Y293911D01*
X306279Y293853D01*
X306305Y293773D01*
X306322Y293690D01*
X306348Y293638D01*
X306366Y293582D01*
X306407Y293526D01*
X306453Y293437D01*
X306521Y293365D01*
X306561Y293309D01*
X311278Y288593D01*
X311278Y286257D01*
X301752Y286257D01*
X301694Y286249D01*
X301636Y286251D01*
X301554Y286229D01*
X301471Y286217D01*
X301417Y286193D01*
X301361Y286179D01*
X301288Y286136D01*
X301211Y286101D01*
X301167Y286063D01*
X301116Y286033D01*
X301059Y285972D01*
X300994Y285917D01*
X300962Y285869D01*
X300922Y285826D01*
X300883Y285751D01*
X300837Y285681D01*
X300819Y285625D01*
X300792Y285573D01*
X300781Y285505D01*
X300751Y285410D01*
X300748Y285310D01*
X300737Y285242D01*
X300737Y284225D01*
X300735Y284225D01*
X300735Y285242D01*
X300727Y285300D01*
X300728Y285358D01*
X300707Y285440D01*
X300695Y285523D01*
X300671Y285577D01*
X300657Y285633D01*
X300614Y285706D01*
X300579Y285783D01*
X300541Y285828D01*
X300511Y285878D01*
X300450Y285936D01*
X300395Y286000D01*
X300347Y286032D01*
X300304Y286072D01*
X300229Y286111D01*
X300159Y286157D01*
X300103Y286175D01*
X300051Y286202D01*
X299983Y286213D01*
X299888Y286243D01*
X299788Y286246D01*
X299720Y286257D01*
X290194Y286257D01*
X290194Y288593D01*
X294911Y293309D01*
X294946Y293356D01*
X294988Y293396D01*
X295031Y293469D01*
X295082Y293536D01*
X295102Y293591D01*
X295132Y293641D01*
X295153Y293723D01*
X295183Y293802D01*
X295188Y293860D01*
X295202Y293917D01*
X295199Y294001D01*
X295206Y294085D01*
X295195Y294142D01*
X295193Y294201D01*
X295167Y294281D01*
X295150Y294364D01*
X295124Y294416D01*
X295106Y294471D01*
X295065Y294528D01*
X295019Y294616D01*
X294951Y294688D01*
X294911Y294745D01*
X289686Y299969D01*
X289686Y309123D01*
X296159Y315596D01*
X305313Y315596D01*
X311956Y308953D01*
X311980Y308935D01*
X311999Y308913D01*
X312093Y308850D01*
X312183Y308782D01*
X312211Y308771D01*
X312235Y308755D01*
X312343Y308721D01*
X312449Y308680D01*
X312478Y308678D01*
X312506Y308669D01*
X312620Y308666D01*
X312732Y308657D01*
X312761Y308663D01*
X312790Y308662D01*
X312900Y308690D01*
X313011Y308713D01*
X313037Y308726D01*
X313065Y308734D01*
X313163Y308792D01*
X313263Y308844D01*
X313285Y308864D01*
X313310Y308879D01*
X313387Y308961D01*
X313469Y309040D01*
X313484Y309065D01*
X313504Y309086D01*
X313556Y309187D01*
X313613Y309285D01*
X313620Y309313D01*
X313634Y309339D01*
X313647Y309417D01*
X313683Y309560D01*
X313681Y309623D01*
X313689Y309670D01*
X313689Y376174D01*
X313681Y376232D01*
X313683Y376290D01*
X313661Y376372D01*
X313649Y376456D01*
X313626Y376509D01*
X313611Y376565D01*
X313568Y376638D01*
X313533Y376715D01*
X313495Y376760D01*
X313466Y376810D01*
X313404Y376868D01*
X313350Y376932D01*
X313301Y376964D01*
X313258Y377004D01*
X313183Y377043D01*
X313113Y377090D01*
X313057Y377107D01*
X313005Y377134D01*
X312937Y377145D01*
X312842Y377175D01*
X312742Y377178D01*
X312674Y377189D01*
X249746Y377189D01*
X249688Y377181D01*
X249630Y377183D01*
X249548Y377161D01*
X249464Y377149D01*
X249411Y377126D01*
X249355Y377111D01*
X249282Y377068D01*
X249205Y377033D01*
X249160Y376995D01*
X249110Y376966D01*
X249052Y376904D01*
X248988Y376850D01*
X248956Y376801D01*
X248916Y376758D01*
X248877Y376683D01*
X248830Y376613D01*
X248813Y376557D01*
X248786Y376505D01*
X248775Y376437D01*
X248745Y376342D01*
X248742Y376242D01*
X248731Y376174D01*
X248731Y358823D01*
X246945Y357037D01*
X235919Y357037D01*
X234133Y358823D01*
X234133Y376174D01*
X234125Y376232D01*
X234127Y376290D01*
X234105Y376372D01*
X234093Y376456D01*
X234070Y376509D01*
X234055Y376565D01*
X234012Y376638D01*
X233977Y376715D01*
X233939Y376760D01*
X233910Y376810D01*
X233848Y376868D01*
X233794Y376932D01*
X233745Y376964D01*
X233702Y377004D01*
X233627Y377043D01*
X233557Y377090D01*
X233501Y377107D01*
X233449Y377134D01*
X233381Y377145D01*
X233286Y377175D01*
X233186Y377178D01*
X233118Y377189D01*
X209746Y377189D01*
X209688Y377181D01*
X209630Y377183D01*
X209548Y377161D01*
X209464Y377149D01*
X209411Y377126D01*
X209355Y377111D01*
X209282Y377068D01*
X209205Y377033D01*
X209160Y376995D01*
X209110Y376966D01*
X209052Y376904D01*
X208988Y376850D01*
X208956Y376801D01*
X208916Y376758D01*
X208877Y376683D01*
X208830Y376613D01*
X208813Y376557D01*
X208786Y376505D01*
X208775Y376437D01*
X208745Y376342D01*
X208742Y376242D01*
X208731Y376174D01*
X208731Y358823D01*
X206945Y357037D01*
X195919Y357037D01*
X194133Y358823D01*
X194133Y376174D01*
X194125Y376232D01*
X194127Y376290D01*
X194105Y376372D01*
X194093Y376456D01*
X194070Y376509D01*
X194055Y376565D01*
X194012Y376638D01*
X193977Y376715D01*
X193939Y376760D01*
X193910Y376810D01*
X193848Y376868D01*
X193794Y376932D01*
X193745Y376964D01*
X193702Y377004D01*
X193627Y377043D01*
X193557Y377090D01*
X193501Y377107D01*
X193449Y377134D01*
X193381Y377145D01*
X193286Y377175D01*
X193186Y377178D01*
X193118Y377189D01*
X169746Y377189D01*
X169688Y377181D01*
X169630Y377183D01*
X169548Y377161D01*
X169464Y377149D01*
X169411Y377126D01*
X169355Y377111D01*
X169282Y377068D01*
X169205Y377033D01*
X169160Y376995D01*
X169110Y376966D01*
X169052Y376904D01*
X168988Y376850D01*
X168956Y376801D01*
X168916Y376758D01*
X168877Y376683D01*
X168830Y376613D01*
X168813Y376557D01*
X168786Y376505D01*
X168775Y376437D01*
X168745Y376342D01*
X168742Y376242D01*
X168731Y376174D01*
X168731Y358823D01*
X166945Y357037D01*
X155919Y357037D01*
X154133Y358823D01*
X154133Y376174D01*
X154125Y376232D01*
X154127Y376290D01*
X154105Y376372D01*
X154093Y376456D01*
X154070Y376509D01*
X154055Y376565D01*
X154012Y376638D01*
X153977Y376715D01*
X153939Y376760D01*
X153910Y376810D01*
X153848Y376868D01*
X153794Y376932D01*
X153745Y376964D01*
X153702Y377004D01*
X153627Y377043D01*
X153557Y377090D01*
X153501Y377107D01*
X153449Y377134D01*
X153381Y377145D01*
X153286Y377175D01*
X153186Y377178D01*
X153118Y377189D01*
X129746Y377189D01*
X129688Y377181D01*
X129630Y377183D01*
X129548Y377161D01*
X129464Y377149D01*
X129411Y377126D01*
X129355Y377111D01*
X129282Y377068D01*
X129205Y377033D01*
X129160Y376995D01*
X129110Y376966D01*
X129052Y376904D01*
X128988Y376850D01*
X128956Y376801D01*
X128916Y376758D01*
X128877Y376683D01*
X128830Y376613D01*
X128813Y376557D01*
X128786Y376505D01*
X128775Y376437D01*
X128745Y376342D01*
X128742Y376242D01*
X128731Y376174D01*
X128731Y373666D01*
X128739Y373608D01*
X128737Y373550D01*
X128759Y373468D01*
X128771Y373384D01*
X128794Y373331D01*
X128809Y373275D01*
X128852Y373202D01*
X128887Y373125D01*
X128925Y373080D01*
X128954Y373030D01*
X129016Y372972D01*
X129070Y372908D01*
X129119Y372876D01*
X129162Y372836D01*
X129237Y372797D01*
X129307Y372750D01*
X129363Y372733D01*
X129415Y372706D01*
X129483Y372695D01*
X129578Y372665D01*
X129678Y372662D01*
X129746Y372651D01*
X134494Y372651D01*
X137172Y369972D01*
X152262Y354882D01*
X154941Y352204D01*
X154941Y319350D01*
X154953Y319264D01*
X154956Y319176D01*
X154973Y319124D01*
X154981Y319069D01*
X155016Y318989D01*
X155043Y318906D01*
X155071Y318866D01*
X155097Y318809D01*
X155193Y318696D01*
X155195Y318693D01*
X155195Y310592D01*
X155195Y310590D01*
X155195Y310589D01*
X155215Y310447D01*
X155235Y310310D01*
X155235Y310309D01*
X155235Y310307D01*
X155293Y310180D01*
X155351Y310051D01*
X155352Y310050D01*
X155353Y310048D01*
X155444Y309941D01*
X155534Y309834D01*
X155536Y309833D01*
X155537Y309832D01*
X155550Y309824D01*
X155771Y309676D01*
X155800Y309667D01*
X155821Y309654D01*
X156346Y309437D01*
X158053Y307730D01*
X158977Y305499D01*
X158977Y303085D01*
X158053Y300854D01*
X156346Y299147D01*
X154115Y298223D01*
X151701Y298223D01*
X149470Y299147D01*
X147763Y300854D01*
X146839Y303085D01*
X146839Y305499D01*
X146988Y305858D01*
X146996Y305888D01*
X147010Y305916D01*
X147023Y305993D01*
X147059Y306133D01*
X147057Y306198D01*
X147065Y306247D01*
X147065Y310022D01*
X147061Y310051D01*
X147064Y310080D01*
X147041Y310191D01*
X147025Y310303D01*
X147013Y310330D01*
X147008Y310359D01*
X146956Y310459D01*
X146909Y310563D01*
X146890Y310585D01*
X146877Y310611D01*
X146799Y310693D01*
X146726Y310780D01*
X146701Y310796D01*
X146681Y310817D01*
X146583Y310874D01*
X146489Y310937D01*
X146461Y310946D01*
X146436Y310961D01*
X146326Y310989D01*
X146218Y311023D01*
X146189Y311024D01*
X146160Y311031D01*
X146047Y311027D01*
X145934Y311030D01*
X145905Y311023D01*
X145876Y311022D01*
X145768Y310987D01*
X145659Y310959D01*
X145633Y310944D01*
X145605Y310934D01*
X145542Y310889D01*
X145414Y310813D01*
X145371Y310768D01*
X145332Y310740D01*
X145170Y310577D01*
X142939Y309653D01*
X140525Y309653D01*
X138294Y310577D01*
X137512Y311360D01*
X137442Y311412D01*
X137378Y311472D01*
X137329Y311498D01*
X137284Y311531D01*
X137203Y311562D01*
X137125Y311602D01*
X137077Y311610D01*
X137019Y311632D01*
X136871Y311644D01*
X136794Y311657D01*
X110838Y311657D01*
X98297Y324198D01*
X98297Y326022D01*
X98289Y326080D01*
X98291Y326138D01*
X98269Y326220D01*
X98257Y326304D01*
X98234Y326357D01*
X98219Y326413D01*
X98176Y326486D01*
X98141Y326563D01*
X98103Y326608D01*
X98074Y326658D01*
X98012Y326716D01*
X97958Y326780D01*
X97909Y326812D01*
X97866Y326852D01*
X97791Y326891D01*
X97721Y326938D01*
X97665Y326955D01*
X97613Y326982D01*
X97545Y326993D01*
X97450Y327023D01*
X97350Y327026D01*
X97282Y327037D01*
X95919Y327037D01*
X94133Y328823D01*
X94133Y348349D01*
X95919Y350135D01*
X106945Y350135D01*
X108731Y348349D01*
X108731Y328823D01*
X107668Y327760D01*
X107633Y327714D01*
X107590Y327673D01*
X107548Y327601D01*
X107497Y327533D01*
X107476Y327478D01*
X107447Y327428D01*
X107426Y327346D01*
X107396Y327267D01*
X107391Y327209D01*
X107376Y327153D01*
X107379Y327068D01*
X107372Y326984D01*
X107384Y326927D01*
X107386Y326868D01*
X107411Y326788D01*
X107428Y326705D01*
X107455Y326653D01*
X107473Y326598D01*
X107513Y326542D01*
X107559Y326453D01*
X107628Y326381D01*
X107668Y326325D01*
X113908Y320084D01*
X113978Y320032D01*
X114042Y319972D01*
X114091Y319946D01*
X114136Y319913D01*
X114217Y319882D01*
X114295Y319842D01*
X114343Y319834D01*
X114401Y319812D01*
X114549Y319800D01*
X114626Y319787D01*
X136794Y319787D01*
X136880Y319799D01*
X136968Y319802D01*
X137020Y319819D01*
X137075Y319827D01*
X137155Y319862D01*
X137238Y319889D01*
X137278Y319917D01*
X137335Y319943D01*
X137448Y320039D01*
X137512Y320084D01*
X138294Y320867D01*
X140525Y321791D01*
X142939Y321791D01*
X145237Y320839D01*
X145305Y320788D01*
X145333Y320777D01*
X145357Y320761D01*
X145465Y320727D01*
X145571Y320686D01*
X145600Y320684D01*
X145628Y320675D01*
X145741Y320672D01*
X145854Y320663D01*
X145883Y320668D01*
X145912Y320668D01*
X146022Y320696D01*
X146133Y320718D01*
X146159Y320732D01*
X146187Y320739D01*
X146285Y320797D01*
X146385Y320849D01*
X146406Y320870D01*
X146432Y320885D01*
X146509Y320967D01*
X146591Y321045D01*
X146606Y321071D01*
X146626Y321092D01*
X146678Y321193D01*
X146735Y321290D01*
X146742Y321319D01*
X146756Y321345D01*
X146769Y321422D01*
X146805Y321566D01*
X146803Y321628D01*
X146811Y321676D01*
X146811Y326022D01*
X146803Y326080D01*
X146805Y326138D01*
X146783Y326220D01*
X146771Y326304D01*
X146748Y326357D01*
X146733Y326413D01*
X146690Y326486D01*
X146655Y326563D01*
X146617Y326608D01*
X146588Y326658D01*
X146526Y326716D01*
X146472Y326780D01*
X146423Y326812D01*
X146380Y326852D01*
X146305Y326891D01*
X146235Y326938D01*
X146179Y326955D01*
X146127Y326982D01*
X146059Y326993D01*
X145964Y327023D01*
X145864Y327026D01*
X145796Y327037D01*
X135919Y327037D01*
X134133Y328823D01*
X134133Y348349D01*
X135919Y350135D01*
X143062Y350135D01*
X143091Y350139D01*
X143120Y350136D01*
X143231Y350159D01*
X143343Y350175D01*
X143370Y350187D01*
X143399Y350192D01*
X143499Y350244D01*
X143603Y350291D01*
X143625Y350310D01*
X143651Y350323D01*
X143733Y350401D01*
X143820Y350474D01*
X143836Y350499D01*
X143857Y350519D01*
X143915Y350617D01*
X143977Y350711D01*
X143986Y350739D01*
X144001Y350764D01*
X144029Y350874D01*
X144063Y350982D01*
X144064Y351012D01*
X144071Y351040D01*
X144068Y351153D01*
X144070Y351266D01*
X144063Y351295D01*
X144062Y351324D01*
X144027Y351432D01*
X143999Y351541D01*
X143984Y351567D01*
X143975Y351595D01*
X143929Y351658D01*
X143853Y351786D01*
X143808Y351829D01*
X143780Y351868D01*
X131424Y364224D01*
X131354Y364276D01*
X131290Y364336D01*
X131241Y364362D01*
X131197Y364395D01*
X131115Y364426D01*
X131037Y364466D01*
X130989Y364474D01*
X130931Y364496D01*
X130783Y364508D01*
X130706Y364521D01*
X129746Y364521D01*
X129688Y364513D01*
X129630Y364515D01*
X129548Y364493D01*
X129464Y364481D01*
X129411Y364458D01*
X129355Y364443D01*
X129282Y364400D01*
X129205Y364365D01*
X129160Y364327D01*
X129110Y364298D01*
X129052Y364236D01*
X128988Y364182D01*
X128956Y364133D01*
X128916Y364090D01*
X128877Y364015D01*
X128830Y363945D01*
X128813Y363889D01*
X128786Y363837D01*
X128775Y363769D01*
X128745Y363674D01*
X128742Y363574D01*
X128731Y363506D01*
X128731Y358823D01*
X126945Y357037D01*
X115919Y357037D01*
X114133Y358823D01*
X114133Y376174D01*
X114125Y376232D01*
X114127Y376290D01*
X114105Y376372D01*
X114093Y376456D01*
X114070Y376509D01*
X114055Y376565D01*
X114012Y376638D01*
X113977Y376715D01*
X113939Y376760D01*
X113910Y376810D01*
X113848Y376868D01*
X113794Y376932D01*
X113745Y376964D01*
X113702Y377004D01*
X113627Y377043D01*
X113557Y377090D01*
X113501Y377107D01*
X113449Y377134D01*
X113381Y377145D01*
X113286Y377175D01*
X113186Y377178D01*
X113118Y377189D01*
X89746Y377189D01*
X89688Y377181D01*
X89630Y377183D01*
X89548Y377161D01*
X89464Y377149D01*
X89411Y377126D01*
X89355Y377111D01*
X89282Y377068D01*
X89205Y377033D01*
X89160Y376995D01*
X89110Y376966D01*
X89052Y376904D01*
X88988Y376850D01*
X88956Y376801D01*
X88916Y376758D01*
X88877Y376683D01*
X88830Y376613D01*
X88813Y376557D01*
X88786Y376505D01*
X88775Y376437D01*
X88745Y376342D01*
X88742Y376242D01*
X88731Y376174D01*
X88731Y358823D01*
X86945Y357037D01*
X86512Y357037D01*
X86454Y357029D01*
X86396Y357031D01*
X86314Y357009D01*
X86230Y356997D01*
X86177Y356974D01*
X86121Y356959D01*
X86048Y356916D01*
X85971Y356881D01*
X85926Y356843D01*
X85876Y356814D01*
X85818Y356752D01*
X85754Y356698D01*
X85722Y356649D01*
X85682Y356606D01*
X85643Y356531D01*
X85596Y356461D01*
X85579Y356405D01*
X85552Y356353D01*
X85541Y356285D01*
X85511Y356190D01*
X85508Y356090D01*
X85497Y356022D01*
X85497Y338016D01*
X83102Y335622D01*
X83058Y335620D01*
X83006Y335603D01*
X82951Y335595D01*
X82871Y335560D01*
X82788Y335533D01*
X82748Y335505D01*
X82691Y335479D01*
X82578Y335383D01*
X82514Y335338D01*
X70656Y323480D01*
X70604Y323410D01*
X70544Y323346D01*
X70518Y323297D01*
X70485Y323252D01*
X70454Y323171D01*
X70414Y323093D01*
X70406Y323045D01*
X70384Y322987D01*
X70372Y322839D01*
X70359Y322762D01*
X70359Y317594D01*
X68850Y316086D01*
X68798Y316016D01*
X68738Y315952D01*
X68712Y315903D01*
X68679Y315858D01*
X68648Y315777D01*
X68608Y315699D01*
X68600Y315651D01*
X68578Y315593D01*
X68566Y315445D01*
X68553Y315368D01*
X68553Y314261D01*
X67629Y312030D01*
X65922Y310323D01*
X63691Y309399D01*
X61277Y309399D01*
X59046Y310323D01*
X57339Y312030D01*
X56415Y314261D01*
X56415Y316675D01*
X57339Y318906D01*
X59046Y320613D01*
X61295Y321544D01*
X61330Y321543D01*
X61412Y321565D01*
X61496Y321577D01*
X61549Y321600D01*
X61605Y321615D01*
X61678Y321658D01*
X61755Y321693D01*
X61800Y321731D01*
X61850Y321760D01*
X61908Y321822D01*
X61972Y321876D01*
X62004Y321925D01*
X62044Y321968D01*
X62083Y322043D01*
X62130Y322113D01*
X62147Y322169D01*
X62174Y322221D01*
X62185Y322289D01*
X62215Y322384D01*
X62218Y322484D01*
X62229Y322552D01*
X62229Y326550D01*
X77070Y341390D01*
X77122Y341460D01*
X77182Y341524D01*
X77208Y341573D01*
X77241Y341618D01*
X77272Y341699D01*
X77312Y341777D01*
X77320Y341825D01*
X77342Y341883D01*
X77354Y342031D01*
X77367Y342108D01*
X77367Y356022D01*
X77359Y356080D01*
X77361Y356138D01*
X77339Y356220D01*
X77327Y356304D01*
X77304Y356357D01*
X77289Y356413D01*
X77246Y356486D01*
X77211Y356563D01*
X77173Y356608D01*
X77144Y356658D01*
X77082Y356716D01*
X77028Y356780D01*
X76979Y356812D01*
X76936Y356852D01*
X76861Y356891D01*
X76791Y356938D01*
X76735Y356955D01*
X76683Y356982D01*
X76615Y356993D01*
X76520Y357023D01*
X76420Y357026D01*
X76352Y357037D01*
X75919Y357037D01*
X74133Y358823D01*
X74133Y376174D01*
X74125Y376232D01*
X74127Y376290D01*
X74105Y376372D01*
X74093Y376456D01*
X74070Y376509D01*
X74055Y376565D01*
X74012Y376638D01*
X73977Y376715D01*
X73939Y376760D01*
X73910Y376810D01*
X73848Y376868D01*
X73794Y376932D01*
X73745Y376964D01*
X73702Y377004D01*
X73627Y377043D01*
X73557Y377090D01*
X73501Y377107D01*
X73449Y377134D01*
X73381Y377145D01*
X73286Y377175D01*
X73186Y377178D01*
X73118Y377189D01*
X4826Y377189D01*
X4768Y377181D01*
X4710Y377183D01*
X4628Y377161D01*
X4544Y377149D01*
X4491Y377126D01*
X4435Y377111D01*
X4362Y377068D01*
X4285Y377033D01*
X4240Y376995D01*
X4190Y376966D01*
X4132Y376904D01*
X4068Y376850D01*
X4036Y376801D01*
X3996Y376758D01*
X3957Y376683D01*
X3910Y376613D01*
X3893Y376557D01*
X3866Y376505D01*
X3855Y376437D01*
X3825Y376342D01*
X3822Y376242D01*
X3811Y376174D01*
X3811Y4826D01*
X3819Y4768D01*
X3817Y4710D01*
X3839Y4628D01*
X3851Y4544D01*
X3874Y4491D01*
X3889Y4435D01*
X3932Y4362D01*
X3967Y4285D01*
X4005Y4240D01*
X4034Y4190D01*
X4096Y4132D01*
X4150Y4068D01*
X4199Y4036D01*
X4242Y3996D01*
X4317Y3957D01*
X4387Y3910D01*
X4443Y3893D01*
X4495Y3866D01*
X4563Y3855D01*
X4658Y3825D01*
X4758Y3822D01*
X4826Y3811D01*
X138655Y3811D01*
X138685Y3815D01*
G37*
%LPC*%
G36*
X27809Y329439D02*
X27809Y329439D01*
X20528Y332455D01*
X14955Y338028D01*
X11939Y345309D01*
X11939Y353191D01*
X14955Y360472D01*
X20528Y366045D01*
X27809Y369061D01*
X35691Y369061D01*
X42972Y366045D01*
X48545Y360472D01*
X51561Y353191D01*
X51561Y345309D01*
X48545Y338028D01*
X42972Y332455D01*
X35691Y329439D01*
X27809Y329439D01*
G37*
%LPD*%
%LPC*%
G36*
X27809Y11939D02*
X27809Y11939D01*
X20528Y14955D01*
X14955Y20528D01*
X11939Y27809D01*
X11939Y35691D01*
X14955Y42972D01*
X20528Y48545D01*
X27809Y51561D01*
X35691Y51561D01*
X42972Y48545D01*
X48545Y42972D01*
X51561Y35691D01*
X51561Y27809D01*
X48545Y20528D01*
X42972Y14955D01*
X35691Y11939D01*
X27809Y11939D01*
G37*
%LPD*%
%LPC*%
G36*
X150939Y258853D02*
X150939Y258853D01*
X148708Y259777D01*
X147001Y261484D01*
X146077Y263715D01*
X146077Y266129D01*
X147001Y268360D01*
X148708Y270067D01*
X150939Y270991D01*
X153353Y270991D01*
X155332Y270171D01*
X155334Y270171D01*
X155335Y270170D01*
X155469Y270136D01*
X155608Y270100D01*
X155609Y270100D01*
X155611Y270100D01*
X155751Y270104D01*
X155892Y270108D01*
X155893Y270109D01*
X155895Y270109D01*
X156028Y270152D01*
X156162Y270195D01*
X156164Y270196D01*
X156165Y270196D01*
X156177Y270205D01*
X156399Y270353D01*
X156418Y270377D01*
X156439Y270391D01*
X176740Y290692D01*
X176792Y290762D01*
X176852Y290826D01*
X176878Y290875D01*
X176911Y290920D01*
X176942Y291001D01*
X176982Y291079D01*
X176990Y291127D01*
X177012Y291185D01*
X177024Y291333D01*
X177037Y291410D01*
X177037Y310784D01*
X177025Y310870D01*
X177022Y310958D01*
X177005Y311010D01*
X176997Y311065D01*
X176962Y311145D01*
X176935Y311228D01*
X176907Y311268D01*
X176881Y311325D01*
X176785Y311438D01*
X176740Y311502D01*
X175957Y312284D01*
X175033Y314515D01*
X175033Y316929D01*
X175957Y319160D01*
X177664Y320867D01*
X179895Y321791D01*
X182309Y321791D01*
X184540Y320867D01*
X186247Y319160D01*
X187171Y316929D01*
X187171Y314515D01*
X186247Y312284D01*
X185464Y311502D01*
X185412Y311432D01*
X185352Y311368D01*
X185326Y311319D01*
X185293Y311274D01*
X185262Y311193D01*
X185222Y311115D01*
X185214Y311067D01*
X185192Y311009D01*
X185180Y310861D01*
X185167Y310784D01*
X185167Y287622D01*
X158402Y260857D01*
X157084Y260857D01*
X156998Y260845D01*
X156910Y260842D01*
X156858Y260825D01*
X156803Y260817D01*
X156723Y260782D01*
X156640Y260755D01*
X156600Y260727D01*
X156543Y260701D01*
X156430Y260605D01*
X156366Y260560D01*
X155584Y259777D01*
X153353Y258853D01*
X150939Y258853D01*
G37*
%LPD*%
%LPC*%
G36*
X213014Y71565D02*
X213014Y71565D01*
X209688Y72943D01*
X207143Y75488D01*
X205765Y78814D01*
X205765Y94414D01*
X207143Y97740D01*
X209688Y100285D01*
X213014Y101663D01*
X216614Y101663D01*
X219940Y100285D01*
X222485Y97740D01*
X223863Y94414D01*
X223863Y78814D01*
X222485Y75488D01*
X219940Y72943D01*
X216614Y71565D01*
X213014Y71565D01*
G37*
%LPD*%
%LPC*%
G36*
X213014Y18987D02*
X213014Y18987D01*
X209688Y20365D01*
X207143Y22910D01*
X205765Y26236D01*
X205765Y41836D01*
X207143Y45162D01*
X209688Y47707D01*
X213014Y49085D01*
X216614Y49085D01*
X219940Y47707D01*
X222485Y45162D01*
X223863Y41836D01*
X223863Y26236D01*
X222485Y22910D01*
X219940Y20365D01*
X216614Y18987D01*
X213014Y18987D01*
G37*
%LPD*%
%LPC*%
G36*
X238014Y18987D02*
X238014Y18987D01*
X234688Y20365D01*
X232143Y22910D01*
X230765Y26236D01*
X230765Y41836D01*
X232143Y45162D01*
X234688Y47707D01*
X238014Y49085D01*
X241614Y49085D01*
X244940Y47707D01*
X247485Y45162D01*
X248863Y41836D01*
X248863Y26236D01*
X247485Y22910D01*
X244940Y20365D01*
X241614Y18987D01*
X238014Y18987D01*
G37*
%LPD*%
%LPC*%
G36*
X175919Y327037D02*
X175919Y327037D01*
X174133Y328823D01*
X174133Y348349D01*
X175919Y350135D01*
X186945Y350135D01*
X188731Y348349D01*
X188731Y328823D01*
X186945Y327037D01*
X175919Y327037D01*
G37*
%LPD*%
%LPC*%
G36*
X215919Y327037D02*
X215919Y327037D01*
X214133Y328823D01*
X214133Y348349D01*
X215919Y350135D01*
X226945Y350135D01*
X228731Y348349D01*
X228731Y328823D01*
X226945Y327037D01*
X215919Y327037D01*
G37*
%LPD*%
%LPC*%
G36*
X75919Y137037D02*
X75919Y137037D01*
X74133Y138823D01*
X74133Y158349D01*
X75919Y160135D01*
X86945Y160135D01*
X88731Y158349D01*
X88731Y138823D01*
X86945Y137037D01*
X75919Y137037D01*
G37*
%LPD*%
%LPC*%
G36*
X255919Y107037D02*
X255919Y107037D01*
X254133Y108823D01*
X254133Y128349D01*
X255919Y130135D01*
X266945Y130135D01*
X268731Y128349D01*
X268731Y108823D01*
X266945Y107037D01*
X255919Y107037D01*
G37*
%LPD*%
%LPC*%
G36*
X175919Y107037D02*
X175919Y107037D01*
X174133Y108823D01*
X174133Y128349D01*
X175919Y130135D01*
X186945Y130135D01*
X188731Y128349D01*
X188731Y108823D01*
X186945Y107037D01*
X175919Y107037D01*
G37*
%LPD*%
%LPC*%
G36*
X195919Y137037D02*
X195919Y137037D01*
X194133Y138823D01*
X194133Y158349D01*
X195919Y160135D01*
X206945Y160135D01*
X208731Y158349D01*
X208731Y138823D01*
X206945Y137037D01*
X195919Y137037D01*
G37*
%LPD*%
%LPC*%
G36*
X291813Y36035D02*
X291813Y36035D01*
X291813Y48346D01*
X292305Y48249D01*
X293860Y47605D01*
X295258Y46670D01*
X296448Y45480D01*
X297383Y44082D01*
X298027Y42527D01*
X298355Y40877D01*
X298355Y36035D01*
X291813Y36035D01*
G37*
%LPD*%
%LPC*%
G36*
X164229Y88740D02*
X164229Y88740D01*
X164229Y101051D01*
X164721Y100954D01*
X166275Y100310D01*
X167674Y99375D01*
X168864Y98185D01*
X169798Y96787D01*
X170442Y95232D01*
X170771Y93582D01*
X170771Y88740D01*
X164229Y88740D01*
G37*
%LPD*%
%LPC*%
G36*
X291813Y88613D02*
X291813Y88613D01*
X291813Y100924D01*
X292305Y100827D01*
X293860Y100183D01*
X295258Y99248D01*
X296448Y98058D01*
X297383Y96660D01*
X298027Y95105D01*
X298355Y93455D01*
X298355Y88613D01*
X291813Y88613D01*
G37*
%LPD*%
%LPC*%
G36*
X164051Y36289D02*
X164051Y36289D01*
X164051Y48600D01*
X164543Y48503D01*
X166098Y47859D01*
X167496Y46924D01*
X168686Y45734D01*
X169621Y44336D01*
X170265Y42781D01*
X170593Y41131D01*
X170593Y36289D01*
X164051Y36289D01*
G37*
%LPD*%
%LPC*%
G36*
X164229Y84742D02*
X164229Y84742D01*
X170771Y84742D01*
X170771Y79900D01*
X170442Y78250D01*
X169798Y76695D01*
X168864Y75297D01*
X167674Y74107D01*
X166275Y73172D01*
X164721Y72528D01*
X164229Y72431D01*
X164229Y84742D01*
G37*
%LPD*%
%LPC*%
G36*
X291813Y84615D02*
X291813Y84615D01*
X298355Y84615D01*
X298355Y79773D01*
X298027Y78123D01*
X297383Y76568D01*
X296448Y75170D01*
X295258Y73980D01*
X293860Y73045D01*
X292305Y72401D01*
X291813Y72304D01*
X291813Y84615D01*
G37*
%LPD*%
%LPC*%
G36*
X164051Y32291D02*
X164051Y32291D01*
X170593Y32291D01*
X170593Y27449D01*
X170265Y25799D01*
X169621Y24244D01*
X168686Y22846D01*
X167496Y21656D01*
X166098Y20721D01*
X164543Y20077D01*
X164051Y19980D01*
X164051Y32291D01*
G37*
%LPD*%
%LPC*%
G36*
X291813Y32037D02*
X291813Y32037D01*
X298355Y32037D01*
X298355Y27195D01*
X298027Y25545D01*
X297383Y23990D01*
X296448Y22592D01*
X295258Y21402D01*
X293860Y20467D01*
X292305Y19823D01*
X291813Y19726D01*
X291813Y32037D01*
G37*
%LPD*%
%LPC*%
G36*
X153689Y88740D02*
X153689Y88740D01*
X153689Y93582D01*
X154017Y95232D01*
X154661Y96787D01*
X155596Y98185D01*
X156785Y99375D01*
X158184Y100310D01*
X159739Y100954D01*
X160230Y101051D01*
X160230Y88740D01*
X153689Y88740D01*
G37*
%LPD*%
%LPC*%
G36*
X281273Y88613D02*
X281273Y88613D01*
X281273Y93455D01*
X281601Y95105D01*
X282245Y96660D01*
X283180Y98058D01*
X284370Y99248D01*
X285768Y100183D01*
X287323Y100827D01*
X287815Y100924D01*
X287815Y88613D01*
X281273Y88613D01*
G37*
%LPD*%
%LPC*%
G36*
X153511Y36289D02*
X153511Y36289D01*
X153511Y41131D01*
X153839Y42781D01*
X154483Y44336D01*
X155418Y45734D01*
X156608Y46924D01*
X158006Y47859D01*
X159561Y48503D01*
X160053Y48600D01*
X160053Y36289D01*
X153511Y36289D01*
G37*
%LPD*%
%LPC*%
G36*
X281273Y36035D02*
X281273Y36035D01*
X281273Y40877D01*
X281601Y42527D01*
X282245Y44082D01*
X283180Y45480D01*
X284370Y46670D01*
X285768Y47605D01*
X287323Y48249D01*
X287815Y48346D01*
X287815Y36035D01*
X281273Y36035D01*
G37*
%LPD*%
%LPC*%
G36*
X159739Y72528D02*
X159739Y72528D01*
X158184Y73172D01*
X156785Y74107D01*
X155596Y75297D01*
X154661Y76695D01*
X154017Y78250D01*
X153689Y79900D01*
X153689Y84742D01*
X160230Y84742D01*
X160230Y72431D01*
X159739Y72528D01*
G37*
%LPD*%
%LPC*%
G36*
X287323Y72401D02*
X287323Y72401D01*
X285768Y73045D01*
X284370Y73980D01*
X283180Y75170D01*
X282245Y76568D01*
X281601Y78123D01*
X281273Y79773D01*
X281273Y84615D01*
X287815Y84615D01*
X287815Y72304D01*
X287323Y72401D01*
G37*
%LPD*%
%LPC*%
G36*
X159561Y20077D02*
X159561Y20077D01*
X158006Y20721D01*
X156608Y21656D01*
X155418Y22846D01*
X154483Y24244D01*
X153839Y25799D01*
X153511Y27449D01*
X153511Y32291D01*
X160053Y32291D01*
X160053Y19980D01*
X159561Y20077D01*
G37*
%LPD*%
%LPC*%
G36*
X287323Y19823D02*
X287323Y19823D01*
X285768Y20467D01*
X284370Y21402D01*
X283180Y22592D01*
X282245Y23990D01*
X281601Y25545D01*
X281273Y27195D01*
X281273Y32037D01*
X287815Y32037D01*
X287815Y19726D01*
X287323Y19823D01*
G37*
%LPD*%
%LPC*%
G36*
X302767Y273684D02*
X302767Y273684D01*
X302767Y282195D01*
X311278Y282195D01*
X311278Y279859D01*
X305103Y273684D01*
X302767Y273684D01*
G37*
%LPD*%
%LPC*%
G36*
X27177Y79628D02*
X27177Y79628D01*
X27177Y88139D01*
X35688Y88139D01*
X35688Y85803D01*
X29513Y79628D01*
X27177Y79628D01*
G37*
%LPD*%
%LPC*%
G36*
X20779Y79628D02*
X20779Y79628D01*
X14604Y85803D01*
X14604Y88139D01*
X23115Y88139D01*
X23115Y79628D01*
X20779Y79628D01*
G37*
%LPD*%
%LPC*%
G36*
X296369Y273684D02*
X296369Y273684D01*
X290194Y279859D01*
X290194Y282195D01*
X298705Y282195D01*
X298705Y273684D01*
X296369Y273684D01*
G37*
%LPD*%
%LPC*%
G36*
X263463Y340617D02*
X263463Y340617D01*
X263463Y349627D01*
X266016Y349627D01*
X266663Y349454D01*
X267242Y349119D01*
X267715Y348646D01*
X268050Y348067D01*
X268223Y347420D01*
X268223Y340617D01*
X263463Y340617D01*
G37*
%LPD*%
%LPC*%
G36*
X263463Y327545D02*
X263463Y327545D01*
X263463Y336555D01*
X268223Y336555D01*
X268223Y329752D01*
X268050Y329105D01*
X267715Y328526D01*
X267242Y328053D01*
X266663Y327718D01*
X266016Y327545D01*
X263463Y327545D01*
G37*
%LPD*%
%LPC*%
G36*
X254641Y340617D02*
X254641Y340617D01*
X254641Y347420D01*
X254814Y348067D01*
X255149Y348646D01*
X255622Y349119D01*
X256201Y349454D01*
X256848Y349627D01*
X259401Y349627D01*
X259401Y340617D01*
X254641Y340617D01*
G37*
%LPD*%
%LPC*%
G36*
X256848Y327545D02*
X256848Y327545D01*
X256201Y327718D01*
X255622Y328053D01*
X255149Y328526D01*
X254814Y329105D01*
X254641Y329752D01*
X254641Y336555D01*
X259401Y336555D01*
X259401Y327545D01*
X256848Y327545D01*
G37*
%LPD*%
%LPC*%
G36*
X261431Y338585D02*
X261431Y338585D01*
X261431Y338587D01*
X261433Y338587D01*
X261433Y338585D01*
X261431Y338585D01*
G37*
%LPD*%
D10*
X274904Y189865D03*
X300304Y189865D03*
X274904Y215265D03*
X300304Y215265D03*
X274904Y240665D03*
X300304Y240665D03*
D11*
X81432Y368586D03*
X101432Y338586D03*
X121432Y368586D03*
X141432Y338586D03*
X161432Y368586D03*
X181432Y338586D03*
X201432Y368586D03*
X221432Y338586D03*
X241432Y368586D03*
X261432Y338586D03*
X261432Y118586D03*
X241432Y148586D03*
X221432Y118586D03*
X201432Y148586D03*
X181432Y118586D03*
X161432Y148586D03*
X141432Y118586D03*
X121432Y148586D03*
X101432Y118586D03*
X81432Y148586D03*
D12*
X162230Y92741D02*
X162230Y80741D01*
X137230Y80741D02*
X137230Y92741D01*
X112230Y92741D02*
X112230Y80741D01*
X87230Y80741D02*
X87230Y92741D01*
X162052Y40290D02*
X162052Y28290D01*
X137052Y28290D02*
X137052Y40290D01*
X112052Y40290D02*
X112052Y28290D01*
X87052Y28290D02*
X87052Y40290D01*
X289814Y80614D02*
X289814Y92614D01*
X264814Y92614D02*
X264814Y80614D01*
X239814Y80614D02*
X239814Y92614D01*
X214814Y92614D02*
X214814Y80614D01*
X289814Y40036D02*
X289814Y28036D01*
X264814Y28036D02*
X264814Y40036D01*
X239814Y40036D02*
X239814Y28036D01*
X214814Y28036D02*
X214814Y40036D01*
D13*
X25146Y110490D03*
X25146Y90170D03*
X300736Y304546D03*
X300736Y284226D03*
D14*
X236728Y277622D03*
X74422Y227838D03*
D15*
X81432Y339700D02*
X81432Y368586D01*
X81280Y339852D02*
X81432Y339700D01*
X81280Y339852D02*
X66294Y324866D01*
X66294Y319278D01*
D14*
X62484Y315468D03*
D15*
X287223Y202946D02*
X300304Y189865D01*
X259334Y202946D02*
X258572Y203708D01*
D14*
X258572Y203708D03*
D15*
X259334Y202946D02*
X287223Y202946D01*
X66294Y319278D02*
X62484Y315468D01*
D16*
X137052Y34798D02*
X137052Y34290D01*
X137052Y34798D02*
X137052Y86563D01*
X137230Y86741D01*
X264814Y86614D02*
X264814Y34036D01*
X264814Y20720D01*
X254000Y9906D01*
X141478Y9906D01*
X136652Y14732D01*
X137052Y15132D01*
X137052Y34798D01*
X58166Y77470D02*
X25146Y110490D01*
X72644Y14732D02*
X136652Y14732D01*
X58166Y29210D02*
X58166Y77470D01*
X58166Y29210D02*
X72644Y14732D01*
D15*
X121432Y368586D02*
X132810Y368586D01*
X150876Y350520D01*
X150876Y317246D01*
X151130Y316992D01*
X151130Y306070D01*
X152908Y304292D01*
D14*
X152908Y304292D03*
X141732Y315722D03*
D15*
X112522Y315722D01*
X102362Y325882D01*
X102362Y337656D01*
X101432Y338586D01*
X250825Y215265D02*
X274904Y215265D01*
X250825Y215265D02*
X250698Y215138D01*
X197866Y215138D01*
X192024Y220980D01*
D14*
X192024Y220980D03*
X153416Y174244D03*
D15*
X203454Y174244D01*
X222504Y155194D02*
X222504Y142748D01*
X240030Y125222D01*
X240030Y86830D02*
X239814Y86614D01*
X222504Y155194D02*
X203454Y174244D01*
X240030Y125222D02*
X240030Y86830D01*
X112230Y86741D02*
X112230Y103340D01*
X118618Y109728D01*
X118618Y126746D01*
X132588Y140716D01*
X132588Y198628D01*
X154432Y220472D01*
X154432Y246380D01*
X154178Y246634D01*
D14*
X154178Y246634D03*
X181102Y315722D03*
D15*
X181102Y289306D01*
X156718Y264922D01*
X152146Y264922D01*
D14*
X152146Y264922D03*
D15*
X126492Y122428D02*
X126492Y73730D01*
X126492Y122428D02*
X137160Y133096D01*
X137160Y134366D01*
X165100Y134366D01*
X170434Y139700D01*
X170434Y166370D01*
D14*
X170434Y166370D03*
D15*
X126492Y73730D02*
X87052Y34290D01*
X87230Y86741D02*
X111760Y111271D01*
X111760Y267208D02*
X128270Y283718D01*
D14*
X128270Y283718D03*
D15*
X111760Y267208D02*
X111760Y111271D01*
M02*
