G04 EAGLE Gerber X2 export*
%TF.Part,Single*%
%TF.FileFunction,Copper,L1,Top,Mixed*%
%TF.FilePolarity,Positive*%
%TF.GenerationSoftware,Autodesk,EAGLE,9.1.3*%
%TF.CreationDate,2018-09-23T19:11:10Z*%
G75*
%MOMM*%
%FSLAX34Y34*%
%LPD*%
%AMOC8*
5,1,8,0,0,1.08239X$1,22.5*%
G01*
%ADD10C,1.879600*%
%ADD11R,1.270000X0.558800*%
%ADD12R,0.558800X1.270000*%
%ADD13R,0.600000X2.200000*%
%ADD14C,1.200000*%
%ADD15C,0.450000*%
%ADD16C,0.254000*%
%ADD17R,1.100000X1.000000*%
%ADD18R,1.600000X1.800000*%
%ADD19R,0.800000X0.900000*%
%ADD20R,1.000000X1.100000*%
%ADD21C,0.300000*%
%ADD22P,1.732040X8X22.500000*%
%ADD23C,0.604000*%
%ADD24C,0.203200*%
%ADD25C,0.304800*%
%ADD26C,0.203200*%

G36*
X312732Y3819D02*
X312732Y3819D01*
X312790Y3817D01*
X312872Y3839D01*
X312956Y3851D01*
X313009Y3874D01*
X313065Y3889D01*
X313138Y3932D01*
X313215Y3967D01*
X313260Y4005D01*
X313310Y4034D01*
X313368Y4096D01*
X313432Y4150D01*
X313464Y4199D01*
X313504Y4242D01*
X313543Y4317D01*
X313590Y4387D01*
X313607Y4443D01*
X313634Y4495D01*
X313645Y4563D01*
X313675Y4658D01*
X313678Y4758D01*
X313689Y4826D01*
X313689Y184551D01*
X313682Y184605D01*
X313683Y184642D01*
X313676Y184665D01*
X313675Y184722D01*
X313657Y184776D01*
X313649Y184832D01*
X313614Y184910D01*
X313588Y184992D01*
X313556Y185040D01*
X313533Y185092D01*
X313478Y185157D01*
X313430Y185228D01*
X313386Y185265D01*
X313350Y185309D01*
X313278Y185356D01*
X313212Y185411D01*
X313160Y185435D01*
X313113Y185466D01*
X313031Y185492D01*
X312952Y185527D01*
X312896Y185535D01*
X312842Y185552D01*
X312756Y185554D01*
X312671Y185566D01*
X312615Y185558D01*
X312558Y185559D01*
X312475Y185538D01*
X312389Y185525D01*
X312338Y185502D01*
X312283Y185487D01*
X312209Y185444D01*
X312130Y185408D01*
X312087Y185371D01*
X312038Y185342D01*
X311979Y185279D01*
X311914Y185224D01*
X311888Y185182D01*
X311844Y185135D01*
X311784Y185019D01*
X311748Y184964D01*
X311744Y184952D01*
X311736Y184939D01*
X310856Y182814D01*
X307892Y179851D01*
X307840Y179781D01*
X307780Y179717D01*
X307754Y179668D01*
X307721Y179623D01*
X307690Y179542D01*
X307650Y179464D01*
X307642Y179416D01*
X307620Y179358D01*
X307608Y179210D01*
X307595Y179133D01*
X307595Y163416D01*
X304916Y160738D01*
X300363Y156184D01*
X300328Y156138D01*
X300285Y156097D01*
X300243Y156025D01*
X300192Y155957D01*
X300171Y155903D01*
X300142Y155852D01*
X300121Y155771D01*
X300091Y155692D01*
X300086Y155633D01*
X300071Y155577D01*
X300074Y155492D01*
X300067Y155408D01*
X300079Y155351D01*
X300081Y155293D01*
X300106Y155212D01*
X300123Y155130D01*
X300150Y155078D01*
X300168Y155022D01*
X300208Y154966D01*
X300254Y154877D01*
X300323Y154805D01*
X300363Y154749D01*
X302299Y152813D01*
X302299Y139287D01*
X300513Y137501D01*
X299330Y137501D01*
X299272Y137493D01*
X299214Y137495D01*
X299132Y137473D01*
X299048Y137461D01*
X298995Y137438D01*
X298939Y137423D01*
X298866Y137380D01*
X298789Y137345D01*
X298744Y137307D01*
X298694Y137278D01*
X298636Y137216D01*
X298572Y137162D01*
X298540Y137113D01*
X298500Y137070D01*
X298461Y136995D01*
X298414Y136925D01*
X298397Y136869D01*
X298370Y136817D01*
X298359Y136749D01*
X298329Y136654D01*
X298326Y136554D01*
X298315Y136486D01*
X298315Y130214D01*
X298323Y130156D01*
X298321Y130098D01*
X298343Y130016D01*
X298355Y129932D01*
X298378Y129879D01*
X298393Y129823D01*
X298436Y129750D01*
X298471Y129673D01*
X298509Y129628D01*
X298538Y129578D01*
X298600Y129520D01*
X298654Y129456D01*
X298703Y129424D01*
X298746Y129384D01*
X298821Y129345D01*
X298891Y129298D01*
X298947Y129281D01*
X298999Y129254D01*
X299067Y129243D01*
X299162Y129213D01*
X299262Y129210D01*
X299330Y129199D01*
X300513Y129199D01*
X302299Y127413D01*
X302299Y113887D01*
X300513Y112101D01*
X287987Y112101D01*
X286468Y113621D01*
X286421Y113656D01*
X286381Y113698D01*
X286308Y113741D01*
X286241Y113791D01*
X286186Y113812D01*
X286136Y113842D01*
X286054Y113863D01*
X285975Y113893D01*
X285917Y113898D01*
X285860Y113912D01*
X285776Y113909D01*
X285692Y113916D01*
X285634Y113905D01*
X285576Y113903D01*
X285496Y113877D01*
X285413Y113860D01*
X285361Y113833D01*
X285305Y113815D01*
X285249Y113775D01*
X285161Y113729D01*
X285088Y113661D01*
X285032Y113621D01*
X283513Y112101D01*
X270987Y112101D01*
X269201Y113887D01*
X269201Y115570D01*
X269193Y115628D01*
X269195Y115686D01*
X269173Y115768D01*
X269161Y115852D01*
X269138Y115905D01*
X269123Y115961D01*
X269080Y116034D01*
X269045Y116111D01*
X269007Y116156D01*
X268978Y116206D01*
X268916Y116264D01*
X268862Y116328D01*
X268813Y116360D01*
X268770Y116400D01*
X268695Y116439D01*
X268625Y116486D01*
X268569Y116503D01*
X268517Y116530D01*
X268449Y116541D01*
X268354Y116571D01*
X268254Y116574D01*
X268186Y116585D01*
X262454Y116585D01*
X262368Y116573D01*
X262280Y116570D01*
X262228Y116553D01*
X262173Y116545D01*
X262093Y116510D01*
X262010Y116483D01*
X261970Y116455D01*
X261913Y116429D01*
X261800Y116333D01*
X261736Y116288D01*
X257346Y111898D01*
X257294Y111828D01*
X257234Y111764D01*
X257208Y111715D01*
X257175Y111670D01*
X257144Y111589D01*
X257104Y111511D01*
X257096Y111463D01*
X257074Y111405D01*
X257062Y111257D01*
X257049Y111180D01*
X257049Y100097D01*
X257053Y100067D01*
X257050Y100038D01*
X257073Y99927D01*
X257089Y99815D01*
X257101Y99788D01*
X257106Y99760D01*
X257159Y99659D01*
X257205Y99556D01*
X257224Y99533D01*
X257237Y99507D01*
X257315Y99425D01*
X257388Y99339D01*
X257413Y99322D01*
X257433Y99301D01*
X257531Y99244D01*
X257625Y99181D01*
X257653Y99172D01*
X257678Y99157D01*
X257788Y99129D01*
X257896Y99095D01*
X257926Y99095D01*
X257954Y99087D01*
X258067Y99091D01*
X258180Y99088D01*
X258209Y99095D01*
X258238Y99096D01*
X258346Y99131D01*
X258455Y99160D01*
X258481Y99175D01*
X258509Y99184D01*
X258573Y99229D01*
X258700Y99305D01*
X258743Y99351D01*
X258782Y99379D01*
X259688Y100285D01*
X263014Y101663D01*
X266614Y101663D01*
X269940Y100285D01*
X272485Y97740D01*
X273863Y94414D01*
X273863Y78814D01*
X272485Y75488D01*
X269940Y72943D01*
X266614Y71565D01*
X263014Y71565D01*
X259688Y72943D01*
X258782Y73849D01*
X258758Y73867D01*
X258739Y73889D01*
X258645Y73952D01*
X258555Y74020D01*
X258527Y74031D01*
X258503Y74047D01*
X258395Y74081D01*
X258289Y74121D01*
X258260Y74124D01*
X258232Y74133D01*
X258118Y74136D01*
X258006Y74145D01*
X257977Y74139D01*
X257948Y74140D01*
X257838Y74111D01*
X257727Y74089D01*
X257701Y74076D01*
X257673Y74068D01*
X257575Y74010D01*
X257475Y73958D01*
X257453Y73938D01*
X257428Y73923D01*
X257351Y73840D01*
X257269Y73762D01*
X257254Y73737D01*
X257234Y73716D01*
X257182Y73615D01*
X257125Y73517D01*
X257118Y73489D01*
X257104Y73462D01*
X257091Y73385D01*
X257055Y73242D01*
X257057Y73179D01*
X257049Y73131D01*
X257049Y70198D01*
X244176Y57326D01*
X244150Y57291D01*
X244136Y57279D01*
X244113Y57245D01*
X244064Y57192D01*
X244038Y57143D01*
X244005Y57098D01*
X243991Y57062D01*
X243978Y57043D01*
X243964Y56998D01*
X243934Y56939D01*
X243926Y56891D01*
X243904Y56833D01*
X243901Y56798D01*
X243893Y56772D01*
X243890Y56677D01*
X243879Y56608D01*
X243879Y48825D01*
X243879Y48823D01*
X243879Y48822D01*
X243899Y48680D01*
X243919Y48543D01*
X243919Y48542D01*
X243919Y48540D01*
X243981Y48405D01*
X244035Y48284D01*
X244036Y48283D01*
X244037Y48281D01*
X244130Y48172D01*
X244218Y48067D01*
X244220Y48066D01*
X244221Y48065D01*
X244234Y48057D01*
X244455Y47909D01*
X244484Y47900D01*
X244505Y47887D01*
X244940Y47707D01*
X247485Y45162D01*
X248863Y41836D01*
X248863Y26236D01*
X247485Y22910D01*
X244940Y20365D01*
X241614Y18987D01*
X238014Y18987D01*
X234688Y20365D01*
X234008Y21045D01*
X233961Y21081D01*
X233921Y21123D01*
X233848Y21166D01*
X233781Y21216D01*
X233726Y21237D01*
X233675Y21267D01*
X233594Y21288D01*
X233515Y21318D01*
X233456Y21322D01*
X233400Y21337D01*
X233316Y21334D01*
X233232Y21341D01*
X233174Y21330D01*
X233116Y21328D01*
X233036Y21302D01*
X232953Y21285D01*
X232901Y21258D01*
X232845Y21240D01*
X232789Y21200D01*
X232700Y21154D01*
X232628Y21085D01*
X232572Y21045D01*
X224480Y12953D01*
X207358Y12953D01*
X194563Y25748D01*
X194563Y83494D01*
X194551Y83580D01*
X194548Y83668D01*
X194531Y83720D01*
X194523Y83775D01*
X194488Y83855D01*
X194461Y83938D01*
X194433Y83978D01*
X194407Y84035D01*
X194311Y84148D01*
X194266Y84212D01*
X157163Y121314D01*
X157163Y167708D01*
X157147Y167822D01*
X157137Y167936D01*
X157127Y167962D01*
X157123Y167990D01*
X157076Y168094D01*
X157035Y168201D01*
X157019Y168224D01*
X157007Y168249D01*
X156933Y168337D01*
X156864Y168428D01*
X156841Y168445D01*
X156824Y168466D01*
X156728Y168530D01*
X156636Y168598D01*
X156610Y168608D01*
X156587Y168624D01*
X156477Y168658D01*
X156370Y168699D01*
X156342Y168701D01*
X156316Y168709D01*
X156201Y168712D01*
X156087Y168721D01*
X156062Y168716D01*
X156032Y168717D01*
X155775Y168650D01*
X155759Y168646D01*
X154623Y168175D01*
X152209Y168175D01*
X150697Y168802D01*
X150585Y168830D01*
X150476Y168865D01*
X150448Y168866D01*
X150421Y168873D01*
X150307Y168869D01*
X150192Y168872D01*
X150165Y168865D01*
X150137Y168864D01*
X150028Y168829D01*
X149917Y168800D01*
X149893Y168786D01*
X149866Y168778D01*
X149771Y168714D01*
X149672Y168655D01*
X149653Y168635D01*
X149630Y168620D01*
X149556Y168532D01*
X149478Y168448D01*
X149465Y168423D01*
X149447Y168402D01*
X149401Y168297D01*
X149348Y168195D01*
X149344Y168170D01*
X149332Y168142D01*
X149295Y167878D01*
X149293Y167864D01*
X149293Y142782D01*
X127044Y120534D01*
X126992Y120464D01*
X126932Y120400D01*
X126906Y120351D01*
X126873Y120306D01*
X126842Y120225D01*
X126802Y120147D01*
X126794Y120099D01*
X126772Y120041D01*
X126760Y119893D01*
X126747Y119816D01*
X126747Y96182D01*
X126755Y96127D01*
X126753Y96082D01*
X126760Y96057D01*
X126761Y96011D01*
X126779Y95957D01*
X126787Y95901D01*
X126821Y95824D01*
X126825Y95807D01*
X126828Y95802D01*
X126848Y95740D01*
X126880Y95693D01*
X126903Y95641D01*
X126958Y95576D01*
X127006Y95504D01*
X127050Y95468D01*
X127086Y95424D01*
X127158Y95377D01*
X127224Y95321D01*
X127276Y95298D01*
X127323Y95267D01*
X127405Y95241D01*
X127484Y95206D01*
X127540Y95198D01*
X127594Y95181D01*
X127680Y95179D01*
X127765Y95167D01*
X127821Y95175D01*
X127878Y95174D01*
X127961Y95195D01*
X128046Y95208D01*
X128098Y95231D01*
X128153Y95245D01*
X128227Y95289D01*
X128306Y95325D01*
X128349Y95362D01*
X128398Y95391D01*
X128457Y95453D01*
X128522Y95509D01*
X128548Y95551D01*
X128592Y95598D01*
X128644Y95700D01*
X128684Y95760D01*
X128690Y95778D01*
X128700Y95794D01*
X129559Y97867D01*
X132104Y100412D01*
X135430Y101790D01*
X139030Y101790D01*
X142356Y100412D01*
X144901Y97867D01*
X146279Y94541D01*
X146279Y78941D01*
X144901Y75615D01*
X142356Y73070D01*
X139030Y71692D01*
X135430Y71692D01*
X132104Y73070D01*
X129559Y75615D01*
X128700Y77688D01*
X128656Y77762D01*
X128621Y77841D01*
X128584Y77884D01*
X128555Y77933D01*
X128493Y77992D01*
X128437Y78058D01*
X128390Y78089D01*
X128349Y78128D01*
X128272Y78168D01*
X128201Y78215D01*
X128147Y78233D01*
X128096Y78259D01*
X128012Y78275D01*
X127930Y78301D01*
X127873Y78303D01*
X127817Y78314D01*
X127732Y78306D01*
X127646Y78308D01*
X127591Y78294D01*
X127534Y78289D01*
X127454Y78258D01*
X127371Y78237D01*
X127322Y78208D01*
X127269Y78187D01*
X127200Y78135D01*
X127126Y78091D01*
X127087Y78050D01*
X127042Y78016D01*
X126990Y77947D01*
X126932Y77884D01*
X126906Y77833D01*
X126872Y77788D01*
X126841Y77707D01*
X126802Y77631D01*
X126794Y77582D01*
X126771Y77522D01*
X126760Y77377D01*
X126747Y77300D01*
X126747Y44160D01*
X126759Y44075D01*
X126761Y43989D01*
X126779Y43935D01*
X126787Y43879D01*
X126822Y43800D01*
X126848Y43719D01*
X126880Y43671D01*
X126903Y43619D01*
X126958Y43554D01*
X127006Y43482D01*
X127050Y43446D01*
X127086Y43402D01*
X127158Y43355D01*
X127224Y43299D01*
X127276Y43276D01*
X127323Y43245D01*
X127405Y43219D01*
X127484Y43184D01*
X127540Y43176D01*
X127594Y43159D01*
X127680Y43157D01*
X127765Y43145D01*
X127821Y43153D01*
X127878Y43152D01*
X127961Y43173D01*
X128046Y43186D01*
X128098Y43209D01*
X128153Y43224D01*
X128227Y43267D01*
X128306Y43303D01*
X128349Y43340D01*
X128398Y43369D01*
X128457Y43431D01*
X128522Y43487D01*
X128548Y43529D01*
X128592Y43576D01*
X128658Y43705D01*
X128700Y43772D01*
X129381Y45416D01*
X131926Y47961D01*
X135252Y49339D01*
X138852Y49339D01*
X142178Y47961D01*
X144723Y45416D01*
X146101Y42090D01*
X146101Y26490D01*
X144723Y23164D01*
X142178Y20619D01*
X138852Y19241D01*
X135252Y19241D01*
X131926Y20619D01*
X129381Y23164D01*
X128003Y26490D01*
X128003Y42042D01*
X127999Y42071D01*
X128002Y42100D01*
X127979Y42211D01*
X127963Y42323D01*
X127951Y42350D01*
X127946Y42379D01*
X127893Y42480D01*
X127847Y42583D01*
X127828Y42605D01*
X127815Y42631D01*
X127737Y42713D01*
X127664Y42800D01*
X127639Y42816D01*
X127619Y42837D01*
X127521Y42894D01*
X127427Y42957D01*
X127399Y42966D01*
X127374Y42981D01*
X127264Y43009D01*
X127156Y43043D01*
X127126Y43044D01*
X127098Y43051D01*
X126985Y43048D01*
X126872Y43050D01*
X126843Y43043D01*
X126814Y43042D01*
X126706Y43007D01*
X126597Y42979D01*
X126571Y42964D01*
X126543Y42955D01*
X126480Y42909D01*
X126352Y42833D01*
X126309Y42788D01*
X126270Y42760D01*
X124068Y40558D01*
X121398Y37888D01*
X121346Y37818D01*
X121286Y37754D01*
X121260Y37705D01*
X121227Y37660D01*
X121196Y37579D01*
X121156Y37501D01*
X121148Y37453D01*
X121126Y37395D01*
X121114Y37247D01*
X121101Y37170D01*
X121101Y26490D01*
X119723Y23164D01*
X117178Y20619D01*
X113852Y19241D01*
X110252Y19241D01*
X106926Y20619D01*
X104381Y23164D01*
X103003Y26490D01*
X103003Y42090D01*
X104381Y45416D01*
X106926Y47961D01*
X110252Y49339D01*
X113852Y49339D01*
X117213Y47946D01*
X117325Y47918D01*
X117434Y47883D01*
X117462Y47882D01*
X117489Y47875D01*
X117603Y47879D01*
X117718Y47876D01*
X117745Y47883D01*
X117773Y47884D01*
X117882Y47919D01*
X117993Y47948D01*
X118017Y47962D01*
X118044Y47970D01*
X118139Y48034D01*
X118238Y48093D01*
X118257Y48113D01*
X118280Y48128D01*
X118354Y48216D01*
X118432Y48300D01*
X118445Y48325D01*
X118463Y48346D01*
X118509Y48451D01*
X118562Y48553D01*
X118566Y48578D01*
X118578Y48606D01*
X118615Y48870D01*
X118617Y48884D01*
X118617Y72073D01*
X118601Y72187D01*
X118591Y72301D01*
X118581Y72327D01*
X118577Y72355D01*
X118530Y72459D01*
X118489Y72567D01*
X118473Y72589D01*
X118461Y72614D01*
X118387Y72702D01*
X118318Y72793D01*
X118295Y72810D01*
X118278Y72831D01*
X118182Y72895D01*
X118090Y72963D01*
X118064Y72973D01*
X118041Y72989D01*
X117931Y73023D01*
X117824Y73064D01*
X117796Y73066D01*
X117770Y73074D01*
X117655Y73077D01*
X117541Y73087D01*
X117516Y73081D01*
X117486Y73082D01*
X117229Y73015D01*
X117213Y73011D01*
X114030Y71692D01*
X110430Y71692D01*
X107104Y73070D01*
X104559Y75615D01*
X103181Y78941D01*
X103181Y94541D01*
X104559Y97867D01*
X107104Y100412D01*
X107538Y100592D01*
X107540Y100593D01*
X107541Y100593D01*
X107660Y100664D01*
X107783Y100736D01*
X107784Y100738D01*
X107786Y100738D01*
X107883Y100843D01*
X107978Y100943D01*
X107979Y100945D01*
X107980Y100946D01*
X108044Y101071D01*
X108109Y101196D01*
X108109Y101197D01*
X108110Y101199D01*
X108112Y101214D01*
X108164Y101475D01*
X108161Y101505D01*
X108165Y101530D01*
X108165Y112234D01*
X108153Y112321D01*
X108150Y112408D01*
X108133Y112461D01*
X108125Y112516D01*
X108089Y112595D01*
X108063Y112679D01*
X108035Y112718D01*
X108009Y112775D01*
X107913Y112888D01*
X107868Y112952D01*
X104532Y116288D01*
X104462Y116340D01*
X104398Y116400D01*
X104349Y116426D01*
X104304Y116459D01*
X104223Y116490D01*
X104145Y116530D01*
X104097Y116538D01*
X104039Y116560D01*
X103891Y116572D01*
X103814Y116585D01*
X100114Y116585D01*
X100056Y116577D01*
X99998Y116579D01*
X99916Y116557D01*
X99832Y116545D01*
X99779Y116522D01*
X99723Y116507D01*
X99650Y116464D01*
X99573Y116429D01*
X99528Y116391D01*
X99478Y116362D01*
X99420Y116300D01*
X99356Y116246D01*
X99324Y116197D01*
X99284Y116154D01*
X99245Y116079D01*
X99198Y116009D01*
X99181Y115953D01*
X99154Y115901D01*
X99143Y115833D01*
X99113Y115738D01*
X99110Y115638D01*
X99099Y115570D01*
X99099Y113887D01*
X97313Y112101D01*
X84787Y112101D01*
X83268Y113621D01*
X83221Y113656D01*
X83181Y113698D01*
X83108Y113741D01*
X83041Y113791D01*
X82986Y113812D01*
X82936Y113842D01*
X82854Y113863D01*
X82775Y113893D01*
X82717Y113898D01*
X82660Y113912D01*
X82576Y113909D01*
X82492Y113916D01*
X82434Y113905D01*
X82376Y113903D01*
X82296Y113877D01*
X82213Y113860D01*
X82161Y113833D01*
X82105Y113815D01*
X82049Y113775D01*
X81961Y113729D01*
X81888Y113661D01*
X81832Y113621D01*
X80313Y112101D01*
X67787Y112101D01*
X66001Y113887D01*
X66001Y127413D01*
X67787Y129199D01*
X68970Y129199D01*
X69028Y129207D01*
X69086Y129205D01*
X69168Y129227D01*
X69252Y129239D01*
X69305Y129262D01*
X69361Y129277D01*
X69434Y129320D01*
X69511Y129355D01*
X69556Y129393D01*
X69606Y129422D01*
X69664Y129484D01*
X69728Y129538D01*
X69760Y129587D01*
X69800Y129630D01*
X69839Y129705D01*
X69886Y129775D01*
X69903Y129831D01*
X69930Y129883D01*
X69941Y129951D01*
X69971Y130046D01*
X69974Y130146D01*
X69985Y130214D01*
X69985Y136486D01*
X69977Y136544D01*
X69979Y136602D01*
X69957Y136684D01*
X69945Y136768D01*
X69922Y136821D01*
X69907Y136877D01*
X69864Y136950D01*
X69829Y137027D01*
X69791Y137072D01*
X69762Y137122D01*
X69700Y137180D01*
X69646Y137244D01*
X69597Y137276D01*
X69554Y137316D01*
X69479Y137355D01*
X69409Y137402D01*
X69353Y137419D01*
X69301Y137446D01*
X69233Y137457D01*
X69138Y137487D01*
X69038Y137490D01*
X68970Y137501D01*
X67787Y137501D01*
X66001Y139287D01*
X66001Y152813D01*
X67787Y154599D01*
X68970Y154599D01*
X69028Y154607D01*
X69086Y154605D01*
X69168Y154627D01*
X69252Y154639D01*
X69305Y154662D01*
X69361Y154677D01*
X69434Y154720D01*
X69511Y154755D01*
X69556Y154793D01*
X69606Y154822D01*
X69664Y154884D01*
X69728Y154938D01*
X69760Y154987D01*
X69800Y155030D01*
X69839Y155105D01*
X69886Y155175D01*
X69903Y155231D01*
X69930Y155283D01*
X69941Y155351D01*
X69971Y155446D01*
X69974Y155546D01*
X69985Y155614D01*
X69985Y196134D01*
X69973Y196220D01*
X69970Y196308D01*
X69953Y196360D01*
X69945Y196415D01*
X69910Y196495D01*
X69883Y196578D01*
X69855Y196618D01*
X69829Y196675D01*
X69733Y196788D01*
X69688Y196852D01*
X49529Y217010D01*
X49529Y222661D01*
X49517Y222747D01*
X49514Y222835D01*
X49497Y222887D01*
X49489Y222942D01*
X49454Y223022D01*
X49427Y223105D01*
X49399Y223144D01*
X49373Y223202D01*
X49277Y223315D01*
X49232Y223379D01*
X47962Y224649D01*
X47915Y224684D01*
X47875Y224726D01*
X47802Y224769D01*
X47735Y224819D01*
X47680Y224840D01*
X47630Y224870D01*
X47548Y224891D01*
X47469Y224921D01*
X47411Y224926D01*
X47354Y224940D01*
X47270Y224937D01*
X47186Y224944D01*
X47128Y224933D01*
X47070Y224931D01*
X46990Y224905D01*
X46907Y224888D01*
X46855Y224861D01*
X46799Y224843D01*
X46743Y224803D01*
X46655Y224757D01*
X46582Y224689D01*
X46526Y224649D01*
X45157Y223279D01*
X36631Y223279D01*
X34864Y225047D01*
X34825Y225076D01*
X34792Y225112D01*
X34712Y225161D01*
X34637Y225218D01*
X34591Y225235D01*
X34549Y225260D01*
X34459Y225285D01*
X34371Y225319D01*
X34322Y225323D01*
X34275Y225336D01*
X34181Y225335D01*
X34088Y225342D01*
X34040Y225333D01*
X33991Y225332D01*
X33901Y225305D01*
X33809Y225287D01*
X33766Y225264D01*
X33719Y225250D01*
X33640Y225199D01*
X33557Y225156D01*
X33521Y225122D01*
X33480Y225095D01*
X33433Y225038D01*
X33350Y224960D01*
X33307Y224885D01*
X33267Y224836D01*
X33227Y224768D01*
X32754Y224295D01*
X32175Y223960D01*
X31528Y223787D01*
X29693Y223787D01*
X29693Y236844D01*
X29685Y236902D01*
X29687Y236960D01*
X29665Y237042D01*
X29653Y237125D01*
X29630Y237179D01*
X29615Y237235D01*
X29572Y237308D01*
X29563Y237327D01*
X29594Y237373D01*
X29611Y237429D01*
X29638Y237481D01*
X29649Y237549D01*
X29679Y237644D01*
X29682Y237744D01*
X29693Y237812D01*
X29693Y250869D01*
X31528Y250869D01*
X32175Y250696D01*
X32754Y250361D01*
X33227Y249888D01*
X33267Y249820D01*
X33297Y249781D01*
X33319Y249738D01*
X33384Y249670D01*
X33442Y249596D01*
X33481Y249567D01*
X33515Y249532D01*
X33596Y249484D01*
X33672Y249429D01*
X33718Y249413D01*
X33760Y249388D01*
X33851Y249365D01*
X33940Y249333D01*
X33989Y249330D01*
X34036Y249318D01*
X34130Y249321D01*
X34224Y249315D01*
X34271Y249325D01*
X34320Y249327D01*
X34409Y249356D01*
X34501Y249376D01*
X34544Y249399D01*
X34590Y249414D01*
X34651Y249457D01*
X34751Y249512D01*
X34813Y249573D01*
X34864Y249609D01*
X36631Y251377D01*
X45157Y251377D01*
X46526Y250007D01*
X46573Y249972D01*
X46613Y249930D01*
X46686Y249887D01*
X46753Y249837D01*
X46808Y249816D01*
X46858Y249786D01*
X46940Y249765D01*
X47019Y249735D01*
X47077Y249730D01*
X47134Y249716D01*
X47218Y249719D01*
X47302Y249712D01*
X47360Y249723D01*
X47418Y249725D01*
X47498Y249751D01*
X47581Y249768D01*
X47633Y249795D01*
X47689Y249813D01*
X47745Y249853D01*
X47833Y249899D01*
X47906Y249967D01*
X47962Y250007D01*
X49232Y251277D01*
X49284Y251347D01*
X49344Y251411D01*
X49370Y251461D01*
X49403Y251505D01*
X49434Y251586D01*
X49474Y251664D01*
X49482Y251712D01*
X49504Y251770D01*
X49516Y251918D01*
X49529Y251995D01*
X49529Y255960D01*
X49517Y256046D01*
X49514Y256134D01*
X49497Y256186D01*
X49489Y256241D01*
X49454Y256321D01*
X49427Y256404D01*
X49399Y256444D01*
X49373Y256501D01*
X49277Y256614D01*
X49232Y256678D01*
X47472Y258437D01*
X47426Y258472D01*
X47385Y258515D01*
X47313Y258557D01*
X47245Y258608D01*
X47191Y258629D01*
X47140Y258658D01*
X47059Y258679D01*
X46980Y258709D01*
X46921Y258714D01*
X46865Y258729D01*
X46780Y258726D01*
X46696Y258733D01*
X46639Y258721D01*
X46581Y258719D01*
X46500Y258694D01*
X46418Y258677D01*
X46366Y258650D01*
X46310Y258632D01*
X46254Y258592D01*
X46165Y258546D01*
X46093Y258477D01*
X46037Y258437D01*
X44473Y256873D01*
X30947Y256873D01*
X29928Y257893D01*
X29881Y257928D01*
X29841Y257970D01*
X29768Y258013D01*
X29701Y258063D01*
X29646Y258084D01*
X29596Y258114D01*
X29514Y258135D01*
X29435Y258165D01*
X29377Y258170D01*
X29320Y258184D01*
X29236Y258181D01*
X29152Y258188D01*
X29094Y258177D01*
X29036Y258175D01*
X28956Y258149D01*
X28873Y258132D01*
X28821Y258105D01*
X28765Y258087D01*
X28709Y258047D01*
X28621Y258001D01*
X28548Y257933D01*
X28492Y257893D01*
X27473Y256873D01*
X20574Y256873D01*
X20516Y256865D01*
X20458Y256867D01*
X20376Y256845D01*
X20292Y256833D01*
X20239Y256810D01*
X20183Y256795D01*
X20110Y256752D01*
X20033Y256717D01*
X19988Y256679D01*
X19938Y256650D01*
X19880Y256588D01*
X19816Y256534D01*
X19784Y256485D01*
X19744Y256442D01*
X19705Y256367D01*
X19658Y256297D01*
X19641Y256241D01*
X19614Y256189D01*
X19603Y256121D01*
X19573Y256026D01*
X19570Y255926D01*
X19559Y255858D01*
X19559Y251995D01*
X19571Y251909D01*
X19574Y251821D01*
X19591Y251769D01*
X19599Y251714D01*
X19634Y251634D01*
X19661Y251551D01*
X19689Y251512D01*
X19715Y251454D01*
X19811Y251341D01*
X19856Y251277D01*
X21524Y249609D01*
X21563Y249580D01*
X21596Y249544D01*
X21676Y249495D01*
X21751Y249438D01*
X21797Y249421D01*
X21839Y249396D01*
X21929Y249371D01*
X22017Y249337D01*
X22066Y249333D01*
X22113Y249320D01*
X22207Y249321D01*
X22300Y249314D01*
X22348Y249323D01*
X22397Y249324D01*
X22487Y249351D01*
X22579Y249369D01*
X22622Y249392D01*
X22669Y249406D01*
X22748Y249457D01*
X22831Y249500D01*
X22867Y249534D01*
X22908Y249561D01*
X22955Y249618D01*
X23038Y249696D01*
X23081Y249771D01*
X23121Y249820D01*
X23161Y249888D01*
X23634Y250361D01*
X24213Y250696D01*
X24860Y250869D01*
X26695Y250869D01*
X26695Y237812D01*
X26703Y237754D01*
X26701Y237696D01*
X26723Y237614D01*
X26735Y237531D01*
X26758Y237477D01*
X26773Y237421D01*
X26816Y237348D01*
X26825Y237329D01*
X26794Y237283D01*
X26777Y237227D01*
X26750Y237175D01*
X26739Y237107D01*
X26709Y237012D01*
X26706Y236912D01*
X26695Y236844D01*
X26695Y223787D01*
X24860Y223787D01*
X24213Y223960D01*
X23634Y224295D01*
X23161Y224768D01*
X23121Y224836D01*
X23091Y224875D01*
X23069Y224918D01*
X23004Y224986D01*
X22946Y225060D01*
X22907Y225089D01*
X22873Y225124D01*
X22792Y225172D01*
X22716Y225227D01*
X22670Y225243D01*
X22628Y225268D01*
X22537Y225291D01*
X22448Y225323D01*
X22399Y225326D01*
X22352Y225338D01*
X22258Y225335D01*
X22164Y225341D01*
X22117Y225331D01*
X22068Y225329D01*
X21979Y225300D01*
X21887Y225280D01*
X21844Y225257D01*
X21798Y225242D01*
X21737Y225199D01*
X21637Y225144D01*
X21575Y225083D01*
X21524Y225047D01*
X19757Y223279D01*
X11231Y223279D01*
X9445Y225065D01*
X9445Y249591D01*
X11132Y251277D01*
X11184Y251347D01*
X11244Y251411D01*
X11270Y251461D01*
X11303Y251505D01*
X11334Y251586D01*
X11374Y251664D01*
X11382Y251712D01*
X11404Y251770D01*
X11416Y251918D01*
X11429Y251995D01*
X11429Y261390D01*
X11864Y261824D01*
X11916Y261894D01*
X11976Y261958D01*
X12002Y262007D01*
X12035Y262051D01*
X12066Y262133D01*
X12106Y262211D01*
X12114Y262259D01*
X12136Y262317D01*
X12148Y262465D01*
X12161Y262542D01*
X12161Y271185D01*
X13947Y272971D01*
X27473Y272971D01*
X28492Y271951D01*
X28539Y271916D01*
X28579Y271874D01*
X28652Y271831D01*
X28719Y271781D01*
X28774Y271760D01*
X28824Y271730D01*
X28906Y271709D01*
X28985Y271679D01*
X29043Y271674D01*
X29100Y271660D01*
X29184Y271663D01*
X29268Y271656D01*
X29326Y271667D01*
X29384Y271669D01*
X29464Y271695D01*
X29547Y271712D01*
X29599Y271739D01*
X29655Y271757D01*
X29711Y271797D01*
X29799Y271843D01*
X29872Y271911D01*
X29928Y271951D01*
X30947Y272971D01*
X44473Y272971D01*
X45286Y272157D01*
X45310Y272140D01*
X45329Y272117D01*
X45423Y272055D01*
X45513Y271987D01*
X45541Y271976D01*
X45565Y271960D01*
X45673Y271926D01*
X45779Y271885D01*
X45808Y271883D01*
X45836Y271874D01*
X45950Y271871D01*
X46062Y271862D01*
X46091Y271867D01*
X46120Y271867D01*
X46230Y271895D01*
X46341Y271918D01*
X46367Y271931D01*
X46395Y271939D01*
X46493Y271996D01*
X46593Y272049D01*
X46615Y272069D01*
X46640Y272084D01*
X46717Y272166D01*
X46799Y272244D01*
X46814Y272270D01*
X46834Y272291D01*
X46886Y272392D01*
X46943Y272490D01*
X46950Y272518D01*
X46964Y272544D01*
X46977Y272622D01*
X47013Y272765D01*
X47011Y272828D01*
X47019Y272875D01*
X47019Y279036D01*
X47011Y279094D01*
X47013Y279152D01*
X46991Y279234D01*
X46979Y279318D01*
X46956Y279371D01*
X46941Y279427D01*
X46898Y279500D01*
X46863Y279577D01*
X46825Y279622D01*
X46796Y279672D01*
X46734Y279730D01*
X46680Y279794D01*
X46631Y279826D01*
X46588Y279866D01*
X46513Y279905D01*
X46443Y279952D01*
X46387Y279969D01*
X46335Y279996D01*
X46267Y280007D01*
X46172Y280037D01*
X46072Y280040D01*
X46004Y280051D01*
X41821Y280051D01*
X40035Y281837D01*
X40035Y302363D01*
X41821Y304149D01*
X46004Y304149D01*
X46062Y304157D01*
X46120Y304155D01*
X46202Y304177D01*
X46286Y304189D01*
X46339Y304212D01*
X46395Y304227D01*
X46468Y304270D01*
X46545Y304305D01*
X46590Y304343D01*
X46640Y304372D01*
X46698Y304434D01*
X46762Y304488D01*
X46794Y304537D01*
X46834Y304580D01*
X46873Y304655D01*
X46920Y304725D01*
X46937Y304781D01*
X46964Y304833D01*
X46975Y304901D01*
X47005Y304996D01*
X47008Y305096D01*
X47019Y305164D01*
X47019Y305752D01*
X56118Y314850D01*
X56170Y314920D01*
X56230Y314984D01*
X56256Y315033D01*
X56289Y315078D01*
X56320Y315159D01*
X56360Y315237D01*
X56368Y315285D01*
X56390Y315343D01*
X56402Y315491D01*
X56415Y315568D01*
X56415Y316675D01*
X57339Y318906D01*
X59046Y320613D01*
X61277Y321537D01*
X63691Y321537D01*
X65922Y320613D01*
X67629Y318906D01*
X68553Y316675D01*
X68553Y314261D01*
X67629Y312030D01*
X65922Y310323D01*
X63691Y309399D01*
X62584Y309399D01*
X62498Y309387D01*
X62410Y309384D01*
X62358Y309367D01*
X62303Y309359D01*
X62223Y309324D01*
X62140Y309297D01*
X62100Y309269D01*
X62043Y309243D01*
X61930Y309147D01*
X61866Y309102D01*
X58646Y305882D01*
X58629Y305858D01*
X58606Y305839D01*
X58543Y305745D01*
X58475Y305655D01*
X58465Y305627D01*
X58449Y305603D01*
X58414Y305495D01*
X58374Y305389D01*
X58372Y305360D01*
X58363Y305332D01*
X58360Y305218D01*
X58351Y305106D01*
X58356Y305077D01*
X58356Y305048D01*
X58384Y304938D01*
X58406Y304827D01*
X58420Y304801D01*
X58427Y304773D01*
X58485Y304675D01*
X58537Y304575D01*
X58558Y304553D01*
X58573Y304528D01*
X58655Y304451D01*
X58733Y304369D01*
X58759Y304354D01*
X58780Y304334D01*
X58881Y304282D01*
X58979Y304225D01*
X59007Y304218D01*
X59033Y304204D01*
X59110Y304191D01*
X59254Y304155D01*
X59317Y304157D01*
X59364Y304149D01*
X60347Y304149D01*
X62133Y302363D01*
X62133Y297180D01*
X62140Y297128D01*
X62139Y297102D01*
X62140Y297098D01*
X62139Y297064D01*
X62161Y296982D01*
X62173Y296898D01*
X62196Y296845D01*
X62211Y296789D01*
X62254Y296716D01*
X62289Y296639D01*
X62327Y296594D01*
X62356Y296544D01*
X62418Y296486D01*
X62472Y296422D01*
X62521Y296390D01*
X62564Y296350D01*
X62639Y296311D01*
X62709Y296264D01*
X62765Y296247D01*
X62817Y296220D01*
X62885Y296209D01*
X62980Y296179D01*
X63080Y296176D01*
X63148Y296165D01*
X94162Y296165D01*
X94248Y296177D01*
X94336Y296180D01*
X94388Y296197D01*
X94443Y296205D01*
X94523Y296240D01*
X94606Y296267D01*
X94646Y296295D01*
X94703Y296321D01*
X94816Y296417D01*
X94880Y296462D01*
X116542Y318124D01*
X116594Y318194D01*
X116654Y318258D01*
X116680Y318307D01*
X116713Y318352D01*
X116744Y318433D01*
X116784Y318511D01*
X116792Y318559D01*
X116814Y318617D01*
X116826Y318765D01*
X116839Y318842D01*
X116839Y324485D01*
X116827Y324571D01*
X116824Y324659D01*
X116807Y324711D01*
X116799Y324766D01*
X116764Y324846D01*
X116737Y324929D01*
X116709Y324968D01*
X116683Y325026D01*
X116587Y325139D01*
X116542Y325203D01*
X115272Y326473D01*
X115225Y326508D01*
X115185Y326550D01*
X115112Y326593D01*
X115045Y326643D01*
X114990Y326664D01*
X114940Y326694D01*
X114858Y326715D01*
X114779Y326745D01*
X114721Y326750D01*
X114664Y326764D01*
X114580Y326761D01*
X114496Y326768D01*
X114438Y326757D01*
X114380Y326755D01*
X114300Y326729D01*
X114217Y326712D01*
X114165Y326685D01*
X114109Y326667D01*
X114053Y326627D01*
X113965Y326581D01*
X113892Y326513D01*
X113836Y326473D01*
X112317Y324953D01*
X99791Y324953D01*
X98005Y326739D01*
X98005Y326843D01*
X98001Y326872D01*
X98004Y326902D01*
X97981Y327013D01*
X97965Y327125D01*
X97953Y327152D01*
X97948Y327180D01*
X97895Y327281D01*
X97849Y327384D01*
X97830Y327407D01*
X97817Y327433D01*
X97739Y327515D01*
X97666Y327601D01*
X97641Y327618D01*
X97621Y327639D01*
X97523Y327696D01*
X97429Y327759D01*
X97401Y327768D01*
X97376Y327783D01*
X97266Y327810D01*
X97158Y327845D01*
X97128Y327845D01*
X97100Y327853D01*
X96987Y327849D01*
X96874Y327852D01*
X96845Y327845D01*
X96816Y327844D01*
X96708Y327809D01*
X96599Y327780D01*
X96573Y327765D01*
X96545Y327756D01*
X96481Y327711D01*
X96354Y327635D01*
X96311Y327589D01*
X96272Y327561D01*
X95180Y326469D01*
X84412Y326469D01*
X81747Y329134D01*
X81747Y330054D01*
X81746Y330064D01*
X81747Y330073D01*
X81726Y330205D01*
X81707Y330336D01*
X81703Y330344D01*
X81702Y330354D01*
X81645Y330474D01*
X81591Y330595D01*
X81585Y330602D01*
X81581Y330611D01*
X81493Y330711D01*
X81408Y330812D01*
X81399Y330817D01*
X81393Y330825D01*
X81282Y330896D01*
X81171Y330970D01*
X81161Y330972D01*
X81153Y330978D01*
X81027Y331015D01*
X80900Y331055D01*
X80890Y331056D01*
X80881Y331058D01*
X80748Y331059D01*
X80616Y331063D01*
X80606Y331060D01*
X80596Y331060D01*
X80468Y331024D01*
X80341Y330991D01*
X80332Y330986D01*
X80323Y330983D01*
X80209Y330913D01*
X80096Y330846D01*
X80089Y330838D01*
X80081Y330833D01*
X79992Y330735D01*
X79902Y330638D01*
X79897Y330629D01*
X79891Y330622D01*
X79867Y330571D01*
X79772Y330385D01*
X79766Y330350D01*
X79751Y330317D01*
X79521Y329458D01*
X78989Y328537D01*
X78237Y327785D01*
X77316Y327253D01*
X76288Y326977D01*
X74287Y326977D01*
X74287Y333502D01*
X74279Y333560D01*
X74280Y333618D01*
X74259Y333700D01*
X74247Y333783D01*
X74223Y333837D01*
X74209Y333893D01*
X74166Y333966D01*
X74131Y334043D01*
X74093Y334087D01*
X74063Y334138D01*
X74002Y334195D01*
X73947Y334260D01*
X73899Y334292D01*
X73856Y334332D01*
X73781Y334371D01*
X73711Y334417D01*
X73655Y334435D01*
X73603Y334462D01*
X73535Y334473D01*
X73440Y334503D01*
X73340Y334506D01*
X73272Y334517D01*
X72255Y334517D01*
X72255Y334519D01*
X73272Y334519D01*
X73330Y334527D01*
X73388Y334526D01*
X73470Y334547D01*
X73553Y334559D01*
X73607Y334583D01*
X73663Y334597D01*
X73736Y334640D01*
X73813Y334675D01*
X73857Y334713D01*
X73908Y334743D01*
X73965Y334804D01*
X74030Y334859D01*
X74062Y334907D01*
X74102Y334950D01*
X74141Y335025D01*
X74187Y335095D01*
X74205Y335151D01*
X74232Y335203D01*
X74243Y335271D01*
X74273Y335366D01*
X74276Y335466D01*
X74287Y335534D01*
X74287Y342059D01*
X76288Y342059D01*
X77316Y341783D01*
X78237Y341251D01*
X78989Y340499D01*
X79521Y339578D01*
X79751Y338719D01*
X79755Y338710D01*
X79757Y338700D01*
X79811Y338580D01*
X79863Y338458D01*
X79869Y338450D01*
X79873Y338441D01*
X79958Y338340D01*
X80042Y338237D01*
X80050Y338232D01*
X80057Y338224D01*
X80167Y338150D01*
X80276Y338075D01*
X80285Y338072D01*
X80293Y338066D01*
X80420Y338026D01*
X80545Y337984D01*
X80555Y337984D01*
X80564Y337981D01*
X80697Y337977D01*
X80829Y337971D01*
X80839Y337974D01*
X80848Y337973D01*
X80976Y338007D01*
X81105Y338038D01*
X81114Y338043D01*
X81123Y338045D01*
X81236Y338112D01*
X81353Y338178D01*
X81359Y338186D01*
X81368Y338190D01*
X81458Y338287D01*
X81551Y338382D01*
X81556Y338391D01*
X81562Y338398D01*
X81623Y338516D01*
X81685Y338633D01*
X81687Y338642D01*
X81692Y338651D01*
X81701Y338707D01*
X81745Y338911D01*
X81741Y338946D01*
X81747Y338982D01*
X81747Y339902D01*
X84412Y342567D01*
X95180Y342567D01*
X97026Y340721D01*
X97072Y340686D01*
X97113Y340644D01*
X97186Y340601D01*
X97253Y340550D01*
X97308Y340529D01*
X97358Y340500D01*
X97440Y340479D01*
X97519Y340449D01*
X97577Y340444D01*
X97634Y340430D01*
X97718Y340432D01*
X97802Y340425D01*
X97859Y340437D01*
X97918Y340439D01*
X97998Y340465D01*
X98081Y340481D01*
X98133Y340508D01*
X98188Y340526D01*
X98244Y340566D01*
X98333Y340612D01*
X98405Y340681D01*
X98462Y340721D01*
X99791Y342051D01*
X112317Y342051D01*
X113836Y340531D01*
X113883Y340496D01*
X113923Y340454D01*
X113996Y340411D01*
X114063Y340361D01*
X114118Y340340D01*
X114168Y340310D01*
X114250Y340289D01*
X114329Y340259D01*
X114387Y340254D01*
X114444Y340240D01*
X114528Y340243D01*
X114612Y340236D01*
X114670Y340247D01*
X114728Y340249D01*
X114808Y340275D01*
X114891Y340292D01*
X114943Y340319D01*
X114999Y340337D01*
X115055Y340377D01*
X115143Y340423D01*
X115216Y340491D01*
X115272Y340531D01*
X116791Y342051D01*
X129317Y342051D01*
X130727Y340640D01*
X130774Y340605D01*
X130814Y340563D01*
X130887Y340520D01*
X130954Y340470D01*
X131009Y340449D01*
X131059Y340419D01*
X131141Y340398D01*
X131220Y340368D01*
X131278Y340363D01*
X131335Y340349D01*
X131419Y340352D01*
X131503Y340345D01*
X131561Y340356D01*
X131619Y340358D01*
X131699Y340384D01*
X131782Y340401D01*
X131834Y340428D01*
X131890Y340446D01*
X131946Y340486D01*
X132034Y340532D01*
X132107Y340600D01*
X132163Y340640D01*
X133573Y342051D01*
X146099Y342051D01*
X147618Y340531D01*
X147665Y340496D01*
X147705Y340454D01*
X147778Y340411D01*
X147845Y340361D01*
X147900Y340340D01*
X147950Y340310D01*
X148032Y340289D01*
X148111Y340259D01*
X148169Y340254D01*
X148226Y340240D01*
X148310Y340243D01*
X148394Y340236D01*
X148452Y340247D01*
X148510Y340249D01*
X148590Y340275D01*
X148673Y340292D01*
X148725Y340319D01*
X148781Y340337D01*
X148837Y340377D01*
X148925Y340423D01*
X148998Y340491D01*
X149054Y340531D01*
X150573Y342051D01*
X163099Y342051D01*
X164885Y340265D01*
X164885Y331622D01*
X164897Y331536D01*
X164900Y331448D01*
X164917Y331396D01*
X164925Y331341D01*
X164960Y331261D01*
X164987Y331178D01*
X165015Y331138D01*
X165041Y331081D01*
X165137Y330968D01*
X165182Y330904D01*
X173293Y322794D01*
X173293Y317831D01*
X173305Y317746D01*
X173307Y317660D01*
X173325Y317606D01*
X173333Y317550D01*
X173368Y317471D01*
X173394Y317389D01*
X173426Y317342D01*
X173449Y317290D01*
X173504Y317225D01*
X173552Y317153D01*
X173596Y317117D01*
X173632Y317073D01*
X173704Y317026D01*
X173770Y316970D01*
X173822Y316947D01*
X173869Y316916D01*
X173951Y316890D01*
X174030Y316855D01*
X174086Y316847D01*
X174140Y316830D01*
X174226Y316828D01*
X174311Y316816D01*
X174367Y316824D01*
X174424Y316823D01*
X174507Y316844D01*
X174593Y316857D01*
X174644Y316880D01*
X174699Y316894D01*
X174773Y316938D01*
X174852Y316974D01*
X174895Y317010D01*
X174944Y317040D01*
X175003Y317102D01*
X175068Y317158D01*
X175094Y317200D01*
X175138Y317247D01*
X175204Y317376D01*
X175246Y317443D01*
X175957Y319160D01*
X177664Y320867D01*
X179895Y321791D01*
X180730Y321791D01*
X180816Y321803D01*
X180904Y321806D01*
X180956Y321823D01*
X181011Y321831D01*
X181091Y321866D01*
X181174Y321893D01*
X181214Y321921D01*
X181271Y321947D01*
X181384Y322043D01*
X181448Y322088D01*
X199392Y340032D01*
X199427Y340079D01*
X199469Y340119D01*
X199512Y340192D01*
X199563Y340259D01*
X199583Y340314D01*
X199613Y340364D01*
X199634Y340446D01*
X199664Y340525D01*
X199669Y340583D01*
X199683Y340640D01*
X199680Y340724D01*
X199687Y340808D01*
X199676Y340866D01*
X199674Y340924D01*
X199648Y341004D01*
X199632Y341087D01*
X199605Y341139D01*
X199587Y341195D01*
X199546Y341251D01*
X199501Y341339D01*
X199432Y341412D01*
X199392Y341468D01*
X190384Y350476D01*
X190314Y350528D01*
X190250Y350588D01*
X190201Y350614D01*
X190156Y350647D01*
X190075Y350678D01*
X189997Y350718D01*
X189949Y350726D01*
X189891Y350748D01*
X189743Y350760D01*
X189666Y350773D01*
X132118Y350773D01*
X132060Y350765D01*
X132002Y350767D01*
X131920Y350745D01*
X131836Y350733D01*
X131783Y350710D01*
X131727Y350695D01*
X131654Y350652D01*
X131577Y350617D01*
X131532Y350579D01*
X131482Y350550D01*
X131424Y350488D01*
X131360Y350434D01*
X131328Y350385D01*
X131288Y350342D01*
X131249Y350267D01*
X131202Y350197D01*
X131185Y350141D01*
X131158Y350089D01*
X131147Y350021D01*
X131117Y349926D01*
X131114Y349826D01*
X131103Y349758D01*
X131103Y348329D01*
X129317Y346543D01*
X116791Y346543D01*
X115272Y348063D01*
X115225Y348098D01*
X115185Y348140D01*
X115112Y348183D01*
X115045Y348233D01*
X114990Y348254D01*
X114940Y348284D01*
X114858Y348305D01*
X114779Y348335D01*
X114721Y348340D01*
X114664Y348354D01*
X114580Y348351D01*
X114496Y348358D01*
X114438Y348347D01*
X114380Y348345D01*
X114300Y348319D01*
X114217Y348302D01*
X114165Y348275D01*
X114109Y348257D01*
X114053Y348217D01*
X113965Y348171D01*
X113892Y348103D01*
X113836Y348063D01*
X112317Y346543D01*
X99791Y346543D01*
X97827Y348508D01*
X97780Y348543D01*
X97740Y348585D01*
X97667Y348628D01*
X97599Y348679D01*
X97545Y348700D01*
X97494Y348729D01*
X97413Y348750D01*
X97334Y348780D01*
X97275Y348785D01*
X97219Y348799D01*
X97134Y348797D01*
X97050Y348804D01*
X96993Y348792D01*
X96935Y348790D01*
X96854Y348764D01*
X96772Y348748D01*
X96720Y348721D01*
X96664Y348703D01*
X96608Y348663D01*
X96519Y348617D01*
X96447Y348548D01*
X96391Y348508D01*
X95180Y347297D01*
X84412Y347297D01*
X81747Y349962D01*
X81747Y350882D01*
X81746Y350892D01*
X81747Y350901D01*
X81726Y351032D01*
X81707Y351163D01*
X81703Y351172D01*
X81702Y351182D01*
X81646Y351302D01*
X81591Y351423D01*
X81585Y351430D01*
X81581Y351439D01*
X81493Y351539D01*
X81408Y351640D01*
X81399Y351645D01*
X81393Y351653D01*
X81281Y351724D01*
X81171Y351797D01*
X81162Y351800D01*
X81153Y351806D01*
X81027Y351843D01*
X80900Y351883D01*
X80890Y351884D01*
X80881Y351886D01*
X80748Y351887D01*
X80616Y351891D01*
X80606Y351888D01*
X80596Y351888D01*
X80468Y351852D01*
X80341Y351819D01*
X80332Y351814D01*
X80323Y351811D01*
X80210Y351741D01*
X80096Y351673D01*
X80089Y351666D01*
X80081Y351661D01*
X79992Y351563D01*
X79902Y351466D01*
X79897Y351457D01*
X79891Y351450D01*
X79867Y351399D01*
X79772Y351213D01*
X79766Y351178D01*
X79751Y351145D01*
X79521Y350286D01*
X78989Y349365D01*
X78237Y348613D01*
X77316Y348081D01*
X76288Y347805D01*
X74287Y347805D01*
X74287Y354330D01*
X74279Y354388D01*
X74280Y354446D01*
X74259Y354528D01*
X74247Y354611D01*
X74223Y354665D01*
X74209Y354721D01*
X74166Y354794D01*
X74131Y354871D01*
X74093Y354915D01*
X74063Y354966D01*
X74002Y355023D01*
X73947Y355088D01*
X73899Y355120D01*
X73856Y355160D01*
X73781Y355199D01*
X73711Y355245D01*
X73655Y355263D01*
X73603Y355290D01*
X73535Y355301D01*
X73440Y355331D01*
X73340Y355334D01*
X73272Y355345D01*
X72255Y355345D01*
X72255Y355347D01*
X73272Y355347D01*
X73330Y355355D01*
X73388Y355354D01*
X73470Y355375D01*
X73553Y355387D01*
X73607Y355411D01*
X73663Y355425D01*
X73736Y355468D01*
X73813Y355503D01*
X73857Y355541D01*
X73908Y355571D01*
X73965Y355632D01*
X74030Y355687D01*
X74062Y355735D01*
X74102Y355778D01*
X74141Y355853D01*
X74187Y355923D01*
X74205Y355979D01*
X74232Y356031D01*
X74243Y356099D01*
X74273Y356194D01*
X74276Y356294D01*
X74287Y356362D01*
X74287Y362887D01*
X76288Y362887D01*
X77316Y362611D01*
X78237Y362079D01*
X78989Y361327D01*
X79521Y360406D01*
X79751Y359547D01*
X79755Y359538D01*
X79757Y359529D01*
X79811Y359408D01*
X79863Y359286D01*
X79869Y359278D01*
X79873Y359269D01*
X79958Y359169D01*
X80042Y359065D01*
X80050Y359060D01*
X80057Y359052D01*
X80167Y358979D01*
X80276Y358903D01*
X80285Y358900D01*
X80293Y358895D01*
X80420Y358854D01*
X80545Y358812D01*
X80555Y358812D01*
X80564Y358809D01*
X80697Y358805D01*
X80829Y358799D01*
X80839Y358802D01*
X80848Y358801D01*
X80976Y358835D01*
X81105Y358866D01*
X81114Y358871D01*
X81123Y358873D01*
X81237Y358941D01*
X81353Y359006D01*
X81359Y359013D01*
X81368Y359019D01*
X81458Y359115D01*
X81551Y359210D01*
X81556Y359219D01*
X81562Y359226D01*
X81623Y359344D01*
X81685Y359461D01*
X81687Y359470D01*
X81692Y359479D01*
X81701Y359535D01*
X81745Y359739D01*
X81741Y359775D01*
X81747Y359810D01*
X81747Y360730D01*
X84412Y363395D01*
X95180Y363395D01*
X96645Y361930D01*
X96691Y361895D01*
X96732Y361853D01*
X96805Y361810D01*
X96872Y361759D01*
X96927Y361738D01*
X96977Y361709D01*
X97059Y361688D01*
X97138Y361658D01*
X97196Y361653D01*
X97253Y361639D01*
X97337Y361641D01*
X97421Y361634D01*
X97478Y361646D01*
X97537Y361648D01*
X97617Y361674D01*
X97700Y361690D01*
X97752Y361717D01*
X97807Y361735D01*
X97863Y361775D01*
X97952Y361821D01*
X98024Y361890D01*
X98081Y361930D01*
X99791Y363641D01*
X112317Y363641D01*
X113836Y362121D01*
X113883Y362086D01*
X113923Y362044D01*
X113996Y362001D01*
X114063Y361951D01*
X114118Y361930D01*
X114168Y361900D01*
X114250Y361879D01*
X114329Y361849D01*
X114387Y361844D01*
X114444Y361830D01*
X114528Y361833D01*
X114612Y361826D01*
X114670Y361837D01*
X114728Y361839D01*
X114808Y361865D01*
X114891Y361882D01*
X114943Y361909D01*
X114999Y361927D01*
X115055Y361967D01*
X115143Y362013D01*
X115216Y362081D01*
X115272Y362121D01*
X116791Y363641D01*
X129317Y363641D01*
X131103Y361855D01*
X131103Y359918D01*
X131111Y359860D01*
X131109Y359802D01*
X131131Y359720D01*
X131143Y359636D01*
X131166Y359583D01*
X131181Y359527D01*
X131224Y359454D01*
X131259Y359377D01*
X131297Y359332D01*
X131326Y359282D01*
X131388Y359224D01*
X131442Y359160D01*
X131491Y359128D01*
X131534Y359088D01*
X131609Y359049D01*
X131679Y359002D01*
X131735Y358985D01*
X131787Y358958D01*
X131855Y358947D01*
X131950Y358917D01*
X132050Y358914D01*
X132118Y358903D01*
X193454Y358903D01*
X196132Y356224D01*
X207244Y345112D01*
X207314Y345060D01*
X207378Y345000D01*
X207427Y344974D01*
X207471Y344941D01*
X207553Y344910D01*
X207631Y344870D01*
X207679Y344862D01*
X207737Y344840D01*
X207885Y344828D01*
X207962Y344815D01*
X239102Y344815D01*
X239160Y344823D01*
X239218Y344821D01*
X239300Y344843D01*
X239384Y344855D01*
X239437Y344878D01*
X239493Y344893D01*
X239566Y344936D01*
X239643Y344971D01*
X239688Y345009D01*
X239738Y345038D01*
X239796Y345100D01*
X239860Y345154D01*
X239892Y345203D01*
X239932Y345246D01*
X239971Y345321D01*
X240018Y345391D01*
X240035Y345447D01*
X240062Y345499D01*
X240073Y345567D01*
X240103Y345662D01*
X240106Y345762D01*
X240117Y345830D01*
X240117Y347013D01*
X241637Y348532D01*
X241672Y348579D01*
X241714Y348619D01*
X241757Y348692D01*
X241807Y348759D01*
X241828Y348814D01*
X241858Y348864D01*
X241879Y348946D01*
X241909Y349025D01*
X241914Y349083D01*
X241928Y349140D01*
X241925Y349224D01*
X241932Y349308D01*
X241921Y349366D01*
X241919Y349424D01*
X241893Y349504D01*
X241876Y349587D01*
X241849Y349639D01*
X241831Y349695D01*
X241791Y349751D01*
X241745Y349839D01*
X241677Y349912D01*
X241637Y349968D01*
X240117Y351487D01*
X240117Y364013D01*
X241903Y365799D01*
X255429Y365799D01*
X257215Y364013D01*
X257215Y362950D01*
X257219Y362921D01*
X257216Y362892D01*
X257239Y362781D01*
X257255Y362669D01*
X257267Y362642D01*
X257272Y362613D01*
X257325Y362513D01*
X257371Y362409D01*
X257390Y362387D01*
X257403Y362361D01*
X257481Y362279D01*
X257554Y362192D01*
X257579Y362176D01*
X257599Y362155D01*
X257697Y362097D01*
X257791Y362035D01*
X257819Y362026D01*
X257844Y362011D01*
X257954Y361983D01*
X258062Y361949D01*
X258092Y361948D01*
X258120Y361941D01*
X258233Y361944D01*
X258346Y361942D01*
X258375Y361949D01*
X258404Y361950D01*
X258512Y361985D01*
X258621Y362013D01*
X258647Y362028D01*
X258675Y362037D01*
X258738Y362083D01*
X258866Y362159D01*
X258909Y362204D01*
X258948Y362232D01*
X261576Y364860D01*
X264254Y367539D01*
X289466Y367539D01*
X299823Y357182D01*
X299823Y357146D01*
X299831Y357088D01*
X299829Y357030D01*
X299851Y356948D01*
X299863Y356864D01*
X299886Y356811D01*
X299901Y356755D01*
X299944Y356682D01*
X299979Y356605D01*
X300017Y356560D01*
X300046Y356510D01*
X300108Y356452D01*
X300162Y356388D01*
X300211Y356356D01*
X300254Y356316D01*
X300329Y356277D01*
X300399Y356230D01*
X300455Y356213D01*
X300507Y356186D01*
X300575Y356175D01*
X300670Y356145D01*
X300770Y356142D01*
X300838Y356131D01*
X301021Y356131D01*
X302807Y354345D01*
X302807Y342819D01*
X301021Y341033D01*
X290495Y341033D01*
X288709Y342819D01*
X288709Y354345D01*
X289218Y354854D01*
X289253Y354900D01*
X289296Y354941D01*
X289338Y355013D01*
X289389Y355081D01*
X289410Y355136D01*
X289439Y355186D01*
X289460Y355268D01*
X289490Y355347D01*
X289495Y355405D01*
X289510Y355461D01*
X289507Y355546D01*
X289514Y355630D01*
X289502Y355687D01*
X289500Y355746D01*
X289475Y355826D01*
X289458Y355909D01*
X289431Y355961D01*
X289413Y356016D01*
X289373Y356072D01*
X289327Y356161D01*
X289258Y356233D01*
X289218Y356289D01*
X286396Y359112D01*
X286326Y359164D01*
X286262Y359224D01*
X286213Y359250D01*
X286168Y359283D01*
X286087Y359314D01*
X286009Y359354D01*
X285961Y359362D01*
X285903Y359384D01*
X285755Y359396D01*
X285678Y359409D01*
X268042Y359409D01*
X267956Y359397D01*
X267868Y359394D01*
X267816Y359377D01*
X267761Y359369D01*
X267681Y359334D01*
X267598Y359307D01*
X267558Y359279D01*
X267501Y359253D01*
X267388Y359157D01*
X267324Y359112D01*
X266680Y358468D01*
X266645Y358421D01*
X266603Y358381D01*
X266560Y358308D01*
X266509Y358241D01*
X266489Y358186D01*
X266459Y358136D01*
X266438Y358054D01*
X266408Y357975D01*
X266403Y357917D01*
X266389Y357860D01*
X266392Y357776D01*
X266385Y357692D01*
X266396Y357634D01*
X266398Y357576D01*
X266424Y357496D01*
X266440Y357413D01*
X266467Y357361D01*
X266485Y357305D01*
X266525Y357249D01*
X266571Y357161D01*
X266640Y357088D01*
X266680Y357032D01*
X268479Y355234D01*
X268479Y354540D01*
X268481Y354521D01*
X268479Y354502D01*
X268501Y354380D01*
X268519Y354259D01*
X268527Y354241D01*
X268530Y354222D01*
X268585Y354112D01*
X268635Y354000D01*
X268647Y353985D01*
X268656Y353967D01*
X268739Y353876D01*
X268818Y353783D01*
X268835Y353772D01*
X268848Y353757D01*
X268953Y353693D01*
X269055Y353625D01*
X269074Y353619D01*
X269090Y353609D01*
X269209Y353576D01*
X269326Y353539D01*
X269346Y353539D01*
X269365Y353534D01*
X269487Y353535D01*
X269610Y353532D01*
X269629Y353537D01*
X269649Y353537D01*
X269767Y353573D01*
X269885Y353604D01*
X269902Y353614D01*
X269921Y353619D01*
X270024Y353686D01*
X270130Y353749D01*
X270143Y353763D01*
X270160Y353774D01*
X270206Y353831D01*
X270324Y353956D01*
X270348Y354002D01*
X270373Y354033D01*
X270725Y354642D01*
X271198Y355115D01*
X271777Y355450D01*
X272424Y355623D01*
X274759Y355623D01*
X274759Y349566D01*
X274767Y349508D01*
X274765Y349450D01*
X274787Y349368D01*
X274799Y349285D01*
X274822Y349231D01*
X274837Y349175D01*
X274880Y349102D01*
X274915Y349025D01*
X274953Y348981D01*
X274982Y348930D01*
X275044Y348873D01*
X275098Y348808D01*
X275147Y348776D01*
X275190Y348736D01*
X275265Y348697D01*
X275335Y348651D01*
X275391Y348633D01*
X275443Y348606D01*
X275511Y348595D01*
X275553Y348582D01*
X275492Y348573D01*
X275439Y348549D01*
X275383Y348535D01*
X275310Y348491D01*
X275233Y348457D01*
X275188Y348419D01*
X275138Y348389D01*
X275080Y348328D01*
X275016Y348273D01*
X274984Y348225D01*
X274944Y348182D01*
X274905Y348107D01*
X274858Y348037D01*
X274841Y347981D01*
X274814Y347929D01*
X274803Y347861D01*
X274773Y347766D01*
X274770Y347666D01*
X274759Y347598D01*
X274759Y341541D01*
X272424Y341541D01*
X271777Y341714D01*
X271198Y342049D01*
X270725Y342522D01*
X270373Y343131D01*
X270361Y343147D01*
X270353Y343164D01*
X270274Y343258D01*
X270198Y343355D01*
X270182Y343367D01*
X270169Y343381D01*
X270067Y343449D01*
X269968Y343522D01*
X269949Y343528D01*
X269933Y343539D01*
X269816Y343576D01*
X269700Y343618D01*
X269680Y343619D01*
X269662Y343625D01*
X269539Y343628D01*
X269416Y343636D01*
X269397Y343632D01*
X269378Y343632D01*
X269259Y343601D01*
X269139Y343575D01*
X269121Y343565D01*
X269103Y343560D01*
X268997Y343498D01*
X268889Y343439D01*
X268875Y343425D01*
X268858Y343415D01*
X268774Y343325D01*
X268687Y343239D01*
X268677Y343222D01*
X268664Y343208D01*
X268608Y343098D01*
X268548Y342991D01*
X268543Y342972D01*
X268534Y342955D01*
X268522Y342882D01*
X268483Y342714D01*
X268485Y342663D01*
X268479Y342624D01*
X268479Y326738D01*
X262914Y321173D01*
X258230Y321173D01*
X258172Y321165D01*
X258114Y321167D01*
X258032Y321145D01*
X257948Y321133D01*
X257895Y321110D01*
X257839Y321095D01*
X257766Y321052D01*
X257689Y321017D01*
X257644Y320979D01*
X257594Y320950D01*
X257536Y320888D01*
X257472Y320834D01*
X257440Y320785D01*
X257400Y320742D01*
X257361Y320667D01*
X257314Y320597D01*
X257297Y320541D01*
X257270Y320489D01*
X257259Y320421D01*
X257229Y320326D01*
X257226Y320226D01*
X257215Y320158D01*
X257215Y318975D01*
X255257Y317018D01*
X255228Y316979D01*
X255192Y316946D01*
X255143Y316866D01*
X255086Y316790D01*
X255069Y316745D01*
X255043Y316703D01*
X255018Y316613D01*
X254985Y316525D01*
X254981Y316476D01*
X254968Y316429D01*
X254969Y316335D01*
X254961Y316241D01*
X254971Y316194D01*
X254972Y316145D01*
X254999Y316055D01*
X255017Y315963D01*
X255040Y315919D01*
X255054Y315873D01*
X255105Y315794D01*
X255148Y315710D01*
X255182Y315675D01*
X255208Y315634D01*
X255266Y315587D01*
X255344Y315504D01*
X255419Y315460D01*
X255467Y315420D01*
X255726Y315271D01*
X256199Y314798D01*
X256534Y314219D01*
X256707Y313572D01*
X256707Y310269D01*
X249682Y310269D01*
X249624Y310261D01*
X249566Y310262D01*
X249484Y310241D01*
X249401Y310229D01*
X249347Y310205D01*
X249291Y310191D01*
X249218Y310148D01*
X249141Y310113D01*
X249097Y310075D01*
X249046Y310045D01*
X248989Y309984D01*
X248924Y309929D01*
X248892Y309881D01*
X248852Y309838D01*
X248813Y309763D01*
X248767Y309693D01*
X248749Y309637D01*
X248722Y309585D01*
X248711Y309517D01*
X248681Y309422D01*
X248678Y309322D01*
X248667Y309254D01*
X248667Y307222D01*
X248675Y307164D01*
X248674Y307106D01*
X248695Y307024D01*
X248707Y306941D01*
X248731Y306887D01*
X248745Y306831D01*
X248788Y306758D01*
X248823Y306681D01*
X248861Y306636D01*
X248891Y306586D01*
X248952Y306528D01*
X249007Y306464D01*
X249055Y306432D01*
X249098Y306392D01*
X249173Y306353D01*
X249243Y306307D01*
X249299Y306289D01*
X249351Y306262D01*
X249419Y306251D01*
X249514Y306221D01*
X249614Y306218D01*
X249682Y306207D01*
X256707Y306207D01*
X256707Y302904D01*
X256534Y302257D01*
X256242Y301752D01*
X256232Y301727D01*
X256226Y301718D01*
X256223Y301709D01*
X256205Y301683D01*
X256174Y301584D01*
X256135Y301488D01*
X256131Y301449D01*
X256120Y301412D01*
X256117Y301308D01*
X256106Y301205D01*
X256113Y301167D01*
X256112Y301128D01*
X256138Y301027D01*
X256157Y300925D01*
X256174Y300890D01*
X256184Y300853D01*
X256237Y300764D01*
X256283Y300671D01*
X256309Y300642D01*
X256329Y300608D01*
X256405Y300537D01*
X256475Y300461D01*
X256508Y300440D01*
X256537Y300414D01*
X256629Y300366D01*
X256717Y300312D01*
X256755Y300302D01*
X256790Y300284D01*
X256866Y300271D01*
X256991Y300237D01*
X257066Y300238D01*
X257121Y300229D01*
X264066Y300229D01*
X278969Y285326D01*
X278969Y253132D01*
X278969Y253130D01*
X278969Y253129D01*
X278990Y252986D01*
X279009Y252850D01*
X279009Y252849D01*
X279010Y252847D01*
X279067Y252722D01*
X279125Y252591D01*
X279126Y252590D01*
X279127Y252588D01*
X279219Y252479D01*
X279309Y252374D01*
X279310Y252373D01*
X279311Y252372D01*
X279324Y252364D01*
X279545Y252216D01*
X279575Y252207D01*
X279596Y252194D01*
X281955Y251217D01*
X285456Y247716D01*
X286973Y244054D01*
X287008Y243994D01*
X287034Y243930D01*
X287080Y243872D01*
X287117Y243809D01*
X287168Y243761D01*
X287211Y243707D01*
X287270Y243664D01*
X287324Y243614D01*
X287386Y243582D01*
X287442Y243542D01*
X287511Y243517D01*
X287577Y243483D01*
X287645Y243470D01*
X287710Y243447D01*
X287783Y243443D01*
X287856Y243428D01*
X287925Y243434D01*
X287994Y243430D01*
X288066Y243446D01*
X288139Y243453D01*
X288203Y243478D01*
X288271Y243493D01*
X288336Y243528D01*
X288404Y243555D01*
X288459Y243596D01*
X288520Y243630D01*
X288572Y243682D01*
X288631Y243726D01*
X288672Y243782D01*
X288721Y243831D01*
X288750Y243886D01*
X288801Y243954D01*
X288842Y244062D01*
X288876Y244128D01*
X289240Y245248D01*
X290093Y246922D01*
X291198Y248443D01*
X292527Y249771D01*
X294047Y250876D01*
X295721Y251729D01*
X297509Y252310D01*
X298273Y252431D01*
X298273Y241681D01*
X298281Y241623D01*
X298280Y241565D01*
X298301Y241483D01*
X298313Y241400D01*
X298337Y241346D01*
X298351Y241290D01*
X298395Y241217D01*
X298429Y241140D01*
X298467Y241096D01*
X298497Y241045D01*
X298558Y240988D01*
X298613Y240923D01*
X298661Y240891D01*
X298704Y240851D01*
X298779Y240812D01*
X298849Y240766D01*
X298905Y240748D01*
X298957Y240721D01*
X299025Y240710D01*
X299120Y240680D01*
X299220Y240677D01*
X299288Y240666D01*
X301320Y240666D01*
X301378Y240674D01*
X301436Y240673D01*
X301518Y240694D01*
X301602Y240706D01*
X301655Y240730D01*
X301712Y240744D01*
X301784Y240787D01*
X301861Y240822D01*
X301906Y240860D01*
X301956Y240890D01*
X302014Y240951D01*
X302078Y241006D01*
X302110Y241054D01*
X302150Y241097D01*
X302189Y241172D01*
X302236Y241242D01*
X302253Y241298D01*
X302280Y241350D01*
X302291Y241418D01*
X302321Y241513D01*
X302324Y241613D01*
X302335Y241681D01*
X302335Y252431D01*
X303100Y252310D01*
X304887Y251729D01*
X306561Y250876D01*
X308082Y249771D01*
X309410Y248443D01*
X310515Y246922D01*
X311368Y245248D01*
X311708Y244201D01*
X311764Y244088D01*
X311815Y243974D01*
X311826Y243961D01*
X311833Y243945D01*
X311917Y243852D01*
X311999Y243757D01*
X312013Y243747D01*
X312024Y243735D01*
X312131Y243669D01*
X312235Y243599D01*
X312251Y243594D01*
X312266Y243585D01*
X312387Y243551D01*
X312506Y243513D01*
X312523Y243513D01*
X312539Y243508D01*
X312665Y243509D01*
X312790Y243506D01*
X312807Y243510D01*
X312824Y243510D01*
X312944Y243546D01*
X313065Y243578D01*
X313080Y243586D01*
X313096Y243591D01*
X313202Y243659D01*
X313310Y243723D01*
X313321Y243735D01*
X313336Y243745D01*
X313418Y243839D01*
X313504Y243930D01*
X313512Y243945D01*
X313523Y243958D01*
X313577Y244072D01*
X313634Y244183D01*
X313636Y244199D01*
X313644Y244215D01*
X313689Y244496D01*
X313688Y244505D01*
X313689Y244514D01*
X313689Y299422D01*
X313685Y299451D01*
X313688Y299480D01*
X313665Y299591D01*
X313649Y299703D01*
X313637Y299730D01*
X313632Y299759D01*
X313580Y299859D01*
X313533Y299962D01*
X313514Y299985D01*
X313501Y300011D01*
X313423Y300093D01*
X313350Y300179D01*
X313325Y300196D01*
X313305Y300217D01*
X313207Y300274D01*
X313113Y300337D01*
X313085Y300346D01*
X313060Y300361D01*
X312950Y300389D01*
X312842Y300423D01*
X312812Y300424D01*
X312784Y300431D01*
X312671Y300427D01*
X312558Y300430D01*
X312529Y300423D01*
X312500Y300422D01*
X312392Y300387D01*
X312283Y300358D01*
X312257Y300343D01*
X312229Y300334D01*
X312166Y300289D01*
X312038Y300213D01*
X311995Y300167D01*
X311956Y300139D01*
X306561Y294745D01*
X306526Y294698D01*
X306484Y294658D01*
X306441Y294585D01*
X306390Y294517D01*
X306370Y294463D01*
X306340Y294412D01*
X306319Y294331D01*
X306289Y294252D01*
X306284Y294193D01*
X306270Y294137D01*
X306273Y294053D01*
X306266Y293969D01*
X306277Y293911D01*
X306279Y293853D01*
X306305Y293773D01*
X306322Y293690D01*
X306348Y293638D01*
X306366Y293582D01*
X306407Y293526D01*
X306453Y293437D01*
X306521Y293365D01*
X306561Y293309D01*
X311278Y288593D01*
X311278Y286257D01*
X301752Y286257D01*
X301694Y286249D01*
X301636Y286251D01*
X301554Y286229D01*
X301471Y286217D01*
X301417Y286193D01*
X301361Y286179D01*
X301288Y286136D01*
X301211Y286101D01*
X301167Y286063D01*
X301116Y286033D01*
X301059Y285972D01*
X300994Y285917D01*
X300962Y285869D01*
X300922Y285826D01*
X300883Y285751D01*
X300837Y285681D01*
X300819Y285625D01*
X300792Y285573D01*
X300781Y285505D01*
X300751Y285410D01*
X300748Y285310D01*
X300737Y285242D01*
X300737Y284225D01*
X300735Y284225D01*
X300735Y285242D01*
X300727Y285300D01*
X300728Y285358D01*
X300707Y285440D01*
X300695Y285523D01*
X300671Y285577D01*
X300657Y285633D01*
X300614Y285706D01*
X300579Y285783D01*
X300541Y285828D01*
X300511Y285878D01*
X300450Y285936D01*
X300395Y286000D01*
X300347Y286032D01*
X300304Y286072D01*
X300229Y286111D01*
X300159Y286157D01*
X300103Y286175D01*
X300051Y286202D01*
X299983Y286213D01*
X299888Y286243D01*
X299788Y286246D01*
X299720Y286257D01*
X290194Y286257D01*
X290194Y288593D01*
X294911Y293309D01*
X294946Y293356D01*
X294988Y293396D01*
X295031Y293469D01*
X295082Y293536D01*
X295102Y293591D01*
X295132Y293641D01*
X295153Y293723D01*
X295183Y293802D01*
X295188Y293860D01*
X295202Y293917D01*
X295199Y294001D01*
X295206Y294085D01*
X295195Y294142D01*
X295193Y294201D01*
X295167Y294281D01*
X295150Y294364D01*
X295124Y294416D01*
X295106Y294471D01*
X295065Y294528D01*
X295019Y294616D01*
X294951Y294688D01*
X294911Y294745D01*
X289686Y299969D01*
X289686Y309427D01*
X289679Y309481D01*
X289680Y309517D01*
X289673Y309542D01*
X289671Y309601D01*
X289654Y309654D01*
X289646Y309708D01*
X289611Y309788D01*
X289584Y309871D01*
X289556Y309911D01*
X289530Y309968D01*
X289434Y310081D01*
X289389Y310145D01*
X284872Y314662D01*
X282193Y317340D01*
X282193Y319018D01*
X282185Y319076D01*
X282187Y319134D01*
X282165Y319216D01*
X282153Y319300D01*
X282130Y319353D01*
X282115Y319409D01*
X282072Y319482D01*
X282037Y319559D01*
X281999Y319604D01*
X281970Y319654D01*
X281908Y319712D01*
X281854Y319776D01*
X281805Y319808D01*
X281762Y319848D01*
X281687Y319887D01*
X281617Y319934D01*
X281561Y319951D01*
X281509Y319978D01*
X281441Y319989D01*
X281346Y320019D01*
X281246Y320022D01*
X281178Y320033D01*
X280995Y320033D01*
X279209Y321819D01*
X279209Y333345D01*
X280995Y335131D01*
X291521Y335131D01*
X293307Y333345D01*
X293307Y321819D01*
X291977Y320489D01*
X291942Y320443D01*
X291899Y320402D01*
X291857Y320329D01*
X291806Y320262D01*
X291785Y320207D01*
X291756Y320157D01*
X291735Y320075D01*
X291705Y319996D01*
X291700Y319938D01*
X291685Y319882D01*
X291688Y319797D01*
X291681Y319713D01*
X291693Y319656D01*
X291695Y319597D01*
X291720Y319517D01*
X291737Y319434D01*
X291764Y319382D01*
X291782Y319327D01*
X291822Y319271D01*
X291868Y319182D01*
X291937Y319110D01*
X291977Y319054D01*
X295137Y315893D01*
X295207Y315841D01*
X295271Y315781D01*
X295320Y315755D01*
X295364Y315722D01*
X295446Y315691D01*
X295524Y315651D01*
X295572Y315643D01*
X295630Y315621D01*
X295778Y315609D01*
X295855Y315596D01*
X305313Y315596D01*
X311956Y308953D01*
X311980Y308935D01*
X311999Y308913D01*
X312093Y308850D01*
X312183Y308782D01*
X312211Y308771D01*
X312235Y308755D01*
X312343Y308721D01*
X312449Y308680D01*
X312478Y308678D01*
X312506Y308669D01*
X312620Y308666D01*
X312732Y308657D01*
X312761Y308663D01*
X312790Y308662D01*
X312900Y308690D01*
X313011Y308713D01*
X313037Y308726D01*
X313065Y308734D01*
X313163Y308792D01*
X313263Y308844D01*
X313285Y308864D01*
X313310Y308879D01*
X313387Y308961D01*
X313469Y309040D01*
X313484Y309065D01*
X313504Y309086D01*
X313556Y309187D01*
X313613Y309285D01*
X313620Y309313D01*
X313634Y309339D01*
X313647Y309417D01*
X313683Y309560D01*
X313681Y309623D01*
X313689Y309670D01*
X313689Y376174D01*
X313681Y376232D01*
X313683Y376290D01*
X313661Y376372D01*
X313649Y376456D01*
X313626Y376509D01*
X313611Y376565D01*
X313568Y376638D01*
X313533Y376715D01*
X313495Y376760D01*
X313466Y376810D01*
X313404Y376868D01*
X313350Y376932D01*
X313301Y376964D01*
X313258Y377004D01*
X313183Y377043D01*
X313113Y377090D01*
X313057Y377107D01*
X313005Y377134D01*
X312937Y377145D01*
X312842Y377175D01*
X312742Y377178D01*
X312674Y377189D01*
X4826Y377189D01*
X4768Y377181D01*
X4710Y377183D01*
X4628Y377161D01*
X4544Y377149D01*
X4491Y377126D01*
X4435Y377111D01*
X4362Y377068D01*
X4285Y377033D01*
X4240Y376995D01*
X4190Y376966D01*
X4132Y376904D01*
X4068Y376850D01*
X4036Y376801D01*
X3996Y376758D01*
X3957Y376683D01*
X3910Y376613D01*
X3893Y376557D01*
X3866Y376505D01*
X3855Y376437D01*
X3825Y376342D01*
X3822Y376242D01*
X3811Y376174D01*
X3811Y4826D01*
X3819Y4768D01*
X3817Y4710D01*
X3839Y4628D01*
X3851Y4544D01*
X3874Y4491D01*
X3889Y4435D01*
X3932Y4362D01*
X3967Y4285D01*
X4005Y4240D01*
X4034Y4190D01*
X4096Y4132D01*
X4150Y4068D01*
X4199Y4036D01*
X4242Y3996D01*
X4317Y3957D01*
X4387Y3910D01*
X4443Y3893D01*
X4495Y3866D01*
X4563Y3855D01*
X4658Y3825D01*
X4758Y3822D01*
X4826Y3811D01*
X312674Y3811D01*
X312732Y3819D01*
G37*
G36*
X262668Y208623D02*
X262668Y208623D01*
X262724Y208618D01*
X262809Y208635D01*
X262894Y208643D01*
X262947Y208663D01*
X263003Y208674D01*
X263080Y208714D01*
X263160Y208745D01*
X263205Y208779D01*
X263256Y208805D01*
X263318Y208864D01*
X263386Y208916D01*
X263421Y208962D01*
X263462Y209001D01*
X263505Y209075D01*
X263557Y209144D01*
X263577Y209197D01*
X263605Y209246D01*
X263627Y209329D01*
X263657Y209410D01*
X263662Y209467D01*
X263676Y209522D01*
X263673Y209608D01*
X263680Y209693D01*
X263669Y209742D01*
X263667Y209806D01*
X263622Y209944D01*
X263604Y210020D01*
X262457Y212789D01*
X262457Y217741D01*
X264352Y222316D01*
X267854Y225817D01*
X270775Y227027D01*
X270801Y227042D01*
X270829Y227051D01*
X270923Y227114D01*
X271020Y227172D01*
X271040Y227193D01*
X271065Y227209D01*
X271138Y227296D01*
X271215Y227378D01*
X271229Y227404D01*
X271248Y227427D01*
X271294Y227530D01*
X271346Y227631D01*
X271351Y227660D01*
X271363Y227687D01*
X271379Y227799D01*
X271401Y227910D01*
X271398Y227939D01*
X271402Y227968D01*
X271386Y228080D01*
X271376Y228193D01*
X271366Y228220D01*
X271361Y228249D01*
X271315Y228353D01*
X271274Y228458D01*
X271256Y228482D01*
X271244Y228509D01*
X271171Y228595D01*
X271103Y228685D01*
X271079Y228703D01*
X271060Y228725D01*
X270994Y228767D01*
X270875Y228855D01*
X270816Y228877D01*
X270775Y228903D01*
X267854Y230113D01*
X264352Y233614D01*
X262457Y238189D01*
X262457Y243141D01*
X264352Y247716D01*
X267854Y251217D01*
X270213Y252194D01*
X270214Y252195D01*
X270216Y252195D01*
X270336Y252267D01*
X270458Y252338D01*
X270459Y252340D01*
X270460Y252340D01*
X270558Y252444D01*
X270653Y252545D01*
X270653Y252547D01*
X270655Y252548D01*
X270719Y252673D01*
X270783Y252798D01*
X270783Y252799D01*
X270784Y252801D01*
X270786Y252816D01*
X270838Y253077D01*
X270835Y253107D01*
X270839Y253132D01*
X270839Y281538D01*
X270827Y281624D01*
X270824Y281712D01*
X270807Y281764D01*
X270800Y281819D01*
X270764Y281899D01*
X270737Y281982D01*
X270709Y282021D01*
X270683Y282079D01*
X270587Y282192D01*
X270542Y282255D01*
X260996Y291802D01*
X260926Y291854D01*
X260862Y291914D01*
X260813Y291940D01*
X260768Y291973D01*
X260687Y292004D01*
X260609Y292044D01*
X260561Y292052D01*
X260503Y292074D01*
X260355Y292086D01*
X260278Y292099D01*
X208086Y292099D01*
X208028Y292091D01*
X207970Y292093D01*
X207888Y292071D01*
X207804Y292059D01*
X207751Y292036D01*
X207695Y292021D01*
X207622Y291978D01*
X207545Y291943D01*
X207500Y291905D01*
X207450Y291876D01*
X207392Y291814D01*
X207328Y291760D01*
X207296Y291711D01*
X207256Y291668D01*
X207217Y291593D01*
X207170Y291523D01*
X207153Y291467D01*
X207126Y291415D01*
X207115Y291347D01*
X207085Y291252D01*
X207082Y291152D01*
X207071Y291084D01*
X207071Y275851D01*
X205285Y274065D01*
X141171Y274065D01*
X139385Y275851D01*
X139385Y278384D01*
X139377Y278442D01*
X139379Y278500D01*
X139357Y278582D01*
X139345Y278666D01*
X139322Y278719D01*
X139307Y278775D01*
X139264Y278848D01*
X139229Y278925D01*
X139191Y278970D01*
X139162Y279020D01*
X139100Y279078D01*
X139046Y279142D01*
X138997Y279174D01*
X138954Y279214D01*
X138879Y279253D01*
X138809Y279300D01*
X138753Y279317D01*
X138701Y279344D01*
X138633Y279355D01*
X138538Y279385D01*
X138438Y279388D01*
X138370Y279399D01*
X132954Y279399D01*
X132868Y279387D01*
X132780Y279384D01*
X132728Y279367D01*
X132673Y279359D01*
X132593Y279324D01*
X132510Y279297D01*
X132470Y279269D01*
X132413Y279243D01*
X132300Y279147D01*
X132236Y279102D01*
X131708Y278573D01*
X129477Y277649D01*
X127063Y277649D01*
X124832Y278573D01*
X123125Y280280D01*
X122201Y282511D01*
X122201Y284925D01*
X123125Y287156D01*
X124832Y288863D01*
X127063Y289787D01*
X129477Y289787D01*
X131708Y288863D01*
X132744Y287826D01*
X132814Y287774D01*
X132878Y287714D01*
X132927Y287688D01*
X132972Y287655D01*
X133053Y287624D01*
X133131Y287584D01*
X133179Y287576D01*
X133237Y287554D01*
X133385Y287542D01*
X133462Y287529D01*
X138370Y287529D01*
X138428Y287537D01*
X138486Y287535D01*
X138568Y287557D01*
X138652Y287569D01*
X138705Y287592D01*
X138761Y287607D01*
X138834Y287650D01*
X138911Y287685D01*
X138956Y287723D01*
X139006Y287752D01*
X139064Y287814D01*
X139128Y287868D01*
X139160Y287917D01*
X139200Y287960D01*
X139239Y288035D01*
X139286Y288105D01*
X139303Y288161D01*
X139330Y288213D01*
X139341Y288281D01*
X139371Y288376D01*
X139374Y288476D01*
X139385Y288544D01*
X139385Y291077D01*
X141171Y292863D01*
X147828Y292863D01*
X147886Y292871D01*
X147944Y292869D01*
X148026Y292891D01*
X148110Y292903D01*
X148163Y292926D01*
X148219Y292941D01*
X148292Y292984D01*
X148369Y293019D01*
X148414Y293057D01*
X148464Y293086D01*
X148522Y293148D01*
X148586Y293202D01*
X148618Y293251D01*
X148658Y293294D01*
X148697Y293369D01*
X148744Y293439D01*
X148761Y293495D01*
X148788Y293547D01*
X148799Y293615D01*
X148829Y293710D01*
X148832Y293810D01*
X148843Y293878D01*
X148843Y299354D01*
X148831Y299440D01*
X148828Y299528D01*
X148811Y299580D01*
X148803Y299635D01*
X148768Y299715D01*
X148741Y299798D01*
X148713Y299838D01*
X148687Y299895D01*
X148591Y300008D01*
X148546Y300072D01*
X147763Y300854D01*
X146839Y303085D01*
X146839Y305499D01*
X147763Y307730D01*
X149470Y309437D01*
X150729Y309958D01*
X150803Y310002D01*
X150881Y310037D01*
X150925Y310074D01*
X150974Y310103D01*
X151033Y310165D01*
X151098Y310221D01*
X151130Y310268D01*
X151169Y310309D01*
X151208Y310386D01*
X151256Y310457D01*
X151273Y310511D01*
X151299Y310562D01*
X151316Y310646D01*
X151342Y310728D01*
X151343Y310785D01*
X151354Y310841D01*
X151347Y310926D01*
X151349Y311012D01*
X151334Y311067D01*
X151330Y311124D01*
X151299Y311205D01*
X151277Y311287D01*
X151248Y311336D01*
X151228Y311389D01*
X151176Y311458D01*
X151132Y311532D01*
X151090Y311571D01*
X151056Y311616D01*
X150987Y311668D01*
X150924Y311726D01*
X150874Y311752D01*
X150828Y311786D01*
X150748Y311817D01*
X150671Y311856D01*
X150623Y311864D01*
X150562Y311887D01*
X150418Y311898D01*
X150340Y311911D01*
X146924Y311911D01*
X146838Y311899D01*
X146750Y311896D01*
X146698Y311879D01*
X146643Y311871D01*
X146563Y311836D01*
X146480Y311809D01*
X146440Y311781D01*
X146383Y311755D01*
X146270Y311659D01*
X146206Y311614D01*
X145170Y310577D01*
X142939Y309653D01*
X140525Y309653D01*
X138294Y310577D01*
X136587Y312284D01*
X135663Y314515D01*
X135663Y316929D01*
X136587Y319160D01*
X138294Y320867D01*
X140525Y321791D01*
X142939Y321791D01*
X145170Y320867D01*
X145698Y320338D01*
X145768Y320286D01*
X145832Y320226D01*
X145881Y320200D01*
X145926Y320167D01*
X146007Y320136D01*
X146085Y320096D01*
X146133Y320088D01*
X146191Y320066D01*
X146339Y320054D01*
X146416Y320041D01*
X156624Y320041D01*
X162614Y314050D01*
X163430Y313234D01*
X163454Y313217D01*
X163473Y313194D01*
X163567Y313131D01*
X163657Y313063D01*
X163685Y313053D01*
X163709Y313037D01*
X163817Y313002D01*
X163923Y312962D01*
X163952Y312960D01*
X163980Y312951D01*
X164094Y312948D01*
X164206Y312939D01*
X164235Y312944D01*
X164264Y312944D01*
X164374Y312972D01*
X164485Y312994D01*
X164511Y313008D01*
X164539Y313015D01*
X164637Y313073D01*
X164737Y313125D01*
X164759Y313146D01*
X164784Y313161D01*
X164861Y313243D01*
X164943Y313321D01*
X164958Y313347D01*
X164978Y313368D01*
X165030Y313469D01*
X165087Y313567D01*
X165094Y313595D01*
X165108Y313621D01*
X165121Y313698D01*
X165157Y313842D01*
X165155Y313905D01*
X165163Y313952D01*
X165163Y319006D01*
X165151Y319092D01*
X165148Y319180D01*
X165131Y319232D01*
X165123Y319287D01*
X165088Y319367D01*
X165061Y319450D01*
X165033Y319490D01*
X165007Y319547D01*
X164911Y319660D01*
X164866Y319724D01*
X159934Y324656D01*
X159864Y324708D01*
X159800Y324768D01*
X159751Y324794D01*
X159706Y324827D01*
X159625Y324858D01*
X159547Y324898D01*
X159499Y324906D01*
X159441Y324928D01*
X159293Y324940D01*
X159216Y324953D01*
X150573Y324953D01*
X149054Y326473D01*
X149007Y326508D01*
X148967Y326550D01*
X148894Y326593D01*
X148827Y326643D01*
X148772Y326664D01*
X148722Y326694D01*
X148640Y326715D01*
X148561Y326745D01*
X148503Y326750D01*
X148446Y326764D01*
X148362Y326761D01*
X148278Y326768D01*
X148220Y326757D01*
X148162Y326755D01*
X148082Y326729D01*
X147999Y326712D01*
X147947Y326685D01*
X147891Y326667D01*
X147835Y326627D01*
X147747Y326581D01*
X147674Y326513D01*
X147618Y326473D01*
X146099Y324953D01*
X133573Y324953D01*
X132163Y326364D01*
X132116Y326399D01*
X132076Y326441D01*
X132050Y326456D01*
X132030Y326475D01*
X131981Y326500D01*
X131936Y326534D01*
X131881Y326555D01*
X131831Y326585D01*
X131801Y326592D01*
X131777Y326605D01*
X131731Y326612D01*
X131670Y326636D01*
X131612Y326641D01*
X131555Y326655D01*
X131490Y326653D01*
X131446Y326660D01*
X131444Y326660D01*
X131419Y326657D01*
X131387Y326659D01*
X131329Y326648D01*
X131271Y326646D01*
X131215Y326628D01*
X131163Y326620D01*
X131138Y326609D01*
X131108Y326603D01*
X131056Y326576D01*
X131000Y326558D01*
X130960Y326529D01*
X130903Y326504D01*
X130882Y326486D01*
X130856Y326472D01*
X130783Y326404D01*
X130727Y326364D01*
X129317Y324953D01*
X125984Y324953D01*
X125926Y324945D01*
X125868Y324947D01*
X125786Y324925D01*
X125702Y324913D01*
X125649Y324890D01*
X125593Y324875D01*
X125520Y324832D01*
X125443Y324797D01*
X125398Y324759D01*
X125348Y324730D01*
X125290Y324668D01*
X125226Y324614D01*
X125194Y324565D01*
X125154Y324522D01*
X125115Y324447D01*
X125068Y324377D01*
X125051Y324321D01*
X125024Y324269D01*
X125013Y324201D01*
X124983Y324106D01*
X124980Y324006D01*
X124969Y323938D01*
X124969Y315054D01*
X97950Y288035D01*
X63148Y288035D01*
X63090Y288027D01*
X63032Y288029D01*
X62950Y288007D01*
X62866Y287995D01*
X62813Y287972D01*
X62757Y287957D01*
X62684Y287914D01*
X62607Y287879D01*
X62562Y287841D01*
X62512Y287812D01*
X62454Y287750D01*
X62390Y287696D01*
X62358Y287647D01*
X62318Y287604D01*
X62279Y287529D01*
X62232Y287459D01*
X62215Y287403D01*
X62188Y287351D01*
X62177Y287283D01*
X62147Y287188D01*
X62144Y287088D01*
X62133Y287020D01*
X62133Y281837D01*
X60347Y280051D01*
X56164Y280051D01*
X56106Y280043D01*
X56048Y280045D01*
X55966Y280023D01*
X55882Y280011D01*
X55829Y279988D01*
X55773Y279973D01*
X55700Y279930D01*
X55623Y279895D01*
X55578Y279857D01*
X55528Y279828D01*
X55470Y279766D01*
X55406Y279712D01*
X55374Y279663D01*
X55334Y279620D01*
X55295Y279545D01*
X55248Y279475D01*
X55231Y279419D01*
X55204Y279367D01*
X55193Y279299D01*
X55163Y279204D01*
X55160Y279104D01*
X55149Y279036D01*
X55149Y267840D01*
X53075Y265767D01*
X53040Y265720D01*
X52998Y265680D01*
X52955Y265607D01*
X52904Y265540D01*
X52884Y265485D01*
X52854Y265435D01*
X52833Y265353D01*
X52803Y265274D01*
X52798Y265216D01*
X52784Y265159D01*
X52787Y265075D01*
X52780Y264991D01*
X52791Y264933D01*
X52793Y264875D01*
X52819Y264795D01*
X52835Y264712D01*
X52862Y264660D01*
X52880Y264604D01*
X52921Y264548D01*
X52966Y264460D01*
X53035Y264387D01*
X53075Y264331D01*
X57659Y259748D01*
X57659Y251995D01*
X57671Y251909D01*
X57674Y251821D01*
X57691Y251769D01*
X57699Y251714D01*
X57734Y251634D01*
X57761Y251551D01*
X57789Y251512D01*
X57815Y251454D01*
X57911Y251341D01*
X57956Y251277D01*
X59158Y250076D01*
X59204Y250041D01*
X59245Y249998D01*
X59317Y249956D01*
X59385Y249905D01*
X59440Y249884D01*
X59490Y249855D01*
X59572Y249834D01*
X59651Y249804D01*
X59709Y249799D01*
X59765Y249784D01*
X59850Y249787D01*
X59934Y249780D01*
X59991Y249792D01*
X60050Y249794D01*
X60130Y249819D01*
X60213Y249836D01*
X60265Y249863D01*
X60320Y249881D01*
X60376Y249921D01*
X60465Y249967D01*
X60537Y250036D01*
X60593Y250076D01*
X63384Y252867D01*
X97362Y252867D01*
X97420Y252875D01*
X97478Y252873D01*
X97560Y252895D01*
X97644Y252907D01*
X97697Y252930D01*
X97753Y252945D01*
X97826Y252988D01*
X97903Y253023D01*
X97948Y253061D01*
X97998Y253090D01*
X98056Y253152D01*
X98120Y253206D01*
X98152Y253255D01*
X98192Y253298D01*
X98231Y253373D01*
X98278Y253443D01*
X98295Y253499D01*
X98322Y253551D01*
X98333Y253619D01*
X98363Y253714D01*
X98366Y253814D01*
X98377Y253882D01*
X98377Y255565D01*
X99756Y256943D01*
X99791Y256990D01*
X99833Y257030D01*
X99876Y257103D01*
X99927Y257170D01*
X99948Y257225D01*
X99977Y257276D01*
X99998Y257357D01*
X100028Y257436D01*
X100033Y257495D01*
X100047Y257551D01*
X100044Y257635D01*
X100051Y257719D01*
X100040Y257777D01*
X100038Y257835D01*
X100012Y257915D01*
X99996Y257998D01*
X99969Y258050D01*
X99951Y258106D01*
X99911Y258162D01*
X99865Y258251D01*
X99796Y258323D01*
X99756Y258379D01*
X99393Y258742D01*
X99058Y259321D01*
X98885Y259968D01*
X98885Y263771D01*
X105410Y263771D01*
X105468Y263779D01*
X105526Y263777D01*
X105608Y263799D01*
X105691Y263811D01*
X105745Y263835D01*
X105801Y263849D01*
X105874Y263892D01*
X105951Y263927D01*
X105995Y263965D01*
X106046Y263995D01*
X106103Y264056D01*
X106168Y264111D01*
X106200Y264159D01*
X106240Y264202D01*
X106279Y264277D01*
X106325Y264347D01*
X106343Y264403D01*
X106370Y264455D01*
X106381Y264523D01*
X106411Y264618D01*
X106414Y264718D01*
X106425Y264786D01*
X106425Y265803D01*
X106427Y265803D01*
X106427Y264786D01*
X106435Y264728D01*
X106434Y264670D01*
X106455Y264588D01*
X106467Y264505D01*
X106491Y264451D01*
X106505Y264395D01*
X106548Y264322D01*
X106583Y264245D01*
X106621Y264200D01*
X106651Y264150D01*
X106712Y264092D01*
X106767Y264028D01*
X106815Y263996D01*
X106858Y263956D01*
X106933Y263917D01*
X107003Y263871D01*
X107059Y263853D01*
X107111Y263826D01*
X107179Y263815D01*
X107274Y263785D01*
X107374Y263782D01*
X107442Y263771D01*
X113967Y263771D01*
X113967Y259968D01*
X113794Y259321D01*
X113459Y258742D01*
X113096Y258379D01*
X113061Y258332D01*
X113019Y258292D01*
X112976Y258219D01*
X112925Y258152D01*
X112904Y258097D01*
X112875Y258047D01*
X112854Y257965D01*
X112824Y257886D01*
X112819Y257828D01*
X112805Y257771D01*
X112808Y257687D01*
X112801Y257603D01*
X112812Y257546D01*
X112814Y257487D01*
X112840Y257407D01*
X112856Y257324D01*
X112883Y257272D01*
X112901Y257217D01*
X112942Y257160D01*
X112987Y257072D01*
X113049Y257007D01*
X113061Y256987D01*
X113073Y256976D01*
X113096Y256943D01*
X114475Y255565D01*
X114475Y252476D01*
X114483Y252418D01*
X114481Y252360D01*
X114503Y252278D01*
X114515Y252194D01*
X114538Y252141D01*
X114553Y252085D01*
X114596Y252012D01*
X114631Y251935D01*
X114669Y251890D01*
X114698Y251840D01*
X114760Y251782D01*
X114814Y251718D01*
X114863Y251686D01*
X114906Y251646D01*
X114981Y251607D01*
X115051Y251560D01*
X115107Y251543D01*
X115159Y251516D01*
X115227Y251505D01*
X115322Y251475D01*
X115422Y251472D01*
X115490Y251461D01*
X120810Y251461D01*
X120831Y251439D01*
X120901Y251387D01*
X120965Y251327D01*
X121014Y251301D01*
X121059Y251268D01*
X121140Y251237D01*
X121218Y251197D01*
X121266Y251189D01*
X121324Y251167D01*
X121472Y251155D01*
X121549Y251142D01*
X129921Y251142D01*
X129979Y251150D01*
X130037Y251148D01*
X130119Y251170D01*
X130202Y251182D01*
X130256Y251205D01*
X130309Y251219D01*
X130352Y251197D01*
X130420Y251186D01*
X130515Y251156D01*
X130615Y251153D01*
X130683Y251142D01*
X139193Y251142D01*
X139193Y249618D01*
X139201Y249560D01*
X139199Y249502D01*
X139221Y249420D01*
X139233Y249336D01*
X139256Y249283D01*
X139271Y249227D01*
X139314Y249154D01*
X139349Y249077D01*
X139387Y249032D01*
X139416Y248982D01*
X139478Y248924D01*
X139532Y248860D01*
X139581Y248828D01*
X139624Y248788D01*
X139699Y248749D01*
X139769Y248702D01*
X139825Y248685D01*
X139877Y248658D01*
X139945Y248647D01*
X140040Y248617D01*
X140140Y248614D01*
X140208Y248603D01*
X144010Y248603D01*
X144039Y248607D01*
X144068Y248604D01*
X144179Y248627D01*
X144291Y248643D01*
X144318Y248655D01*
X144347Y248660D01*
X144447Y248712D01*
X144551Y248759D01*
X144573Y248778D01*
X144599Y248791D01*
X144681Y248869D01*
X144768Y248942D01*
X144784Y248967D01*
X144805Y248987D01*
X144863Y249085D01*
X144925Y249179D01*
X144934Y249207D01*
X144949Y249232D01*
X144977Y249342D01*
X145011Y249450D01*
X145012Y249480D01*
X145019Y249508D01*
X145016Y249621D01*
X145018Y249734D01*
X145011Y249763D01*
X145010Y249792D01*
X144975Y249900D01*
X144947Y250009D01*
X144932Y250035D01*
X144923Y250063D01*
X144877Y250126D01*
X144801Y250254D01*
X144756Y250297D01*
X144728Y250336D01*
X140926Y254138D01*
X140902Y254155D01*
X140883Y254178D01*
X140789Y254241D01*
X140699Y254309D01*
X140671Y254319D01*
X140647Y254335D01*
X140539Y254370D01*
X140433Y254410D01*
X140404Y254412D01*
X140376Y254421D01*
X140262Y254424D01*
X140150Y254433D01*
X140121Y254428D01*
X140092Y254428D01*
X139982Y254400D01*
X139871Y254378D01*
X139845Y254364D01*
X139817Y254357D01*
X139719Y254299D01*
X139619Y254247D01*
X139597Y254226D01*
X139572Y254211D01*
X139495Y254129D01*
X139413Y254051D01*
X139398Y254025D01*
X139378Y254004D01*
X139342Y253934D01*
X130683Y253934D01*
X130625Y253926D01*
X130567Y253928D01*
X130485Y253906D01*
X130402Y253894D01*
X130348Y253871D01*
X130295Y253857D01*
X130252Y253879D01*
X130184Y253890D01*
X130089Y253920D01*
X129989Y253923D01*
X129921Y253934D01*
X121411Y253934D01*
X121411Y255553D01*
X121399Y255639D01*
X121396Y255727D01*
X121379Y255779D01*
X121371Y255834D01*
X121336Y255914D01*
X121309Y255997D01*
X121281Y256037D01*
X121255Y256094D01*
X121163Y256203D01*
X121147Y256229D01*
X121137Y256239D01*
X121114Y256271D01*
X120903Y256481D01*
X120903Y272595D01*
X122689Y274381D01*
X137915Y274381D01*
X139963Y272332D01*
X140033Y272280D01*
X140097Y272220D01*
X140147Y272194D01*
X140191Y272161D01*
X140272Y272130D01*
X140350Y272090D01*
X140398Y272082D01*
X140456Y272060D01*
X140604Y272048D01*
X140681Y272035D01*
X146718Y272035D01*
X148213Y270540D01*
X148214Y270539D01*
X148215Y270538D01*
X148328Y270453D01*
X148440Y270369D01*
X148441Y270368D01*
X148443Y270367D01*
X148573Y270318D01*
X148705Y270268D01*
X148707Y270268D01*
X148708Y270267D01*
X148847Y270256D01*
X148989Y270244D01*
X148990Y270244D01*
X148992Y270244D01*
X149007Y270248D01*
X149267Y270300D01*
X149295Y270314D01*
X149319Y270320D01*
X150939Y270991D01*
X153353Y270991D01*
X155584Y270067D01*
X157291Y268360D01*
X158215Y266129D01*
X158215Y263715D01*
X157291Y261484D01*
X155584Y259777D01*
X153353Y258853D01*
X150939Y258853D01*
X150137Y259185D01*
X150054Y259207D01*
X149974Y259237D01*
X149917Y259242D01*
X149862Y259256D01*
X149776Y259254D01*
X149691Y259261D01*
X149635Y259250D01*
X149578Y259248D01*
X149496Y259222D01*
X149412Y259205D01*
X149361Y259179D01*
X149307Y259161D01*
X149236Y259113D01*
X149160Y259074D01*
X149118Y259035D01*
X149071Y259003D01*
X149016Y258937D01*
X148953Y258878D01*
X148925Y258829D01*
X148888Y258786D01*
X148853Y258707D01*
X148810Y258633D01*
X148796Y258578D01*
X148773Y258526D01*
X148761Y258441D01*
X148740Y258357D01*
X148741Y258301D01*
X148734Y258244D01*
X148746Y258159D01*
X148749Y258073D01*
X148766Y258019D01*
X148774Y257963D01*
X148810Y257884D01*
X148836Y257803D01*
X148865Y257762D01*
X148891Y257704D01*
X148986Y257593D01*
X149031Y257529D01*
X153560Y253000D01*
X153630Y252948D01*
X153694Y252888D01*
X153743Y252862D01*
X153788Y252829D01*
X153869Y252798D01*
X153947Y252758D01*
X153995Y252750D01*
X154053Y252728D01*
X154201Y252716D01*
X154278Y252703D01*
X155385Y252703D01*
X157616Y251779D01*
X159323Y250072D01*
X160247Y247841D01*
X160247Y245427D01*
X159323Y243196D01*
X157616Y241489D01*
X155385Y240565D01*
X152971Y240565D01*
X150740Y241489D01*
X150070Y242160D01*
X150046Y242177D01*
X150027Y242200D01*
X149933Y242262D01*
X149843Y242331D01*
X149815Y242341D01*
X149791Y242357D01*
X149683Y242391D01*
X149577Y242432D01*
X149548Y242434D01*
X149520Y242443D01*
X149406Y242446D01*
X149294Y242455D01*
X149265Y242450D01*
X149236Y242450D01*
X149126Y242422D01*
X149015Y242399D01*
X148989Y242386D01*
X148961Y242379D01*
X148863Y242321D01*
X148763Y242268D01*
X148741Y242248D01*
X148716Y242233D01*
X148639Y242151D01*
X148557Y242073D01*
X148542Y242047D01*
X148522Y242026D01*
X148470Y241925D01*
X148413Y241827D01*
X148406Y241799D01*
X148392Y241773D01*
X148379Y241695D01*
X148343Y241552D01*
X148345Y241489D01*
X148337Y241442D01*
X148337Y237998D01*
X148345Y237940D01*
X148343Y237882D01*
X148365Y237800D01*
X148377Y237716D01*
X148400Y237663D01*
X148415Y237607D01*
X148458Y237534D01*
X148493Y237457D01*
X148531Y237412D01*
X148560Y237362D01*
X148622Y237304D01*
X148676Y237240D01*
X148725Y237208D01*
X148768Y237168D01*
X148843Y237129D01*
X148913Y237082D01*
X148969Y237065D01*
X149021Y237038D01*
X149089Y237027D01*
X149184Y236997D01*
X149284Y236994D01*
X149352Y236983D01*
X200334Y236983D01*
X200420Y236995D01*
X200508Y236998D01*
X200560Y237015D01*
X200615Y237023D01*
X200695Y237058D01*
X200778Y237085D01*
X200818Y237113D01*
X200875Y237139D01*
X200988Y237235D01*
X201052Y237280D01*
X204374Y240603D01*
X206248Y240603D01*
X206306Y240611D01*
X206364Y240609D01*
X206446Y240631D01*
X206530Y240643D01*
X206583Y240666D01*
X206639Y240681D01*
X206712Y240724D01*
X206789Y240759D01*
X206834Y240797D01*
X206884Y240826D01*
X206942Y240888D01*
X207006Y240942D01*
X207038Y240991D01*
X207078Y241034D01*
X207117Y241109D01*
X207164Y241179D01*
X207181Y241235D01*
X207208Y241287D01*
X207219Y241355D01*
X207249Y241450D01*
X207252Y241550D01*
X207263Y241618D01*
X207263Y243142D01*
X215773Y243142D01*
X215831Y243150D01*
X215889Y243148D01*
X215971Y243170D01*
X216054Y243182D01*
X216108Y243205D01*
X216161Y243219D01*
X216204Y243197D01*
X216272Y243186D01*
X216367Y243156D01*
X216467Y243153D01*
X216535Y243142D01*
X225082Y243142D01*
X225085Y243123D01*
X225097Y243096D01*
X225102Y243067D01*
X225119Y243035D01*
X225123Y243018D01*
X225156Y242963D01*
X225201Y242863D01*
X225220Y242841D01*
X225233Y242815D01*
X225262Y242784D01*
X225268Y242774D01*
X225302Y242742D01*
X225311Y242733D01*
X225384Y242646D01*
X225409Y242630D01*
X225429Y242609D01*
X225470Y242585D01*
X225476Y242579D01*
X225502Y242566D01*
X225527Y242552D01*
X225621Y242489D01*
X225649Y242480D01*
X225674Y242465D01*
X225724Y242452D01*
X225729Y242450D01*
X225742Y242448D01*
X225784Y242437D01*
X225892Y242403D01*
X225922Y242402D01*
X225950Y242395D01*
X226040Y242398D01*
X226060Y242394D01*
X226066Y242394D01*
X226089Y242398D01*
X226176Y242396D01*
X226205Y242403D01*
X226234Y242404D01*
X226313Y242429D01*
X226347Y242434D01*
X226378Y242448D01*
X226451Y242467D01*
X226477Y242482D01*
X226505Y242491D01*
X226555Y242528D01*
X226606Y242551D01*
X226642Y242581D01*
X226696Y242613D01*
X226739Y242658D01*
X226778Y242686D01*
X228322Y244231D01*
X229442Y244231D01*
X229500Y244239D01*
X229558Y244237D01*
X229640Y244259D01*
X229724Y244271D01*
X229777Y244294D01*
X229833Y244309D01*
X229906Y244352D01*
X229983Y244387D01*
X230028Y244425D01*
X230078Y244454D01*
X230136Y244516D01*
X230200Y244570D01*
X230232Y244619D01*
X230272Y244662D01*
X230311Y244737D01*
X230358Y244807D01*
X230375Y244863D01*
X230402Y244915D01*
X230413Y244983D01*
X230443Y245078D01*
X230446Y245178D01*
X230457Y245246D01*
X230457Y246929D01*
X231836Y248307D01*
X231871Y248354D01*
X231913Y248394D01*
X231956Y248467D01*
X232007Y248534D01*
X232028Y248589D01*
X232057Y248640D01*
X232078Y248721D01*
X232108Y248800D01*
X232113Y248859D01*
X232127Y248915D01*
X232124Y248999D01*
X232131Y249083D01*
X232120Y249141D01*
X232118Y249199D01*
X232092Y249279D01*
X232076Y249362D01*
X232049Y249414D01*
X232031Y249470D01*
X231991Y249526D01*
X231945Y249615D01*
X231876Y249687D01*
X231836Y249743D01*
X231473Y250106D01*
X231138Y250685D01*
X230965Y251332D01*
X230965Y255135D01*
X237490Y255135D01*
X237548Y255143D01*
X237606Y255141D01*
X237688Y255163D01*
X237771Y255175D01*
X237825Y255199D01*
X237881Y255213D01*
X237954Y255256D01*
X238031Y255291D01*
X238075Y255329D01*
X238126Y255359D01*
X238183Y255420D01*
X238248Y255475D01*
X238280Y255523D01*
X238320Y255566D01*
X238359Y255641D01*
X238405Y255711D01*
X238423Y255767D01*
X238450Y255819D01*
X238461Y255887D01*
X238491Y255982D01*
X238494Y256082D01*
X238505Y256150D01*
X238505Y257167D01*
X238507Y257167D01*
X238507Y256150D01*
X238515Y256092D01*
X238514Y256034D01*
X238535Y255952D01*
X238547Y255869D01*
X238571Y255815D01*
X238585Y255759D01*
X238628Y255686D01*
X238663Y255609D01*
X238701Y255564D01*
X238731Y255514D01*
X238792Y255456D01*
X238847Y255392D01*
X238895Y255360D01*
X238938Y255320D01*
X239013Y255281D01*
X239083Y255235D01*
X239139Y255217D01*
X239191Y255190D01*
X239259Y255179D01*
X239354Y255149D01*
X239454Y255146D01*
X239522Y255135D01*
X246047Y255135D01*
X246047Y251332D01*
X245874Y250685D01*
X245539Y250106D01*
X245176Y249743D01*
X245141Y249696D01*
X245099Y249656D01*
X245056Y249583D01*
X245005Y249516D01*
X244984Y249461D01*
X244955Y249411D01*
X244934Y249329D01*
X244904Y249250D01*
X244899Y249192D01*
X244885Y249135D01*
X244888Y249051D01*
X244881Y248967D01*
X244892Y248910D01*
X244894Y248851D01*
X244920Y248771D01*
X244936Y248688D01*
X244963Y248636D01*
X244981Y248581D01*
X245022Y248524D01*
X245067Y248436D01*
X245136Y248364D01*
X245176Y248307D01*
X246555Y246929D01*
X246555Y233403D01*
X245898Y232747D01*
X245863Y232700D01*
X245821Y232660D01*
X245778Y232587D01*
X245728Y232520D01*
X245707Y232465D01*
X245677Y232415D01*
X245656Y232333D01*
X245626Y232254D01*
X245621Y232196D01*
X245607Y232139D01*
X245610Y232055D01*
X245603Y231971D01*
X245614Y231913D01*
X245616Y231855D01*
X245642Y231775D01*
X245659Y231692D01*
X245686Y231640D01*
X245704Y231584D01*
X245744Y231528D01*
X245790Y231440D01*
X245858Y231367D01*
X245898Y231311D01*
X246555Y230655D01*
X246555Y228972D01*
X246563Y228914D01*
X246561Y228856D01*
X246583Y228774D01*
X246595Y228690D01*
X246618Y228637D01*
X246633Y228581D01*
X246676Y228508D01*
X246711Y228431D01*
X246749Y228386D01*
X246778Y228336D01*
X246840Y228278D01*
X246894Y228214D01*
X246943Y228182D01*
X246986Y228142D01*
X247061Y228103D01*
X247131Y228056D01*
X247187Y228039D01*
X247239Y228012D01*
X247307Y228001D01*
X247402Y227971D01*
X247502Y227968D01*
X247570Y227957D01*
X250740Y227957D01*
X255779Y222918D01*
X255779Y212670D01*
X255791Y212584D01*
X255794Y212496D01*
X255811Y212444D01*
X255819Y212389D01*
X255854Y212309D01*
X255881Y212226D01*
X255909Y212186D01*
X255935Y212129D01*
X256031Y212016D01*
X256076Y211952D01*
X257954Y210074D01*
X258024Y210022D01*
X258088Y209962D01*
X258137Y209936D01*
X258182Y209903D01*
X258263Y209872D01*
X258341Y209832D01*
X258389Y209824D01*
X258447Y209802D01*
X258595Y209790D01*
X258672Y209777D01*
X259779Y209777D01*
X262041Y208840D01*
X262080Y208803D01*
X262130Y208777D01*
X262175Y208743D01*
X262256Y208713D01*
X262332Y208673D01*
X262388Y208662D01*
X262441Y208642D01*
X262527Y208635D01*
X262611Y208618D01*
X262668Y208623D01*
G37*
G36*
X123306Y128610D02*
X123306Y128610D01*
X123364Y128612D01*
X123444Y128638D01*
X123527Y128654D01*
X123579Y128681D01*
X123635Y128699D01*
X123691Y128740D01*
X123779Y128785D01*
X123852Y128854D01*
X123908Y128894D01*
X140866Y145852D01*
X140918Y145922D01*
X140978Y145986D01*
X141004Y146035D01*
X141037Y146080D01*
X141068Y146161D01*
X141108Y146239D01*
X141116Y146287D01*
X141138Y146345D01*
X141150Y146493D01*
X141163Y146570D01*
X141163Y187801D01*
X141151Y187887D01*
X141148Y187975D01*
X141131Y188027D01*
X141123Y188082D01*
X141088Y188162D01*
X141061Y188245D01*
X141033Y188284D01*
X141007Y188342D01*
X140911Y188455D01*
X140866Y188519D01*
X139385Y189999D01*
X139385Y205225D01*
X141171Y207011D01*
X205285Y207011D01*
X207071Y205225D01*
X207071Y199644D01*
X207079Y199586D01*
X207077Y199528D01*
X207099Y199446D01*
X207111Y199362D01*
X207134Y199309D01*
X207149Y199253D01*
X207192Y199180D01*
X207227Y199103D01*
X207265Y199058D01*
X207294Y199008D01*
X207356Y198950D01*
X207410Y198886D01*
X207459Y198854D01*
X207502Y198814D01*
X207577Y198775D01*
X207647Y198728D01*
X207703Y198711D01*
X207755Y198684D01*
X207823Y198673D01*
X207918Y198643D01*
X208018Y198640D01*
X208086Y198629D01*
X230409Y198629D01*
X230448Y198634D01*
X230487Y198632D01*
X230588Y198654D01*
X230691Y198669D01*
X230726Y198685D01*
X230764Y198693D01*
X230855Y198742D01*
X230950Y198785D01*
X230980Y198810D01*
X231014Y198829D01*
X231088Y198902D01*
X231167Y198968D01*
X231189Y199001D01*
X231217Y199028D01*
X231267Y199119D01*
X231325Y199205D01*
X231336Y199242D01*
X231356Y199276D01*
X231379Y199377D01*
X231410Y199476D01*
X231411Y199515D01*
X231420Y199553D01*
X231415Y199657D01*
X231418Y199760D01*
X231408Y199798D01*
X231406Y199837D01*
X231379Y199910D01*
X231346Y200035D01*
X231308Y200099D01*
X231288Y200152D01*
X231138Y200411D01*
X230965Y201058D01*
X230965Y204861D01*
X237490Y204861D01*
X237548Y204869D01*
X237606Y204867D01*
X237688Y204889D01*
X237771Y204901D01*
X237825Y204925D01*
X237881Y204939D01*
X237954Y204982D01*
X238031Y205017D01*
X238075Y205055D01*
X238126Y205085D01*
X238183Y205146D01*
X238248Y205201D01*
X238280Y205249D01*
X238320Y205292D01*
X238359Y205367D01*
X238405Y205437D01*
X238423Y205493D01*
X238450Y205545D01*
X238461Y205613D01*
X238491Y205708D01*
X238494Y205808D01*
X238505Y205876D01*
X238505Y207908D01*
X238498Y207961D01*
X238498Y207992D01*
X238498Y207995D01*
X238498Y208024D01*
X238477Y208106D01*
X238465Y208189D01*
X238441Y208243D01*
X238427Y208299D01*
X238384Y208372D01*
X238349Y208449D01*
X238311Y208493D01*
X238281Y208544D01*
X238220Y208601D01*
X238165Y208666D01*
X238117Y208698D01*
X238074Y208738D01*
X237999Y208777D01*
X237929Y208823D01*
X237873Y208841D01*
X237821Y208868D01*
X237753Y208879D01*
X237658Y208909D01*
X237558Y208912D01*
X237490Y208923D01*
X230965Y208923D01*
X230965Y212726D01*
X231138Y213373D01*
X231473Y213952D01*
X231836Y214315D01*
X231871Y214362D01*
X231913Y214402D01*
X231956Y214475D01*
X232007Y214542D01*
X232027Y214597D01*
X232057Y214647D01*
X232078Y214729D01*
X232108Y214808D01*
X232113Y214866D01*
X232127Y214923D01*
X232124Y215007D01*
X232131Y215091D01*
X232120Y215148D01*
X232118Y215207D01*
X232092Y215287D01*
X232076Y215370D01*
X232049Y215422D01*
X232031Y215477D01*
X231991Y215534D01*
X231945Y215622D01*
X231876Y215695D01*
X231836Y215751D01*
X231195Y216391D01*
X231149Y216426D01*
X231108Y216469D01*
X231035Y216511D01*
X230968Y216562D01*
X230914Y216583D01*
X230863Y216612D01*
X230781Y216633D01*
X230702Y216663D01*
X230644Y216668D01*
X230587Y216683D01*
X230503Y216680D01*
X230419Y216687D01*
X230362Y216675D01*
X230303Y216673D01*
X230223Y216648D01*
X230140Y216631D01*
X230088Y216604D01*
X230033Y216586D01*
X229977Y216546D01*
X229888Y216500D01*
X229860Y216473D01*
X226568Y216473D01*
X226510Y216465D01*
X226452Y216467D01*
X226370Y216445D01*
X226286Y216433D01*
X226233Y216410D01*
X226177Y216395D01*
X226104Y216352D01*
X226027Y216317D01*
X225982Y216279D01*
X225932Y216250D01*
X225874Y216188D01*
X225810Y216134D01*
X225778Y216085D01*
X225738Y216042D01*
X225699Y215967D01*
X225652Y215897D01*
X225635Y215841D01*
X225608Y215789D01*
X225597Y215721D01*
X225567Y215626D01*
X225564Y215526D01*
X225553Y215458D01*
X225553Y208481D01*
X223767Y206695D01*
X208541Y206695D01*
X206755Y208481D01*
X206755Y209236D01*
X206747Y209294D01*
X206749Y209352D01*
X206727Y209434D01*
X206715Y209518D01*
X206692Y209571D01*
X206677Y209627D01*
X206634Y209700D01*
X206599Y209777D01*
X206561Y209822D01*
X206532Y209872D01*
X206470Y209930D01*
X206416Y209994D01*
X206367Y210026D01*
X206324Y210066D01*
X206249Y210105D01*
X206179Y210152D01*
X206123Y210169D01*
X206071Y210196D01*
X206003Y210207D01*
X205908Y210237D01*
X205808Y210240D01*
X205740Y210251D01*
X203862Y210251D01*
X201184Y212930D01*
X197588Y216526D01*
X197541Y216561D01*
X197501Y216603D01*
X197428Y216646D01*
X197361Y216697D01*
X197306Y216717D01*
X197256Y216747D01*
X197174Y216768D01*
X197095Y216798D01*
X197037Y216803D01*
X196980Y216817D01*
X196896Y216814D01*
X196812Y216821D01*
X196755Y216810D01*
X196696Y216808D01*
X196616Y216782D01*
X196533Y216765D01*
X196481Y216739D01*
X196425Y216721D01*
X196369Y216680D01*
X196281Y216634D01*
X196208Y216566D01*
X196152Y216526D01*
X195462Y215835D01*
X193231Y214911D01*
X190817Y214911D01*
X188586Y215835D01*
X186879Y217542D01*
X185955Y219773D01*
X185955Y222187D01*
X186879Y224418D01*
X188586Y226125D01*
X190458Y226900D01*
X190532Y226944D01*
X190610Y226979D01*
X190654Y227016D01*
X190703Y227045D01*
X190762Y227107D01*
X190827Y227163D01*
X190859Y227210D01*
X190898Y227251D01*
X190937Y227328D01*
X190985Y227399D01*
X191002Y227453D01*
X191028Y227504D01*
X191045Y227588D01*
X191071Y227670D01*
X191072Y227727D01*
X191083Y227783D01*
X191076Y227868D01*
X191078Y227954D01*
X191064Y228009D01*
X191059Y228066D01*
X191028Y228146D01*
X191006Y228229D01*
X190977Y228278D01*
X190957Y228331D01*
X190905Y228400D01*
X190861Y228474D01*
X190819Y228513D01*
X190785Y228558D01*
X190716Y228610D01*
X190654Y228668D01*
X190603Y228694D01*
X190557Y228728D01*
X190477Y228759D01*
X190400Y228798D01*
X190352Y228806D01*
X190291Y228829D01*
X190147Y228840D01*
X190069Y228853D01*
X147138Y228853D01*
X147052Y228841D01*
X146964Y228838D01*
X146911Y228821D01*
X146857Y228813D01*
X146777Y228778D01*
X146694Y228751D01*
X146654Y228723D01*
X146597Y228697D01*
X146484Y228601D01*
X146420Y228556D01*
X145658Y227794D01*
X142338Y224473D01*
X140716Y224473D01*
X140658Y224465D01*
X140600Y224467D01*
X140518Y224445D01*
X140434Y224433D01*
X140381Y224410D01*
X140325Y224395D01*
X140252Y224352D01*
X140175Y224317D01*
X140130Y224279D01*
X140080Y224250D01*
X140022Y224188D01*
X139958Y224134D01*
X139926Y224085D01*
X139886Y224042D01*
X139847Y223967D01*
X139800Y223897D01*
X139783Y223841D01*
X139756Y223789D01*
X139745Y223721D01*
X139715Y223626D01*
X139712Y223526D01*
X139701Y223458D01*
X139701Y208481D01*
X137915Y206695D01*
X135382Y206695D01*
X135324Y206687D01*
X135266Y206689D01*
X135184Y206667D01*
X135100Y206655D01*
X135047Y206632D01*
X134991Y206617D01*
X134918Y206574D01*
X134841Y206539D01*
X134796Y206501D01*
X134746Y206472D01*
X134688Y206410D01*
X134624Y206356D01*
X134592Y206307D01*
X134552Y206264D01*
X134513Y206189D01*
X134466Y206119D01*
X134449Y206063D01*
X134422Y206011D01*
X134411Y205943D01*
X134381Y205848D01*
X134378Y205748D01*
X134367Y205680D01*
X134367Y195976D01*
X131688Y193297D01*
X126712Y188321D01*
X126659Y188251D01*
X126599Y188187D01*
X126574Y188138D01*
X126541Y188093D01*
X126510Y188012D01*
X126470Y187934D01*
X126462Y187886D01*
X126439Y187828D01*
X126433Y187755D01*
X126428Y187739D01*
X126427Y187677D01*
X126427Y187676D01*
X125868Y187118D01*
X125832Y187071D01*
X125790Y187030D01*
X125747Y186958D01*
X125697Y186890D01*
X125676Y186836D01*
X125646Y186785D01*
X125626Y186703D01*
X125596Y186625D01*
X125591Y186566D01*
X125576Y186510D01*
X125579Y186425D01*
X125572Y186341D01*
X125583Y186284D01*
X125585Y186226D01*
X125611Y186145D01*
X125628Y186063D01*
X125655Y186011D01*
X125673Y185955D01*
X125713Y185899D01*
X125759Y185810D01*
X125828Y185738D01*
X125868Y185682D01*
X126537Y185012D01*
X126537Y182487D01*
X114693Y170643D01*
X112168Y170643D01*
X111498Y171312D01*
X111452Y171348D01*
X111411Y171390D01*
X111338Y171433D01*
X111271Y171483D01*
X111216Y171504D01*
X111166Y171534D01*
X111084Y171554D01*
X111005Y171584D01*
X110947Y171589D01*
X110890Y171604D01*
X110806Y171601D01*
X110722Y171608D01*
X110665Y171597D01*
X110606Y171595D01*
X110526Y171569D01*
X110443Y171552D01*
X110391Y171525D01*
X110336Y171507D01*
X110280Y171467D01*
X110191Y171421D01*
X110119Y171352D01*
X110062Y171312D01*
X109516Y170766D01*
X105938Y170766D01*
X103408Y173296D01*
X103408Y176873D01*
X103955Y177420D01*
X103990Y177467D01*
X104032Y177507D01*
X104075Y177580D01*
X104126Y177647D01*
X104147Y177702D01*
X104176Y177752D01*
X104197Y177834D01*
X104227Y177913D01*
X104232Y177971D01*
X104246Y178028D01*
X104244Y178112D01*
X104251Y178196D01*
X104239Y178253D01*
X104237Y178312D01*
X104211Y178392D01*
X104195Y178475D01*
X104168Y178527D01*
X104150Y178582D01*
X104110Y178638D01*
X104064Y178727D01*
X103995Y178800D01*
X103955Y178856D01*
X102289Y180522D01*
X102219Y180574D01*
X102155Y180634D01*
X102106Y180659D01*
X102062Y180693D01*
X101980Y180724D01*
X101902Y180764D01*
X101854Y180772D01*
X101796Y180794D01*
X101648Y180806D01*
X101571Y180819D01*
X100810Y180819D01*
X99884Y181003D01*
X99013Y181364D01*
X98781Y181519D01*
X107144Y189882D01*
X107179Y189928D01*
X107221Y189969D01*
X107232Y189986D01*
X107242Y189996D01*
X107298Y190036D01*
X115661Y198399D01*
X115816Y198167D01*
X116177Y197296D01*
X116361Y196370D01*
X116361Y195609D01*
X116373Y195522D01*
X116376Y195435D01*
X116393Y195382D01*
X116401Y195327D01*
X116437Y195248D01*
X116463Y195164D01*
X116491Y195125D01*
X116517Y195068D01*
X116613Y194955D01*
X116658Y194891D01*
X118324Y193225D01*
X118371Y193190D01*
X118411Y193148D01*
X118484Y193105D01*
X118551Y193054D01*
X118606Y193033D01*
X118657Y193004D01*
X118738Y192983D01*
X118817Y192953D01*
X118875Y192948D01*
X118932Y192934D01*
X119016Y192936D01*
X119100Y192929D01*
X119158Y192941D01*
X119216Y192943D01*
X119297Y192969D01*
X119379Y192985D01*
X119431Y193012D01*
X119487Y193030D01*
X119543Y193070D01*
X119631Y193116D01*
X119704Y193185D01*
X119760Y193225D01*
X120317Y193782D01*
X120332Y193784D01*
X120419Y193787D01*
X120472Y193804D01*
X120527Y193811D01*
X120607Y193847D01*
X120690Y193874D01*
X120729Y193902D01*
X120786Y193928D01*
X120900Y194024D01*
X120963Y194069D01*
X125940Y199046D01*
X125954Y199065D01*
X125970Y199078D01*
X126001Y199125D01*
X126052Y199179D01*
X126078Y199229D01*
X126111Y199273D01*
X126126Y199312D01*
X126128Y199315D01*
X126133Y199331D01*
X126142Y199355D01*
X126182Y199433D01*
X126190Y199480D01*
X126212Y199539D01*
X126224Y199686D01*
X126237Y199764D01*
X126237Y205680D01*
X126229Y205738D01*
X126231Y205796D01*
X126209Y205878D01*
X126197Y205962D01*
X126174Y206015D01*
X126159Y206071D01*
X126116Y206144D01*
X126081Y206221D01*
X126043Y206266D01*
X126014Y206316D01*
X125952Y206374D01*
X125898Y206438D01*
X125849Y206470D01*
X125806Y206510D01*
X125731Y206549D01*
X125661Y206596D01*
X125605Y206613D01*
X125553Y206640D01*
X125485Y206651D01*
X125390Y206681D01*
X125290Y206684D01*
X125222Y206695D01*
X122689Y206695D01*
X120903Y208481D01*
X120903Y212272D01*
X120899Y212301D01*
X120902Y212330D01*
X120879Y212441D01*
X120863Y212553D01*
X120851Y212580D01*
X120846Y212609D01*
X120793Y212709D01*
X120747Y212813D01*
X120728Y212835D01*
X120715Y212861D01*
X120637Y212943D01*
X120564Y213030D01*
X120539Y213046D01*
X120519Y213067D01*
X120421Y213125D01*
X120327Y213187D01*
X120299Y213196D01*
X120274Y213211D01*
X120164Y213239D01*
X120056Y213273D01*
X120026Y213274D01*
X119998Y213281D01*
X119885Y213278D01*
X119772Y213280D01*
X119743Y213273D01*
X119714Y213272D01*
X119606Y213237D01*
X119497Y213209D01*
X119471Y213194D01*
X119443Y213185D01*
X119380Y213139D01*
X119252Y213063D01*
X119209Y213018D01*
X119170Y212990D01*
X116630Y210450D01*
X113952Y207771D01*
X112642Y207771D01*
X112555Y207759D01*
X112468Y207756D01*
X112415Y207739D01*
X112360Y207731D01*
X112280Y207696D01*
X112197Y207669D01*
X112158Y207641D01*
X112101Y207615D01*
X111987Y207519D01*
X111924Y207474D01*
X109741Y205291D01*
X109689Y205221D01*
X109629Y205157D01*
X109603Y205108D01*
X109570Y205064D01*
X109539Y204982D01*
X109499Y204904D01*
X109491Y204857D01*
X109469Y204798D01*
X109457Y204651D01*
X109456Y204647D01*
X108897Y204088D01*
X108862Y204041D01*
X108820Y204001D01*
X108777Y203928D01*
X108726Y203861D01*
X108705Y203806D01*
X108676Y203756D01*
X108655Y203674D01*
X108625Y203595D01*
X108620Y203537D01*
X108606Y203480D01*
X108608Y203396D01*
X108601Y203312D01*
X108613Y203255D01*
X108615Y203196D01*
X108641Y203116D01*
X108657Y203033D01*
X108684Y202981D01*
X108702Y202926D01*
X108742Y202870D01*
X108788Y202781D01*
X108857Y202708D01*
X108897Y202652D01*
X110563Y200986D01*
X110633Y200934D01*
X110697Y200874D01*
X110746Y200849D01*
X110790Y200815D01*
X110872Y200784D01*
X110950Y200744D01*
X110997Y200736D01*
X111056Y200714D01*
X111204Y200702D01*
X111281Y200689D01*
X112042Y200689D01*
X112968Y200505D01*
X113839Y200144D01*
X114071Y199989D01*
X105708Y191626D01*
X105673Y191580D01*
X105631Y191539D01*
X105620Y191522D01*
X105610Y191512D01*
X105554Y191472D01*
X97191Y183109D01*
X97036Y183341D01*
X96675Y184212D01*
X96491Y185138D01*
X96491Y185899D01*
X96479Y185986D01*
X96476Y186073D01*
X96459Y186126D01*
X96451Y186180D01*
X96415Y186260D01*
X96389Y186343D01*
X96361Y186383D01*
X96335Y186440D01*
X96239Y186553D01*
X96194Y186617D01*
X94528Y188283D01*
X94481Y188318D01*
X94441Y188360D01*
X94368Y188403D01*
X94300Y188454D01*
X94246Y188475D01*
X94195Y188504D01*
X94114Y188525D01*
X94035Y188555D01*
X93977Y188560D01*
X93920Y188574D01*
X93836Y188572D01*
X93752Y188579D01*
X93694Y188567D01*
X93636Y188565D01*
X93555Y188539D01*
X93473Y188523D01*
X93421Y188496D01*
X93365Y188478D01*
X93309Y188438D01*
X93220Y188392D01*
X93148Y188323D01*
X93092Y188283D01*
X92545Y187736D01*
X88968Y187736D01*
X86438Y190266D01*
X86438Y193844D01*
X86984Y194390D01*
X87020Y194437D01*
X87062Y194477D01*
X87105Y194550D01*
X87155Y194618D01*
X87176Y194672D01*
X87206Y194723D01*
X87226Y194804D01*
X87256Y194883D01*
X87261Y194942D01*
X87276Y194998D01*
X87273Y195083D01*
X87280Y195167D01*
X87269Y195224D01*
X87267Y195282D01*
X87241Y195363D01*
X87224Y195445D01*
X87197Y195497D01*
X87179Y195553D01*
X87139Y195609D01*
X87093Y195698D01*
X87024Y195770D01*
X86984Y195826D01*
X86315Y196496D01*
X86315Y199021D01*
X98159Y210865D01*
X100684Y210865D01*
X101354Y210196D01*
X101400Y210160D01*
X101441Y210118D01*
X101468Y210102D01*
X101479Y210091D01*
X101520Y210071D01*
X101581Y210025D01*
X101636Y210004D01*
X101686Y209974D01*
X101730Y209963D01*
X101732Y209962D01*
X101739Y209961D01*
X101768Y209954D01*
X101847Y209924D01*
X101905Y209919D01*
X101962Y209904D01*
X102046Y209907D01*
X102130Y209900D01*
X102187Y209911D01*
X102246Y209913D01*
X102326Y209939D01*
X102360Y209946D01*
X102361Y209946D01*
X102362Y209946D01*
X102409Y209956D01*
X102461Y209983D01*
X102516Y210001D01*
X102572Y210041D01*
X102573Y210041D01*
X102621Y210063D01*
X102631Y210071D01*
X102661Y210087D01*
X102733Y210156D01*
X102790Y210196D01*
X103346Y210752D01*
X103361Y210754D01*
X103449Y210757D01*
X103501Y210774D01*
X103556Y210782D01*
X103636Y210818D01*
X103719Y210845D01*
X103758Y210873D01*
X103816Y210898D01*
X103929Y210994D01*
X103993Y211040D01*
X108854Y215901D01*
X110164Y215901D01*
X110250Y215913D01*
X110338Y215916D01*
X110390Y215933D01*
X110445Y215941D01*
X110525Y215976D01*
X110608Y216003D01*
X110648Y216031D01*
X110705Y216057D01*
X110818Y216153D01*
X110882Y216198D01*
X112994Y218310D01*
X113011Y218334D01*
X113034Y218353D01*
X113097Y218447D01*
X113165Y218537D01*
X113175Y218565D01*
X113191Y218589D01*
X113226Y218697D01*
X113266Y218803D01*
X113268Y218832D01*
X113277Y218860D01*
X113280Y218974D01*
X113289Y219086D01*
X113284Y219115D01*
X113284Y219144D01*
X113256Y219254D01*
X113234Y219365D01*
X113220Y219391D01*
X113213Y219419D01*
X113155Y219517D01*
X113103Y219617D01*
X113082Y219639D01*
X113067Y219664D01*
X112985Y219741D01*
X112907Y219823D01*
X112881Y219838D01*
X112860Y219858D01*
X112759Y219910D01*
X112661Y219967D01*
X112633Y219974D01*
X112607Y219988D01*
X112530Y220001D01*
X112386Y220037D01*
X112323Y220035D01*
X112276Y220043D01*
X103083Y220043D01*
X101705Y221422D01*
X101658Y221457D01*
X101618Y221499D01*
X101545Y221542D01*
X101478Y221593D01*
X101423Y221614D01*
X101372Y221643D01*
X101291Y221664D01*
X101212Y221694D01*
X101153Y221699D01*
X101097Y221713D01*
X101013Y221710D01*
X100929Y221717D01*
X100871Y221706D01*
X100813Y221704D01*
X100733Y221678D01*
X100650Y221662D01*
X100598Y221635D01*
X100542Y221617D01*
X100486Y221577D01*
X100397Y221531D01*
X100325Y221462D01*
X100269Y221422D01*
X99906Y221059D01*
X99327Y220724D01*
X98680Y220551D01*
X94877Y220551D01*
X94877Y227076D01*
X94869Y227134D01*
X94870Y227192D01*
X94849Y227274D01*
X94837Y227357D01*
X94813Y227411D01*
X94799Y227467D01*
X94756Y227540D01*
X94721Y227617D01*
X94683Y227661D01*
X94653Y227712D01*
X94592Y227769D01*
X94537Y227834D01*
X94489Y227866D01*
X94446Y227906D01*
X94371Y227945D01*
X94301Y227991D01*
X94245Y228009D01*
X94193Y228036D01*
X94125Y228047D01*
X94030Y228077D01*
X93930Y228080D01*
X93862Y228091D01*
X92845Y228091D01*
X92845Y228093D01*
X93862Y228093D01*
X93920Y228101D01*
X93978Y228100D01*
X94060Y228121D01*
X94143Y228133D01*
X94197Y228157D01*
X94253Y228171D01*
X94326Y228214D01*
X94403Y228249D01*
X94447Y228287D01*
X94498Y228317D01*
X94555Y228378D01*
X94620Y228433D01*
X94652Y228481D01*
X94692Y228524D01*
X94731Y228599D01*
X94777Y228669D01*
X94795Y228725D01*
X94822Y228777D01*
X94833Y228845D01*
X94863Y228940D01*
X94866Y229040D01*
X94877Y229108D01*
X94877Y235633D01*
X98680Y235633D01*
X99327Y235460D01*
X99906Y235125D01*
X100269Y234762D01*
X100316Y234727D01*
X100356Y234685D01*
X100429Y234642D01*
X100496Y234591D01*
X100551Y234570D01*
X100601Y234541D01*
X100683Y234520D01*
X100762Y234490D01*
X100820Y234485D01*
X100877Y234471D01*
X100961Y234474D01*
X101045Y234467D01*
X101102Y234478D01*
X101161Y234480D01*
X101241Y234506D01*
X101324Y234522D01*
X101376Y234549D01*
X101431Y234567D01*
X101488Y234608D01*
X101576Y234653D01*
X101648Y234722D01*
X101705Y234762D01*
X103083Y236141D01*
X116609Y236141D01*
X118395Y234355D01*
X118395Y233172D01*
X118403Y233114D01*
X118401Y233056D01*
X118423Y232974D01*
X118435Y232890D01*
X118458Y232837D01*
X118473Y232781D01*
X118516Y232708D01*
X118551Y232631D01*
X118589Y232586D01*
X118618Y232536D01*
X118680Y232478D01*
X118734Y232414D01*
X118783Y232382D01*
X118826Y232342D01*
X118901Y232303D01*
X118971Y232256D01*
X119027Y232239D01*
X119079Y232212D01*
X119147Y232201D01*
X119242Y232171D01*
X119342Y232168D01*
X119410Y232157D01*
X120045Y232157D01*
X120131Y232169D01*
X120219Y232172D01*
X120271Y232189D01*
X120326Y232197D01*
X120406Y232232D01*
X120489Y232259D01*
X120528Y232287D01*
X120586Y232313D01*
X120699Y232409D01*
X120763Y232454D01*
X121114Y232805D01*
X121166Y232875D01*
X121226Y232939D01*
X121252Y232989D01*
X121285Y233033D01*
X121316Y233114D01*
X121356Y233192D01*
X121364Y233240D01*
X121386Y233298D01*
X121398Y233446D01*
X121411Y233523D01*
X121411Y235142D01*
X129921Y235142D01*
X129979Y235150D01*
X130037Y235148D01*
X130119Y235170D01*
X130202Y235182D01*
X130256Y235205D01*
X130312Y235220D01*
X130385Y235263D01*
X130462Y235298D01*
X130506Y235336D01*
X130557Y235365D01*
X130614Y235427D01*
X130679Y235481D01*
X130711Y235530D01*
X130751Y235573D01*
X130790Y235648D01*
X130836Y235718D01*
X130854Y235774D01*
X130881Y235826D01*
X130892Y235894D01*
X130922Y235989D01*
X130925Y236089D01*
X130936Y236157D01*
X130936Y236919D01*
X130928Y236977D01*
X130929Y237035D01*
X130908Y237117D01*
X130896Y237201D01*
X130872Y237254D01*
X130858Y237310D01*
X130814Y237383D01*
X130780Y237460D01*
X130742Y237505D01*
X130712Y237555D01*
X130651Y237613D01*
X130596Y237677D01*
X130548Y237709D01*
X130505Y237749D01*
X130430Y237788D01*
X130360Y237835D01*
X130304Y237852D01*
X130252Y237879D01*
X130184Y237890D01*
X130089Y237920D01*
X129989Y237923D01*
X129921Y237934D01*
X121411Y237934D01*
X121411Y239458D01*
X121403Y239516D01*
X121405Y239574D01*
X121383Y239656D01*
X121371Y239739D01*
X121348Y239793D01*
X121333Y239849D01*
X121290Y239922D01*
X121255Y239999D01*
X121217Y240044D01*
X121188Y240094D01*
X121126Y240152D01*
X121072Y240216D01*
X121023Y240248D01*
X120980Y240288D01*
X120905Y240327D01*
X120835Y240373D01*
X120779Y240391D01*
X120727Y240418D01*
X120659Y240429D01*
X120564Y240459D01*
X120464Y240462D01*
X120396Y240473D01*
X120300Y240473D01*
X117740Y243034D01*
X117670Y243086D01*
X117606Y243146D01*
X117557Y243172D01*
X117512Y243205D01*
X117431Y243236D01*
X117353Y243276D01*
X117305Y243284D01*
X117247Y243306D01*
X117099Y243318D01*
X117022Y243331D01*
X115490Y243331D01*
X115432Y243323D01*
X115374Y243325D01*
X115292Y243303D01*
X115208Y243291D01*
X115155Y243268D01*
X115099Y243253D01*
X115026Y243210D01*
X114949Y243175D01*
X114904Y243137D01*
X114854Y243108D01*
X114796Y243046D01*
X114732Y242992D01*
X114700Y242943D01*
X114660Y242900D01*
X114621Y242825D01*
X114574Y242755D01*
X114557Y242699D01*
X114530Y242647D01*
X114519Y242579D01*
X114489Y242484D01*
X114486Y242384D01*
X114475Y242316D01*
X114475Y242039D01*
X112689Y240253D01*
X100163Y240253D01*
X98377Y242039D01*
X98377Y243722D01*
X98369Y243780D01*
X98371Y243838D01*
X98349Y243920D01*
X98337Y244004D01*
X98314Y244057D01*
X98299Y244113D01*
X98256Y244186D01*
X98221Y244263D01*
X98183Y244308D01*
X98154Y244358D01*
X98092Y244416D01*
X98038Y244480D01*
X97989Y244512D01*
X97946Y244552D01*
X97871Y244591D01*
X97801Y244638D01*
X97745Y244655D01*
X97693Y244682D01*
X97625Y244693D01*
X97530Y244723D01*
X97430Y244726D01*
X97362Y244737D01*
X67172Y244737D01*
X67086Y244725D01*
X66998Y244722D01*
X66946Y244705D01*
X66891Y244697D01*
X66811Y244662D01*
X66728Y244635D01*
X66688Y244607D01*
X66631Y244581D01*
X66518Y244485D01*
X66454Y244440D01*
X59940Y237926D01*
X59888Y237856D01*
X59828Y237792D01*
X59802Y237743D01*
X59769Y237698D01*
X59738Y237617D01*
X59698Y237539D01*
X59690Y237491D01*
X59668Y237433D01*
X59656Y237285D01*
X59643Y237208D01*
X59643Y225065D01*
X57956Y223379D01*
X57904Y223309D01*
X57844Y223245D01*
X57818Y223195D01*
X57785Y223151D01*
X57754Y223070D01*
X57714Y222992D01*
X57706Y222944D01*
X57684Y222886D01*
X57672Y222738D01*
X57659Y222661D01*
X57659Y220798D01*
X57671Y220712D01*
X57674Y220624D01*
X57691Y220572D01*
X57699Y220517D01*
X57734Y220437D01*
X57761Y220354D01*
X57789Y220314D01*
X57815Y220257D01*
X57911Y220144D01*
X57956Y220080D01*
X78115Y199922D01*
X78115Y155614D01*
X78123Y155556D01*
X78121Y155498D01*
X78143Y155416D01*
X78155Y155332D01*
X78178Y155279D01*
X78193Y155223D01*
X78236Y155150D01*
X78271Y155073D01*
X78309Y155028D01*
X78338Y154978D01*
X78400Y154920D01*
X78454Y154856D01*
X78503Y154824D01*
X78546Y154784D01*
X78621Y154745D01*
X78691Y154698D01*
X78747Y154681D01*
X78799Y154654D01*
X78867Y154643D01*
X78962Y154613D01*
X79062Y154610D01*
X79130Y154599D01*
X80313Y154599D01*
X81832Y153079D01*
X81879Y153044D01*
X81919Y153002D01*
X81992Y152959D01*
X82059Y152909D01*
X82114Y152888D01*
X82164Y152858D01*
X82246Y152837D01*
X82325Y152807D01*
X82383Y152802D01*
X82440Y152788D01*
X82524Y152791D01*
X82608Y152784D01*
X82666Y152795D01*
X82724Y152797D01*
X82804Y152823D01*
X82887Y152840D01*
X82939Y152867D01*
X82995Y152885D01*
X83051Y152925D01*
X83139Y152971D01*
X83212Y153039D01*
X83268Y153079D01*
X84787Y154599D01*
X97313Y154599D01*
X99099Y152813D01*
X99099Y151130D01*
X99107Y151072D01*
X99105Y151014D01*
X99127Y150932D01*
X99139Y150848D01*
X99162Y150795D01*
X99177Y150739D01*
X99220Y150666D01*
X99255Y150589D01*
X99293Y150544D01*
X99322Y150494D01*
X99384Y150436D01*
X99438Y150372D01*
X99487Y150340D01*
X99530Y150300D01*
X99605Y150261D01*
X99675Y150214D01*
X99731Y150197D01*
X99783Y150170D01*
X99851Y150159D01*
X99946Y150129D01*
X100046Y150126D01*
X100114Y150115D01*
X101252Y150115D01*
X103930Y147436D01*
X122472Y128894D01*
X122519Y128859D01*
X122559Y128817D01*
X122632Y128774D01*
X122699Y128723D01*
X122754Y128703D01*
X122804Y128673D01*
X122886Y128652D01*
X122965Y128622D01*
X123023Y128617D01*
X123080Y128603D01*
X123164Y128606D01*
X123248Y128599D01*
X123306Y128610D01*
G37*
%LPC*%
G36*
X25145Y90169D02*
X25145Y90169D01*
X25145Y91186D01*
X25138Y91234D01*
X25138Y91239D01*
X25137Y91244D01*
X25138Y91302D01*
X25117Y91384D01*
X25105Y91467D01*
X25081Y91521D01*
X25067Y91577D01*
X25024Y91650D01*
X24989Y91727D01*
X24951Y91772D01*
X24921Y91822D01*
X24860Y91880D01*
X24805Y91944D01*
X24757Y91976D01*
X24714Y92016D01*
X24639Y92055D01*
X24569Y92101D01*
X24513Y92119D01*
X24461Y92146D01*
X24393Y92157D01*
X24298Y92187D01*
X24198Y92190D01*
X24130Y92201D01*
X14604Y92201D01*
X14604Y94537D01*
X19321Y99253D01*
X19356Y99300D01*
X19398Y99340D01*
X19441Y99413D01*
X19492Y99480D01*
X19512Y99535D01*
X19542Y99585D01*
X19563Y99667D01*
X19593Y99746D01*
X19598Y99804D01*
X19612Y99861D01*
X19609Y99945D01*
X19616Y100029D01*
X19605Y100086D01*
X19603Y100145D01*
X19577Y100225D01*
X19560Y100308D01*
X19534Y100360D01*
X19516Y100415D01*
X19475Y100472D01*
X19429Y100560D01*
X19361Y100632D01*
X19321Y100689D01*
X14096Y105913D01*
X14096Y115067D01*
X20569Y121540D01*
X29308Y121540D01*
X29395Y121552D01*
X29482Y121555D01*
X29535Y121572D01*
X29590Y121580D01*
X29670Y121615D01*
X29753Y121642D01*
X29792Y121670D01*
X29849Y121696D01*
X29963Y121792D01*
X30026Y121837D01*
X31316Y123127D01*
X31368Y123197D01*
X31428Y123260D01*
X31454Y123310D01*
X31487Y123354D01*
X31518Y123436D01*
X31558Y123514D01*
X31566Y123561D01*
X31588Y123620D01*
X31600Y123767D01*
X31613Y123845D01*
X31613Y148416D01*
X31605Y148474D01*
X31607Y148532D01*
X31585Y148614D01*
X31573Y148698D01*
X31550Y148751D01*
X31535Y148807D01*
X31492Y148880D01*
X31457Y148957D01*
X31419Y149002D01*
X31390Y149052D01*
X31328Y149110D01*
X31274Y149174D01*
X31225Y149206D01*
X31182Y149246D01*
X31107Y149285D01*
X31037Y149332D01*
X30981Y149349D01*
X30929Y149376D01*
X30861Y149387D01*
X30766Y149417D01*
X30666Y149420D01*
X30598Y149431D01*
X29423Y149431D01*
X28045Y150810D01*
X27998Y150845D01*
X27958Y150887D01*
X27885Y150930D01*
X27818Y150981D01*
X27763Y151002D01*
X27712Y151031D01*
X27631Y151052D01*
X27552Y151082D01*
X27493Y151087D01*
X27437Y151101D01*
X27353Y151098D01*
X27269Y151105D01*
X27211Y151094D01*
X27153Y151092D01*
X27073Y151066D01*
X26990Y151050D01*
X26938Y151023D01*
X26882Y151005D01*
X26826Y150965D01*
X26737Y150919D01*
X26665Y150850D01*
X26609Y150810D01*
X26246Y150447D01*
X25667Y150112D01*
X25020Y149939D01*
X21217Y149939D01*
X21217Y156464D01*
X21209Y156522D01*
X21210Y156580D01*
X21189Y156662D01*
X21177Y156745D01*
X21153Y156799D01*
X21139Y156855D01*
X21096Y156928D01*
X21061Y157005D01*
X21023Y157049D01*
X20993Y157100D01*
X20932Y157157D01*
X20877Y157222D01*
X20829Y157254D01*
X20786Y157294D01*
X20711Y157333D01*
X20641Y157379D01*
X20585Y157397D01*
X20533Y157424D01*
X20465Y157435D01*
X20370Y157465D01*
X20270Y157468D01*
X20202Y157479D01*
X19185Y157479D01*
X19185Y157481D01*
X20202Y157481D01*
X20260Y157489D01*
X20318Y157488D01*
X20400Y157509D01*
X20483Y157521D01*
X20537Y157545D01*
X20593Y157559D01*
X20666Y157602D01*
X20743Y157637D01*
X20787Y157675D01*
X20838Y157705D01*
X20895Y157766D01*
X20960Y157821D01*
X20992Y157869D01*
X21032Y157912D01*
X21071Y157987D01*
X21117Y158057D01*
X21135Y158113D01*
X21162Y158165D01*
X21173Y158233D01*
X21203Y158328D01*
X21206Y158428D01*
X21217Y158496D01*
X21217Y165021D01*
X25020Y165021D01*
X25667Y164848D01*
X26246Y164513D01*
X26609Y164150D01*
X26656Y164115D01*
X26696Y164073D01*
X26769Y164030D01*
X26836Y163979D01*
X26891Y163958D01*
X26941Y163929D01*
X27023Y163908D01*
X27102Y163878D01*
X27160Y163873D01*
X27217Y163859D01*
X27301Y163862D01*
X27385Y163855D01*
X27442Y163866D01*
X27501Y163868D01*
X27581Y163894D01*
X27664Y163910D01*
X27716Y163937D01*
X27771Y163955D01*
X27828Y163996D01*
X27916Y164041D01*
X27988Y164110D01*
X28045Y164150D01*
X29423Y165529D01*
X37347Y165529D01*
X37434Y165541D01*
X37521Y165544D01*
X37574Y165561D01*
X37629Y165569D01*
X37709Y165604D01*
X37792Y165631D01*
X37831Y165659D01*
X37888Y165685D01*
X38001Y165781D01*
X38065Y165826D01*
X42293Y170054D01*
X42311Y170078D01*
X42333Y170097D01*
X42396Y170191D01*
X42464Y170281D01*
X42475Y170309D01*
X42491Y170333D01*
X42525Y170441D01*
X42565Y170547D01*
X42568Y170576D01*
X42577Y170604D01*
X42580Y170718D01*
X42589Y170830D01*
X42583Y170859D01*
X42584Y170888D01*
X42555Y170998D01*
X42533Y171109D01*
X42520Y171135D01*
X42512Y171163D01*
X42454Y171261D01*
X42402Y171361D01*
X42393Y171371D01*
X42393Y184844D01*
X42385Y184902D01*
X42387Y184960D01*
X42365Y185042D01*
X42353Y185125D01*
X42330Y185179D01*
X42315Y185235D01*
X42272Y185308D01*
X42237Y185385D01*
X42199Y185429D01*
X42170Y185480D01*
X42108Y185537D01*
X42054Y185602D01*
X42005Y185634D01*
X41962Y185674D01*
X41887Y185713D01*
X41817Y185759D01*
X41761Y185777D01*
X41709Y185804D01*
X41641Y185815D01*
X41546Y185845D01*
X41446Y185848D01*
X41419Y185852D01*
X41417Y185870D01*
X41418Y185928D01*
X41397Y186010D01*
X41385Y186094D01*
X41361Y186147D01*
X41347Y186203D01*
X41303Y186276D01*
X41269Y186353D01*
X41231Y186398D01*
X41201Y186448D01*
X41140Y186506D01*
X41085Y186570D01*
X41037Y186602D01*
X40994Y186642D01*
X40919Y186681D01*
X40849Y186728D01*
X40793Y186745D01*
X40741Y186772D01*
X40673Y186783D01*
X40578Y186813D01*
X40478Y186816D01*
X40410Y186827D01*
X28678Y186827D01*
X28620Y186819D01*
X28562Y186821D01*
X28480Y186799D01*
X28397Y186787D01*
X28343Y186764D01*
X28287Y186749D01*
X28214Y186706D01*
X28137Y186671D01*
X28093Y186633D01*
X28042Y186604D01*
X27985Y186542D01*
X27920Y186488D01*
X27888Y186439D01*
X27848Y186396D01*
X27809Y186321D01*
X27763Y186251D01*
X27745Y186195D01*
X27718Y186143D01*
X27707Y186075D01*
X27677Y185980D01*
X27674Y185880D01*
X27670Y185853D01*
X27652Y185851D01*
X27594Y185852D01*
X27512Y185831D01*
X27428Y185819D01*
X27375Y185795D01*
X27319Y185781D01*
X27246Y185737D01*
X27169Y185703D01*
X27124Y185665D01*
X27074Y185635D01*
X27016Y185574D01*
X26952Y185519D01*
X26920Y185471D01*
X26880Y185428D01*
X26841Y185353D01*
X26794Y185283D01*
X26777Y185227D01*
X26750Y185175D01*
X26739Y185107D01*
X26709Y185012D01*
X26706Y184912D01*
X26695Y184844D01*
X26695Y171787D01*
X24860Y171787D01*
X24213Y171960D01*
X23634Y172295D01*
X23161Y172768D01*
X23121Y172836D01*
X23091Y172875D01*
X23069Y172918D01*
X23004Y172986D01*
X22946Y173060D01*
X22907Y173089D01*
X22873Y173124D01*
X22792Y173172D01*
X22716Y173227D01*
X22670Y173243D01*
X22628Y173268D01*
X22537Y173291D01*
X22448Y173323D01*
X22399Y173326D01*
X22352Y173338D01*
X22258Y173335D01*
X22164Y173341D01*
X22117Y173331D01*
X22068Y173329D01*
X21979Y173300D01*
X21887Y173280D01*
X21844Y173257D01*
X21798Y173242D01*
X21737Y173199D01*
X21637Y173144D01*
X21575Y173083D01*
X21524Y173047D01*
X19757Y171279D01*
X11231Y171279D01*
X9445Y173065D01*
X9445Y197591D01*
X11244Y199390D01*
X11307Y199392D01*
X11360Y199409D01*
X11415Y199417D01*
X11495Y199452D01*
X11578Y199479D01*
X11617Y199507D01*
X11674Y199533D01*
X11787Y199629D01*
X11851Y199674D01*
X20458Y208281D01*
X48630Y208281D01*
X51606Y205305D01*
X55191Y201720D01*
X57237Y199674D01*
X57307Y199622D01*
X57370Y199562D01*
X57420Y199536D01*
X57464Y199503D01*
X57546Y199472D01*
X57624Y199432D01*
X57671Y199424D01*
X57730Y199402D01*
X57841Y199393D01*
X59643Y197591D01*
X59643Y173065D01*
X57857Y171279D01*
X56873Y171279D01*
X56786Y171267D01*
X56699Y171264D01*
X56646Y171247D01*
X56591Y171239D01*
X56511Y171204D01*
X56428Y171177D01*
X56389Y171149D01*
X56332Y171123D01*
X56218Y171027D01*
X56155Y170982D01*
X45032Y159859D01*
X45015Y159837D01*
X44995Y159819D01*
X44963Y159771D01*
X44920Y159726D01*
X44894Y159676D01*
X44861Y159632D01*
X44850Y159602D01*
X44837Y159583D01*
X44821Y159534D01*
X44790Y159472D01*
X44782Y159425D01*
X44760Y159366D01*
X44757Y159330D01*
X44751Y159312D01*
X44749Y159240D01*
X44748Y159219D01*
X44735Y159141D01*
X44735Y151217D01*
X42949Y149431D01*
X41774Y149431D01*
X41716Y149423D01*
X41658Y149425D01*
X41576Y149403D01*
X41492Y149391D01*
X41439Y149368D01*
X41383Y149353D01*
X41310Y149310D01*
X41233Y149275D01*
X41188Y149237D01*
X41138Y149208D01*
X41080Y149146D01*
X41016Y149092D01*
X40984Y149043D01*
X40944Y149000D01*
X40905Y148925D01*
X40858Y148855D01*
X40841Y148799D01*
X40814Y148747D01*
X40803Y148679D01*
X40773Y148584D01*
X40770Y148484D01*
X40759Y148416D01*
X40759Y119636D01*
X36493Y115370D01*
X36441Y115300D01*
X36381Y115237D01*
X36355Y115187D01*
X36322Y115143D01*
X36291Y115061D01*
X36251Y114983D01*
X36243Y114936D01*
X36221Y114877D01*
X36209Y114730D01*
X36196Y114652D01*
X36196Y105913D01*
X30971Y100689D01*
X30936Y100642D01*
X30894Y100602D01*
X30851Y100529D01*
X30800Y100462D01*
X30780Y100407D01*
X30750Y100356D01*
X30729Y100275D01*
X30699Y100196D01*
X30694Y100137D01*
X30680Y100081D01*
X30683Y99997D01*
X30676Y99913D01*
X30687Y99855D01*
X30689Y99797D01*
X30715Y99717D01*
X30732Y99634D01*
X30758Y99582D01*
X30776Y99526D01*
X30817Y99470D01*
X30863Y99381D01*
X30931Y99309D01*
X30971Y99253D01*
X35688Y94537D01*
X35688Y92201D01*
X26162Y92201D01*
X26104Y92193D01*
X26046Y92195D01*
X25964Y92173D01*
X25881Y92161D01*
X25827Y92137D01*
X25771Y92123D01*
X25698Y92080D01*
X25621Y92045D01*
X25577Y92007D01*
X25526Y91977D01*
X25469Y91916D01*
X25404Y91861D01*
X25372Y91813D01*
X25332Y91770D01*
X25293Y91695D01*
X25247Y91625D01*
X25229Y91569D01*
X25202Y91517D01*
X25191Y91449D01*
X25161Y91354D01*
X25158Y91254D01*
X25147Y91186D01*
X25147Y90169D01*
X25145Y90169D01*
G37*
%LPD*%
G36*
X240250Y300234D02*
X240250Y300234D01*
X240289Y300232D01*
X240390Y300254D01*
X240493Y300269D01*
X240528Y300285D01*
X240566Y300293D01*
X240657Y300342D01*
X240752Y300385D01*
X240782Y300410D01*
X240816Y300429D01*
X240890Y300502D01*
X240969Y300568D01*
X240991Y300601D01*
X241019Y300628D01*
X241069Y300719D01*
X241127Y300805D01*
X241138Y300842D01*
X241158Y300876D01*
X241181Y300977D01*
X241212Y301076D01*
X241213Y301115D01*
X241222Y301153D01*
X241217Y301257D01*
X241220Y301360D01*
X241210Y301398D01*
X241208Y301437D01*
X241181Y301510D01*
X241148Y301635D01*
X241128Y301669D01*
X241128Y301670D01*
X241109Y301702D01*
X241090Y301752D01*
X240798Y302257D01*
X240625Y302904D01*
X240625Y306207D01*
X247650Y306207D01*
X247708Y306215D01*
X247766Y306213D01*
X247848Y306235D01*
X247931Y306247D01*
X247985Y306271D01*
X248041Y306285D01*
X248114Y306328D01*
X248191Y306363D01*
X248235Y306401D01*
X248286Y306431D01*
X248343Y306492D01*
X248408Y306547D01*
X248440Y306595D01*
X248480Y306638D01*
X248519Y306713D01*
X248565Y306783D01*
X248583Y306839D01*
X248610Y306891D01*
X248621Y306959D01*
X248651Y307054D01*
X248654Y307154D01*
X248665Y307222D01*
X248665Y309254D01*
X248657Y309312D01*
X248658Y309370D01*
X248637Y309452D01*
X248625Y309535D01*
X248601Y309589D01*
X248587Y309645D01*
X248544Y309718D01*
X248509Y309795D01*
X248471Y309839D01*
X248441Y309890D01*
X248380Y309947D01*
X248325Y310012D01*
X248277Y310044D01*
X248234Y310084D01*
X248159Y310123D01*
X248089Y310169D01*
X248033Y310187D01*
X247981Y310214D01*
X247913Y310225D01*
X247818Y310255D01*
X247718Y310258D01*
X247650Y310269D01*
X240625Y310269D01*
X240625Y313572D01*
X240798Y314219D01*
X241133Y314798D01*
X241606Y315271D01*
X241865Y315420D01*
X241903Y315450D01*
X241946Y315473D01*
X242015Y315538D01*
X242089Y315596D01*
X242117Y315635D01*
X242152Y315669D01*
X242200Y315750D01*
X242255Y315826D01*
X242272Y315872D01*
X242296Y315914D01*
X242319Y316005D01*
X242351Y316094D01*
X242354Y316142D01*
X242366Y316190D01*
X242363Y316283D01*
X242369Y316377D01*
X242359Y316425D01*
X242357Y316474D01*
X242328Y316563D01*
X242308Y316655D01*
X242285Y316698D01*
X242270Y316744D01*
X242227Y316805D01*
X242172Y316905D01*
X242111Y316966D01*
X242075Y317018D01*
X240117Y318975D01*
X240117Y331501D01*
X240893Y332276D01*
X240928Y332323D01*
X240970Y332363D01*
X241013Y332436D01*
X241063Y332503D01*
X241084Y332558D01*
X241114Y332608D01*
X241135Y332690D01*
X241165Y332769D01*
X241170Y332827D01*
X241184Y332884D01*
X241181Y332968D01*
X241188Y333052D01*
X241177Y333110D01*
X241175Y333168D01*
X241149Y333248D01*
X241132Y333331D01*
X241105Y333383D01*
X241087Y333439D01*
X241047Y333495D01*
X241001Y333583D01*
X240933Y333656D01*
X240893Y333712D01*
X240117Y334487D01*
X240117Y335670D01*
X240109Y335728D01*
X240111Y335786D01*
X240089Y335868D01*
X240077Y335952D01*
X240054Y336005D01*
X240039Y336061D01*
X239996Y336134D01*
X239961Y336211D01*
X239923Y336256D01*
X239894Y336306D01*
X239832Y336364D01*
X239778Y336428D01*
X239729Y336460D01*
X239686Y336500D01*
X239611Y336539D01*
X239541Y336586D01*
X239485Y336603D01*
X239433Y336630D01*
X239365Y336641D01*
X239270Y336671D01*
X239170Y336674D01*
X239102Y336685D01*
X207962Y336685D01*
X207876Y336673D01*
X207788Y336670D01*
X207735Y336653D01*
X207681Y336645D01*
X207601Y336610D01*
X207518Y336583D01*
X207478Y336555D01*
X207421Y336529D01*
X207308Y336433D01*
X207244Y336388D01*
X187468Y316612D01*
X187416Y316542D01*
X187356Y316478D01*
X187330Y316429D01*
X187297Y316384D01*
X187266Y316303D01*
X187226Y316225D01*
X187218Y316177D01*
X187196Y316119D01*
X187184Y315971D01*
X187171Y315894D01*
X187171Y314515D01*
X186247Y312284D01*
X184540Y310577D01*
X182309Y309653D01*
X179895Y309653D01*
X177664Y310577D01*
X175957Y312284D01*
X175246Y314001D01*
X175202Y314075D01*
X175167Y314154D01*
X175130Y314197D01*
X175101Y314246D01*
X175039Y314305D01*
X174983Y314371D01*
X174936Y314402D01*
X174895Y314441D01*
X174818Y314481D01*
X174747Y314528D01*
X174693Y314546D01*
X174642Y314572D01*
X174558Y314588D01*
X174476Y314614D01*
X174419Y314616D01*
X174363Y314627D01*
X174278Y314619D01*
X174192Y314621D01*
X174137Y314607D01*
X174080Y314602D01*
X173999Y314571D01*
X173917Y314550D01*
X173868Y314521D01*
X173815Y314500D01*
X173746Y314448D01*
X173672Y314404D01*
X173633Y314363D01*
X173588Y314329D01*
X173536Y314260D01*
X173478Y314197D01*
X173452Y314146D01*
X173418Y314101D01*
X173387Y314021D01*
X173348Y313944D01*
X173340Y313895D01*
X173317Y313835D01*
X173306Y313690D01*
X173293Y313613D01*
X173293Y301244D01*
X173300Y301191D01*
X173299Y301163D01*
X173300Y301159D01*
X173299Y301128D01*
X173321Y301046D01*
X173333Y300962D01*
X173356Y300909D01*
X173371Y300853D01*
X173414Y300780D01*
X173449Y300703D01*
X173487Y300658D01*
X173516Y300608D01*
X173578Y300550D01*
X173632Y300486D01*
X173681Y300454D01*
X173724Y300414D01*
X173799Y300375D01*
X173869Y300328D01*
X173925Y300311D01*
X173977Y300284D01*
X174045Y300273D01*
X174140Y300243D01*
X174240Y300240D01*
X174308Y300229D01*
X240211Y300229D01*
X240250Y300234D01*
G37*
%LPC*%
G36*
X27809Y329439D02*
X27809Y329439D01*
X20528Y332455D01*
X14955Y338028D01*
X11939Y345309D01*
X11939Y353191D01*
X14955Y360472D01*
X20528Y366045D01*
X27809Y369061D01*
X35691Y369061D01*
X42972Y366045D01*
X48545Y360472D01*
X51561Y353191D01*
X51561Y345309D01*
X48545Y338028D01*
X42972Y332455D01*
X35691Y329439D01*
X27809Y329439D01*
G37*
%LPD*%
%LPC*%
G36*
X27809Y11939D02*
X27809Y11939D01*
X20528Y14955D01*
X14955Y20528D01*
X11939Y27809D01*
X11939Y35691D01*
X14955Y42972D01*
X20528Y48545D01*
X27809Y51561D01*
X35691Y51561D01*
X42972Y48545D01*
X48545Y42972D01*
X51561Y35691D01*
X51561Y27809D01*
X48545Y20528D01*
X42972Y14955D01*
X35691Y11939D01*
X27809Y11939D01*
G37*
%LPD*%
%LPC*%
G36*
X216104Y245879D02*
X216104Y245879D01*
X216036Y245890D01*
X215941Y245920D01*
X215841Y245923D01*
X215773Y245934D01*
X207263Y245934D01*
X207263Y247553D01*
X207251Y247639D01*
X207248Y247727D01*
X207231Y247779D01*
X207223Y247834D01*
X207188Y247914D01*
X207161Y247997D01*
X207133Y248036D01*
X207107Y248094D01*
X207011Y248207D01*
X206966Y248271D01*
X206755Y248481D01*
X206755Y272595D01*
X208541Y274381D01*
X223767Y274381D01*
X225553Y272595D01*
X225553Y248481D01*
X225342Y248271D01*
X225290Y248201D01*
X225230Y248137D01*
X225204Y248087D01*
X225171Y248043D01*
X225140Y247962D01*
X225100Y247884D01*
X225092Y247836D01*
X225070Y247778D01*
X225058Y247630D01*
X225045Y247553D01*
X225045Y245934D01*
X216535Y245934D01*
X216477Y245926D01*
X216419Y245928D01*
X216337Y245906D01*
X216254Y245894D01*
X216200Y245871D01*
X216147Y245857D01*
X216104Y245879D01*
G37*
%LPD*%
%LPC*%
G36*
X263014Y18987D02*
X263014Y18987D01*
X259688Y20365D01*
X257143Y22910D01*
X255765Y26236D01*
X255765Y41836D01*
X257143Y45162D01*
X259688Y47707D01*
X263014Y49085D01*
X266614Y49085D01*
X269940Y47707D01*
X272485Y45162D01*
X273863Y41836D01*
X273863Y26236D01*
X272485Y22910D01*
X269940Y20365D01*
X266614Y18987D01*
X263014Y18987D01*
G37*
%LPD*%
%LPC*%
G36*
X85252Y19241D02*
X85252Y19241D01*
X81926Y20619D01*
X79381Y23164D01*
X78003Y26490D01*
X78003Y42090D01*
X79381Y45416D01*
X81926Y47961D01*
X85252Y49339D01*
X88852Y49339D01*
X92178Y47961D01*
X94723Y45416D01*
X96101Y42090D01*
X96101Y26490D01*
X94723Y23164D01*
X92178Y20619D01*
X88852Y19241D01*
X85252Y19241D01*
G37*
%LPD*%
%LPC*%
G36*
X85430Y71692D02*
X85430Y71692D01*
X82104Y73070D01*
X79559Y75615D01*
X78181Y78941D01*
X78181Y94541D01*
X79559Y97867D01*
X82104Y100412D01*
X85430Y101790D01*
X89030Y101790D01*
X92356Y100412D01*
X94901Y97867D01*
X96279Y94541D01*
X96279Y78941D01*
X94901Y75615D01*
X92356Y73070D01*
X89030Y71692D01*
X85430Y71692D01*
G37*
%LPD*%
%LPC*%
G36*
X29693Y171787D02*
X29693Y171787D01*
X29693Y183829D01*
X39395Y183829D01*
X39395Y171787D01*
X37560Y171787D01*
X36913Y171960D01*
X36334Y172295D01*
X35861Y172768D01*
X35526Y173347D01*
X35525Y173354D01*
X35517Y173372D01*
X35514Y173391D01*
X35461Y173503D01*
X35413Y173616D01*
X35401Y173631D01*
X35393Y173649D01*
X35311Y173741D01*
X35234Y173836D01*
X35218Y173847D01*
X35205Y173862D01*
X35101Y173928D01*
X35000Y173998D01*
X34982Y174004D01*
X34965Y174015D01*
X34847Y174050D01*
X34731Y174089D01*
X34711Y174090D01*
X34692Y174096D01*
X34569Y174096D01*
X34447Y174102D01*
X34428Y174097D01*
X34408Y174097D01*
X34290Y174064D01*
X34171Y174035D01*
X34153Y174025D01*
X34135Y174020D01*
X34030Y173956D01*
X33923Y173895D01*
X33910Y173881D01*
X33893Y173870D01*
X33811Y173779D01*
X33725Y173691D01*
X33716Y173674D01*
X33703Y173659D01*
X33672Y173592D01*
X33591Y173441D01*
X33580Y173390D01*
X33563Y173354D01*
X33561Y173347D01*
X33227Y172768D01*
X32754Y172295D01*
X32175Y171960D01*
X31528Y171787D01*
X29693Y171787D01*
G37*
%LPD*%
G36*
X252647Y198633D02*
X252647Y198633D01*
X252676Y198630D01*
X252788Y198653D01*
X252899Y198669D01*
X252926Y198681D01*
X252955Y198686D01*
X253056Y198739D01*
X253159Y198785D01*
X253181Y198804D01*
X253207Y198817D01*
X253289Y198895D01*
X253376Y198968D01*
X253392Y198993D01*
X253413Y199013D01*
X253471Y199111D01*
X253533Y199205D01*
X253542Y199233D01*
X253557Y199259D01*
X253585Y199368D01*
X253619Y199476D01*
X253620Y199506D01*
X253627Y199534D01*
X253623Y199647D01*
X253626Y199760D01*
X253619Y199789D01*
X253618Y199818D01*
X253583Y199926D01*
X253555Y200035D01*
X253539Y200061D01*
X253530Y200089D01*
X253485Y200153D01*
X253455Y200202D01*
X252503Y202501D01*
X252503Y203608D01*
X252491Y203694D01*
X252488Y203782D01*
X252471Y203834D01*
X252463Y203889D01*
X252428Y203969D01*
X252401Y204052D01*
X252373Y204092D01*
X252347Y204149D01*
X252251Y204262D01*
X252206Y204326D01*
X250328Y206204D01*
X247780Y208752D01*
X247756Y208769D01*
X247737Y208792D01*
X247643Y208855D01*
X247553Y208923D01*
X247525Y208933D01*
X247501Y208949D01*
X247393Y208984D01*
X247287Y209024D01*
X247258Y209026D01*
X247230Y209035D01*
X247116Y209038D01*
X247004Y209047D01*
X246975Y209042D01*
X246946Y209042D01*
X246836Y209014D01*
X246725Y208992D01*
X246699Y208978D01*
X246671Y208971D01*
X246591Y208923D01*
X239522Y208923D01*
X239464Y208915D01*
X239406Y208916D01*
X239324Y208895D01*
X239241Y208883D01*
X239187Y208859D01*
X239131Y208845D01*
X239058Y208802D01*
X238981Y208767D01*
X238937Y208729D01*
X238886Y208699D01*
X238829Y208638D01*
X238764Y208583D01*
X238732Y208535D01*
X238692Y208492D01*
X238653Y208417D01*
X238607Y208347D01*
X238589Y208291D01*
X238562Y208239D01*
X238551Y208171D01*
X238521Y208076D01*
X238518Y207976D01*
X238507Y207908D01*
X238507Y205876D01*
X238515Y205818D01*
X238514Y205760D01*
X238535Y205678D01*
X238547Y205595D01*
X238571Y205541D01*
X238585Y205485D01*
X238628Y205412D01*
X238663Y205335D01*
X238701Y205290D01*
X238731Y205240D01*
X238792Y205182D01*
X238847Y205118D01*
X238895Y205086D01*
X238938Y205046D01*
X239013Y205007D01*
X239083Y204961D01*
X239139Y204943D01*
X239191Y204916D01*
X239259Y204905D01*
X239354Y204875D01*
X239454Y204872D01*
X239522Y204861D01*
X246047Y204861D01*
X246047Y201058D01*
X245874Y200411D01*
X245724Y200152D01*
X245709Y200115D01*
X245687Y200083D01*
X245656Y199984D01*
X245617Y199888D01*
X245613Y199849D01*
X245602Y199812D01*
X245599Y199708D01*
X245588Y199605D01*
X245595Y199567D01*
X245594Y199528D01*
X245620Y199427D01*
X245639Y199325D01*
X245656Y199290D01*
X245666Y199253D01*
X245719Y199164D01*
X245765Y199071D01*
X245791Y199042D01*
X245811Y199008D01*
X245887Y198937D01*
X245957Y198861D01*
X245990Y198840D01*
X246019Y198814D01*
X246111Y198766D01*
X246199Y198712D01*
X246237Y198702D01*
X246272Y198684D01*
X246348Y198671D01*
X246473Y198637D01*
X246548Y198638D01*
X246603Y198629D01*
X252618Y198629D01*
X252647Y198633D01*
G37*
%LPC*%
G36*
X25115Y294131D02*
X25115Y294131D01*
X25115Y303641D01*
X31418Y303641D01*
X32065Y303468D01*
X32644Y303133D01*
X33117Y302660D01*
X33452Y302081D01*
X33625Y301434D01*
X33625Y294131D01*
X25115Y294131D01*
G37*
%LPD*%
%LPC*%
G36*
X25115Y280559D02*
X25115Y280559D01*
X25115Y290069D01*
X33625Y290069D01*
X33625Y282766D01*
X33452Y282119D01*
X33117Y281540D01*
X32644Y281067D01*
X32065Y280732D01*
X31418Y280559D01*
X25115Y280559D01*
G37*
%LPD*%
%LPC*%
G36*
X12543Y294131D02*
X12543Y294131D01*
X12543Y301434D01*
X12716Y302081D01*
X13051Y302660D01*
X13524Y303133D01*
X14103Y303468D01*
X14750Y303641D01*
X21053Y303641D01*
X21053Y294131D01*
X12543Y294131D01*
G37*
%LPD*%
%LPC*%
G36*
X14750Y280559D02*
X14750Y280559D01*
X14103Y280732D01*
X13524Y281067D01*
X13051Y281540D01*
X12716Y282119D01*
X12543Y282766D01*
X12543Y290069D01*
X21053Y290069D01*
X21053Y280559D01*
X14750Y280559D01*
G37*
%LPD*%
%LPC*%
G36*
X291813Y36035D02*
X291813Y36035D01*
X291813Y48346D01*
X292305Y48249D01*
X293860Y47605D01*
X295258Y46670D01*
X296448Y45480D01*
X297383Y44082D01*
X298027Y42527D01*
X298355Y40877D01*
X298355Y36035D01*
X291813Y36035D01*
G37*
%LPD*%
%LPC*%
G36*
X164051Y36289D02*
X164051Y36289D01*
X164051Y48600D01*
X164543Y48503D01*
X166098Y47859D01*
X167496Y46924D01*
X168686Y45734D01*
X169621Y44336D01*
X170265Y42781D01*
X170593Y41131D01*
X170593Y36289D01*
X164051Y36289D01*
G37*
%LPD*%
%LPC*%
G36*
X291813Y88613D02*
X291813Y88613D01*
X291813Y100924D01*
X292305Y100827D01*
X293860Y100183D01*
X295258Y99248D01*
X296448Y98058D01*
X297383Y96660D01*
X298027Y95105D01*
X298355Y93455D01*
X298355Y88613D01*
X291813Y88613D01*
G37*
%LPD*%
%LPC*%
G36*
X164229Y88740D02*
X164229Y88740D01*
X164229Y101051D01*
X164721Y100954D01*
X166275Y100310D01*
X167674Y99375D01*
X168864Y98185D01*
X169798Y96787D01*
X170442Y95232D01*
X170771Y93582D01*
X170771Y88740D01*
X164229Y88740D01*
G37*
%LPD*%
%LPC*%
G36*
X291813Y32037D02*
X291813Y32037D01*
X298355Y32037D01*
X298355Y27195D01*
X298027Y25545D01*
X297383Y23990D01*
X296448Y22592D01*
X295258Y21402D01*
X293860Y20467D01*
X292305Y19823D01*
X291813Y19726D01*
X291813Y32037D01*
G37*
%LPD*%
%LPC*%
G36*
X164051Y32291D02*
X164051Y32291D01*
X170593Y32291D01*
X170593Y27449D01*
X170265Y25799D01*
X169621Y24244D01*
X168686Y22846D01*
X167496Y21656D01*
X166098Y20721D01*
X164543Y20077D01*
X164051Y19980D01*
X164051Y32291D01*
G37*
%LPD*%
%LPC*%
G36*
X291813Y84615D02*
X291813Y84615D01*
X298355Y84615D01*
X298355Y79773D01*
X298027Y78123D01*
X297383Y76568D01*
X296448Y75170D01*
X295258Y73980D01*
X293860Y73045D01*
X292305Y72401D01*
X291813Y72304D01*
X291813Y84615D01*
G37*
%LPD*%
%LPC*%
G36*
X164229Y84742D02*
X164229Y84742D01*
X170771Y84742D01*
X170771Y79900D01*
X170442Y78250D01*
X169798Y76695D01*
X168864Y75297D01*
X167674Y74107D01*
X166275Y73172D01*
X164721Y72528D01*
X164229Y72431D01*
X164229Y84742D01*
G37*
%LPD*%
%LPC*%
G36*
X153689Y88740D02*
X153689Y88740D01*
X153689Y93582D01*
X154017Y95232D01*
X154661Y96787D01*
X155596Y98185D01*
X156785Y99375D01*
X158184Y100310D01*
X159739Y100954D01*
X160230Y101051D01*
X160230Y88740D01*
X153689Y88740D01*
G37*
%LPD*%
%LPC*%
G36*
X153511Y36289D02*
X153511Y36289D01*
X153511Y41131D01*
X153839Y42781D01*
X154483Y44336D01*
X155418Y45734D01*
X156608Y46924D01*
X158006Y47859D01*
X159561Y48503D01*
X160053Y48600D01*
X160053Y36289D01*
X153511Y36289D01*
G37*
%LPD*%
%LPC*%
G36*
X281273Y88613D02*
X281273Y88613D01*
X281273Y93455D01*
X281601Y95105D01*
X282245Y96660D01*
X283180Y98058D01*
X284370Y99248D01*
X285768Y100183D01*
X287323Y100827D01*
X287815Y100924D01*
X287815Y88613D01*
X281273Y88613D01*
G37*
%LPD*%
%LPC*%
G36*
X281273Y36035D02*
X281273Y36035D01*
X281273Y40877D01*
X281601Y42527D01*
X282245Y44082D01*
X283180Y45480D01*
X284370Y46670D01*
X285768Y47605D01*
X287323Y48249D01*
X287815Y48346D01*
X287815Y36035D01*
X281273Y36035D01*
G37*
%LPD*%
%LPC*%
G36*
X159739Y72528D02*
X159739Y72528D01*
X158184Y73172D01*
X156785Y74107D01*
X155596Y75297D01*
X154661Y76695D01*
X154017Y78250D01*
X153689Y79900D01*
X153689Y84742D01*
X160230Y84742D01*
X160230Y72431D01*
X159739Y72528D01*
G37*
%LPD*%
%LPC*%
G36*
X287323Y72401D02*
X287323Y72401D01*
X285768Y73045D01*
X284370Y73980D01*
X283180Y75170D01*
X282245Y76568D01*
X281601Y78123D01*
X281273Y79773D01*
X281273Y84615D01*
X287815Y84615D01*
X287815Y72304D01*
X287323Y72401D01*
G37*
%LPD*%
%LPC*%
G36*
X159561Y20077D02*
X159561Y20077D01*
X158006Y20721D01*
X156608Y21656D01*
X155418Y22846D01*
X154483Y24244D01*
X153839Y25799D01*
X153511Y27449D01*
X153511Y32291D01*
X160053Y32291D01*
X160053Y19980D01*
X159561Y20077D01*
G37*
%LPD*%
%LPC*%
G36*
X287323Y19823D02*
X287323Y19823D01*
X285768Y20467D01*
X284370Y21402D01*
X283180Y22592D01*
X282245Y23990D01*
X281601Y25545D01*
X281273Y27195D01*
X281273Y32037D01*
X287815Y32037D01*
X287815Y19726D01*
X287323Y19823D01*
G37*
%LPD*%
%LPC*%
G36*
X302767Y273684D02*
X302767Y273684D01*
X302767Y282195D01*
X311278Y282195D01*
X311278Y279859D01*
X305103Y273684D01*
X302767Y273684D01*
G37*
%LPD*%
%LPC*%
G36*
X27177Y79628D02*
X27177Y79628D01*
X27177Y88139D01*
X35688Y88139D01*
X35688Y85803D01*
X29513Y79628D01*
X27177Y79628D01*
G37*
%LPD*%
%LPC*%
G36*
X20779Y79628D02*
X20779Y79628D01*
X14604Y85803D01*
X14604Y88139D01*
X23115Y88139D01*
X23115Y79628D01*
X20779Y79628D01*
G37*
%LPD*%
%LPC*%
G36*
X296369Y273684D02*
X296369Y273684D01*
X290194Y279859D01*
X290194Y282195D01*
X298705Y282195D01*
X298705Y273684D01*
X296369Y273684D01*
G37*
%LPD*%
%LPC*%
G36*
X240537Y259197D02*
X240537Y259197D01*
X240537Y265207D01*
X243840Y265207D01*
X244487Y265034D01*
X245066Y264699D01*
X245539Y264226D01*
X245874Y263647D01*
X246047Y263000D01*
X246047Y259197D01*
X240537Y259197D01*
G37*
%LPD*%
%LPC*%
G36*
X108457Y267833D02*
X108457Y267833D01*
X108457Y273843D01*
X111760Y273843D01*
X112407Y273670D01*
X112986Y273335D01*
X113459Y272862D01*
X113794Y272283D01*
X113967Y271636D01*
X113967Y267833D01*
X108457Y267833D01*
G37*
%LPD*%
%LPC*%
G36*
X84805Y230123D02*
X84805Y230123D01*
X84805Y233426D01*
X84978Y234073D01*
X85313Y234652D01*
X85786Y235125D01*
X86365Y235460D01*
X87012Y235633D01*
X90815Y235633D01*
X90815Y230123D01*
X84805Y230123D01*
G37*
%LPD*%
%LPC*%
G36*
X11145Y159511D02*
X11145Y159511D01*
X11145Y162814D01*
X11318Y163461D01*
X11653Y164040D01*
X12126Y164513D01*
X12705Y164848D01*
X13352Y165021D01*
X17155Y165021D01*
X17155Y159511D01*
X11145Y159511D01*
G37*
%LPD*%
%LPC*%
G36*
X230965Y259197D02*
X230965Y259197D01*
X230965Y263000D01*
X231138Y263647D01*
X231473Y264226D01*
X231946Y264699D01*
X232525Y265034D01*
X233172Y265207D01*
X236475Y265207D01*
X236475Y259197D01*
X230965Y259197D01*
G37*
%LPD*%
%LPC*%
G36*
X98885Y267833D02*
X98885Y267833D01*
X98885Y271636D01*
X99058Y272283D01*
X99393Y272862D01*
X99866Y273335D01*
X100445Y273670D01*
X101092Y273843D01*
X104395Y273843D01*
X104395Y267833D01*
X98885Y267833D01*
G37*
%LPD*%
%LPC*%
G36*
X13352Y149939D02*
X13352Y149939D01*
X12705Y150112D01*
X12126Y150447D01*
X11653Y150920D01*
X11318Y151499D01*
X11145Y152146D01*
X11145Y155449D01*
X17155Y155449D01*
X17155Y149939D01*
X13352Y149939D01*
G37*
%LPD*%
%LPC*%
G36*
X87012Y220551D02*
X87012Y220551D01*
X86365Y220724D01*
X85786Y221059D01*
X85313Y221532D01*
X84978Y222111D01*
X84805Y222758D01*
X84805Y226061D01*
X90815Y226061D01*
X90815Y220551D01*
X87012Y220551D01*
G37*
%LPD*%
%LPC*%
G36*
X64715Y336549D02*
X64715Y336549D01*
X64715Y338550D01*
X64991Y339578D01*
X65523Y340499D01*
X66275Y341251D01*
X67196Y341783D01*
X68224Y342059D01*
X70225Y342059D01*
X70225Y336549D01*
X64715Y336549D01*
G37*
%LPD*%
%LPC*%
G36*
X64715Y357377D02*
X64715Y357377D01*
X64715Y359378D01*
X64991Y360406D01*
X65523Y361327D01*
X66275Y362079D01*
X67196Y362611D01*
X68224Y362887D01*
X70225Y362887D01*
X70225Y357377D01*
X64715Y357377D01*
G37*
%LPD*%
%LPC*%
G36*
X68224Y326977D02*
X68224Y326977D01*
X67196Y327253D01*
X66275Y327785D01*
X65523Y328537D01*
X64991Y329458D01*
X64715Y330486D01*
X64715Y332487D01*
X70225Y332487D01*
X70225Y326977D01*
X68224Y326977D01*
G37*
%LPD*%
%LPC*%
G36*
X68224Y347805D02*
X68224Y347805D01*
X67196Y348081D01*
X66275Y348613D01*
X65523Y349365D01*
X64991Y350286D01*
X64715Y351314D01*
X64715Y353315D01*
X70225Y353315D01*
X70225Y347805D01*
X68224Y347805D01*
G37*
%LPD*%
%LPC*%
G36*
X278757Y350581D02*
X278757Y350581D01*
X278757Y355623D01*
X281092Y355623D01*
X281739Y355450D01*
X282318Y355115D01*
X282791Y354642D01*
X283126Y354063D01*
X283299Y353416D01*
X283299Y350581D01*
X278757Y350581D01*
G37*
%LPD*%
%LPC*%
G36*
X278757Y341541D02*
X278757Y341541D01*
X278757Y346583D01*
X283299Y346583D01*
X283299Y343748D01*
X283126Y343101D01*
X282791Y342522D01*
X282318Y342049D01*
X281739Y341714D01*
X281092Y341541D01*
X278757Y341541D01*
G37*
%LPD*%
%LPC*%
G36*
X23083Y292099D02*
X23083Y292099D01*
X23083Y292101D01*
X23085Y292101D01*
X23085Y292099D01*
X23083Y292099D01*
G37*
%LPD*%
D10*
X274904Y189865D03*
X300304Y189865D03*
X274904Y215265D03*
X300304Y215265D03*
X274904Y240665D03*
X300304Y240665D03*
D11*
X130302Y268538D03*
X130302Y260538D03*
X130302Y252538D03*
X130302Y244538D03*
X130302Y236538D03*
X130302Y228538D03*
X130302Y220538D03*
X130302Y212538D03*
D12*
X145228Y197612D03*
X153228Y197612D03*
X161228Y197612D03*
X169228Y197612D03*
X177228Y197612D03*
X185228Y197612D03*
X193228Y197612D03*
X201228Y197612D03*
D11*
X216154Y212538D03*
X216154Y220538D03*
X216154Y228538D03*
X216154Y236538D03*
X216154Y244538D03*
X216154Y252538D03*
X216154Y260538D03*
X216154Y268538D03*
D12*
X201228Y283464D03*
X193228Y283464D03*
X185228Y283464D03*
X177228Y283464D03*
X169228Y283464D03*
X161228Y283464D03*
X153228Y283464D03*
X145228Y283464D03*
D13*
X40894Y237328D03*
X40894Y185328D03*
X53594Y237328D03*
X28194Y237328D03*
X15494Y237328D03*
X53594Y185328D03*
X28194Y185328D03*
X15494Y185328D03*
D14*
X162230Y92741D02*
X162230Y80741D01*
X137230Y80741D02*
X137230Y92741D01*
X112230Y92741D02*
X112230Y80741D01*
X87230Y80741D02*
X87230Y92741D01*
X162052Y40290D02*
X162052Y28290D01*
X137052Y28290D02*
X137052Y40290D01*
X112052Y40290D02*
X112052Y28290D01*
X87052Y28290D02*
X87052Y40290D01*
X289814Y80614D02*
X289814Y92614D01*
X264814Y92614D02*
X264814Y80614D01*
X239814Y80614D02*
X239814Y92614D01*
X214814Y92614D02*
X214814Y80614D01*
X289814Y40036D02*
X289814Y28036D01*
X264814Y28036D02*
X264814Y40036D01*
X239814Y40036D02*
X239814Y28036D01*
X214814Y28036D02*
X214814Y40036D01*
D15*
X92797Y194095D02*
X103085Y204383D01*
X111570Y195898D02*
X101282Y185610D01*
X109767Y177125D02*
X120055Y187413D01*
D16*
X105125Y206423D02*
X97941Y199239D01*
X90757Y192055D01*
X114911Y182269D02*
X122095Y189453D01*
X114911Y182269D02*
X107727Y175085D01*
X106426Y190754D02*
X113610Y197938D01*
X106426Y190754D02*
X99242Y183570D01*
D17*
X36186Y157480D03*
X19186Y157480D03*
X37710Y264922D03*
X20710Y264922D03*
D18*
X51084Y292100D03*
X23084Y292100D03*
D19*
X295758Y348582D03*
X276758Y348582D03*
X286258Y327582D03*
D20*
X139836Y333502D03*
X156836Y333502D03*
D17*
X109846Y228092D03*
X92846Y228092D03*
D20*
X238506Y223892D03*
X238506Y206892D03*
X106426Y248802D03*
X106426Y265802D03*
X238506Y240166D03*
X238506Y257166D03*
X74050Y120650D03*
X91050Y120650D03*
X74050Y146050D03*
X91050Y146050D03*
X294250Y146050D03*
X277250Y146050D03*
X294250Y120650D03*
X277250Y120650D03*
D17*
X248666Y340750D03*
X248666Y357750D03*
X248666Y325238D03*
X248666Y308238D03*
D21*
X75756Y331018D02*
X75756Y338018D01*
X75756Y331018D02*
X68756Y331018D01*
X68756Y338018D01*
X75756Y338018D01*
X75756Y333868D02*
X68756Y333868D01*
X68756Y336718D02*
X75756Y336718D01*
X93296Y338018D02*
X93296Y331018D01*
X86296Y331018D01*
X86296Y338018D01*
X93296Y338018D01*
X93296Y333868D02*
X86296Y333868D01*
X86296Y336718D02*
X93296Y336718D01*
D20*
X123054Y333502D03*
X106054Y333502D03*
X123054Y355092D03*
X106054Y355092D03*
D21*
X75756Y351846D02*
X75756Y358846D01*
X75756Y351846D02*
X68756Y351846D01*
X68756Y358846D01*
X75756Y358846D01*
X75756Y354696D02*
X68756Y354696D01*
X68756Y357546D02*
X75756Y357546D01*
X93296Y358846D02*
X93296Y351846D01*
X86296Y351846D01*
X86296Y358846D01*
X93296Y358846D01*
X93296Y354696D02*
X86296Y354696D01*
X86296Y357546D02*
X93296Y357546D01*
D22*
X25146Y110490D03*
X25146Y90170D03*
X300736Y304546D03*
X300736Y284226D03*
D23*
X236728Y277622D03*
X74422Y227838D03*
D24*
X114911Y182269D02*
X130302Y197659D01*
X130302Y212538D01*
X130302Y220538D02*
X120970Y220538D01*
X110537Y211836D02*
X97941Y199239D01*
X112268Y211836D02*
X120970Y220538D01*
X112268Y211836D02*
X110537Y211836D01*
X15494Y237328D02*
X15494Y259706D01*
X20710Y264922D01*
D16*
X40894Y237328D02*
X53594Y237328D01*
D24*
X53594Y258064D01*
X46736Y264922D02*
X46482Y264922D01*
X37710Y264922D01*
X46736Y264922D02*
X53594Y258064D01*
X51084Y269524D02*
X51084Y292100D01*
X51084Y269524D02*
X46482Y264922D01*
X230006Y240166D02*
X238506Y240166D01*
X226378Y236538D02*
X216154Y236538D01*
X226378Y236538D02*
X230006Y240166D01*
X231512Y223892D02*
X238506Y223892D01*
X228158Y220538D02*
X216154Y220538D01*
X228158Y220538D02*
X231512Y223892D01*
X216154Y236538D02*
X206058Y236538D01*
X203708Y234188D01*
X203708Y232918D01*
X203708Y223012D01*
X205994Y220726D01*
X215966Y220726D02*
X216154Y220538D01*
X215966Y220726D02*
X205994Y220726D01*
X106426Y248802D02*
X65068Y248802D01*
X53594Y237328D01*
X109846Y228092D02*
X129856Y228092D01*
X130302Y228538D01*
X130302Y244538D02*
X121984Y244538D01*
X119126Y247396D01*
X107832Y247396D01*
X106426Y248802D01*
X130302Y228538D02*
X140654Y228538D01*
X144272Y232156D01*
X144272Y234696D01*
X144272Y242316D01*
X142050Y244538D02*
X130302Y244538D01*
X142050Y244538D02*
X144272Y242316D01*
X294250Y146050D02*
X294250Y120650D01*
X294250Y146050D02*
X294250Y155820D01*
X303530Y165100D01*
X303530Y186639D01*
X300304Y189865D01*
X74050Y146050D02*
X74050Y120650D01*
X74050Y146050D02*
X74050Y198238D01*
X53594Y218694D02*
X53594Y237328D01*
X53594Y218694D02*
X74050Y198238D01*
X120904Y331352D02*
X123054Y333502D01*
X120904Y331352D02*
X120904Y316738D01*
X96266Y292100D01*
X51084Y292100D01*
X123054Y333502D02*
X139836Y333502D01*
D23*
X62484Y315468D03*
D24*
X51084Y304068D01*
X51084Y292100D01*
X146050Y232918D02*
X203708Y232918D01*
X146050Y232918D02*
X144272Y234696D01*
D23*
X258572Y203708D03*
D24*
X251714Y210566D01*
X251714Y221234D01*
X249056Y223892D01*
X238506Y223892D01*
D25*
X36186Y121530D02*
X25146Y110490D01*
X36186Y121530D02*
X36186Y157480D01*
X53594Y174888D01*
X53594Y185328D01*
X53594Y196850D01*
X46736Y203708D01*
X22352Y203708D01*
X15494Y196850D02*
X15494Y185328D01*
X15494Y196850D02*
X22352Y203708D01*
D23*
X152908Y304292D03*
D24*
X152908Y283784D01*
X153228Y283464D01*
X141732Y315722D02*
X141986Y315976D01*
D23*
X141732Y315722D03*
D24*
X154940Y315976D02*
X161228Y309688D01*
X154940Y315976D02*
X141986Y315976D01*
D26*
X161228Y309688D03*
D24*
X161228Y283464D01*
X169228Y321110D02*
X156836Y333502D01*
X169228Y321110D02*
X169228Y295402D01*
X169228Y283464D01*
X274904Y283642D02*
X274904Y240665D01*
X169990Y296164D02*
X169228Y295402D01*
X262382Y296164D02*
X274904Y283642D01*
X262382Y296164D02*
X169990Y296164D01*
D23*
X192024Y220980D03*
D24*
X198882Y220980D02*
X205546Y214316D01*
X214376Y214316D01*
X216154Y212538D01*
X198882Y220980D02*
X192024Y220980D01*
X270205Y194564D02*
X274904Y189865D01*
X204276Y194564D02*
X201228Y197612D01*
X204276Y194564D02*
X270205Y194564D01*
X287782Y202743D02*
X300304Y215265D01*
X287782Y181864D02*
X281178Y175260D01*
X280924Y175514D01*
X227584Y175514D02*
X218948Y184150D01*
X195834Y184150D01*
X193228Y186756D02*
X193228Y197612D01*
X287782Y202743D02*
X287782Y181864D01*
X280924Y175514D02*
X227584Y175514D01*
X195834Y184150D02*
X193228Y186756D01*
X239814Y58712D02*
X239814Y34036D01*
X252984Y71882D02*
X252984Y113284D01*
X260350Y120650D01*
X277250Y120650D01*
X252984Y71882D02*
X239814Y58712D01*
X239814Y34036D02*
X222796Y17018D01*
X209042Y17018D01*
X198628Y27432D01*
X198628Y85598D01*
X161228Y122998D01*
X161228Y197612D01*
X239814Y116370D02*
X239814Y86614D01*
X269494Y146050D02*
X277250Y146050D01*
X241427Y117983D02*
X239814Y116370D01*
X241427Y117983D02*
X269494Y146050D01*
X153228Y184338D02*
X153228Y197612D01*
X153228Y184338D02*
X153416Y184150D01*
X153416Y174244D01*
D23*
X153416Y174244D03*
D24*
X122682Y44920D02*
X112052Y34290D01*
X122682Y122936D02*
X99568Y146050D01*
X91050Y146050D01*
X122682Y121920D02*
X122682Y44920D01*
X122682Y121920D02*
X122682Y122936D01*
X145228Y144466D02*
X145228Y197612D01*
X145228Y144466D02*
X122682Y121920D01*
X112230Y114338D02*
X112230Y86741D01*
X112230Y114338D02*
X105918Y120650D01*
X91050Y120650D01*
D23*
X154178Y246634D03*
D24*
X140462Y260350D01*
X140462Y260604D01*
X130368Y260604D01*
X130302Y260538D01*
X205858Y340750D02*
X248666Y340750D01*
X123308Y354838D02*
X123054Y355092D01*
X181102Y316484D02*
X181102Y315722D01*
D23*
X181102Y315722D03*
X152146Y264922D03*
D24*
X148082Y264922D01*
X145034Y267970D01*
X130870Y267970D01*
X130302Y268538D01*
X205858Y340750D02*
X191770Y354838D01*
X123308Y354838D01*
X181592Y316484D02*
X205858Y340750D01*
X181592Y316484D02*
X181102Y316484D01*
X248666Y357750D02*
X260214Y357750D01*
X265938Y363474D01*
X287782Y363474D01*
X295758Y355498D02*
X295758Y348582D01*
X295758Y355498D02*
X287782Y363474D01*
X261230Y325238D02*
X248666Y325238D01*
X261230Y325238D02*
X264414Y328422D01*
X264414Y353550D01*
X260214Y357750D01*
X286258Y319024D02*
X300736Y304546D01*
X286258Y319024D02*
X286258Y327582D01*
X105038Y334518D02*
X89796Y334518D01*
X105038Y334518D02*
X106054Y333502D01*
X105800Y355346D02*
X89796Y355346D01*
X105800Y355346D02*
X106054Y355092D01*
X225298Y44520D02*
X214814Y34036D01*
X225298Y44520D02*
X225298Y98044D01*
X185228Y138114D01*
X185228Y197612D01*
X177228Y124200D02*
X214814Y86614D01*
X177228Y124200D02*
X177228Y197612D01*
D23*
X170434Y166370D03*
D24*
X169164Y167640D02*
X169164Y197548D01*
X169228Y197612D01*
X169164Y167640D02*
X170434Y166370D01*
D23*
X128270Y283718D03*
D24*
X128524Y283464D01*
X145228Y283464D01*
M02*
