M48
;GenerationSoftware,Autodesk,EAGLE,9.1.3*%
;CreationDate,2018-09-23T19:11:10Z*%
FMAT,2
ICI,OFF
METRIC,TZ,000.000
T5C0.350
T4C0.800
T3C0.914
T2C1.016
T1C3.200
%
G90
M71
T1
X3175Y3175
X3175Y34925
T2
X30030Y24066
X27490Y18987
X30030Y18987
X27490Y21527
X30030Y21527
X27490Y24066
T3
X30074Y28423
X2515Y11049
X2515Y9017
X30074Y30455
T4
X8723Y8674
X16205Y3429
X13705Y3429
X11205Y3429
X8705Y3429
X28981Y8661
X26481Y8661
X23981Y8661
X21481Y8661
X28981Y3404
X26481Y3404
X23981Y3404
X21481Y3404
X16223Y8674
X13723Y8674
X11223Y8674
T5
X7442Y22784
X6248Y31547
X25857Y20371
X15291Y30429
X14173Y31572
X19202Y22098
X15342Y17424
X15418Y24663
X18110Y31572
X15215Y26492
X17043Y16637
X12827Y28372
X23673Y27762
M30