G04 EAGLE Gerber X2 export*
%TF.Part,Single*%
%TF.FileFunction,Profile,NP*%
%TF.FilePolarity,Positive*%
%TF.GenerationSoftware,Autodesk,EAGLE,9.1.3*%
%TF.CreationDate,2018-09-23T19:11:10Z*%
G75*
%MOMM*%
%FSLAX34Y34*%
%LPD*%
%AMOC8*
5,1,8,0,0,1.08239X$1,22.5*%
G01*
%ADD10C,0.254000*%


D10*
X0Y0D02*
X317500Y0D01*
X317500Y381000D01*
X0Y381000D01*
X0Y0D01*
X47750Y31226D02*
X47682Y30181D01*
X47545Y29142D01*
X47340Y28115D01*
X47069Y27103D01*
X46733Y26111D01*
X46332Y25143D01*
X45868Y24204D01*
X45345Y23296D01*
X44763Y22425D01*
X44125Y21594D01*
X43434Y20807D01*
X42693Y20066D01*
X41906Y19375D01*
X41075Y18738D01*
X40204Y18156D01*
X39296Y17632D01*
X38357Y17168D01*
X37389Y16767D01*
X36397Y16431D01*
X35385Y16160D01*
X34358Y15955D01*
X33319Y15819D01*
X32274Y15750D01*
X31226Y15750D01*
X30181Y15819D01*
X29142Y15955D01*
X28115Y16160D01*
X27103Y16431D01*
X26111Y16767D01*
X25143Y17168D01*
X24204Y17632D01*
X23296Y18156D01*
X22425Y18738D01*
X21594Y19375D01*
X20807Y20066D01*
X20066Y20807D01*
X19375Y21594D01*
X18738Y22425D01*
X18156Y23296D01*
X17632Y24204D01*
X17168Y25143D01*
X16767Y26111D01*
X16431Y27103D01*
X16160Y28115D01*
X15955Y29142D01*
X15819Y30181D01*
X15750Y31226D01*
X15750Y32274D01*
X15819Y33319D01*
X15955Y34358D01*
X16160Y35385D01*
X16431Y36397D01*
X16767Y37389D01*
X17168Y38357D01*
X17632Y39296D01*
X18156Y40204D01*
X18738Y41075D01*
X19375Y41906D01*
X20066Y42693D01*
X20807Y43434D01*
X21594Y44125D01*
X22425Y44763D01*
X23296Y45345D01*
X24204Y45868D01*
X25143Y46332D01*
X26111Y46733D01*
X27103Y47069D01*
X28115Y47340D01*
X29142Y47545D01*
X30181Y47682D01*
X31226Y47750D01*
X32274Y47750D01*
X33319Y47682D01*
X34358Y47545D01*
X35385Y47340D01*
X36397Y47069D01*
X37389Y46733D01*
X38357Y46332D01*
X39296Y45868D01*
X40204Y45345D01*
X41075Y44763D01*
X41906Y44125D01*
X42693Y43434D01*
X43434Y42693D01*
X44125Y41906D01*
X44763Y41075D01*
X45345Y40204D01*
X45868Y39296D01*
X46332Y38357D01*
X46733Y37389D01*
X47069Y36397D01*
X47340Y35385D01*
X47545Y34358D01*
X47682Y33319D01*
X47750Y32274D01*
X47750Y31226D01*
X47750Y348726D02*
X47682Y347681D01*
X47545Y346642D01*
X47340Y345615D01*
X47069Y344603D01*
X46733Y343611D01*
X46332Y342643D01*
X45868Y341704D01*
X45345Y340796D01*
X44763Y339925D01*
X44125Y339094D01*
X43434Y338307D01*
X42693Y337566D01*
X41906Y336875D01*
X41075Y336238D01*
X40204Y335656D01*
X39296Y335132D01*
X38357Y334668D01*
X37389Y334267D01*
X36397Y333931D01*
X35385Y333660D01*
X34358Y333455D01*
X33319Y333319D01*
X32274Y333250D01*
X31226Y333250D01*
X30181Y333319D01*
X29142Y333455D01*
X28115Y333660D01*
X27103Y333931D01*
X26111Y334267D01*
X25143Y334668D01*
X24204Y335132D01*
X23296Y335656D01*
X22425Y336238D01*
X21594Y336875D01*
X20807Y337566D01*
X20066Y338307D01*
X19375Y339094D01*
X18738Y339925D01*
X18156Y340796D01*
X17632Y341704D01*
X17168Y342643D01*
X16767Y343611D01*
X16431Y344603D01*
X16160Y345615D01*
X15955Y346642D01*
X15819Y347681D01*
X15750Y348726D01*
X15750Y349774D01*
X15819Y350819D01*
X15955Y351858D01*
X16160Y352885D01*
X16431Y353897D01*
X16767Y354889D01*
X17168Y355857D01*
X17632Y356796D01*
X18156Y357704D01*
X18738Y358575D01*
X19375Y359406D01*
X20066Y360193D01*
X20807Y360934D01*
X21594Y361625D01*
X22425Y362263D01*
X23296Y362845D01*
X24204Y363368D01*
X25143Y363832D01*
X26111Y364233D01*
X27103Y364569D01*
X28115Y364840D01*
X29142Y365045D01*
X30181Y365182D01*
X31226Y365250D01*
X32274Y365250D01*
X33319Y365182D01*
X34358Y365045D01*
X35385Y364840D01*
X36397Y364569D01*
X37389Y364233D01*
X38357Y363832D01*
X39296Y363368D01*
X40204Y362845D01*
X41075Y362263D01*
X41906Y361625D01*
X42693Y360934D01*
X43434Y360193D01*
X44125Y359406D01*
X44763Y358575D01*
X45345Y357704D01*
X45868Y356796D01*
X46332Y355857D01*
X46733Y354889D01*
X47069Y353897D01*
X47340Y352885D01*
X47545Y351858D01*
X47682Y350819D01*
X47750Y349774D01*
X47750Y348726D01*
M02*
