G04 EAGLE Gerber X2 export*
%TF.Part,Single*%
%TF.FileFunction,Legend,Bot,1*%
%TF.FilePolarity,Positive*%
%TF.GenerationSoftware,Autodesk,EAGLE,9.1.3*%
%TF.CreationDate,2018-09-23T19:11:10Z*%
G75*
%MOMM*%
%FSLAX34Y34*%
%LPD*%
%AMOC8*
5,1,8,0,0,1.08239X$1,22.5*%
G01*
%ADD10C,0.050800*%
%ADD11C,0.203200*%


D10*
X309317Y168834D02*
X307765Y168834D01*
X307688Y168836D01*
X307610Y168842D01*
X307534Y168851D01*
X307457Y168865D01*
X307382Y168882D01*
X307308Y168903D01*
X307234Y168928D01*
X307162Y168956D01*
X307092Y168988D01*
X307023Y169023D01*
X306956Y169062D01*
X306891Y169104D01*
X306828Y169149D01*
X306767Y169197D01*
X306709Y169248D01*
X306654Y169302D01*
X306601Y169359D01*
X306552Y169418D01*
X306505Y169480D01*
X306461Y169544D01*
X306421Y169610D01*
X306384Y169678D01*
X306350Y169748D01*
X306320Y169819D01*
X306294Y169892D01*
X306271Y169966D01*
X306252Y170041D01*
X306237Y170116D01*
X306225Y170193D01*
X306217Y170270D01*
X306213Y170347D01*
X306213Y170425D01*
X306217Y170502D01*
X306225Y170579D01*
X306237Y170656D01*
X306252Y170731D01*
X306271Y170806D01*
X306294Y170880D01*
X306320Y170953D01*
X306350Y171024D01*
X306384Y171094D01*
X306421Y171162D01*
X306461Y171228D01*
X306505Y171292D01*
X306552Y171354D01*
X306601Y171413D01*
X306654Y171470D01*
X306709Y171524D01*
X306767Y171575D01*
X306828Y171623D01*
X306891Y171668D01*
X306956Y171710D01*
X307023Y171749D01*
X307092Y171784D01*
X307162Y171816D01*
X307234Y171844D01*
X307308Y171869D01*
X307382Y171890D01*
X307457Y171907D01*
X307534Y171921D01*
X307610Y171930D01*
X307688Y171936D01*
X307765Y171938D01*
X307454Y174422D02*
X309317Y174422D01*
X307454Y174422D02*
X307384Y174420D01*
X307315Y174414D01*
X307246Y174404D01*
X307178Y174391D01*
X307110Y174373D01*
X307044Y174352D01*
X306979Y174327D01*
X306915Y174299D01*
X306853Y174267D01*
X306793Y174232D01*
X306735Y174193D01*
X306680Y174151D01*
X306626Y174106D01*
X306576Y174058D01*
X306528Y174008D01*
X306483Y173954D01*
X306441Y173899D01*
X306402Y173841D01*
X306367Y173781D01*
X306335Y173719D01*
X306307Y173655D01*
X306282Y173590D01*
X306261Y173524D01*
X306243Y173456D01*
X306230Y173388D01*
X306220Y173319D01*
X306214Y173250D01*
X306212Y173180D01*
X306214Y173110D01*
X306220Y173041D01*
X306230Y172972D01*
X306243Y172904D01*
X306261Y172836D01*
X306282Y172770D01*
X306307Y172705D01*
X306335Y172641D01*
X306367Y172579D01*
X306402Y172519D01*
X306441Y172461D01*
X306483Y172406D01*
X306528Y172352D01*
X306576Y172302D01*
X306626Y172254D01*
X306680Y172209D01*
X306735Y172167D01*
X306793Y172128D01*
X306853Y172093D01*
X306915Y172061D01*
X306979Y172033D01*
X307044Y172008D01*
X307110Y171987D01*
X307178Y171969D01*
X307246Y171956D01*
X307315Y171946D01*
X307384Y171940D01*
X307454Y171938D01*
X308696Y171938D01*
X304080Y169144D02*
X304080Y168834D01*
X304080Y169144D02*
X303769Y169144D01*
X303769Y168834D01*
X304080Y168834D01*
X301636Y168834D02*
X300084Y168834D01*
X300007Y168836D01*
X299929Y168842D01*
X299853Y168851D01*
X299776Y168865D01*
X299701Y168882D01*
X299627Y168903D01*
X299553Y168928D01*
X299481Y168956D01*
X299411Y168988D01*
X299342Y169023D01*
X299275Y169062D01*
X299210Y169104D01*
X299147Y169149D01*
X299086Y169197D01*
X299028Y169248D01*
X298973Y169302D01*
X298920Y169359D01*
X298871Y169418D01*
X298824Y169480D01*
X298780Y169544D01*
X298740Y169610D01*
X298703Y169678D01*
X298669Y169748D01*
X298639Y169819D01*
X298613Y169892D01*
X298590Y169966D01*
X298571Y170041D01*
X298556Y170116D01*
X298544Y170193D01*
X298536Y170270D01*
X298532Y170347D01*
X298532Y170425D01*
X298536Y170502D01*
X298544Y170579D01*
X298556Y170656D01*
X298571Y170731D01*
X298590Y170806D01*
X298613Y170880D01*
X298639Y170953D01*
X298669Y171024D01*
X298703Y171094D01*
X298740Y171162D01*
X298780Y171228D01*
X298824Y171292D01*
X298871Y171354D01*
X298920Y171413D01*
X298973Y171470D01*
X299028Y171524D01*
X299086Y171575D01*
X299147Y171623D01*
X299210Y171668D01*
X299275Y171710D01*
X299342Y171749D01*
X299411Y171784D01*
X299481Y171816D01*
X299553Y171844D01*
X299627Y171869D01*
X299701Y171890D01*
X299776Y171907D01*
X299853Y171921D01*
X299929Y171930D01*
X300007Y171936D01*
X300084Y171938D01*
X299774Y174422D02*
X301636Y174422D01*
X299774Y174422D02*
X299704Y174420D01*
X299635Y174414D01*
X299566Y174404D01*
X299498Y174391D01*
X299430Y174373D01*
X299364Y174352D01*
X299299Y174327D01*
X299235Y174299D01*
X299173Y174267D01*
X299113Y174232D01*
X299055Y174193D01*
X299000Y174151D01*
X298946Y174106D01*
X298896Y174058D01*
X298848Y174008D01*
X298803Y173954D01*
X298761Y173899D01*
X298722Y173841D01*
X298687Y173781D01*
X298655Y173719D01*
X298627Y173655D01*
X298602Y173590D01*
X298581Y173524D01*
X298563Y173456D01*
X298550Y173388D01*
X298540Y173319D01*
X298534Y173250D01*
X298532Y173180D01*
X298534Y173110D01*
X298540Y173041D01*
X298550Y172972D01*
X298563Y172904D01*
X298581Y172836D01*
X298602Y172770D01*
X298627Y172705D01*
X298655Y172641D01*
X298687Y172579D01*
X298722Y172519D01*
X298761Y172461D01*
X298803Y172406D01*
X298848Y172352D01*
X298896Y172302D01*
X298946Y172254D01*
X299000Y172209D01*
X299055Y172167D01*
X299113Y172128D01*
X299173Y172093D01*
X299235Y172061D01*
X299299Y172033D01*
X299364Y172008D01*
X299430Y171987D01*
X299498Y171969D01*
X299566Y171956D01*
X299635Y171946D01*
X299704Y171940D01*
X299774Y171938D01*
X301015Y171938D01*
X296460Y174422D02*
X294598Y168834D01*
X292735Y174422D01*
X275463Y257734D02*
X277326Y263322D01*
X279188Y257734D01*
X278723Y259131D02*
X275929Y259131D01*
X280949Y263322D02*
X282812Y257734D01*
X284675Y263322D01*
X286965Y263322D02*
X286965Y257734D01*
X286965Y263322D02*
X288517Y263322D01*
X288594Y263320D01*
X288672Y263314D01*
X288748Y263305D01*
X288825Y263291D01*
X288900Y263274D01*
X288974Y263253D01*
X289048Y263228D01*
X289120Y263200D01*
X289190Y263168D01*
X289259Y263133D01*
X289326Y263094D01*
X289391Y263052D01*
X289454Y263007D01*
X289515Y262959D01*
X289573Y262908D01*
X289628Y262854D01*
X289681Y262797D01*
X289730Y262738D01*
X289777Y262676D01*
X289821Y262612D01*
X289861Y262546D01*
X289898Y262478D01*
X289932Y262408D01*
X289962Y262337D01*
X289988Y262264D01*
X290011Y262190D01*
X290030Y262115D01*
X290045Y262040D01*
X290057Y261963D01*
X290065Y261886D01*
X290069Y261809D01*
X290069Y261731D01*
X290065Y261654D01*
X290057Y261577D01*
X290045Y261500D01*
X290030Y261425D01*
X290011Y261350D01*
X289988Y261276D01*
X289962Y261203D01*
X289932Y261132D01*
X289898Y261062D01*
X289861Y260994D01*
X289821Y260928D01*
X289777Y260864D01*
X289730Y260802D01*
X289681Y260743D01*
X289628Y260686D01*
X289573Y260632D01*
X289515Y260581D01*
X289454Y260533D01*
X289391Y260488D01*
X289326Y260446D01*
X289259Y260407D01*
X289190Y260372D01*
X289120Y260340D01*
X289048Y260312D01*
X288974Y260287D01*
X288900Y260266D01*
X288825Y260249D01*
X288748Y260235D01*
X288672Y260226D01*
X288594Y260220D01*
X288517Y260218D01*
X288517Y260217D02*
X286965Y260217D01*
X288828Y260217D02*
X290070Y257734D01*
X295796Y257734D02*
X295796Y263322D01*
X295176Y257734D02*
X296417Y257734D01*
X296417Y263322D02*
X295176Y263322D01*
X300313Y257734D02*
X300383Y257736D01*
X300452Y257742D01*
X300521Y257752D01*
X300589Y257765D01*
X300657Y257783D01*
X300723Y257804D01*
X300788Y257829D01*
X300852Y257857D01*
X300914Y257889D01*
X300974Y257924D01*
X301032Y257963D01*
X301087Y258005D01*
X301141Y258050D01*
X301191Y258098D01*
X301239Y258148D01*
X301284Y258202D01*
X301326Y258257D01*
X301365Y258315D01*
X301400Y258375D01*
X301432Y258437D01*
X301460Y258501D01*
X301485Y258566D01*
X301506Y258632D01*
X301524Y258700D01*
X301537Y258768D01*
X301547Y258837D01*
X301553Y258906D01*
X301555Y258976D01*
X300313Y257734D02*
X300214Y257736D01*
X300116Y257741D01*
X300018Y257751D01*
X299920Y257764D01*
X299823Y257780D01*
X299726Y257800D01*
X299631Y257824D01*
X299536Y257852D01*
X299442Y257883D01*
X299350Y257917D01*
X299259Y257955D01*
X299169Y257996D01*
X299081Y258041D01*
X298995Y258089D01*
X298911Y258140D01*
X298829Y258194D01*
X298748Y258252D01*
X298670Y258312D01*
X298595Y258375D01*
X298521Y258441D01*
X298451Y258510D01*
X298605Y262080D02*
X298607Y262150D01*
X298613Y262219D01*
X298623Y262288D01*
X298636Y262356D01*
X298654Y262424D01*
X298675Y262490D01*
X298700Y262555D01*
X298728Y262619D01*
X298760Y262681D01*
X298795Y262741D01*
X298834Y262799D01*
X298876Y262854D01*
X298921Y262908D01*
X298969Y262958D01*
X299019Y263006D01*
X299073Y263051D01*
X299128Y263093D01*
X299186Y263132D01*
X299246Y263167D01*
X299308Y263199D01*
X299372Y263227D01*
X299437Y263252D01*
X299503Y263273D01*
X299571Y263291D01*
X299639Y263304D01*
X299708Y263314D01*
X299777Y263320D01*
X299847Y263322D01*
X299847Y263321D02*
X299941Y263319D01*
X300034Y263313D01*
X300127Y263304D01*
X300220Y263291D01*
X300312Y263274D01*
X300403Y263254D01*
X300494Y263229D01*
X300583Y263202D01*
X300671Y263170D01*
X300758Y263135D01*
X300844Y263097D01*
X300927Y263055D01*
X301009Y263010D01*
X301090Y262962D01*
X301168Y262910D01*
X301244Y262855D01*
X299227Y260994D02*
X299168Y261030D01*
X299112Y261070D01*
X299058Y261113D01*
X299006Y261158D01*
X298957Y261207D01*
X298911Y261258D01*
X298868Y261311D01*
X298827Y261367D01*
X298790Y261425D01*
X298755Y261485D01*
X298725Y261546D01*
X298697Y261609D01*
X298673Y261674D01*
X298653Y261740D01*
X298636Y261807D01*
X298623Y261874D01*
X298614Y261942D01*
X298608Y262011D01*
X298606Y262080D01*
X300934Y260062D02*
X300993Y260026D01*
X301049Y259986D01*
X301103Y259943D01*
X301155Y259898D01*
X301204Y259849D01*
X301250Y259798D01*
X301293Y259745D01*
X301334Y259689D01*
X301371Y259631D01*
X301406Y259571D01*
X301436Y259510D01*
X301464Y259447D01*
X301488Y259382D01*
X301508Y259316D01*
X301525Y259249D01*
X301538Y259182D01*
X301547Y259114D01*
X301553Y259045D01*
X301555Y258976D01*
X300934Y260062D02*
X299227Y260993D01*
X304020Y263322D02*
X304020Y257734D01*
X304020Y263322D02*
X305572Y263322D01*
X305649Y263320D01*
X305727Y263314D01*
X305803Y263305D01*
X305880Y263291D01*
X305955Y263274D01*
X306029Y263253D01*
X306103Y263228D01*
X306175Y263200D01*
X306245Y263168D01*
X306314Y263133D01*
X306381Y263094D01*
X306446Y263052D01*
X306509Y263007D01*
X306570Y262959D01*
X306628Y262908D01*
X306683Y262854D01*
X306736Y262797D01*
X306785Y262738D01*
X306832Y262676D01*
X306876Y262612D01*
X306916Y262546D01*
X306953Y262478D01*
X306987Y262408D01*
X307017Y262337D01*
X307043Y262264D01*
X307066Y262190D01*
X307085Y262115D01*
X307100Y262040D01*
X307112Y261963D01*
X307120Y261886D01*
X307124Y261809D01*
X307124Y261731D01*
X307120Y261654D01*
X307112Y261577D01*
X307100Y261500D01*
X307085Y261425D01*
X307066Y261350D01*
X307043Y261276D01*
X307017Y261203D01*
X306987Y261132D01*
X306953Y261062D01*
X306916Y260994D01*
X306876Y260928D01*
X306832Y260864D01*
X306785Y260802D01*
X306736Y260743D01*
X306683Y260686D01*
X306628Y260632D01*
X306570Y260581D01*
X306509Y260533D01*
X306446Y260488D01*
X306381Y260446D01*
X306314Y260407D01*
X306245Y260372D01*
X306175Y260340D01*
X306103Y260312D01*
X306029Y260287D01*
X305955Y260266D01*
X305880Y260249D01*
X305803Y260235D01*
X305727Y260226D01*
X305649Y260220D01*
X305572Y260218D01*
X305572Y260217D02*
X304020Y260217D01*
D11*
X171230Y104741D02*
X62730Y104741D01*
X186730Y88741D02*
X186730Y55741D01*
X149730Y99241D02*
X154730Y104241D01*
X149730Y99241D02*
X144730Y104241D01*
X129730Y104241D02*
X124730Y99241D01*
X119730Y104241D01*
X104730Y104241D02*
X99730Y99241D01*
X94730Y104241D01*
X171230Y104741D02*
X186730Y89241D01*
X186730Y55741D02*
X62730Y55741D01*
X62730Y104741D01*
D10*
X87723Y110335D02*
X87723Y114681D01*
X87723Y110335D02*
X87725Y110265D01*
X87731Y110196D01*
X87741Y110127D01*
X87754Y110059D01*
X87772Y109991D01*
X87793Y109925D01*
X87818Y109860D01*
X87846Y109796D01*
X87878Y109734D01*
X87913Y109674D01*
X87952Y109616D01*
X87994Y109561D01*
X88039Y109507D01*
X88087Y109457D01*
X88137Y109409D01*
X88191Y109364D01*
X88246Y109322D01*
X88304Y109283D01*
X88364Y109248D01*
X88426Y109216D01*
X88490Y109188D01*
X88555Y109163D01*
X88621Y109142D01*
X88689Y109124D01*
X88757Y109111D01*
X88826Y109101D01*
X88895Y109095D01*
X88965Y109093D01*
X89586Y109093D01*
X83474Y114681D02*
X83401Y114679D01*
X83328Y114673D01*
X83255Y114664D01*
X83184Y114650D01*
X83112Y114633D01*
X83042Y114613D01*
X82973Y114588D01*
X82906Y114560D01*
X82840Y114529D01*
X82776Y114494D01*
X82713Y114456D01*
X82653Y114414D01*
X82595Y114370D01*
X82539Y114322D01*
X82486Y114272D01*
X82436Y114219D01*
X82388Y114163D01*
X82344Y114105D01*
X82302Y114045D01*
X82264Y113983D01*
X82229Y113918D01*
X82198Y113852D01*
X82170Y113785D01*
X82145Y113716D01*
X82125Y113646D01*
X82108Y113574D01*
X82094Y113503D01*
X82085Y113430D01*
X82079Y113357D01*
X82077Y113284D01*
X83474Y114681D02*
X83558Y114679D01*
X83641Y114673D01*
X83724Y114664D01*
X83806Y114650D01*
X83888Y114633D01*
X83969Y114611D01*
X84049Y114586D01*
X84127Y114558D01*
X84205Y114526D01*
X84280Y114490D01*
X84354Y114451D01*
X84426Y114408D01*
X84496Y114362D01*
X84563Y114313D01*
X84629Y114260D01*
X84691Y114205D01*
X84751Y114147D01*
X84809Y114086D01*
X84863Y114023D01*
X84915Y113957D01*
X84963Y113889D01*
X85008Y113818D01*
X85050Y113746D01*
X85088Y113671D01*
X85123Y113595D01*
X85154Y113518D01*
X85182Y113439D01*
X82543Y112198D02*
X82489Y112251D01*
X82438Y112308D01*
X82390Y112367D01*
X82345Y112428D01*
X82304Y112491D01*
X82265Y112557D01*
X82230Y112624D01*
X82198Y112693D01*
X82170Y112764D01*
X82146Y112835D01*
X82125Y112908D01*
X82108Y112982D01*
X82094Y113057D01*
X82085Y113132D01*
X82079Y113208D01*
X82077Y113284D01*
X82542Y112197D02*
X85181Y109093D01*
X82077Y109093D01*
X76737Y111887D02*
X76735Y112030D01*
X76729Y112172D01*
X76720Y112314D01*
X76706Y112456D01*
X76689Y112598D01*
X76668Y112739D01*
X76644Y112879D01*
X76615Y113019D01*
X76583Y113158D01*
X76547Y113296D01*
X76507Y113433D01*
X76464Y113569D01*
X76417Y113704D01*
X76366Y113837D01*
X76312Y113969D01*
X76255Y114099D01*
X76194Y114228D01*
X76129Y114356D01*
X76061Y114481D01*
X75990Y114604D01*
X75915Y114726D01*
X75838Y114846D01*
X75757Y114963D01*
X75673Y115078D01*
X75585Y115191D01*
X75495Y115302D01*
X76737Y111887D02*
X76735Y111744D01*
X76729Y111602D01*
X76720Y111460D01*
X76706Y111318D01*
X76689Y111176D01*
X76668Y111035D01*
X76644Y110895D01*
X76615Y110755D01*
X76583Y110616D01*
X76547Y110478D01*
X76507Y110341D01*
X76464Y110205D01*
X76417Y110070D01*
X76366Y109937D01*
X76312Y109805D01*
X76255Y109675D01*
X76194Y109546D01*
X76129Y109418D01*
X76061Y109293D01*
X75990Y109170D01*
X75915Y109048D01*
X75838Y108928D01*
X75757Y108811D01*
X75673Y108696D01*
X75585Y108583D01*
X75495Y108472D01*
X72108Y109093D02*
X72108Y114681D01*
X73660Y114681D02*
X70555Y114681D01*
X68273Y114681D02*
X68273Y109093D01*
X68273Y114681D02*
X66721Y114681D01*
X66644Y114679D01*
X66566Y114673D01*
X66490Y114664D01*
X66413Y114650D01*
X66338Y114633D01*
X66264Y114612D01*
X66190Y114587D01*
X66118Y114559D01*
X66048Y114527D01*
X65979Y114492D01*
X65912Y114453D01*
X65847Y114411D01*
X65784Y114366D01*
X65723Y114318D01*
X65665Y114267D01*
X65610Y114213D01*
X65557Y114156D01*
X65508Y114097D01*
X65461Y114035D01*
X65417Y113971D01*
X65377Y113905D01*
X65340Y113837D01*
X65306Y113767D01*
X65276Y113696D01*
X65250Y113623D01*
X65227Y113549D01*
X65208Y113474D01*
X65193Y113399D01*
X65181Y113322D01*
X65173Y113245D01*
X65169Y113168D01*
X65169Y113090D01*
X65173Y113013D01*
X65181Y112936D01*
X65193Y112859D01*
X65208Y112784D01*
X65227Y112709D01*
X65250Y112635D01*
X65276Y112562D01*
X65306Y112491D01*
X65340Y112421D01*
X65377Y112353D01*
X65417Y112287D01*
X65461Y112223D01*
X65508Y112161D01*
X65557Y112102D01*
X65610Y112045D01*
X65665Y111991D01*
X65723Y111940D01*
X65784Y111892D01*
X65847Y111847D01*
X65912Y111805D01*
X65979Y111766D01*
X66048Y111731D01*
X66118Y111699D01*
X66190Y111671D01*
X66264Y111646D01*
X66338Y111625D01*
X66413Y111608D01*
X66490Y111594D01*
X66566Y111585D01*
X66644Y111579D01*
X66721Y111577D01*
X68273Y111577D01*
X63053Y113439D02*
X61501Y114681D01*
X61501Y109093D01*
X63053Y109093D02*
X59948Y109093D01*
X57747Y108472D02*
X57657Y108583D01*
X57569Y108696D01*
X57485Y108811D01*
X57404Y108928D01*
X57327Y109048D01*
X57252Y109170D01*
X57181Y109293D01*
X57113Y109418D01*
X57048Y109546D01*
X56987Y109675D01*
X56930Y109805D01*
X56876Y109937D01*
X56825Y110070D01*
X56778Y110205D01*
X56735Y110341D01*
X56695Y110478D01*
X56659Y110616D01*
X56627Y110755D01*
X56598Y110895D01*
X56574Y111035D01*
X56553Y111176D01*
X56536Y111318D01*
X56522Y111460D01*
X56513Y111602D01*
X56507Y111744D01*
X56505Y111887D01*
X56507Y112030D01*
X56513Y112172D01*
X56522Y112314D01*
X56536Y112456D01*
X56553Y112598D01*
X56574Y112739D01*
X56598Y112879D01*
X56627Y113019D01*
X56659Y113158D01*
X56695Y113296D01*
X56735Y113433D01*
X56778Y113569D01*
X56825Y113704D01*
X56876Y113837D01*
X56930Y113969D01*
X56987Y114099D01*
X57048Y114228D01*
X57113Y114356D01*
X57181Y114481D01*
X57252Y114604D01*
X57327Y114726D01*
X57404Y114846D01*
X57485Y114963D01*
X57569Y115078D01*
X57657Y115191D01*
X57747Y115302D01*
D11*
X62552Y52290D02*
X171052Y52290D01*
X186552Y36290D02*
X186552Y3290D01*
X149552Y46790D02*
X154552Y51790D01*
X149552Y46790D02*
X144552Y51790D01*
X129552Y51790D02*
X124552Y46790D01*
X119552Y51790D01*
X104552Y51790D02*
X99552Y46790D01*
X94552Y51790D01*
X171052Y52290D02*
X186552Y36790D01*
X186552Y3290D02*
X62552Y3290D01*
X62552Y52290D01*
D10*
X57658Y42442D02*
X53312Y42442D01*
X53242Y42440D01*
X53173Y42434D01*
X53104Y42424D01*
X53036Y42411D01*
X52968Y42393D01*
X52902Y42372D01*
X52837Y42347D01*
X52773Y42319D01*
X52711Y42287D01*
X52651Y42252D01*
X52593Y42213D01*
X52538Y42171D01*
X52484Y42126D01*
X52434Y42078D01*
X52386Y42028D01*
X52341Y41974D01*
X52299Y41919D01*
X52260Y41861D01*
X52225Y41801D01*
X52193Y41739D01*
X52165Y41675D01*
X52140Y41610D01*
X52119Y41544D01*
X52101Y41476D01*
X52088Y41408D01*
X52078Y41339D01*
X52072Y41270D01*
X52070Y41200D01*
X52070Y40579D01*
X52070Y44984D02*
X52070Y46536D01*
X52072Y46613D01*
X52078Y46691D01*
X52087Y46767D01*
X52101Y46844D01*
X52118Y46919D01*
X52139Y46993D01*
X52164Y47067D01*
X52192Y47139D01*
X52224Y47209D01*
X52259Y47278D01*
X52298Y47345D01*
X52340Y47410D01*
X52385Y47473D01*
X52433Y47534D01*
X52484Y47592D01*
X52538Y47647D01*
X52595Y47700D01*
X52654Y47749D01*
X52716Y47796D01*
X52780Y47840D01*
X52846Y47880D01*
X52914Y47917D01*
X52984Y47951D01*
X53055Y47981D01*
X53128Y48007D01*
X53202Y48030D01*
X53277Y48049D01*
X53352Y48064D01*
X53429Y48076D01*
X53506Y48084D01*
X53583Y48088D01*
X53661Y48088D01*
X53738Y48084D01*
X53815Y48076D01*
X53892Y48064D01*
X53967Y48049D01*
X54042Y48030D01*
X54116Y48007D01*
X54189Y47981D01*
X54260Y47951D01*
X54330Y47917D01*
X54398Y47880D01*
X54464Y47840D01*
X54528Y47796D01*
X54590Y47749D01*
X54649Y47700D01*
X54706Y47647D01*
X54760Y47592D01*
X54811Y47534D01*
X54859Y47473D01*
X54904Y47410D01*
X54946Y47345D01*
X54985Y47278D01*
X55020Y47209D01*
X55052Y47139D01*
X55080Y47067D01*
X55105Y46993D01*
X55126Y46919D01*
X55143Y46844D01*
X55157Y46767D01*
X55166Y46691D01*
X55172Y46613D01*
X55174Y46536D01*
X57658Y46847D02*
X57658Y44984D01*
X57658Y46847D02*
X57656Y46917D01*
X57650Y46986D01*
X57640Y47055D01*
X57627Y47123D01*
X57609Y47191D01*
X57588Y47257D01*
X57563Y47322D01*
X57535Y47386D01*
X57503Y47448D01*
X57468Y47508D01*
X57429Y47566D01*
X57387Y47621D01*
X57342Y47675D01*
X57294Y47725D01*
X57244Y47773D01*
X57190Y47818D01*
X57135Y47860D01*
X57077Y47899D01*
X57017Y47934D01*
X56955Y47966D01*
X56891Y47994D01*
X56826Y48019D01*
X56760Y48040D01*
X56692Y48058D01*
X56624Y48071D01*
X56555Y48081D01*
X56486Y48087D01*
X56416Y48089D01*
X56346Y48087D01*
X56277Y48081D01*
X56208Y48071D01*
X56140Y48058D01*
X56072Y48040D01*
X56006Y48019D01*
X55941Y47994D01*
X55877Y47966D01*
X55815Y47934D01*
X55755Y47899D01*
X55697Y47860D01*
X55642Y47818D01*
X55588Y47773D01*
X55538Y47725D01*
X55490Y47675D01*
X55445Y47621D01*
X55403Y47566D01*
X55364Y47508D01*
X55329Y47448D01*
X55297Y47386D01*
X55269Y47322D01*
X55244Y47257D01*
X55223Y47191D01*
X55205Y47123D01*
X55192Y47055D01*
X55182Y46986D01*
X55176Y46917D01*
X55174Y46847D01*
X55174Y45605D01*
X54864Y53428D02*
X55007Y53430D01*
X55149Y53436D01*
X55291Y53445D01*
X55433Y53459D01*
X55575Y53476D01*
X55716Y53497D01*
X55856Y53521D01*
X55996Y53550D01*
X56135Y53582D01*
X56273Y53618D01*
X56410Y53658D01*
X56546Y53701D01*
X56681Y53748D01*
X56814Y53799D01*
X56946Y53853D01*
X57076Y53910D01*
X57205Y53971D01*
X57333Y54036D01*
X57458Y54104D01*
X57581Y54175D01*
X57703Y54250D01*
X57823Y54327D01*
X57940Y54408D01*
X58055Y54492D01*
X58168Y54580D01*
X58279Y54670D01*
X54864Y53428D02*
X54721Y53430D01*
X54579Y53436D01*
X54437Y53445D01*
X54295Y53459D01*
X54153Y53476D01*
X54012Y53497D01*
X53872Y53521D01*
X53732Y53550D01*
X53593Y53582D01*
X53455Y53618D01*
X53318Y53658D01*
X53182Y53701D01*
X53047Y53748D01*
X52914Y53799D01*
X52782Y53853D01*
X52652Y53910D01*
X52523Y53971D01*
X52395Y54036D01*
X52270Y54104D01*
X52147Y54175D01*
X52025Y54250D01*
X51905Y54327D01*
X51788Y54408D01*
X51673Y54492D01*
X51560Y54580D01*
X51449Y54670D01*
X52070Y58058D02*
X57658Y58058D01*
X57658Y59610D02*
X57658Y56505D01*
X57658Y61892D02*
X52070Y61892D01*
X57658Y61892D02*
X57658Y63444D01*
X57656Y63521D01*
X57650Y63599D01*
X57641Y63675D01*
X57627Y63752D01*
X57610Y63827D01*
X57589Y63901D01*
X57564Y63975D01*
X57536Y64047D01*
X57504Y64117D01*
X57469Y64186D01*
X57430Y64253D01*
X57388Y64318D01*
X57343Y64381D01*
X57295Y64442D01*
X57244Y64500D01*
X57190Y64555D01*
X57133Y64608D01*
X57074Y64657D01*
X57012Y64704D01*
X56948Y64748D01*
X56882Y64788D01*
X56814Y64825D01*
X56744Y64859D01*
X56673Y64889D01*
X56600Y64915D01*
X56526Y64938D01*
X56451Y64957D01*
X56376Y64972D01*
X56299Y64984D01*
X56222Y64992D01*
X56145Y64996D01*
X56067Y64996D01*
X55990Y64992D01*
X55913Y64984D01*
X55836Y64972D01*
X55761Y64957D01*
X55686Y64938D01*
X55612Y64915D01*
X55539Y64889D01*
X55468Y64859D01*
X55398Y64825D01*
X55330Y64788D01*
X55264Y64748D01*
X55200Y64704D01*
X55138Y64657D01*
X55079Y64608D01*
X55022Y64555D01*
X54968Y64500D01*
X54917Y64442D01*
X54869Y64381D01*
X54824Y64318D01*
X54782Y64253D01*
X54743Y64186D01*
X54708Y64117D01*
X54676Y64047D01*
X54648Y63975D01*
X54623Y63901D01*
X54602Y63827D01*
X54585Y63752D01*
X54571Y63675D01*
X54562Y63599D01*
X54556Y63521D01*
X54554Y63444D01*
X54554Y61892D01*
X57658Y68820D02*
X57656Y68893D01*
X57650Y68966D01*
X57641Y69039D01*
X57627Y69110D01*
X57610Y69182D01*
X57590Y69252D01*
X57565Y69321D01*
X57537Y69388D01*
X57506Y69454D01*
X57471Y69519D01*
X57433Y69581D01*
X57391Y69641D01*
X57347Y69699D01*
X57299Y69755D01*
X57249Y69808D01*
X57196Y69858D01*
X57140Y69906D01*
X57082Y69950D01*
X57022Y69992D01*
X56960Y70030D01*
X56895Y70065D01*
X56829Y70096D01*
X56762Y70124D01*
X56693Y70149D01*
X56623Y70169D01*
X56551Y70186D01*
X56480Y70200D01*
X56407Y70209D01*
X56334Y70215D01*
X56261Y70217D01*
X57658Y68820D02*
X57656Y68736D01*
X57650Y68653D01*
X57641Y68570D01*
X57627Y68488D01*
X57610Y68406D01*
X57588Y68325D01*
X57563Y68245D01*
X57535Y68167D01*
X57503Y68089D01*
X57467Y68014D01*
X57428Y67940D01*
X57385Y67868D01*
X57339Y67798D01*
X57290Y67731D01*
X57237Y67665D01*
X57182Y67603D01*
X57124Y67543D01*
X57063Y67485D01*
X57000Y67431D01*
X56934Y67379D01*
X56866Y67331D01*
X56795Y67286D01*
X56723Y67244D01*
X56648Y67206D01*
X56572Y67171D01*
X56495Y67140D01*
X56416Y67112D01*
X55175Y69750D02*
X55228Y69804D01*
X55285Y69855D01*
X55344Y69903D01*
X55405Y69948D01*
X55468Y69989D01*
X55534Y70028D01*
X55601Y70063D01*
X55670Y70095D01*
X55741Y70123D01*
X55812Y70147D01*
X55885Y70168D01*
X55959Y70185D01*
X56034Y70199D01*
X56109Y70208D01*
X56185Y70214D01*
X56261Y70216D01*
X55174Y69751D02*
X52070Y67112D01*
X52070Y70217D01*
X51449Y72418D02*
X51560Y72508D01*
X51673Y72596D01*
X51788Y72680D01*
X51905Y72761D01*
X52025Y72838D01*
X52147Y72913D01*
X52270Y72984D01*
X52395Y73052D01*
X52523Y73117D01*
X52652Y73178D01*
X52782Y73235D01*
X52914Y73289D01*
X53047Y73340D01*
X53182Y73387D01*
X53318Y73430D01*
X53455Y73470D01*
X53593Y73506D01*
X53732Y73538D01*
X53872Y73567D01*
X54012Y73591D01*
X54153Y73612D01*
X54295Y73629D01*
X54437Y73643D01*
X54579Y73652D01*
X54721Y73658D01*
X54864Y73660D01*
X55007Y73658D01*
X55149Y73652D01*
X55291Y73643D01*
X55433Y73629D01*
X55575Y73612D01*
X55716Y73591D01*
X55856Y73567D01*
X55996Y73538D01*
X56135Y73506D01*
X56273Y73470D01*
X56410Y73430D01*
X56546Y73387D01*
X56681Y73340D01*
X56814Y73289D01*
X56946Y73235D01*
X57076Y73178D01*
X57205Y73117D01*
X57333Y73052D01*
X57458Y72984D01*
X57581Y72913D01*
X57703Y72838D01*
X57823Y72761D01*
X57940Y72680D01*
X58055Y72596D01*
X58168Y72508D01*
X58279Y72418D01*
D11*
X190314Y104614D02*
X298814Y104614D01*
X314314Y88614D02*
X314314Y55614D01*
X277314Y99114D02*
X282314Y104114D01*
X277314Y99114D02*
X272314Y104114D01*
X257314Y104114D02*
X252314Y99114D01*
X247314Y104114D01*
X232314Y104114D02*
X227314Y99114D01*
X222314Y104114D01*
X298814Y104614D02*
X314314Y89114D01*
X314314Y55614D02*
X190314Y55614D01*
X190314Y104614D01*
D10*
X309287Y120368D02*
X309287Y124714D01*
X309287Y120368D02*
X309289Y120298D01*
X309295Y120229D01*
X309305Y120160D01*
X309318Y120092D01*
X309336Y120024D01*
X309357Y119958D01*
X309382Y119893D01*
X309410Y119829D01*
X309442Y119767D01*
X309477Y119707D01*
X309516Y119649D01*
X309558Y119594D01*
X309603Y119540D01*
X309651Y119490D01*
X309701Y119442D01*
X309755Y119397D01*
X309810Y119355D01*
X309868Y119316D01*
X309928Y119281D01*
X309990Y119249D01*
X310054Y119221D01*
X310119Y119196D01*
X310185Y119175D01*
X310253Y119157D01*
X310321Y119144D01*
X310390Y119134D01*
X310459Y119128D01*
X310529Y119126D01*
X311150Y119126D01*
X306745Y120368D02*
X305504Y124714D01*
X306745Y120368D02*
X303641Y120368D01*
X304572Y121610D02*
X304572Y119126D01*
X298301Y121920D02*
X298299Y122063D01*
X298293Y122205D01*
X298284Y122347D01*
X298270Y122489D01*
X298253Y122631D01*
X298232Y122772D01*
X298208Y122912D01*
X298179Y123052D01*
X298147Y123191D01*
X298111Y123329D01*
X298071Y123466D01*
X298028Y123602D01*
X297981Y123737D01*
X297930Y123870D01*
X297876Y124002D01*
X297819Y124132D01*
X297758Y124261D01*
X297693Y124389D01*
X297625Y124514D01*
X297554Y124637D01*
X297479Y124759D01*
X297402Y124879D01*
X297321Y124996D01*
X297237Y125111D01*
X297149Y125224D01*
X297059Y125335D01*
X298301Y121920D02*
X298299Y121777D01*
X298293Y121635D01*
X298284Y121493D01*
X298270Y121351D01*
X298253Y121209D01*
X298232Y121068D01*
X298208Y120928D01*
X298179Y120788D01*
X298147Y120649D01*
X298111Y120511D01*
X298071Y120374D01*
X298028Y120238D01*
X297981Y120103D01*
X297930Y119970D01*
X297876Y119838D01*
X297819Y119708D01*
X297758Y119579D01*
X297693Y119451D01*
X297625Y119326D01*
X297554Y119203D01*
X297479Y119081D01*
X297402Y118961D01*
X297321Y118844D01*
X297237Y118729D01*
X297149Y118616D01*
X297059Y118505D01*
X293672Y119126D02*
X293672Y124714D01*
X295224Y124714D02*
X292120Y124714D01*
X289838Y124714D02*
X289838Y119126D01*
X289838Y124714D02*
X288285Y124714D01*
X288208Y124712D01*
X288130Y124706D01*
X288054Y124697D01*
X287977Y124683D01*
X287902Y124666D01*
X287828Y124645D01*
X287754Y124620D01*
X287682Y124592D01*
X287612Y124560D01*
X287543Y124525D01*
X287476Y124486D01*
X287411Y124444D01*
X287348Y124399D01*
X287287Y124351D01*
X287229Y124300D01*
X287174Y124246D01*
X287121Y124189D01*
X287072Y124130D01*
X287025Y124068D01*
X286981Y124004D01*
X286941Y123938D01*
X286904Y123870D01*
X286870Y123800D01*
X286840Y123729D01*
X286814Y123656D01*
X286791Y123582D01*
X286772Y123507D01*
X286757Y123432D01*
X286745Y123355D01*
X286737Y123278D01*
X286733Y123201D01*
X286733Y123123D01*
X286737Y123046D01*
X286745Y122969D01*
X286757Y122892D01*
X286772Y122817D01*
X286791Y122742D01*
X286814Y122668D01*
X286840Y122595D01*
X286870Y122524D01*
X286904Y122454D01*
X286941Y122386D01*
X286981Y122320D01*
X287025Y122256D01*
X287072Y122194D01*
X287121Y122135D01*
X287174Y122078D01*
X287229Y122024D01*
X287287Y121973D01*
X287348Y121925D01*
X287411Y121880D01*
X287476Y121838D01*
X287543Y121799D01*
X287612Y121764D01*
X287682Y121732D01*
X287754Y121704D01*
X287828Y121679D01*
X287902Y121658D01*
X287977Y121641D01*
X288054Y121627D01*
X288130Y121618D01*
X288208Y121612D01*
X288285Y121610D01*
X289838Y121610D01*
X284617Y119126D02*
X283065Y119126D01*
X282988Y119128D01*
X282910Y119134D01*
X282834Y119143D01*
X282757Y119157D01*
X282682Y119174D01*
X282608Y119195D01*
X282534Y119220D01*
X282462Y119248D01*
X282392Y119280D01*
X282323Y119315D01*
X282256Y119354D01*
X282191Y119396D01*
X282128Y119441D01*
X282067Y119489D01*
X282009Y119540D01*
X281954Y119594D01*
X281901Y119651D01*
X281852Y119710D01*
X281805Y119772D01*
X281761Y119836D01*
X281721Y119902D01*
X281684Y119970D01*
X281650Y120040D01*
X281620Y120111D01*
X281594Y120184D01*
X281571Y120258D01*
X281552Y120333D01*
X281537Y120408D01*
X281525Y120485D01*
X281517Y120562D01*
X281513Y120639D01*
X281513Y120717D01*
X281517Y120794D01*
X281525Y120871D01*
X281537Y120948D01*
X281552Y121023D01*
X281571Y121098D01*
X281594Y121172D01*
X281620Y121245D01*
X281650Y121316D01*
X281684Y121386D01*
X281721Y121454D01*
X281761Y121520D01*
X281805Y121584D01*
X281852Y121646D01*
X281901Y121705D01*
X281954Y121762D01*
X282009Y121816D01*
X282067Y121867D01*
X282128Y121915D01*
X282191Y121960D01*
X282256Y122002D01*
X282323Y122041D01*
X282392Y122076D01*
X282462Y122108D01*
X282534Y122136D01*
X282608Y122161D01*
X282682Y122182D01*
X282757Y122199D01*
X282834Y122213D01*
X282910Y122222D01*
X282988Y122228D01*
X283065Y122230D01*
X282754Y124714D02*
X284617Y124714D01*
X282754Y124714D02*
X282684Y124712D01*
X282615Y124706D01*
X282546Y124696D01*
X282478Y124683D01*
X282410Y124665D01*
X282344Y124644D01*
X282279Y124619D01*
X282215Y124591D01*
X282153Y124559D01*
X282093Y124524D01*
X282035Y124485D01*
X281980Y124443D01*
X281926Y124398D01*
X281876Y124350D01*
X281828Y124300D01*
X281783Y124246D01*
X281741Y124191D01*
X281702Y124133D01*
X281667Y124073D01*
X281635Y124011D01*
X281607Y123947D01*
X281582Y123882D01*
X281561Y123816D01*
X281543Y123748D01*
X281530Y123680D01*
X281520Y123611D01*
X281514Y123542D01*
X281512Y123472D01*
X281514Y123402D01*
X281520Y123333D01*
X281530Y123264D01*
X281543Y123196D01*
X281561Y123128D01*
X281582Y123062D01*
X281607Y122997D01*
X281635Y122933D01*
X281667Y122871D01*
X281702Y122811D01*
X281741Y122753D01*
X281783Y122698D01*
X281828Y122644D01*
X281876Y122594D01*
X281926Y122546D01*
X281980Y122501D01*
X282035Y122459D01*
X282093Y122420D01*
X282153Y122385D01*
X282215Y122353D01*
X282279Y122325D01*
X282344Y122300D01*
X282410Y122279D01*
X282478Y122261D01*
X282546Y122248D01*
X282615Y122238D01*
X282684Y122232D01*
X282754Y122230D01*
X283996Y122230D01*
X278070Y121920D02*
X278072Y121777D01*
X278078Y121635D01*
X278087Y121493D01*
X278101Y121351D01*
X278118Y121209D01*
X278139Y121068D01*
X278163Y120928D01*
X278192Y120788D01*
X278224Y120649D01*
X278260Y120511D01*
X278300Y120374D01*
X278343Y120238D01*
X278390Y120103D01*
X278441Y119970D01*
X278495Y119838D01*
X278552Y119708D01*
X278613Y119579D01*
X278678Y119451D01*
X278746Y119326D01*
X278817Y119203D01*
X278892Y119081D01*
X278969Y118961D01*
X279050Y118844D01*
X279134Y118729D01*
X279222Y118616D01*
X279312Y118505D01*
X278070Y121920D02*
X278072Y122063D01*
X278078Y122205D01*
X278087Y122347D01*
X278101Y122489D01*
X278118Y122631D01*
X278139Y122772D01*
X278163Y122912D01*
X278192Y123052D01*
X278224Y123191D01*
X278260Y123329D01*
X278300Y123466D01*
X278343Y123602D01*
X278390Y123737D01*
X278441Y123870D01*
X278495Y124002D01*
X278552Y124132D01*
X278613Y124261D01*
X278678Y124389D01*
X278746Y124514D01*
X278817Y124637D01*
X278892Y124759D01*
X278969Y124879D01*
X279050Y124996D01*
X279134Y125111D01*
X279222Y125224D01*
X279312Y125335D01*
D11*
X298814Y52036D02*
X190314Y52036D01*
X314314Y36036D02*
X314314Y3036D01*
X277314Y46536D02*
X282314Y51536D01*
X277314Y46536D02*
X272314Y51536D01*
X257314Y51536D02*
X252314Y46536D01*
X247314Y51536D01*
X232314Y51536D02*
X227314Y46536D01*
X222314Y51536D01*
X298814Y52036D02*
X314314Y36536D01*
X314314Y3036D02*
X190314Y3036D01*
X190314Y52036D01*
D10*
X309287Y110462D02*
X309287Y114808D01*
X309287Y110462D02*
X309289Y110392D01*
X309295Y110323D01*
X309305Y110254D01*
X309318Y110186D01*
X309336Y110118D01*
X309357Y110052D01*
X309382Y109987D01*
X309410Y109923D01*
X309442Y109861D01*
X309477Y109801D01*
X309516Y109743D01*
X309558Y109688D01*
X309603Y109634D01*
X309651Y109584D01*
X309701Y109536D01*
X309755Y109491D01*
X309810Y109449D01*
X309868Y109410D01*
X309928Y109375D01*
X309990Y109343D01*
X310054Y109315D01*
X310119Y109290D01*
X310185Y109269D01*
X310253Y109251D01*
X310321Y109238D01*
X310390Y109228D01*
X310459Y109222D01*
X310529Y109220D01*
X311150Y109220D01*
X306745Y109220D02*
X304883Y109220D01*
X304813Y109222D01*
X304744Y109228D01*
X304675Y109238D01*
X304607Y109251D01*
X304539Y109269D01*
X304473Y109290D01*
X304408Y109315D01*
X304344Y109343D01*
X304282Y109375D01*
X304222Y109410D01*
X304164Y109449D01*
X304109Y109491D01*
X304055Y109536D01*
X304005Y109584D01*
X303957Y109634D01*
X303912Y109688D01*
X303870Y109743D01*
X303831Y109801D01*
X303796Y109861D01*
X303764Y109923D01*
X303736Y109987D01*
X303711Y110052D01*
X303690Y110118D01*
X303672Y110186D01*
X303659Y110254D01*
X303649Y110323D01*
X303643Y110392D01*
X303641Y110462D01*
X303641Y111083D01*
X303643Y111153D01*
X303649Y111222D01*
X303659Y111291D01*
X303672Y111359D01*
X303690Y111427D01*
X303711Y111493D01*
X303736Y111558D01*
X303764Y111622D01*
X303796Y111684D01*
X303831Y111744D01*
X303870Y111802D01*
X303912Y111857D01*
X303957Y111911D01*
X304005Y111961D01*
X304055Y112009D01*
X304109Y112054D01*
X304164Y112096D01*
X304222Y112135D01*
X304282Y112170D01*
X304344Y112202D01*
X304408Y112230D01*
X304473Y112255D01*
X304539Y112276D01*
X304607Y112294D01*
X304675Y112307D01*
X304744Y112317D01*
X304813Y112323D01*
X304883Y112325D01*
X304883Y112324D02*
X306745Y112324D01*
X306745Y114808D01*
X303641Y114808D01*
X298301Y112014D02*
X298299Y112157D01*
X298293Y112299D01*
X298284Y112441D01*
X298270Y112583D01*
X298253Y112725D01*
X298232Y112866D01*
X298208Y113006D01*
X298179Y113146D01*
X298147Y113285D01*
X298111Y113423D01*
X298071Y113560D01*
X298028Y113696D01*
X297981Y113831D01*
X297930Y113964D01*
X297876Y114096D01*
X297819Y114226D01*
X297758Y114355D01*
X297693Y114483D01*
X297625Y114608D01*
X297554Y114731D01*
X297479Y114853D01*
X297402Y114973D01*
X297321Y115090D01*
X297237Y115205D01*
X297149Y115318D01*
X297059Y115429D01*
X298301Y112014D02*
X298299Y111871D01*
X298293Y111729D01*
X298284Y111587D01*
X298270Y111445D01*
X298253Y111303D01*
X298232Y111162D01*
X298208Y111022D01*
X298179Y110882D01*
X298147Y110743D01*
X298111Y110605D01*
X298071Y110468D01*
X298028Y110332D01*
X297981Y110197D01*
X297930Y110064D01*
X297876Y109932D01*
X297819Y109802D01*
X297758Y109673D01*
X297693Y109545D01*
X297625Y109420D01*
X297554Y109297D01*
X297479Y109175D01*
X297402Y109055D01*
X297321Y108938D01*
X297237Y108823D01*
X297149Y108710D01*
X297059Y108599D01*
X293672Y109220D02*
X293672Y114808D01*
X295224Y114808D02*
X292120Y114808D01*
X289838Y114808D02*
X289838Y109220D01*
X289838Y114808D02*
X288285Y114808D01*
X288208Y114806D01*
X288130Y114800D01*
X288054Y114791D01*
X287977Y114777D01*
X287902Y114760D01*
X287828Y114739D01*
X287754Y114714D01*
X287682Y114686D01*
X287612Y114654D01*
X287543Y114619D01*
X287476Y114580D01*
X287411Y114538D01*
X287348Y114493D01*
X287287Y114445D01*
X287229Y114394D01*
X287174Y114340D01*
X287121Y114283D01*
X287072Y114224D01*
X287025Y114162D01*
X286981Y114098D01*
X286941Y114032D01*
X286904Y113964D01*
X286870Y113894D01*
X286840Y113823D01*
X286814Y113750D01*
X286791Y113676D01*
X286772Y113601D01*
X286757Y113526D01*
X286745Y113449D01*
X286737Y113372D01*
X286733Y113295D01*
X286733Y113217D01*
X286737Y113140D01*
X286745Y113063D01*
X286757Y112986D01*
X286772Y112911D01*
X286791Y112836D01*
X286814Y112762D01*
X286840Y112689D01*
X286870Y112618D01*
X286904Y112548D01*
X286941Y112480D01*
X286981Y112414D01*
X287025Y112350D01*
X287072Y112288D01*
X287121Y112229D01*
X287174Y112172D01*
X287229Y112118D01*
X287287Y112067D01*
X287348Y112019D01*
X287411Y111974D01*
X287476Y111932D01*
X287543Y111893D01*
X287612Y111858D01*
X287682Y111826D01*
X287754Y111798D01*
X287828Y111773D01*
X287902Y111752D01*
X287977Y111735D01*
X288054Y111721D01*
X288130Y111712D01*
X288208Y111706D01*
X288285Y111704D01*
X289838Y111704D01*
X284617Y110462D02*
X283375Y114808D01*
X284617Y110462D02*
X281513Y110462D01*
X282444Y111704D02*
X282444Y109220D01*
X279312Y108599D02*
X279222Y108710D01*
X279134Y108823D01*
X279050Y108938D01*
X278969Y109055D01*
X278892Y109175D01*
X278817Y109297D01*
X278746Y109420D01*
X278678Y109545D01*
X278613Y109673D01*
X278552Y109802D01*
X278495Y109932D01*
X278441Y110064D01*
X278390Y110197D01*
X278343Y110332D01*
X278300Y110468D01*
X278260Y110605D01*
X278224Y110743D01*
X278192Y110882D01*
X278163Y111022D01*
X278139Y111162D01*
X278118Y111303D01*
X278101Y111445D01*
X278087Y111587D01*
X278078Y111729D01*
X278072Y111871D01*
X278070Y112014D01*
X278072Y112157D01*
X278078Y112299D01*
X278087Y112441D01*
X278101Y112583D01*
X278118Y112725D01*
X278139Y112866D01*
X278163Y113006D01*
X278192Y113146D01*
X278224Y113285D01*
X278260Y113423D01*
X278300Y113560D01*
X278343Y113696D01*
X278390Y113831D01*
X278441Y113964D01*
X278495Y114096D01*
X278552Y114226D01*
X278613Y114355D01*
X278678Y114483D01*
X278746Y114608D01*
X278817Y114731D01*
X278892Y114853D01*
X278969Y114973D01*
X279050Y115090D01*
X279134Y115205D01*
X279222Y115318D01*
X279312Y115429D01*
D11*
X5432Y193586D02*
X5432Y293586D01*
X68932Y366086D01*
X5432Y193586D02*
X68932Y121086D01*
X268432Y366086D02*
X273932Y366086D01*
X273932Y341086D01*
X268432Y341086D01*
X75432Y341086D02*
X68932Y341086D01*
X68932Y366086D01*
X75432Y366086D01*
X268432Y146086D02*
X273932Y146086D01*
X273932Y121086D01*
X268432Y121086D01*
X75432Y121086D02*
X68932Y121086D01*
X68932Y146086D01*
X75432Y146086D01*
X78610Y333055D02*
X80416Y335312D01*
X72288Y335312D01*
X72288Y333055D02*
X72288Y337570D01*
D10*
X96868Y219431D02*
X91280Y215706D01*
X91280Y219431D02*
X96868Y215706D01*
X94384Y221769D02*
X94384Y223321D01*
X94382Y223398D01*
X94376Y223476D01*
X94367Y223552D01*
X94353Y223629D01*
X94336Y223704D01*
X94315Y223778D01*
X94290Y223852D01*
X94262Y223924D01*
X94230Y223994D01*
X94195Y224063D01*
X94156Y224130D01*
X94114Y224195D01*
X94069Y224258D01*
X94021Y224319D01*
X93970Y224377D01*
X93916Y224432D01*
X93859Y224485D01*
X93800Y224534D01*
X93738Y224581D01*
X93674Y224625D01*
X93608Y224665D01*
X93540Y224702D01*
X93470Y224736D01*
X93399Y224766D01*
X93326Y224792D01*
X93252Y224815D01*
X93177Y224834D01*
X93102Y224849D01*
X93025Y224861D01*
X92948Y224869D01*
X92871Y224873D01*
X92793Y224873D01*
X92716Y224869D01*
X92639Y224861D01*
X92562Y224849D01*
X92487Y224834D01*
X92412Y224815D01*
X92338Y224792D01*
X92265Y224766D01*
X92194Y224736D01*
X92124Y224702D01*
X92056Y224665D01*
X91990Y224625D01*
X91926Y224581D01*
X91864Y224534D01*
X91805Y224485D01*
X91748Y224432D01*
X91694Y224377D01*
X91643Y224319D01*
X91595Y224258D01*
X91550Y224195D01*
X91508Y224130D01*
X91469Y224063D01*
X91434Y223994D01*
X91402Y223924D01*
X91374Y223852D01*
X91349Y223778D01*
X91328Y223704D01*
X91311Y223629D01*
X91297Y223552D01*
X91288Y223476D01*
X91282Y223398D01*
X91280Y223321D01*
X91280Y221769D01*
X96868Y221769D01*
X96868Y223321D01*
X96866Y223391D01*
X96860Y223460D01*
X96850Y223529D01*
X96837Y223597D01*
X96819Y223665D01*
X96798Y223731D01*
X96773Y223796D01*
X96745Y223860D01*
X96713Y223922D01*
X96678Y223982D01*
X96639Y224040D01*
X96597Y224095D01*
X96552Y224149D01*
X96504Y224199D01*
X96454Y224247D01*
X96400Y224292D01*
X96345Y224334D01*
X96287Y224373D01*
X96227Y224408D01*
X96165Y224440D01*
X96101Y224468D01*
X96036Y224493D01*
X95970Y224514D01*
X95902Y224532D01*
X95834Y224545D01*
X95765Y224555D01*
X95696Y224561D01*
X95626Y224563D01*
X95556Y224561D01*
X95487Y224555D01*
X95418Y224545D01*
X95350Y224532D01*
X95282Y224514D01*
X95216Y224493D01*
X95151Y224468D01*
X95087Y224440D01*
X95025Y224408D01*
X94965Y224373D01*
X94907Y224334D01*
X94852Y224292D01*
X94798Y224247D01*
X94748Y224199D01*
X94700Y224149D01*
X94655Y224095D01*
X94613Y224040D01*
X94574Y223982D01*
X94539Y223922D01*
X94507Y223860D01*
X94479Y223796D01*
X94454Y223731D01*
X94433Y223665D01*
X94415Y223597D01*
X94402Y223529D01*
X94392Y223460D01*
X94386Y223391D01*
X94384Y223321D01*
X91280Y227183D02*
X91280Y229667D01*
X91280Y227183D02*
X96868Y227183D01*
X96868Y229667D01*
X94384Y229046D02*
X94384Y227183D01*
X91280Y231938D02*
X91280Y234422D01*
X91280Y231938D02*
X96868Y231938D01*
X96868Y234422D01*
X94384Y233801D02*
X94384Y231938D01*
X91280Y241105D02*
X91282Y241175D01*
X91288Y241244D01*
X91298Y241313D01*
X91311Y241381D01*
X91329Y241449D01*
X91350Y241515D01*
X91375Y241580D01*
X91403Y241644D01*
X91435Y241706D01*
X91470Y241766D01*
X91509Y241824D01*
X91551Y241879D01*
X91596Y241933D01*
X91644Y241983D01*
X91694Y242031D01*
X91748Y242076D01*
X91803Y242118D01*
X91861Y242157D01*
X91921Y242192D01*
X91983Y242224D01*
X92047Y242252D01*
X92112Y242277D01*
X92178Y242298D01*
X92246Y242316D01*
X92314Y242329D01*
X92383Y242339D01*
X92452Y242345D01*
X92522Y242347D01*
X91280Y241105D02*
X91282Y241006D01*
X91287Y240908D01*
X91297Y240810D01*
X91310Y240712D01*
X91326Y240615D01*
X91346Y240518D01*
X91370Y240423D01*
X91398Y240328D01*
X91429Y240234D01*
X91463Y240142D01*
X91501Y240051D01*
X91542Y239961D01*
X91587Y239873D01*
X91635Y239787D01*
X91686Y239703D01*
X91740Y239621D01*
X91798Y239540D01*
X91858Y239462D01*
X91921Y239387D01*
X91987Y239313D01*
X92056Y239243D01*
X95626Y239397D02*
X95696Y239399D01*
X95765Y239405D01*
X95834Y239415D01*
X95902Y239428D01*
X95970Y239446D01*
X96036Y239467D01*
X96101Y239492D01*
X96165Y239520D01*
X96227Y239552D01*
X96287Y239587D01*
X96345Y239626D01*
X96400Y239668D01*
X96454Y239713D01*
X96504Y239761D01*
X96552Y239811D01*
X96597Y239865D01*
X96639Y239920D01*
X96678Y239978D01*
X96713Y240038D01*
X96745Y240100D01*
X96773Y240164D01*
X96798Y240229D01*
X96819Y240295D01*
X96837Y240363D01*
X96850Y240431D01*
X96860Y240500D01*
X96866Y240569D01*
X96868Y240639D01*
X96866Y240733D01*
X96860Y240826D01*
X96851Y240919D01*
X96838Y241012D01*
X96821Y241104D01*
X96801Y241195D01*
X96776Y241286D01*
X96749Y241375D01*
X96717Y241463D01*
X96682Y241550D01*
X96644Y241636D01*
X96602Y241719D01*
X96557Y241801D01*
X96509Y241882D01*
X96457Y241960D01*
X96402Y242036D01*
X94540Y240019D02*
X94576Y239960D01*
X94616Y239904D01*
X94659Y239850D01*
X94704Y239798D01*
X94753Y239749D01*
X94804Y239703D01*
X94857Y239660D01*
X94913Y239619D01*
X94971Y239582D01*
X95031Y239547D01*
X95092Y239517D01*
X95155Y239489D01*
X95220Y239465D01*
X95286Y239445D01*
X95353Y239428D01*
X95420Y239415D01*
X95488Y239406D01*
X95557Y239400D01*
X95626Y239398D01*
X93608Y241725D02*
X93572Y241784D01*
X93532Y241840D01*
X93489Y241894D01*
X93444Y241946D01*
X93395Y241995D01*
X93344Y242041D01*
X93291Y242084D01*
X93235Y242125D01*
X93177Y242162D01*
X93117Y242197D01*
X93056Y242227D01*
X92993Y242255D01*
X92928Y242279D01*
X92862Y242299D01*
X92795Y242316D01*
X92728Y242329D01*
X92660Y242338D01*
X92591Y242344D01*
X92522Y242346D01*
X93608Y241726D02*
X94540Y240018D01*
X95626Y244546D02*
X96868Y246098D01*
X91280Y246098D01*
X91280Y244546D02*
X91280Y247650D01*
X258293Y243510D02*
X258293Y237922D01*
X258293Y243510D02*
X256740Y243510D01*
X256663Y243508D01*
X256585Y243502D01*
X256509Y243493D01*
X256432Y243479D01*
X256357Y243462D01*
X256283Y243441D01*
X256209Y243416D01*
X256137Y243388D01*
X256067Y243356D01*
X255998Y243321D01*
X255931Y243282D01*
X255866Y243240D01*
X255803Y243195D01*
X255742Y243147D01*
X255684Y243096D01*
X255629Y243042D01*
X255576Y242985D01*
X255527Y242926D01*
X255480Y242864D01*
X255436Y242800D01*
X255396Y242734D01*
X255359Y242666D01*
X255325Y242596D01*
X255295Y242525D01*
X255269Y242452D01*
X255246Y242378D01*
X255227Y242303D01*
X255212Y242228D01*
X255200Y242151D01*
X255192Y242074D01*
X255188Y241997D01*
X255188Y241919D01*
X255192Y241842D01*
X255200Y241765D01*
X255212Y241688D01*
X255227Y241613D01*
X255246Y241538D01*
X255269Y241464D01*
X255295Y241391D01*
X255325Y241320D01*
X255359Y241250D01*
X255396Y241182D01*
X255436Y241116D01*
X255480Y241052D01*
X255527Y240990D01*
X255576Y240931D01*
X255629Y240874D01*
X255684Y240820D01*
X255742Y240769D01*
X255803Y240721D01*
X255866Y240676D01*
X255931Y240634D01*
X255998Y240595D01*
X256067Y240560D01*
X256137Y240528D01*
X256209Y240500D01*
X256283Y240475D01*
X256357Y240454D01*
X256432Y240437D01*
X256509Y240423D01*
X256585Y240414D01*
X256663Y240408D01*
X256740Y240406D01*
X256740Y240405D02*
X258293Y240405D01*
X256430Y240405D02*
X255188Y237922D01*
X251163Y237922D02*
X251093Y237924D01*
X251024Y237930D01*
X250955Y237940D01*
X250887Y237953D01*
X250819Y237971D01*
X250753Y237992D01*
X250688Y238017D01*
X250624Y238045D01*
X250562Y238077D01*
X250502Y238112D01*
X250444Y238151D01*
X250389Y238193D01*
X250335Y238238D01*
X250285Y238286D01*
X250237Y238336D01*
X250192Y238390D01*
X250150Y238445D01*
X250111Y238503D01*
X250076Y238563D01*
X250044Y238625D01*
X250016Y238689D01*
X249991Y238754D01*
X249970Y238820D01*
X249952Y238888D01*
X249939Y238956D01*
X249929Y239025D01*
X249923Y239094D01*
X249921Y239164D01*
X251162Y237922D02*
X251261Y237924D01*
X251359Y237929D01*
X251457Y237939D01*
X251555Y237952D01*
X251652Y237968D01*
X251749Y237988D01*
X251844Y238012D01*
X251939Y238040D01*
X252033Y238071D01*
X252125Y238105D01*
X252216Y238143D01*
X252306Y238184D01*
X252394Y238229D01*
X252480Y238277D01*
X252564Y238328D01*
X252646Y238382D01*
X252727Y238440D01*
X252805Y238500D01*
X252880Y238563D01*
X252954Y238629D01*
X253024Y238698D01*
X252870Y242268D02*
X252868Y242338D01*
X252862Y242407D01*
X252852Y242476D01*
X252839Y242544D01*
X252821Y242612D01*
X252800Y242678D01*
X252775Y242743D01*
X252747Y242807D01*
X252715Y242869D01*
X252680Y242929D01*
X252641Y242987D01*
X252599Y243042D01*
X252554Y243096D01*
X252506Y243146D01*
X252456Y243194D01*
X252402Y243239D01*
X252347Y243281D01*
X252289Y243320D01*
X252229Y243355D01*
X252167Y243387D01*
X252103Y243415D01*
X252038Y243440D01*
X251972Y243461D01*
X251904Y243479D01*
X251836Y243492D01*
X251767Y243502D01*
X251698Y243508D01*
X251628Y243510D01*
X251534Y243508D01*
X251441Y243502D01*
X251348Y243493D01*
X251255Y243480D01*
X251163Y243463D01*
X251072Y243443D01*
X250981Y243418D01*
X250892Y243391D01*
X250804Y243359D01*
X250717Y243324D01*
X250631Y243286D01*
X250548Y243244D01*
X250465Y243199D01*
X250385Y243151D01*
X250307Y243099D01*
X250231Y243044D01*
X252249Y241182D02*
X252308Y241218D01*
X252364Y241258D01*
X252418Y241301D01*
X252470Y241346D01*
X252519Y241395D01*
X252565Y241446D01*
X252608Y241499D01*
X252649Y241555D01*
X252686Y241613D01*
X252721Y241673D01*
X252751Y241734D01*
X252779Y241797D01*
X252803Y241862D01*
X252823Y241928D01*
X252840Y241995D01*
X252853Y242062D01*
X252862Y242130D01*
X252868Y242199D01*
X252870Y242268D01*
X250542Y240250D02*
X250483Y240214D01*
X250427Y240174D01*
X250373Y240131D01*
X250321Y240086D01*
X250272Y240037D01*
X250226Y239986D01*
X250183Y239933D01*
X250142Y239877D01*
X250105Y239819D01*
X250070Y239760D01*
X250040Y239698D01*
X250012Y239635D01*
X249988Y239570D01*
X249968Y239504D01*
X249951Y239437D01*
X249938Y239370D01*
X249929Y239302D01*
X249923Y239233D01*
X249921Y239164D01*
X250542Y240250D02*
X252249Y241181D01*
X246535Y243510D02*
X246535Y237922D01*
X248087Y243510D02*
X244983Y243510D01*
X255378Y214526D02*
X255380Y214456D01*
X255386Y214387D01*
X255396Y214318D01*
X255409Y214250D01*
X255427Y214182D01*
X255448Y214116D01*
X255473Y214051D01*
X255501Y213987D01*
X255533Y213925D01*
X255568Y213865D01*
X255607Y213807D01*
X255649Y213752D01*
X255694Y213698D01*
X255742Y213648D01*
X255792Y213600D01*
X255846Y213555D01*
X255901Y213513D01*
X255959Y213474D01*
X256019Y213439D01*
X256081Y213407D01*
X256145Y213379D01*
X256210Y213354D01*
X256276Y213333D01*
X256344Y213315D01*
X256412Y213302D01*
X256481Y213292D01*
X256550Y213286D01*
X256620Y213284D01*
X256719Y213286D01*
X256817Y213291D01*
X256915Y213301D01*
X257013Y213314D01*
X257110Y213330D01*
X257207Y213350D01*
X257302Y213374D01*
X257397Y213402D01*
X257491Y213433D01*
X257583Y213467D01*
X257674Y213505D01*
X257764Y213546D01*
X257852Y213591D01*
X257938Y213639D01*
X258022Y213690D01*
X258104Y213744D01*
X258185Y213802D01*
X258263Y213862D01*
X258338Y213925D01*
X258412Y213991D01*
X258482Y214060D01*
X258328Y217630D02*
X258326Y217700D01*
X258320Y217769D01*
X258310Y217838D01*
X258297Y217906D01*
X258279Y217974D01*
X258258Y218040D01*
X258233Y218105D01*
X258205Y218169D01*
X258173Y218231D01*
X258138Y218291D01*
X258099Y218349D01*
X258057Y218404D01*
X258012Y218458D01*
X257964Y218508D01*
X257914Y218556D01*
X257860Y218601D01*
X257805Y218643D01*
X257747Y218682D01*
X257687Y218717D01*
X257625Y218749D01*
X257561Y218777D01*
X257496Y218802D01*
X257430Y218823D01*
X257362Y218841D01*
X257294Y218854D01*
X257225Y218864D01*
X257156Y218870D01*
X257086Y218872D01*
X256992Y218870D01*
X256899Y218864D01*
X256806Y218855D01*
X256713Y218842D01*
X256621Y218825D01*
X256530Y218805D01*
X256439Y218780D01*
X256350Y218753D01*
X256262Y218721D01*
X256175Y218686D01*
X256089Y218648D01*
X256006Y218606D01*
X255923Y218561D01*
X255843Y218513D01*
X255765Y218461D01*
X255689Y218406D01*
X257706Y216544D02*
X257765Y216580D01*
X257821Y216620D01*
X257875Y216663D01*
X257927Y216708D01*
X257976Y216757D01*
X258022Y216808D01*
X258065Y216861D01*
X258106Y216917D01*
X258143Y216975D01*
X258178Y217035D01*
X258208Y217096D01*
X258236Y217159D01*
X258260Y217224D01*
X258280Y217290D01*
X258297Y217357D01*
X258310Y217424D01*
X258319Y217492D01*
X258325Y217561D01*
X258327Y217630D01*
X255999Y215612D02*
X255940Y215576D01*
X255884Y215536D01*
X255830Y215493D01*
X255778Y215448D01*
X255729Y215399D01*
X255683Y215348D01*
X255640Y215295D01*
X255599Y215239D01*
X255562Y215181D01*
X255527Y215122D01*
X255497Y215060D01*
X255469Y214997D01*
X255445Y214932D01*
X255425Y214866D01*
X255408Y214799D01*
X255395Y214732D01*
X255386Y214664D01*
X255380Y214595D01*
X255378Y214526D01*
X255999Y215612D02*
X257707Y216543D01*
X251954Y213284D02*
X250712Y213284D01*
X251954Y213284D02*
X252024Y213286D01*
X252093Y213292D01*
X252162Y213302D01*
X252230Y213315D01*
X252298Y213333D01*
X252364Y213354D01*
X252429Y213379D01*
X252493Y213407D01*
X252555Y213439D01*
X252615Y213474D01*
X252673Y213513D01*
X252728Y213555D01*
X252782Y213600D01*
X252832Y213648D01*
X252880Y213698D01*
X252925Y213752D01*
X252967Y213807D01*
X253006Y213865D01*
X253041Y213925D01*
X253073Y213987D01*
X253101Y214051D01*
X253126Y214116D01*
X253147Y214182D01*
X253165Y214250D01*
X253178Y214318D01*
X253188Y214387D01*
X253194Y214456D01*
X253196Y214526D01*
X253196Y217630D01*
X253194Y217700D01*
X253188Y217769D01*
X253178Y217838D01*
X253165Y217906D01*
X253147Y217974D01*
X253126Y218040D01*
X253101Y218105D01*
X253073Y218169D01*
X253041Y218231D01*
X253006Y218291D01*
X252967Y218349D01*
X252925Y218404D01*
X252880Y218458D01*
X252832Y218508D01*
X252782Y218556D01*
X252728Y218601D01*
X252673Y218643D01*
X252615Y218682D01*
X252555Y218717D01*
X252493Y218749D01*
X252429Y218777D01*
X252364Y218802D01*
X252298Y218823D01*
X252230Y218841D01*
X252162Y218854D01*
X252093Y218864D01*
X252024Y218870D01*
X251954Y218872D01*
X250712Y218872D01*
X248341Y218872D02*
X248341Y213284D01*
X248341Y215457D02*
X245237Y218872D01*
X247100Y216699D02*
X245237Y213284D01*
X259035Y191440D02*
X259035Y185852D01*
X257173Y188335D02*
X259035Y191440D01*
X257173Y188335D02*
X255310Y191440D01*
X255310Y185852D01*
X252235Y185852D02*
X252235Y191440D01*
X252856Y185852D02*
X251614Y185852D01*
X251614Y191440D02*
X252856Y191440D01*
X247718Y185852D02*
X247648Y185854D01*
X247579Y185860D01*
X247510Y185870D01*
X247442Y185883D01*
X247374Y185901D01*
X247308Y185922D01*
X247243Y185947D01*
X247179Y185975D01*
X247117Y186007D01*
X247057Y186042D01*
X246999Y186081D01*
X246944Y186123D01*
X246890Y186168D01*
X246840Y186216D01*
X246792Y186266D01*
X246747Y186320D01*
X246705Y186375D01*
X246666Y186433D01*
X246631Y186493D01*
X246599Y186555D01*
X246571Y186619D01*
X246546Y186684D01*
X246525Y186750D01*
X246507Y186818D01*
X246494Y186886D01*
X246484Y186955D01*
X246478Y187024D01*
X246476Y187094D01*
X247718Y185852D02*
X247817Y185854D01*
X247915Y185859D01*
X248013Y185869D01*
X248111Y185882D01*
X248208Y185898D01*
X248305Y185918D01*
X248400Y185942D01*
X248495Y185970D01*
X248589Y186001D01*
X248681Y186035D01*
X248772Y186073D01*
X248862Y186114D01*
X248950Y186159D01*
X249036Y186207D01*
X249120Y186258D01*
X249202Y186312D01*
X249283Y186370D01*
X249361Y186430D01*
X249436Y186493D01*
X249510Y186559D01*
X249580Y186628D01*
X249426Y190198D02*
X249424Y190268D01*
X249418Y190337D01*
X249408Y190406D01*
X249395Y190474D01*
X249377Y190542D01*
X249356Y190608D01*
X249331Y190673D01*
X249303Y190737D01*
X249271Y190799D01*
X249236Y190859D01*
X249197Y190917D01*
X249155Y190972D01*
X249110Y191026D01*
X249062Y191076D01*
X249012Y191124D01*
X248958Y191169D01*
X248903Y191211D01*
X248845Y191250D01*
X248785Y191285D01*
X248723Y191317D01*
X248659Y191345D01*
X248594Y191370D01*
X248528Y191391D01*
X248460Y191409D01*
X248392Y191422D01*
X248323Y191432D01*
X248254Y191438D01*
X248184Y191440D01*
X248090Y191438D01*
X247997Y191432D01*
X247904Y191423D01*
X247811Y191410D01*
X247719Y191393D01*
X247628Y191373D01*
X247537Y191348D01*
X247448Y191321D01*
X247360Y191289D01*
X247273Y191254D01*
X247187Y191216D01*
X247104Y191174D01*
X247021Y191129D01*
X246941Y191081D01*
X246863Y191029D01*
X246787Y190974D01*
X248805Y189112D02*
X248864Y189148D01*
X248920Y189188D01*
X248974Y189231D01*
X249026Y189276D01*
X249075Y189325D01*
X249121Y189376D01*
X249164Y189429D01*
X249205Y189485D01*
X249242Y189543D01*
X249277Y189603D01*
X249307Y189664D01*
X249335Y189727D01*
X249359Y189792D01*
X249379Y189858D01*
X249396Y189925D01*
X249409Y189992D01*
X249418Y190060D01*
X249424Y190129D01*
X249426Y190198D01*
X247098Y188180D02*
X247039Y188144D01*
X246983Y188104D01*
X246929Y188061D01*
X246877Y188016D01*
X246828Y187967D01*
X246782Y187916D01*
X246739Y187863D01*
X246698Y187807D01*
X246661Y187749D01*
X246626Y187690D01*
X246596Y187628D01*
X246568Y187565D01*
X246544Y187500D01*
X246524Y187434D01*
X246507Y187367D01*
X246494Y187300D01*
X246485Y187232D01*
X246479Y187163D01*
X246477Y187094D01*
X247097Y188180D02*
X248805Y189111D01*
X244277Y189888D02*
X244277Y187404D01*
X244277Y189888D02*
X244275Y189965D01*
X244269Y190043D01*
X244260Y190119D01*
X244246Y190196D01*
X244229Y190271D01*
X244208Y190345D01*
X244183Y190419D01*
X244155Y190491D01*
X244123Y190561D01*
X244088Y190630D01*
X244049Y190697D01*
X244007Y190762D01*
X243962Y190825D01*
X243914Y190886D01*
X243863Y190944D01*
X243809Y190999D01*
X243752Y191052D01*
X243693Y191101D01*
X243631Y191148D01*
X243567Y191192D01*
X243501Y191232D01*
X243433Y191269D01*
X243363Y191303D01*
X243292Y191333D01*
X243219Y191359D01*
X243145Y191382D01*
X243070Y191401D01*
X242995Y191416D01*
X242918Y191428D01*
X242841Y191436D01*
X242764Y191440D01*
X242686Y191440D01*
X242609Y191436D01*
X242532Y191428D01*
X242455Y191416D01*
X242380Y191401D01*
X242305Y191382D01*
X242231Y191359D01*
X242158Y191333D01*
X242087Y191303D01*
X242017Y191269D01*
X241949Y191232D01*
X241883Y191192D01*
X241819Y191148D01*
X241757Y191101D01*
X241698Y191052D01*
X241641Y190999D01*
X241587Y190944D01*
X241536Y190886D01*
X241488Y190825D01*
X241443Y190762D01*
X241401Y190697D01*
X241362Y190630D01*
X241327Y190561D01*
X241295Y190491D01*
X241267Y190419D01*
X241242Y190345D01*
X241221Y190271D01*
X241204Y190196D01*
X241190Y190119D01*
X241181Y190043D01*
X241175Y189965D01*
X241173Y189888D01*
X241173Y187404D01*
X241175Y187327D01*
X241181Y187249D01*
X241190Y187173D01*
X241204Y187096D01*
X241221Y187021D01*
X241242Y186947D01*
X241267Y186873D01*
X241295Y186801D01*
X241327Y186731D01*
X241362Y186662D01*
X241401Y186595D01*
X241443Y186530D01*
X241488Y186467D01*
X241536Y186406D01*
X241587Y186348D01*
X241641Y186293D01*
X241698Y186240D01*
X241757Y186191D01*
X241819Y186144D01*
X241883Y186100D01*
X241949Y186060D01*
X242017Y186023D01*
X242087Y185989D01*
X242158Y185959D01*
X242231Y185933D01*
X242305Y185910D01*
X242380Y185891D01*
X242455Y185876D01*
X242532Y185864D01*
X242609Y185856D01*
X242686Y185852D01*
X242764Y185852D01*
X242841Y185856D01*
X242918Y185864D01*
X242995Y185876D01*
X243070Y185891D01*
X243145Y185910D01*
X243219Y185933D01*
X243292Y185959D01*
X243363Y185989D01*
X243433Y186023D01*
X243501Y186060D01*
X243567Y186100D01*
X243631Y186144D01*
X243693Y186191D01*
X243752Y186240D01*
X243809Y186293D01*
X243863Y186348D01*
X243914Y186406D01*
X243962Y186467D01*
X244007Y186530D01*
X244049Y186595D01*
X244088Y186662D01*
X244123Y186731D01*
X244155Y186801D01*
X244183Y186873D01*
X244208Y186947D01*
X244229Y187021D01*
X244246Y187096D01*
X244260Y187173D01*
X244269Y187249D01*
X244275Y187327D01*
X244277Y187404D01*
M02*
