G04 EAGLE Gerber X2 export*
%TF.Part,Single*%
%TF.FileFunction,Soldermask,Top,1*%
%TF.FilePolarity,Negative*%
%TF.GenerationSoftware,Autodesk,EAGLE,9.1.3*%
%TF.CreationDate,2018-09-23T19:11:10Z*%
G75*
%MOMM*%
%FSLAX34Y34*%
%LPD*%
%AMOC8*
5,1,8,0,0,1.08239X$1,22.5*%
G01*
%ADD10C,3.327000*%
%ADD11C,2.006600*%
%ADD12R,1.397000X0.685800*%
%ADD13R,0.685800X1.397000*%
%ADD14R,0.727000X2.327000*%
%ADD15C,1.327000*%
%ADD16C,0.577000*%
%ADD17R,3.495038X1.534156*%
%ADD18R,1.227000X1.127000*%
%ADD19R,1.727000X1.927000*%
%ADD20R,0.927000X1.027000*%
%ADD21R,1.127000X1.227000*%
%ADD22C,0.428259*%
%ADD23P,1.869504X8X22.500000*%
%ADD24C,0.731000*%


D10*
X31750Y31750D03*
X31750Y349250D03*
D11*
X274904Y189865D03*
X300304Y189865D03*
X274904Y215265D03*
X300304Y215265D03*
X274904Y240665D03*
X300304Y240665D03*
D12*
X130302Y268538D03*
X130302Y260538D03*
X130302Y252538D03*
X130302Y244538D03*
X130302Y236538D03*
X130302Y228538D03*
X130302Y220538D03*
X130302Y212538D03*
D13*
X145228Y197612D03*
X153228Y197612D03*
X161228Y197612D03*
X169228Y197612D03*
X177228Y197612D03*
X185228Y197612D03*
X193228Y197612D03*
X201228Y197612D03*
D12*
X216154Y212538D03*
X216154Y220538D03*
X216154Y228538D03*
X216154Y236538D03*
X216154Y244538D03*
X216154Y252538D03*
X216154Y260538D03*
X216154Y268538D03*
D13*
X201228Y283464D03*
X193228Y283464D03*
X185228Y283464D03*
X177228Y283464D03*
X169228Y283464D03*
X161228Y283464D03*
X153228Y283464D03*
X145228Y283464D03*
D14*
X40894Y237328D03*
X40894Y185328D03*
X53594Y237328D03*
X28194Y237328D03*
X15494Y237328D03*
X53594Y185328D03*
X28194Y185328D03*
X15494Y185328D03*
D15*
X162230Y92741D02*
X162230Y80741D01*
X137230Y80741D02*
X137230Y92741D01*
X112230Y92741D02*
X112230Y80741D01*
X87230Y80741D02*
X87230Y92741D01*
X162052Y40290D02*
X162052Y28290D01*
X137052Y28290D02*
X137052Y40290D01*
X112052Y40290D02*
X112052Y28290D01*
X87052Y28290D02*
X87052Y40290D01*
X289814Y80614D02*
X289814Y92614D01*
X264814Y92614D02*
X264814Y80614D01*
X239814Y80614D02*
X239814Y92614D01*
X214814Y92614D02*
X214814Y80614D01*
X289814Y40036D02*
X289814Y28036D01*
X264814Y28036D02*
X264814Y40036D01*
X239814Y40036D02*
X239814Y28036D01*
X214814Y28036D02*
X214814Y40036D01*
D16*
X92797Y194095D02*
X103085Y204383D01*
X111570Y195898D02*
X101282Y185610D01*
X109767Y177125D02*
X120055Y187413D01*
D17*
G36*
X113322Y172974D02*
X88610Y197686D01*
X99458Y208534D01*
X124170Y183822D01*
X113322Y172974D01*
G37*
D18*
X36186Y157480D03*
X19186Y157480D03*
X37710Y264922D03*
X20710Y264922D03*
D19*
X51084Y292100D03*
X23084Y292100D03*
D20*
X295758Y348582D03*
X276758Y348582D03*
X286258Y327582D03*
D21*
X139836Y333502D03*
X156836Y333502D03*
D18*
X109846Y228092D03*
X92846Y228092D03*
D21*
X238506Y223892D03*
X238506Y206892D03*
X106426Y248802D03*
X106426Y265802D03*
X238506Y240166D03*
X238506Y257166D03*
X74050Y120650D03*
X91050Y120650D03*
X74050Y146050D03*
X91050Y146050D03*
X294250Y146050D03*
X277250Y146050D03*
X294250Y120650D03*
X277250Y120650D03*
D18*
X248666Y340750D03*
X248666Y357750D03*
X248666Y325238D03*
X248666Y308238D03*
D22*
X75750Y331024D02*
X75750Y338012D01*
X75750Y331024D02*
X68762Y331024D01*
X68762Y338012D01*
X75750Y338012D01*
X75750Y335093D02*
X68762Y335093D01*
X93290Y338012D02*
X93290Y331024D01*
X86302Y331024D01*
X86302Y338012D01*
X93290Y338012D01*
X93290Y335093D02*
X86302Y335093D01*
D21*
X123054Y333502D03*
X106054Y333502D03*
X123054Y355092D03*
X106054Y355092D03*
D22*
X75750Y351852D02*
X75750Y358840D01*
X75750Y351852D02*
X68762Y351852D01*
X68762Y358840D01*
X75750Y358840D01*
X75750Y355921D02*
X68762Y355921D01*
X93290Y358840D02*
X93290Y351852D01*
X86302Y351852D01*
X86302Y358840D01*
X93290Y358840D01*
X93290Y355921D02*
X86302Y355921D01*
D23*
X25146Y110490D03*
X25146Y90170D03*
X300736Y304546D03*
X300736Y284226D03*
D24*
X236728Y277622D03*
X74422Y227838D03*
X62484Y315468D03*
X258572Y203708D03*
X152908Y304292D03*
X141732Y315722D03*
X192024Y220980D03*
X153416Y174244D03*
X154178Y246634D03*
X181102Y315722D03*
X152146Y264922D03*
X170434Y166370D03*
X128270Y283718D03*
M02*
