G75*
%MOIN*%
%OFA0B0*%
%FSLAX25Y25*%
%IPPOS*%
%LPD*%
%AMOC8*
5,1,8,0,0,1.08239X$1,22.5*
%
%ADD10C,0.00000*%
D10*
X0009670Y0009600D02*
X0009670Y0159600D01*
X0134670Y0159600D01*
X0134670Y0009600D01*
X0009670Y0009600D01*
X0015871Y0022100D02*
X0015873Y0022258D01*
X0015879Y0022416D01*
X0015889Y0022574D01*
X0015903Y0022732D01*
X0015921Y0022889D01*
X0015942Y0023046D01*
X0015968Y0023202D01*
X0015998Y0023358D01*
X0016031Y0023513D01*
X0016069Y0023666D01*
X0016110Y0023819D01*
X0016155Y0023971D01*
X0016204Y0024122D01*
X0016257Y0024271D01*
X0016313Y0024419D01*
X0016373Y0024565D01*
X0016437Y0024710D01*
X0016505Y0024853D01*
X0016576Y0024995D01*
X0016650Y0025135D01*
X0016728Y0025272D01*
X0016810Y0025408D01*
X0016894Y0025542D01*
X0016983Y0025673D01*
X0017074Y0025802D01*
X0017169Y0025929D01*
X0017266Y0026054D01*
X0017367Y0026176D01*
X0017471Y0026295D01*
X0017578Y0026412D01*
X0017688Y0026526D01*
X0017801Y0026637D01*
X0017916Y0026746D01*
X0018034Y0026851D01*
X0018155Y0026953D01*
X0018278Y0027053D01*
X0018404Y0027149D01*
X0018532Y0027242D01*
X0018662Y0027332D01*
X0018795Y0027418D01*
X0018930Y0027502D01*
X0019066Y0027581D01*
X0019205Y0027658D01*
X0019346Y0027730D01*
X0019488Y0027800D01*
X0019632Y0027865D01*
X0019778Y0027927D01*
X0019925Y0027985D01*
X0020074Y0028040D01*
X0020224Y0028091D01*
X0020375Y0028138D01*
X0020527Y0028181D01*
X0020680Y0028220D01*
X0020835Y0028256D01*
X0020990Y0028287D01*
X0021146Y0028315D01*
X0021302Y0028339D01*
X0021459Y0028359D01*
X0021617Y0028375D01*
X0021774Y0028387D01*
X0021933Y0028395D01*
X0022091Y0028399D01*
X0022249Y0028399D01*
X0022407Y0028395D01*
X0022566Y0028387D01*
X0022723Y0028375D01*
X0022881Y0028359D01*
X0023038Y0028339D01*
X0023194Y0028315D01*
X0023350Y0028287D01*
X0023505Y0028256D01*
X0023660Y0028220D01*
X0023813Y0028181D01*
X0023965Y0028138D01*
X0024116Y0028091D01*
X0024266Y0028040D01*
X0024415Y0027985D01*
X0024562Y0027927D01*
X0024708Y0027865D01*
X0024852Y0027800D01*
X0024994Y0027730D01*
X0025135Y0027658D01*
X0025274Y0027581D01*
X0025410Y0027502D01*
X0025545Y0027418D01*
X0025678Y0027332D01*
X0025808Y0027242D01*
X0025936Y0027149D01*
X0026062Y0027053D01*
X0026185Y0026953D01*
X0026306Y0026851D01*
X0026424Y0026746D01*
X0026539Y0026637D01*
X0026652Y0026526D01*
X0026762Y0026412D01*
X0026869Y0026295D01*
X0026973Y0026176D01*
X0027074Y0026054D01*
X0027171Y0025929D01*
X0027266Y0025802D01*
X0027357Y0025673D01*
X0027446Y0025542D01*
X0027530Y0025408D01*
X0027612Y0025272D01*
X0027690Y0025135D01*
X0027764Y0024995D01*
X0027835Y0024853D01*
X0027903Y0024710D01*
X0027967Y0024565D01*
X0028027Y0024419D01*
X0028083Y0024271D01*
X0028136Y0024122D01*
X0028185Y0023971D01*
X0028230Y0023819D01*
X0028271Y0023666D01*
X0028309Y0023513D01*
X0028342Y0023358D01*
X0028372Y0023202D01*
X0028398Y0023046D01*
X0028419Y0022889D01*
X0028437Y0022732D01*
X0028451Y0022574D01*
X0028461Y0022416D01*
X0028467Y0022258D01*
X0028469Y0022100D01*
X0028467Y0021942D01*
X0028461Y0021784D01*
X0028451Y0021626D01*
X0028437Y0021468D01*
X0028419Y0021311D01*
X0028398Y0021154D01*
X0028372Y0020998D01*
X0028342Y0020842D01*
X0028309Y0020687D01*
X0028271Y0020534D01*
X0028230Y0020381D01*
X0028185Y0020229D01*
X0028136Y0020078D01*
X0028083Y0019929D01*
X0028027Y0019781D01*
X0027967Y0019635D01*
X0027903Y0019490D01*
X0027835Y0019347D01*
X0027764Y0019205D01*
X0027690Y0019065D01*
X0027612Y0018928D01*
X0027530Y0018792D01*
X0027446Y0018658D01*
X0027357Y0018527D01*
X0027266Y0018398D01*
X0027171Y0018271D01*
X0027074Y0018146D01*
X0026973Y0018024D01*
X0026869Y0017905D01*
X0026762Y0017788D01*
X0026652Y0017674D01*
X0026539Y0017563D01*
X0026424Y0017454D01*
X0026306Y0017349D01*
X0026185Y0017247D01*
X0026062Y0017147D01*
X0025936Y0017051D01*
X0025808Y0016958D01*
X0025678Y0016868D01*
X0025545Y0016782D01*
X0025410Y0016698D01*
X0025274Y0016619D01*
X0025135Y0016542D01*
X0024994Y0016470D01*
X0024852Y0016400D01*
X0024708Y0016335D01*
X0024562Y0016273D01*
X0024415Y0016215D01*
X0024266Y0016160D01*
X0024116Y0016109D01*
X0023965Y0016062D01*
X0023813Y0016019D01*
X0023660Y0015980D01*
X0023505Y0015944D01*
X0023350Y0015913D01*
X0023194Y0015885D01*
X0023038Y0015861D01*
X0022881Y0015841D01*
X0022723Y0015825D01*
X0022566Y0015813D01*
X0022407Y0015805D01*
X0022249Y0015801D01*
X0022091Y0015801D01*
X0021933Y0015805D01*
X0021774Y0015813D01*
X0021617Y0015825D01*
X0021459Y0015841D01*
X0021302Y0015861D01*
X0021146Y0015885D01*
X0020990Y0015913D01*
X0020835Y0015944D01*
X0020680Y0015980D01*
X0020527Y0016019D01*
X0020375Y0016062D01*
X0020224Y0016109D01*
X0020074Y0016160D01*
X0019925Y0016215D01*
X0019778Y0016273D01*
X0019632Y0016335D01*
X0019488Y0016400D01*
X0019346Y0016470D01*
X0019205Y0016542D01*
X0019066Y0016619D01*
X0018930Y0016698D01*
X0018795Y0016782D01*
X0018662Y0016868D01*
X0018532Y0016958D01*
X0018404Y0017051D01*
X0018278Y0017147D01*
X0018155Y0017247D01*
X0018034Y0017349D01*
X0017916Y0017454D01*
X0017801Y0017563D01*
X0017688Y0017674D01*
X0017578Y0017788D01*
X0017471Y0017905D01*
X0017367Y0018024D01*
X0017266Y0018146D01*
X0017169Y0018271D01*
X0017074Y0018398D01*
X0016983Y0018527D01*
X0016894Y0018658D01*
X0016810Y0018792D01*
X0016728Y0018928D01*
X0016650Y0019065D01*
X0016576Y0019205D01*
X0016505Y0019347D01*
X0016437Y0019490D01*
X0016373Y0019635D01*
X0016313Y0019781D01*
X0016257Y0019929D01*
X0016204Y0020078D01*
X0016155Y0020229D01*
X0016110Y0020381D01*
X0016069Y0020534D01*
X0016031Y0020687D01*
X0015998Y0020842D01*
X0015968Y0020998D01*
X0015942Y0021154D01*
X0015921Y0021311D01*
X0015903Y0021468D01*
X0015889Y0021626D01*
X0015879Y0021784D01*
X0015873Y0021942D01*
X0015871Y0022100D01*
X0015871Y0147100D02*
X0015873Y0147258D01*
X0015879Y0147416D01*
X0015889Y0147574D01*
X0015903Y0147732D01*
X0015921Y0147889D01*
X0015942Y0148046D01*
X0015968Y0148202D01*
X0015998Y0148358D01*
X0016031Y0148513D01*
X0016069Y0148666D01*
X0016110Y0148819D01*
X0016155Y0148971D01*
X0016204Y0149122D01*
X0016257Y0149271D01*
X0016313Y0149419D01*
X0016373Y0149565D01*
X0016437Y0149710D01*
X0016505Y0149853D01*
X0016576Y0149995D01*
X0016650Y0150135D01*
X0016728Y0150272D01*
X0016810Y0150408D01*
X0016894Y0150542D01*
X0016983Y0150673D01*
X0017074Y0150802D01*
X0017169Y0150929D01*
X0017266Y0151054D01*
X0017367Y0151176D01*
X0017471Y0151295D01*
X0017578Y0151412D01*
X0017688Y0151526D01*
X0017801Y0151637D01*
X0017916Y0151746D01*
X0018034Y0151851D01*
X0018155Y0151953D01*
X0018278Y0152053D01*
X0018404Y0152149D01*
X0018532Y0152242D01*
X0018662Y0152332D01*
X0018795Y0152418D01*
X0018930Y0152502D01*
X0019066Y0152581D01*
X0019205Y0152658D01*
X0019346Y0152730D01*
X0019488Y0152800D01*
X0019632Y0152865D01*
X0019778Y0152927D01*
X0019925Y0152985D01*
X0020074Y0153040D01*
X0020224Y0153091D01*
X0020375Y0153138D01*
X0020527Y0153181D01*
X0020680Y0153220D01*
X0020835Y0153256D01*
X0020990Y0153287D01*
X0021146Y0153315D01*
X0021302Y0153339D01*
X0021459Y0153359D01*
X0021617Y0153375D01*
X0021774Y0153387D01*
X0021933Y0153395D01*
X0022091Y0153399D01*
X0022249Y0153399D01*
X0022407Y0153395D01*
X0022566Y0153387D01*
X0022723Y0153375D01*
X0022881Y0153359D01*
X0023038Y0153339D01*
X0023194Y0153315D01*
X0023350Y0153287D01*
X0023505Y0153256D01*
X0023660Y0153220D01*
X0023813Y0153181D01*
X0023965Y0153138D01*
X0024116Y0153091D01*
X0024266Y0153040D01*
X0024415Y0152985D01*
X0024562Y0152927D01*
X0024708Y0152865D01*
X0024852Y0152800D01*
X0024994Y0152730D01*
X0025135Y0152658D01*
X0025274Y0152581D01*
X0025410Y0152502D01*
X0025545Y0152418D01*
X0025678Y0152332D01*
X0025808Y0152242D01*
X0025936Y0152149D01*
X0026062Y0152053D01*
X0026185Y0151953D01*
X0026306Y0151851D01*
X0026424Y0151746D01*
X0026539Y0151637D01*
X0026652Y0151526D01*
X0026762Y0151412D01*
X0026869Y0151295D01*
X0026973Y0151176D01*
X0027074Y0151054D01*
X0027171Y0150929D01*
X0027266Y0150802D01*
X0027357Y0150673D01*
X0027446Y0150542D01*
X0027530Y0150408D01*
X0027612Y0150272D01*
X0027690Y0150135D01*
X0027764Y0149995D01*
X0027835Y0149853D01*
X0027903Y0149710D01*
X0027967Y0149565D01*
X0028027Y0149419D01*
X0028083Y0149271D01*
X0028136Y0149122D01*
X0028185Y0148971D01*
X0028230Y0148819D01*
X0028271Y0148666D01*
X0028309Y0148513D01*
X0028342Y0148358D01*
X0028372Y0148202D01*
X0028398Y0148046D01*
X0028419Y0147889D01*
X0028437Y0147732D01*
X0028451Y0147574D01*
X0028461Y0147416D01*
X0028467Y0147258D01*
X0028469Y0147100D01*
X0028467Y0146942D01*
X0028461Y0146784D01*
X0028451Y0146626D01*
X0028437Y0146468D01*
X0028419Y0146311D01*
X0028398Y0146154D01*
X0028372Y0145998D01*
X0028342Y0145842D01*
X0028309Y0145687D01*
X0028271Y0145534D01*
X0028230Y0145381D01*
X0028185Y0145229D01*
X0028136Y0145078D01*
X0028083Y0144929D01*
X0028027Y0144781D01*
X0027967Y0144635D01*
X0027903Y0144490D01*
X0027835Y0144347D01*
X0027764Y0144205D01*
X0027690Y0144065D01*
X0027612Y0143928D01*
X0027530Y0143792D01*
X0027446Y0143658D01*
X0027357Y0143527D01*
X0027266Y0143398D01*
X0027171Y0143271D01*
X0027074Y0143146D01*
X0026973Y0143024D01*
X0026869Y0142905D01*
X0026762Y0142788D01*
X0026652Y0142674D01*
X0026539Y0142563D01*
X0026424Y0142454D01*
X0026306Y0142349D01*
X0026185Y0142247D01*
X0026062Y0142147D01*
X0025936Y0142051D01*
X0025808Y0141958D01*
X0025678Y0141868D01*
X0025545Y0141782D01*
X0025410Y0141698D01*
X0025274Y0141619D01*
X0025135Y0141542D01*
X0024994Y0141470D01*
X0024852Y0141400D01*
X0024708Y0141335D01*
X0024562Y0141273D01*
X0024415Y0141215D01*
X0024266Y0141160D01*
X0024116Y0141109D01*
X0023965Y0141062D01*
X0023813Y0141019D01*
X0023660Y0140980D01*
X0023505Y0140944D01*
X0023350Y0140913D01*
X0023194Y0140885D01*
X0023038Y0140861D01*
X0022881Y0140841D01*
X0022723Y0140825D01*
X0022566Y0140813D01*
X0022407Y0140805D01*
X0022249Y0140801D01*
X0022091Y0140801D01*
X0021933Y0140805D01*
X0021774Y0140813D01*
X0021617Y0140825D01*
X0021459Y0140841D01*
X0021302Y0140861D01*
X0021146Y0140885D01*
X0020990Y0140913D01*
X0020835Y0140944D01*
X0020680Y0140980D01*
X0020527Y0141019D01*
X0020375Y0141062D01*
X0020224Y0141109D01*
X0020074Y0141160D01*
X0019925Y0141215D01*
X0019778Y0141273D01*
X0019632Y0141335D01*
X0019488Y0141400D01*
X0019346Y0141470D01*
X0019205Y0141542D01*
X0019066Y0141619D01*
X0018930Y0141698D01*
X0018795Y0141782D01*
X0018662Y0141868D01*
X0018532Y0141958D01*
X0018404Y0142051D01*
X0018278Y0142147D01*
X0018155Y0142247D01*
X0018034Y0142349D01*
X0017916Y0142454D01*
X0017801Y0142563D01*
X0017688Y0142674D01*
X0017578Y0142788D01*
X0017471Y0142905D01*
X0017367Y0143024D01*
X0017266Y0143146D01*
X0017169Y0143271D01*
X0017074Y0143398D01*
X0016983Y0143527D01*
X0016894Y0143658D01*
X0016810Y0143792D01*
X0016728Y0143928D01*
X0016650Y0144065D01*
X0016576Y0144205D01*
X0016505Y0144347D01*
X0016437Y0144490D01*
X0016373Y0144635D01*
X0016313Y0144781D01*
X0016257Y0144929D01*
X0016204Y0145078D01*
X0016155Y0145229D01*
X0016110Y0145381D01*
X0016069Y0145534D01*
X0016031Y0145687D01*
X0015998Y0145842D01*
X0015968Y0145998D01*
X0015942Y0146154D01*
X0015921Y0146311D01*
X0015903Y0146468D01*
X0015889Y0146626D01*
X0015879Y0146784D01*
X0015873Y0146942D01*
X0015871Y0147100D01*
M02*
