%
M48
M72
T01C0.0130
T02C0.0138
T03C0.0315
T04C0.0400
T05C0.1260
%
T01
X7092Y7960
X7467Y5335
X6592Y11335
T02
X5647Y12230
X6887Y13690
X7677Y13250
X5747Y14110
X3997Y12060
X2297Y9550
X3057Y7450
X4457Y9360
X9677Y8330
X10647Y8560
X10207Y11600
T03
X11937Y11856
X11937Y12644
X12377Y4370
X11393Y4370
X10408Y4370
X9424Y4370
X9444Y2300
X10428Y2300
X11413Y2300
X12397Y2300
X7347Y2310
X6363Y2310
X5378Y2310
X4394Y2310
X2637Y4296
X2637Y5084
X4401Y4375
X5385Y4375
X6370Y4375
X7354Y4375
T04
X11600Y8005
X11600Y9005
X12600Y9005
X12600Y8005
X12600Y10005
X11600Y10005
T05
X2217Y2210
X2217Y14710
M30
