G75*
%MOIN*%
%OFA0B0*%
%FSLAX25Y25*%
%IPPOS*%
%LPD*%
%AMOC8*
5,1,8,0,0,1.08239X$1,22.5*
%
%ADD10C,0.13198*%
%ADD11C,0.08000*%
%ADD12R,0.03946X0.07293*%
%ADD13C,0.05324*%
%ADD14C,0.06200*%
%ADD15C,0.03378*%
%ADD16C,0.03300*%
D10*
X0022170Y0022100D03*
X0022170Y0147100D03*
D11*
X0116000Y0100050D03*
X0126000Y0100050D03*
X0126000Y0090050D03*
X0126000Y0080050D03*
X0116000Y0080050D03*
X0116000Y0090050D03*
D12*
X0104722Y0068098D03*
X0112596Y0056287D03*
X0096848Y0056287D03*
X0088974Y0068098D03*
X0081100Y0056287D03*
X0073226Y0068098D03*
X0065352Y0056287D03*
X0057478Y0068098D03*
X0049604Y0056287D03*
X0041730Y0068098D03*
X0049604Y0142902D03*
X0057478Y0154713D03*
X0065352Y0142902D03*
X0073226Y0154713D03*
X0081100Y0142902D03*
X0088974Y0154713D03*
X0096848Y0142902D03*
X0104722Y0154713D03*
X0112596Y0142902D03*
X0041730Y0154713D03*
D13*
X0044012Y0046112D02*
X0044012Y0041388D01*
X0053855Y0041388D02*
X0053855Y0046112D01*
X0063697Y0046112D02*
X0063697Y0041388D01*
X0073540Y0041388D02*
X0073540Y0046112D01*
X0073470Y0025462D02*
X0073470Y0020738D01*
X0063627Y0020738D02*
X0063627Y0025462D01*
X0053785Y0025462D02*
X0053785Y0020738D01*
X0043942Y0020738D02*
X0043942Y0025462D01*
X0094442Y0025362D02*
X0094442Y0020638D01*
X0104285Y0020638D02*
X0104285Y0025362D01*
X0114127Y0025362D02*
X0114127Y0020638D01*
X0123970Y0020638D02*
X0123970Y0025362D01*
X0123770Y0041338D02*
X0123770Y0046062D01*
X0113927Y0046062D02*
X0113927Y0041338D01*
X0104085Y0041338D02*
X0104085Y0046062D01*
X0094242Y0046062D02*
X0094242Y0041338D01*
D14*
X0026370Y0042963D03*
X0026370Y0050837D03*
X0119370Y0118563D03*
X0119370Y0126437D03*
D15*
X0102070Y0116000D03*
X0076770Y0132500D03*
X0068870Y0136900D03*
X0057470Y0141100D03*
X0056470Y0122300D03*
X0039970Y0120600D03*
X0022970Y0095500D03*
X0030570Y0074500D03*
X0044570Y0093600D03*
X0096770Y0083300D03*
X0106470Y0085600D03*
D16*
X0074670Y0053350D03*
X0070920Y0079600D03*
X0065920Y0113350D03*
M02*
