G75*
%MOIN*%
%OFA0B0*%
%FSLAX25Y25*%
%IPPOS*%
%LPD*%
%AMOC8*
5,1,8,0,0,1.08239X$1,22.5*
%
%ADD10C,0.07400*%
%ADD11R,0.03346X0.06693*%
%ADD12C,0.04724*%
%ADD13C,0.05600*%
%ADD14C,0.00600*%
%ADD15C,0.02778*%
%ADD16C,0.00800*%
%ADD17C,0.02700*%
D10*
X0116000Y0080050D03*
X0116000Y0090050D03*
X0126000Y0090050D03*
X0126000Y0080050D03*
X0126000Y0100050D03*
X0116000Y0100050D03*
D11*
X0104722Y0068098D03*
X0112596Y0056287D03*
X0096848Y0056287D03*
X0088974Y0068098D03*
X0081100Y0056287D03*
X0073226Y0068098D03*
X0065352Y0056287D03*
X0057478Y0068098D03*
X0049604Y0056287D03*
X0041730Y0068098D03*
X0049604Y0142902D03*
X0057478Y0154713D03*
X0065352Y0142902D03*
X0073226Y0154713D03*
X0081100Y0142902D03*
X0088974Y0154713D03*
X0096848Y0142902D03*
X0104722Y0154713D03*
X0112596Y0142902D03*
X0041730Y0154713D03*
D12*
X0044012Y0046112D02*
X0044012Y0041388D01*
X0053855Y0041388D02*
X0053855Y0046112D01*
X0063697Y0046112D02*
X0063697Y0041388D01*
X0073540Y0041388D02*
X0073540Y0046112D01*
X0073470Y0025462D02*
X0073470Y0020738D01*
X0063627Y0020738D02*
X0063627Y0025462D01*
X0053785Y0025462D02*
X0053785Y0020738D01*
X0043942Y0020738D02*
X0043942Y0025462D01*
X0094442Y0025362D02*
X0094442Y0020638D01*
X0104285Y0020638D02*
X0104285Y0025362D01*
X0114127Y0025362D02*
X0114127Y0020638D01*
X0123970Y0020638D02*
X0123970Y0025362D01*
X0123770Y0041338D02*
X0123770Y0046062D01*
X0113927Y0046062D02*
X0113927Y0041338D01*
X0104085Y0041338D02*
X0104085Y0046062D01*
X0094242Y0046062D02*
X0094242Y0041338D01*
D13*
X0026370Y0042963D03*
X0026370Y0050837D03*
X0119370Y0118563D03*
X0119370Y0126437D03*
D14*
X0011470Y0157800D02*
X0011470Y0011400D01*
X0132870Y0011400D01*
X0132870Y0157800D01*
X0107495Y0157800D01*
X0107495Y0150910D01*
X0106851Y0150266D01*
X0102593Y0150266D01*
X0101949Y0150910D01*
X0101949Y0157800D01*
X0091747Y0157800D01*
X0091747Y0150910D01*
X0091103Y0150266D01*
X0086845Y0150266D01*
X0086201Y0150910D01*
X0086201Y0157800D01*
X0075999Y0157800D01*
X0075999Y0150910D01*
X0075355Y0150266D01*
X0071097Y0150266D01*
X0070453Y0150910D01*
X0070453Y0157800D01*
X0060251Y0157800D01*
X0060251Y0150910D01*
X0059607Y0150266D01*
X0058870Y0150266D01*
X0058870Y0143214D01*
X0058880Y0143210D01*
X0059580Y0142510D01*
X0059959Y0141595D01*
X0059959Y0140605D01*
X0059580Y0139690D01*
X0058880Y0138990D01*
X0057965Y0138611D01*
X0056975Y0138611D01*
X0056060Y0138990D01*
X0055360Y0139690D01*
X0054981Y0140605D01*
X0054981Y0141595D01*
X0055360Y0142510D01*
X0056060Y0143210D01*
X0056070Y0143214D01*
X0056070Y0150266D01*
X0055349Y0150266D01*
X0054705Y0150910D01*
X0054705Y0157800D01*
X0044503Y0157800D01*
X0044503Y0150910D01*
X0043859Y0150266D01*
X0043230Y0150266D01*
X0043230Y0123161D01*
X0043270Y0123121D01*
X0043270Y0121779D01*
X0042459Y0120968D01*
X0042459Y0120105D01*
X0042080Y0119190D01*
X0041380Y0118490D01*
X0040465Y0118111D01*
X0039475Y0118111D01*
X0038560Y0118490D01*
X0037860Y0119190D01*
X0037481Y0120105D01*
X0037481Y0121095D01*
X0037860Y0122010D01*
X0038560Y0122710D01*
X0039475Y0123089D01*
X0040230Y0123089D01*
X0040230Y0150266D01*
X0039601Y0150266D01*
X0038957Y0150910D01*
X0038957Y0157800D01*
X0011470Y0157800D01*
X0011470Y0157432D02*
X0038957Y0157432D01*
X0038957Y0156834D02*
X0011470Y0156834D01*
X0011470Y0156235D02*
X0038957Y0156235D01*
X0038957Y0155637D02*
X0011470Y0155637D01*
X0011470Y0155038D02*
X0020170Y0155038D01*
X0020559Y0155199D02*
X0017582Y0153966D01*
X0015304Y0151688D01*
X0014071Y0148711D01*
X0014071Y0145489D01*
X0015304Y0142512D01*
X0017582Y0140234D01*
X0020559Y0139001D01*
X0023781Y0139001D01*
X0026758Y0140234D01*
X0029036Y0142512D01*
X0030269Y0145489D01*
X0030269Y0148711D01*
X0029036Y0151688D01*
X0026758Y0153966D01*
X0023781Y0155199D01*
X0020559Y0155199D01*
X0018725Y0154440D02*
X0011470Y0154440D01*
X0011470Y0153841D02*
X0017457Y0153841D01*
X0016859Y0153243D02*
X0011470Y0153243D01*
X0011470Y0152644D02*
X0016260Y0152644D01*
X0015662Y0152046D02*
X0011470Y0152046D01*
X0011470Y0151447D02*
X0015204Y0151447D01*
X0014956Y0150849D02*
X0011470Y0150849D01*
X0011470Y0150250D02*
X0014708Y0150250D01*
X0014460Y0149652D02*
X0011470Y0149652D01*
X0011470Y0149053D02*
X0014212Y0149053D01*
X0014071Y0148455D02*
X0011470Y0148455D01*
X0011470Y0147856D02*
X0014071Y0147856D01*
X0014071Y0147258D02*
X0011470Y0147258D01*
X0011470Y0146659D02*
X0014071Y0146659D01*
X0014071Y0146061D02*
X0011470Y0146061D01*
X0011470Y0145462D02*
X0014082Y0145462D01*
X0014330Y0144864D02*
X0011470Y0144864D01*
X0011470Y0144265D02*
X0014578Y0144265D01*
X0014826Y0143667D02*
X0011470Y0143667D01*
X0011470Y0143068D02*
X0015074Y0143068D01*
X0015346Y0142470D02*
X0011470Y0142470D01*
X0011470Y0141871D02*
X0015945Y0141871D01*
X0016543Y0141272D02*
X0011470Y0141272D01*
X0011470Y0140674D02*
X0017142Y0140674D01*
X0017964Y0140075D02*
X0011470Y0140075D01*
X0011470Y0139477D02*
X0019409Y0139477D01*
X0024931Y0139477D02*
X0040230Y0139477D01*
X0040230Y0140075D02*
X0026375Y0140075D01*
X0027198Y0140674D02*
X0040230Y0140674D01*
X0040230Y0141272D02*
X0027796Y0141272D01*
X0028395Y0141871D02*
X0040230Y0141871D01*
X0040230Y0142470D02*
X0028993Y0142470D01*
X0029266Y0143068D02*
X0040230Y0143068D01*
X0040230Y0143667D02*
X0029514Y0143667D01*
X0029762Y0144265D02*
X0040230Y0144265D01*
X0040230Y0144864D02*
X0030010Y0144864D01*
X0030258Y0145462D02*
X0040230Y0145462D01*
X0040230Y0146061D02*
X0030269Y0146061D01*
X0030269Y0146659D02*
X0040230Y0146659D01*
X0040230Y0147258D02*
X0030269Y0147258D01*
X0030269Y0147856D02*
X0040230Y0147856D01*
X0040230Y0148455D02*
X0030269Y0148455D01*
X0030127Y0149053D02*
X0040230Y0149053D01*
X0040230Y0149652D02*
X0029880Y0149652D01*
X0029632Y0150250D02*
X0040230Y0150250D01*
X0039018Y0150849D02*
X0029384Y0150849D01*
X0029136Y0151447D02*
X0038957Y0151447D01*
X0038957Y0152046D02*
X0028678Y0152046D01*
X0028080Y0152644D02*
X0038957Y0152644D01*
X0038957Y0153243D02*
X0027481Y0153243D01*
X0026883Y0153841D02*
X0038957Y0153841D01*
X0038957Y0154440D02*
X0025614Y0154440D01*
X0024170Y0155038D02*
X0038957Y0155038D01*
X0043230Y0150250D02*
X0056070Y0150250D01*
X0056070Y0149652D02*
X0043230Y0149652D01*
X0043230Y0149053D02*
X0056070Y0149053D01*
X0056070Y0148455D02*
X0043230Y0148455D01*
X0043230Y0147856D02*
X0056070Y0147856D01*
X0056070Y0147258D02*
X0051823Y0147258D01*
X0051733Y0147348D02*
X0047475Y0147348D01*
X0046831Y0146704D01*
X0046831Y0139099D01*
X0047475Y0138455D01*
X0051733Y0138455D01*
X0051902Y0138624D01*
X0055025Y0135500D01*
X0066756Y0135500D01*
X0066760Y0135490D01*
X0067460Y0134790D01*
X0068375Y0134411D01*
X0069365Y0134411D01*
X0070280Y0134790D01*
X0070980Y0135490D01*
X0071359Y0136405D01*
X0071359Y0137395D01*
X0070980Y0138310D01*
X0070280Y0139010D01*
X0069365Y0139389D01*
X0068375Y0139389D01*
X0068125Y0139285D01*
X0068125Y0146704D01*
X0067481Y0147348D01*
X0063223Y0147348D01*
X0062579Y0146704D01*
X0062579Y0139099D01*
X0063223Y0138455D01*
X0066905Y0138455D01*
X0066760Y0138310D01*
X0066756Y0138300D01*
X0056185Y0138300D01*
X0052377Y0142108D01*
X0052377Y0146704D01*
X0051733Y0147348D01*
X0052377Y0146659D02*
X0056070Y0146659D01*
X0056070Y0146061D02*
X0052377Y0146061D01*
X0052377Y0145462D02*
X0056070Y0145462D01*
X0056070Y0144864D02*
X0052377Y0144864D01*
X0052377Y0144265D02*
X0056070Y0144265D01*
X0056070Y0143667D02*
X0052377Y0143667D01*
X0052377Y0143068D02*
X0055918Y0143068D01*
X0055343Y0142470D02*
X0052377Y0142470D01*
X0052614Y0141871D02*
X0055095Y0141871D01*
X0054981Y0141272D02*
X0053213Y0141272D01*
X0053811Y0140674D02*
X0054981Y0140674D01*
X0055200Y0140075D02*
X0054410Y0140075D01*
X0055008Y0139477D02*
X0055573Y0139477D01*
X0055607Y0138878D02*
X0056329Y0138878D01*
X0057470Y0141100D02*
X0057470Y0154705D01*
X0057478Y0154713D01*
X0060251Y0154440D02*
X0070453Y0154440D01*
X0070453Y0155038D02*
X0060251Y0155038D01*
X0060251Y0155637D02*
X0070453Y0155637D01*
X0070453Y0156235D02*
X0060251Y0156235D01*
X0060251Y0156834D02*
X0070453Y0156834D01*
X0070453Y0157432D02*
X0060251Y0157432D01*
X0060251Y0153841D02*
X0070453Y0153841D01*
X0070453Y0153243D02*
X0060251Y0153243D01*
X0060251Y0152644D02*
X0070453Y0152644D01*
X0070453Y0152046D02*
X0060251Y0152046D01*
X0060251Y0151447D02*
X0070453Y0151447D01*
X0070514Y0150849D02*
X0060189Y0150849D01*
X0058870Y0150250D02*
X0132870Y0150250D01*
X0132870Y0149652D02*
X0058870Y0149652D01*
X0058870Y0149053D02*
X0132870Y0149053D01*
X0132870Y0148455D02*
X0058870Y0148455D01*
X0058870Y0147856D02*
X0132870Y0147856D01*
X0132870Y0147258D02*
X0115098Y0147258D01*
X0115067Y0147288D02*
X0114771Y0147459D01*
X0114440Y0147548D01*
X0112896Y0147548D01*
X0112896Y0143202D01*
X0112296Y0143202D01*
X0112296Y0147548D01*
X0110752Y0147548D01*
X0110421Y0147459D01*
X0110124Y0147288D01*
X0109882Y0147046D01*
X0109711Y0146750D01*
X0109623Y0146419D01*
X0109623Y0143202D01*
X0112296Y0143202D01*
X0112296Y0142602D01*
X0109623Y0142602D01*
X0109623Y0139384D01*
X0109711Y0139053D01*
X0109882Y0138757D01*
X0110124Y0138515D01*
X0110421Y0138344D01*
X0110752Y0138255D01*
X0112296Y0138255D01*
X0112296Y0142602D01*
X0112896Y0142602D01*
X0112896Y0143202D01*
X0115569Y0143202D01*
X0115569Y0146419D01*
X0115481Y0146750D01*
X0115309Y0147046D01*
X0115067Y0147288D01*
X0115505Y0146659D02*
X0132870Y0146659D01*
X0132870Y0146061D02*
X0115569Y0146061D01*
X0115569Y0145462D02*
X0132870Y0145462D01*
X0132870Y0144864D02*
X0115569Y0144864D01*
X0115569Y0144265D02*
X0132870Y0144265D01*
X0132870Y0143667D02*
X0115569Y0143667D01*
X0115569Y0142602D02*
X0112896Y0142602D01*
X0112896Y0138255D01*
X0114440Y0138255D01*
X0114771Y0138344D01*
X0115067Y0138515D01*
X0115309Y0138757D01*
X0115481Y0139053D01*
X0115569Y0139384D01*
X0115569Y0142602D01*
X0115569Y0142470D02*
X0132870Y0142470D01*
X0132870Y0143068D02*
X0112896Y0143068D01*
X0112896Y0142470D02*
X0112296Y0142470D01*
X0112296Y0143068D02*
X0099621Y0143068D01*
X0099621Y0142470D02*
X0109623Y0142470D01*
X0109623Y0141871D02*
X0099621Y0141871D01*
X0099621Y0141272D02*
X0109623Y0141272D01*
X0109623Y0140674D02*
X0099621Y0140674D01*
X0099621Y0140075D02*
X0109623Y0140075D01*
X0109623Y0139477D02*
X0099621Y0139477D01*
X0099621Y0139099D02*
X0099621Y0146704D01*
X0098977Y0147348D01*
X0094719Y0147348D01*
X0094075Y0146704D01*
X0094075Y0139099D01*
X0094719Y0138455D01*
X0098977Y0138455D01*
X0099621Y0139099D01*
X0099400Y0138878D02*
X0109812Y0138878D01*
X0110659Y0138280D02*
X0070992Y0138280D01*
X0071240Y0137681D02*
X0132870Y0137681D01*
X0132870Y0137083D02*
X0071359Y0137083D01*
X0071359Y0136484D02*
X0132870Y0136484D01*
X0132870Y0135886D02*
X0071144Y0135886D01*
X0070777Y0135287D02*
X0132870Y0135287D01*
X0132870Y0134689D02*
X0077990Y0134689D01*
X0078180Y0134610D02*
X0077265Y0134989D01*
X0076275Y0134989D01*
X0075360Y0134610D01*
X0074660Y0133910D01*
X0074656Y0133900D01*
X0064390Y0133900D01*
X0055890Y0125400D01*
X0055070Y0124580D01*
X0055070Y0124414D01*
X0055060Y0124410D01*
X0054360Y0123710D01*
X0053981Y0122795D01*
X0053981Y0121805D01*
X0054360Y0120890D01*
X0055060Y0120190D01*
X0055975Y0119811D01*
X0056965Y0119811D01*
X0057880Y0120190D01*
X0058580Y0120890D01*
X0058959Y0121805D01*
X0058959Y0122795D01*
X0058580Y0123710D01*
X0058370Y0123920D01*
X0065550Y0131100D01*
X0074656Y0131100D01*
X0074660Y0131090D01*
X0075360Y0130390D01*
X0076275Y0130011D01*
X0077265Y0130011D01*
X0078180Y0130390D01*
X0078880Y0131090D01*
X0079259Y0132005D01*
X0079259Y0132995D01*
X0078880Y0133910D01*
X0078180Y0134610D01*
X0078700Y0134090D02*
X0132870Y0134090D01*
X0132870Y0133492D02*
X0079053Y0133492D01*
X0079259Y0132893D02*
X0132870Y0132893D01*
X0132870Y0132295D02*
X0079259Y0132295D01*
X0079131Y0131696D02*
X0132870Y0131696D01*
X0132870Y0131098D02*
X0078883Y0131098D01*
X0078289Y0130499D02*
X0118809Y0130499D01*
X0119047Y0130537D02*
X0118410Y0130436D01*
X0117796Y0130237D01*
X0117221Y0129944D01*
X0116699Y0129564D01*
X0116243Y0129108D01*
X0115863Y0128586D01*
X0115570Y0128011D01*
X0115371Y0127397D01*
X0115270Y0126760D01*
X0115270Y0126737D01*
X0119070Y0126737D01*
X0119070Y0130537D01*
X0119047Y0130537D01*
X0119070Y0130499D02*
X0119670Y0130499D01*
X0119670Y0130537D02*
X0119670Y0126737D01*
X0123470Y0126737D01*
X0123470Y0126760D01*
X0123369Y0127397D01*
X0123170Y0128011D01*
X0122877Y0128586D01*
X0122497Y0129108D01*
X0122041Y0129564D01*
X0121519Y0129944D01*
X0120944Y0130237D01*
X0120330Y0130436D01*
X0119693Y0130537D01*
X0119670Y0130537D01*
X0119931Y0130499D02*
X0132870Y0130499D01*
X0132870Y0129901D02*
X0121578Y0129901D01*
X0122303Y0129302D02*
X0132870Y0129302D01*
X0132870Y0128704D02*
X0122791Y0128704D01*
X0123121Y0128105D02*
X0132870Y0128105D01*
X0132870Y0127507D02*
X0123333Y0127507D01*
X0123446Y0126908D02*
X0132870Y0126908D01*
X0132870Y0126310D02*
X0119670Y0126310D01*
X0119670Y0126137D02*
X0119670Y0126737D01*
X0119070Y0126737D01*
X0119070Y0126137D01*
X0115270Y0126137D01*
X0115270Y0126114D01*
X0115371Y0125477D01*
X0115570Y0124863D01*
X0115863Y0124288D01*
X0116243Y0123766D01*
X0116699Y0123310D01*
X0117221Y0122930D01*
X0117796Y0122637D01*
X0118410Y0122438D01*
X0118500Y0122424D01*
X0117161Y0121869D01*
X0116064Y0120772D01*
X0115470Y0119339D01*
X0115470Y0117787D01*
X0116064Y0116354D01*
X0117161Y0115257D01*
X0118594Y0114663D01*
X0120146Y0114663D01*
X0121579Y0115257D01*
X0122676Y0116354D01*
X0123270Y0117787D01*
X0123270Y0119339D01*
X0122676Y0120772D01*
X0121579Y0121869D01*
X0120240Y0122424D01*
X0120330Y0122438D01*
X0120944Y0122637D01*
X0121519Y0122930D01*
X0122041Y0123310D01*
X0122497Y0123766D01*
X0122877Y0124288D01*
X0123170Y0124863D01*
X0123369Y0125477D01*
X0123470Y0126114D01*
X0123470Y0126137D01*
X0119670Y0126137D01*
X0119070Y0126310D02*
X0060760Y0126310D01*
X0061358Y0126908D02*
X0115293Y0126908D01*
X0115407Y0127507D02*
X0061957Y0127507D01*
X0062555Y0128105D02*
X0115618Y0128105D01*
X0115949Y0128704D02*
X0063154Y0128704D01*
X0063752Y0129302D02*
X0116437Y0129302D01*
X0117162Y0129901D02*
X0064351Y0129901D01*
X0064949Y0130499D02*
X0075251Y0130499D01*
X0074657Y0131098D02*
X0065548Y0131098D01*
X0064970Y0132500D02*
X0056470Y0124000D01*
X0056470Y0122300D01*
X0054197Y0123317D02*
X0043230Y0123317D01*
X0043230Y0123916D02*
X0054566Y0123916D01*
X0055070Y0124514D02*
X0043230Y0124514D01*
X0043230Y0125113D02*
X0055603Y0125113D01*
X0056201Y0125711D02*
X0043230Y0125711D01*
X0043230Y0126310D02*
X0056800Y0126310D01*
X0057398Y0126908D02*
X0043230Y0126908D01*
X0043230Y0127507D02*
X0057997Y0127507D01*
X0058595Y0128105D02*
X0043230Y0128105D01*
X0043230Y0128704D02*
X0059194Y0128704D01*
X0059792Y0129302D02*
X0043230Y0129302D01*
X0043230Y0129901D02*
X0060391Y0129901D01*
X0060989Y0130499D02*
X0043230Y0130499D01*
X0043230Y0131098D02*
X0061588Y0131098D01*
X0062186Y0131696D02*
X0043230Y0131696D01*
X0043230Y0132295D02*
X0062785Y0132295D01*
X0063383Y0132893D02*
X0043230Y0132893D01*
X0043230Y0133492D02*
X0063982Y0133492D01*
X0064970Y0132500D02*
X0076770Y0132500D01*
X0074840Y0134090D02*
X0043230Y0134090D01*
X0043230Y0134689D02*
X0067704Y0134689D01*
X0066963Y0135287D02*
X0043230Y0135287D01*
X0043230Y0135886D02*
X0054640Y0135886D01*
X0054041Y0136484D02*
X0043230Y0136484D01*
X0043230Y0137083D02*
X0053443Y0137083D01*
X0052844Y0137681D02*
X0043230Y0137681D01*
X0043230Y0138280D02*
X0052246Y0138280D01*
X0055605Y0136900D02*
X0049604Y0142902D01*
X0046831Y0143068D02*
X0043230Y0143068D01*
X0043230Y0142470D02*
X0046831Y0142470D01*
X0046831Y0141871D02*
X0043230Y0141871D01*
X0043230Y0141272D02*
X0046831Y0141272D01*
X0046831Y0140674D02*
X0043230Y0140674D01*
X0043230Y0140075D02*
X0046831Y0140075D01*
X0046831Y0139477D02*
X0043230Y0139477D01*
X0043230Y0138878D02*
X0047052Y0138878D01*
X0046831Y0143667D02*
X0043230Y0143667D01*
X0043230Y0144265D02*
X0046831Y0144265D01*
X0046831Y0144864D02*
X0043230Y0144864D01*
X0043230Y0145462D02*
X0046831Y0145462D01*
X0046831Y0146061D02*
X0043230Y0146061D01*
X0043230Y0146659D02*
X0046831Y0146659D01*
X0047385Y0147258D02*
X0043230Y0147258D01*
X0044441Y0150849D02*
X0054766Y0150849D01*
X0054705Y0151447D02*
X0044503Y0151447D01*
X0044503Y0152046D02*
X0054705Y0152046D01*
X0054705Y0152644D02*
X0044503Y0152644D01*
X0044503Y0153243D02*
X0054705Y0153243D01*
X0054705Y0153841D02*
X0044503Y0153841D01*
X0044503Y0154440D02*
X0054705Y0154440D01*
X0054705Y0155038D02*
X0044503Y0155038D01*
X0044503Y0155637D02*
X0054705Y0155637D01*
X0054705Y0156235D02*
X0044503Y0156235D01*
X0044503Y0156834D02*
X0054705Y0156834D01*
X0054705Y0157432D02*
X0044503Y0157432D01*
X0058870Y0147258D02*
X0063133Y0147258D01*
X0062579Y0146659D02*
X0058870Y0146659D01*
X0058870Y0146061D02*
X0062579Y0146061D01*
X0062579Y0145462D02*
X0058870Y0145462D01*
X0058870Y0144864D02*
X0062579Y0144864D01*
X0062579Y0144265D02*
X0058870Y0144265D01*
X0058870Y0143667D02*
X0062579Y0143667D01*
X0062579Y0143068D02*
X0059022Y0143068D01*
X0059597Y0142470D02*
X0062579Y0142470D01*
X0062579Y0141871D02*
X0059845Y0141871D01*
X0059959Y0141272D02*
X0062579Y0141272D01*
X0062579Y0140674D02*
X0059959Y0140674D01*
X0059740Y0140075D02*
X0062579Y0140075D01*
X0062579Y0139477D02*
X0059367Y0139477D01*
X0058611Y0138878D02*
X0062800Y0138878D01*
X0068125Y0139477D02*
X0078327Y0139477D01*
X0078327Y0139099D02*
X0078971Y0138455D01*
X0083229Y0138455D01*
X0083873Y0139099D01*
X0083873Y0146704D01*
X0083229Y0147348D01*
X0078971Y0147348D01*
X0078327Y0146704D01*
X0078327Y0139099D01*
X0078548Y0138878D02*
X0070411Y0138878D01*
X0068870Y0136900D02*
X0055605Y0136900D01*
X0060161Y0125711D02*
X0115334Y0125711D01*
X0115489Y0125113D02*
X0059563Y0125113D01*
X0058964Y0124514D02*
X0115748Y0124514D01*
X0116134Y0123916D02*
X0058374Y0123916D01*
X0058743Y0123317D02*
X0116692Y0123317D01*
X0117637Y0122719D02*
X0058959Y0122719D01*
X0058959Y0122120D02*
X0117766Y0122120D01*
X0116813Y0121522D02*
X0058842Y0121522D01*
X0058594Y0120923D02*
X0116215Y0120923D01*
X0115878Y0120325D02*
X0058014Y0120325D01*
X0054925Y0120325D02*
X0042459Y0120325D01*
X0042459Y0120923D02*
X0054346Y0120923D01*
X0054098Y0121522D02*
X0043013Y0121522D01*
X0043270Y0122120D02*
X0053981Y0122120D01*
X0053981Y0122719D02*
X0043270Y0122719D01*
X0040230Y0123317D02*
X0011470Y0123317D01*
X0011470Y0122719D02*
X0038581Y0122719D01*
X0037970Y0122120D02*
X0011470Y0122120D01*
X0011470Y0121522D02*
X0037658Y0121522D01*
X0037481Y0120923D02*
X0011470Y0120923D01*
X0011470Y0120325D02*
X0037481Y0120325D01*
X0037638Y0119726D02*
X0011470Y0119726D01*
X0011470Y0119128D02*
X0037922Y0119128D01*
X0038521Y0118529D02*
X0011470Y0118529D01*
X0011470Y0117931D02*
X0115470Y0117931D01*
X0115470Y0118529D02*
X0041419Y0118529D01*
X0042017Y0119128D02*
X0115470Y0119128D01*
X0115630Y0119726D02*
X0042302Y0119726D01*
X0040230Y0123916D02*
X0011470Y0123916D01*
X0011470Y0124514D02*
X0040230Y0124514D01*
X0040230Y0125113D02*
X0011470Y0125113D01*
X0011470Y0125711D02*
X0040230Y0125711D01*
X0040230Y0126310D02*
X0011470Y0126310D01*
X0011470Y0126908D02*
X0040230Y0126908D01*
X0040230Y0127507D02*
X0011470Y0127507D01*
X0011470Y0128105D02*
X0040230Y0128105D01*
X0040230Y0128704D02*
X0011470Y0128704D01*
X0011470Y0129302D02*
X0040230Y0129302D01*
X0040230Y0129901D02*
X0011470Y0129901D01*
X0011470Y0130499D02*
X0040230Y0130499D01*
X0040230Y0131098D02*
X0011470Y0131098D01*
X0011470Y0131696D02*
X0040230Y0131696D01*
X0040230Y0132295D02*
X0011470Y0132295D01*
X0011470Y0132893D02*
X0040230Y0132893D01*
X0040230Y0133492D02*
X0011470Y0133492D01*
X0011470Y0134090D02*
X0040230Y0134090D01*
X0040230Y0134689D02*
X0011470Y0134689D01*
X0011470Y0135287D02*
X0040230Y0135287D01*
X0040230Y0135886D02*
X0011470Y0135886D01*
X0011470Y0136484D02*
X0040230Y0136484D01*
X0040230Y0137083D02*
X0011470Y0137083D01*
X0011470Y0137681D02*
X0040230Y0137681D01*
X0040230Y0138280D02*
X0011470Y0138280D01*
X0011470Y0138878D02*
X0040230Y0138878D01*
X0064043Y0114938D02*
X0011470Y0114938D01*
X0011470Y0115537D02*
X0064796Y0115537D01*
X0064532Y0115427D02*
X0063843Y0114738D01*
X0063470Y0113837D01*
X0063470Y0112880D01*
X0061590Y0111000D01*
X0060770Y0110180D01*
X0060770Y0062680D01*
X0055340Y0057250D01*
X0054520Y0056430D01*
X0054520Y0049574D01*
X0053166Y0049574D01*
X0051894Y0049047D01*
X0050920Y0048073D01*
X0050393Y0046801D01*
X0050393Y0040699D01*
X0050920Y0039427D01*
X0051894Y0038453D01*
X0053166Y0037926D01*
X0054544Y0037926D01*
X0055816Y0038453D01*
X0056790Y0039427D01*
X0057317Y0040699D01*
X0057317Y0046801D01*
X0057034Y0047484D01*
X0057320Y0047770D01*
X0057320Y0055270D01*
X0063570Y0061520D01*
X0063570Y0109020D01*
X0065450Y0110900D01*
X0066407Y0110900D01*
X0067308Y0111273D01*
X0067997Y0111962D01*
X0068370Y0112863D01*
X0068370Y0113837D01*
X0067997Y0114738D01*
X0067308Y0115427D01*
X0066407Y0115800D01*
X0065433Y0115800D01*
X0064532Y0115427D01*
X0063678Y0114339D02*
X0011470Y0114339D01*
X0011470Y0113741D02*
X0063470Y0113741D01*
X0063470Y0113142D02*
X0011470Y0113142D01*
X0011470Y0112544D02*
X0063134Y0112544D01*
X0062535Y0111945D02*
X0011470Y0111945D01*
X0011470Y0111347D02*
X0061937Y0111347D01*
X0061338Y0110748D02*
X0011470Y0110748D01*
X0011470Y0110150D02*
X0060770Y0110150D01*
X0060770Y0109551D02*
X0011470Y0109551D01*
X0011470Y0108953D02*
X0060770Y0108953D01*
X0060770Y0108354D02*
X0011470Y0108354D01*
X0011470Y0107756D02*
X0060770Y0107756D01*
X0060770Y0107157D02*
X0011470Y0107157D01*
X0011470Y0106559D02*
X0060770Y0106559D01*
X0060770Y0105960D02*
X0011470Y0105960D01*
X0011470Y0105362D02*
X0060770Y0105362D01*
X0060770Y0104763D02*
X0011470Y0104763D01*
X0011470Y0104165D02*
X0060770Y0104165D01*
X0060770Y0103566D02*
X0011470Y0103566D01*
X0011470Y0102968D02*
X0060770Y0102968D01*
X0060770Y0102369D02*
X0011470Y0102369D01*
X0011470Y0101771D02*
X0060770Y0101771D01*
X0060770Y0101172D02*
X0011470Y0101172D01*
X0011470Y0100574D02*
X0060770Y0100574D01*
X0060770Y0099975D02*
X0011470Y0099975D01*
X0011470Y0099377D02*
X0060770Y0099377D01*
X0060770Y0098778D02*
X0011470Y0098778D01*
X0011470Y0098180D02*
X0060770Y0098180D01*
X0060770Y0097581D02*
X0011470Y0097581D01*
X0011470Y0096983D02*
X0060770Y0096983D01*
X0060770Y0096384D02*
X0011470Y0096384D01*
X0011470Y0095786D02*
X0060770Y0095786D01*
X0060770Y0095187D02*
X0011470Y0095187D01*
X0011470Y0094589D02*
X0060770Y0094589D01*
X0060770Y0093990D02*
X0011470Y0093990D01*
X0011470Y0093392D02*
X0060770Y0093392D01*
X0060770Y0092793D02*
X0011470Y0092793D01*
X0011470Y0092195D02*
X0060770Y0092195D01*
X0060770Y0091596D02*
X0011470Y0091596D01*
X0011470Y0090998D02*
X0060770Y0090998D01*
X0060770Y0090399D02*
X0011470Y0090399D01*
X0011470Y0089801D02*
X0060770Y0089801D01*
X0060770Y0089202D02*
X0011470Y0089202D01*
X0011470Y0088603D02*
X0060770Y0088603D01*
X0060770Y0088005D02*
X0011470Y0088005D01*
X0011470Y0087406D02*
X0060770Y0087406D01*
X0060770Y0086808D02*
X0011470Y0086808D01*
X0011470Y0086209D02*
X0060770Y0086209D01*
X0060770Y0085611D02*
X0011470Y0085611D01*
X0011470Y0085012D02*
X0060770Y0085012D01*
X0060770Y0084414D02*
X0011470Y0084414D01*
X0011470Y0083815D02*
X0060770Y0083815D01*
X0060770Y0083217D02*
X0011470Y0083217D01*
X0011470Y0082618D02*
X0060770Y0082618D01*
X0060770Y0082020D02*
X0011470Y0082020D01*
X0011470Y0081421D02*
X0060770Y0081421D01*
X0060770Y0080823D02*
X0011470Y0080823D01*
X0011470Y0080224D02*
X0060770Y0080224D01*
X0060770Y0079626D02*
X0011470Y0079626D01*
X0011470Y0079027D02*
X0060770Y0079027D01*
X0060770Y0078429D02*
X0011470Y0078429D01*
X0011470Y0077830D02*
X0060770Y0077830D01*
X0060770Y0077232D02*
X0011470Y0077232D01*
X0011470Y0076633D02*
X0060770Y0076633D01*
X0060770Y0076035D02*
X0011470Y0076035D01*
X0011470Y0075436D02*
X0060770Y0075436D01*
X0060770Y0074838D02*
X0011470Y0074838D01*
X0011470Y0074239D02*
X0060770Y0074239D01*
X0060770Y0073641D02*
X0011470Y0073641D01*
X0011470Y0073042D02*
X0060770Y0073042D01*
X0060770Y0072444D02*
X0059708Y0072444D01*
X0059607Y0072545D02*
X0055349Y0072545D01*
X0054705Y0071901D01*
X0054705Y0064296D01*
X0055349Y0063652D01*
X0059607Y0063652D01*
X0060251Y0064296D01*
X0060251Y0071901D01*
X0059607Y0072545D01*
X0060251Y0071845D02*
X0060770Y0071845D01*
X0060770Y0071247D02*
X0060251Y0071247D01*
X0060251Y0070648D02*
X0060770Y0070648D01*
X0060770Y0070050D02*
X0060251Y0070050D01*
X0060251Y0069451D02*
X0060770Y0069451D01*
X0060770Y0068853D02*
X0060251Y0068853D01*
X0060251Y0068254D02*
X0060770Y0068254D01*
X0060770Y0067656D02*
X0060251Y0067656D01*
X0060251Y0067057D02*
X0060770Y0067057D01*
X0060770Y0066459D02*
X0060251Y0066459D01*
X0060251Y0065860D02*
X0060770Y0065860D01*
X0060770Y0065262D02*
X0060251Y0065262D01*
X0060251Y0064663D02*
X0060770Y0064663D01*
X0060770Y0064065D02*
X0060019Y0064065D01*
X0060770Y0063466D02*
X0011470Y0063466D01*
X0011470Y0062868D02*
X0060770Y0062868D01*
X0060359Y0062269D02*
X0011470Y0062269D01*
X0011470Y0061670D02*
X0059761Y0061670D01*
X0059162Y0061072D02*
X0011470Y0061072D01*
X0011470Y0060473D02*
X0047215Y0060473D01*
X0047475Y0060734D02*
X0046831Y0060089D01*
X0046831Y0052485D01*
X0047475Y0051841D01*
X0051733Y0051841D01*
X0052377Y0052485D01*
X0052377Y0060089D01*
X0051733Y0060734D01*
X0047475Y0060734D01*
X0046831Y0059875D02*
X0011470Y0059875D01*
X0011470Y0059276D02*
X0046831Y0059276D01*
X0046831Y0058678D02*
X0011470Y0058678D01*
X0011470Y0058079D02*
X0046831Y0058079D01*
X0046831Y0057481D02*
X0011470Y0057481D01*
X0011470Y0056882D02*
X0046831Y0056882D01*
X0046831Y0056284D02*
X0011470Y0056284D01*
X0011470Y0055685D02*
X0046831Y0055685D01*
X0046831Y0055087D02*
X0011470Y0055087D01*
X0011470Y0054488D02*
X0024994Y0054488D01*
X0025594Y0054737D02*
X0024161Y0054143D01*
X0023064Y0053046D01*
X0022470Y0051613D01*
X0022470Y0050061D01*
X0023064Y0048628D01*
X0024161Y0047531D01*
X0025500Y0046976D01*
X0025410Y0046962D01*
X0024796Y0046763D01*
X0024221Y0046470D01*
X0023699Y0046090D01*
X0023243Y0045634D01*
X0022863Y0045112D01*
X0022570Y0044537D01*
X0022371Y0043923D01*
X0022270Y0043286D01*
X0022270Y0043263D01*
X0026070Y0043263D01*
X0026070Y0042663D01*
X0026670Y0042663D01*
X0026670Y0043263D01*
X0030470Y0043263D01*
X0030470Y0043286D01*
X0030369Y0043923D01*
X0030170Y0044537D01*
X0029877Y0045112D01*
X0029497Y0045634D01*
X0029041Y0046090D01*
X0028519Y0046470D01*
X0027944Y0046763D01*
X0027330Y0046962D01*
X0027240Y0046976D01*
X0028579Y0047531D01*
X0029676Y0048628D01*
X0030270Y0050061D01*
X0030270Y0051613D01*
X0029676Y0053046D01*
X0028579Y0054143D01*
X0027146Y0054737D01*
X0025594Y0054737D01*
X0023907Y0053890D02*
X0011470Y0053890D01*
X0011470Y0053291D02*
X0023309Y0053291D01*
X0022917Y0052693D02*
X0011470Y0052693D01*
X0011470Y0052094D02*
X0022669Y0052094D01*
X0022470Y0051496D02*
X0011470Y0051496D01*
X0011470Y0050897D02*
X0022470Y0050897D01*
X0022470Y0050299D02*
X0011470Y0050299D01*
X0011470Y0049700D02*
X0022619Y0049700D01*
X0022867Y0049102D02*
X0011470Y0049102D01*
X0011470Y0048503D02*
X0023188Y0048503D01*
X0023787Y0047905D02*
X0011470Y0047905D01*
X0011470Y0047306D02*
X0024703Y0047306D01*
X0024688Y0046708D02*
X0011470Y0046708D01*
X0011470Y0046109D02*
X0023725Y0046109D01*
X0023153Y0045511D02*
X0011470Y0045511D01*
X0011470Y0044912D02*
X0022762Y0044912D01*
X0022498Y0044314D02*
X0011470Y0044314D01*
X0011470Y0043715D02*
X0022338Y0043715D01*
X0022270Y0042663D02*
X0022270Y0042640D01*
X0022371Y0042003D01*
X0022570Y0041389D01*
X0022863Y0040814D01*
X0023243Y0040292D01*
X0023699Y0039836D01*
X0024221Y0039456D01*
X0024796Y0039163D01*
X0025410Y0038964D01*
X0026047Y0038863D01*
X0026070Y0038863D01*
X0026070Y0042663D01*
X0022270Y0042663D01*
X0022289Y0042518D02*
X0011470Y0042518D01*
X0011470Y0041920D02*
X0022398Y0041920D01*
X0022605Y0041321D02*
X0011470Y0041321D01*
X0011470Y0040723D02*
X0022930Y0040723D01*
X0023411Y0040124D02*
X0011470Y0040124D01*
X0011470Y0039526D02*
X0024126Y0039526D01*
X0025643Y0038927D02*
X0011470Y0038927D01*
X0011470Y0038329D02*
X0042351Y0038329D01*
X0042051Y0038453D02*
X0043324Y0037926D01*
X0044701Y0037926D01*
X0045974Y0038453D01*
X0046947Y0039427D01*
X0047475Y0040699D01*
X0047475Y0046801D01*
X0046947Y0048073D01*
X0045974Y0049047D01*
X0044701Y0049574D01*
X0043324Y0049574D01*
X0042051Y0049047D01*
X0041077Y0048073D01*
X0040550Y0046801D01*
X0040550Y0040699D01*
X0041077Y0039427D01*
X0042051Y0038453D01*
X0041577Y0038927D02*
X0027097Y0038927D01*
X0027330Y0038964D02*
X0027944Y0039163D01*
X0028519Y0039456D01*
X0029041Y0039836D01*
X0029497Y0040292D01*
X0029877Y0040814D01*
X0030170Y0041389D01*
X0030369Y0042003D01*
X0030470Y0042640D01*
X0030470Y0042663D01*
X0026670Y0042663D01*
X0026670Y0038863D01*
X0026693Y0038863D01*
X0027330Y0038964D01*
X0026670Y0038927D02*
X0026070Y0038927D01*
X0026070Y0039526D02*
X0026670Y0039526D01*
X0026670Y0040124D02*
X0026070Y0040124D01*
X0026070Y0040723D02*
X0026670Y0040723D01*
X0026670Y0041321D02*
X0026070Y0041321D01*
X0026070Y0041920D02*
X0026670Y0041920D01*
X0026670Y0042518D02*
X0026070Y0042518D01*
X0026070Y0043117D02*
X0011470Y0043117D01*
X0011470Y0037730D02*
X0062197Y0037730D01*
X0062197Y0038262D02*
X0062197Y0028617D01*
X0061666Y0028397D01*
X0060692Y0027423D01*
X0060165Y0026151D01*
X0060165Y0020049D01*
X0060692Y0018777D01*
X0061666Y0017803D01*
X0062939Y0017276D01*
X0064316Y0017276D01*
X0065589Y0017803D01*
X0066125Y0018339D01*
X0067165Y0017259D01*
X0067165Y0017249D01*
X0067594Y0016812D01*
X0068020Y0016370D01*
X0068029Y0016370D01*
X0070470Y0013886D01*
X0070470Y0013879D01*
X0070906Y0013443D01*
X0071336Y0013005D01*
X0071343Y0013005D01*
X0071349Y0013000D01*
X0071964Y0013000D01*
X0072578Y0012995D01*
X0072584Y0013000D01*
X0111376Y0013000D01*
X0111479Y0012924D01*
X0111982Y0013000D01*
X0112491Y0013000D01*
X0112581Y0013090D01*
X0112708Y0013109D01*
X0113010Y0013519D01*
X0113370Y0013879D01*
X0113370Y0014006D01*
X0115267Y0016576D01*
X0115627Y0016936D01*
X0115627Y0017064D01*
X0115703Y0017166D01*
X0115650Y0017521D01*
X0116089Y0017703D01*
X0117063Y0018677D01*
X0117590Y0019949D01*
X0117590Y0026051D01*
X0117063Y0027323D01*
X0116089Y0028297D01*
X0115427Y0028571D01*
X0115427Y0038212D01*
X0115889Y0038403D01*
X0116863Y0039377D01*
X0117390Y0040649D01*
X0117390Y0046751D01*
X0116863Y0048023D01*
X0115889Y0048997D01*
X0114616Y0049524D01*
X0113239Y0049524D01*
X0111966Y0048997D01*
X0110992Y0048023D01*
X0110465Y0046751D01*
X0110465Y0040649D01*
X0110992Y0039377D01*
X0111966Y0038403D01*
X0112427Y0038212D01*
X0112427Y0028405D01*
X0112166Y0028297D01*
X0111192Y0027323D01*
X0110665Y0026051D01*
X0110665Y0019949D01*
X0111192Y0018677D01*
X0112166Y0017703D01*
X0112322Y0017638D01*
X0111113Y0016000D01*
X0072599Y0016000D01*
X0069746Y0018902D01*
X0067090Y0021664D01*
X0067090Y0026151D01*
X0066563Y0027423D01*
X0065589Y0028397D01*
X0065197Y0028559D01*
X0065197Y0038262D01*
X0065659Y0038453D01*
X0066633Y0039427D01*
X0067160Y0040699D01*
X0067160Y0046801D01*
X0066633Y0048073D01*
X0065659Y0049047D01*
X0064386Y0049574D01*
X0063009Y0049574D01*
X0061736Y0049047D01*
X0060762Y0048073D01*
X0060235Y0046801D01*
X0060235Y0040699D01*
X0060762Y0039427D01*
X0061736Y0038453D01*
X0062197Y0038262D01*
X0062036Y0038329D02*
X0055516Y0038329D01*
X0056290Y0038927D02*
X0061262Y0038927D01*
X0060721Y0039526D02*
X0056831Y0039526D01*
X0057079Y0040124D02*
X0060473Y0040124D01*
X0060235Y0040723D02*
X0057317Y0040723D01*
X0057317Y0041321D02*
X0060235Y0041321D01*
X0060235Y0041920D02*
X0057317Y0041920D01*
X0057317Y0042518D02*
X0060235Y0042518D01*
X0060235Y0043117D02*
X0057317Y0043117D01*
X0057317Y0043715D02*
X0060235Y0043715D01*
X0060235Y0044314D02*
X0057317Y0044314D01*
X0057317Y0044912D02*
X0060235Y0044912D01*
X0060235Y0045511D02*
X0057317Y0045511D01*
X0057317Y0046109D02*
X0060235Y0046109D01*
X0060235Y0046708D02*
X0057317Y0046708D01*
X0057108Y0047306D02*
X0060445Y0047306D01*
X0060692Y0047905D02*
X0057320Y0047905D01*
X0057320Y0048503D02*
X0061192Y0048503D01*
X0061868Y0049102D02*
X0057320Y0049102D01*
X0057320Y0049700D02*
X0072807Y0049700D01*
X0072472Y0049634D02*
X0071805Y0049358D01*
X0071205Y0048957D01*
X0070695Y0048447D01*
X0070295Y0047847D01*
X0070018Y0047180D01*
X0069878Y0046473D01*
X0069878Y0044050D01*
X0073240Y0044050D01*
X0073240Y0049774D01*
X0073179Y0049774D01*
X0072472Y0049634D01*
X0073240Y0049700D02*
X0073840Y0049700D01*
X0073840Y0049774D02*
X0073840Y0044050D01*
X0077202Y0044050D01*
X0077202Y0046473D01*
X0077061Y0047180D01*
X0076785Y0047847D01*
X0076385Y0048447D01*
X0075874Y0048957D01*
X0075275Y0049358D01*
X0074608Y0049634D01*
X0073901Y0049774D01*
X0073840Y0049774D01*
X0074273Y0049700D02*
X0076340Y0049700D01*
X0076938Y0049102D02*
X0075658Y0049102D01*
X0076328Y0048503D02*
X0077537Y0048503D01*
X0078135Y0047905D02*
X0076747Y0047905D01*
X0077009Y0047306D02*
X0078734Y0047306D01*
X0079332Y0046708D02*
X0077155Y0046708D01*
X0077202Y0046109D02*
X0079931Y0046109D01*
X0080529Y0045511D02*
X0077202Y0045511D01*
X0077202Y0044912D02*
X0081128Y0044912D01*
X0081726Y0044314D02*
X0077202Y0044314D01*
X0077202Y0043450D02*
X0073840Y0043450D01*
X0073840Y0044050D01*
X0073240Y0044050D01*
X0073240Y0043450D01*
X0073840Y0043450D01*
X0073840Y0037726D01*
X0073901Y0037726D01*
X0074608Y0037866D01*
X0075275Y0038142D01*
X0075874Y0038543D01*
X0076385Y0039053D01*
X0076785Y0039653D01*
X0077061Y0040320D01*
X0077202Y0041027D01*
X0077202Y0043450D01*
X0077202Y0043117D02*
X0082923Y0043117D01*
X0082325Y0043715D02*
X0073840Y0043715D01*
X0073840Y0043117D02*
X0073240Y0043117D01*
X0073240Y0043450D02*
X0073240Y0037726D01*
X0073179Y0037726D01*
X0072472Y0037866D01*
X0071805Y0038142D01*
X0071205Y0038543D01*
X0070695Y0039053D01*
X0070295Y0039653D01*
X0070018Y0040320D01*
X0069878Y0041027D01*
X0069878Y0043450D01*
X0073240Y0043450D01*
X0073240Y0043715D02*
X0067160Y0043715D01*
X0067160Y0043117D02*
X0069878Y0043117D01*
X0069878Y0042518D02*
X0067160Y0042518D01*
X0067160Y0041920D02*
X0069878Y0041920D01*
X0069878Y0041321D02*
X0067160Y0041321D01*
X0067160Y0040723D02*
X0069938Y0040723D01*
X0070099Y0040124D02*
X0066921Y0040124D01*
X0066673Y0039526D02*
X0070380Y0039526D01*
X0070822Y0038927D02*
X0066133Y0038927D01*
X0065359Y0038329D02*
X0071527Y0038329D01*
X0073157Y0037730D02*
X0065197Y0037730D01*
X0065197Y0037132D02*
X0088909Y0037132D01*
X0088310Y0037730D02*
X0073923Y0037730D01*
X0073840Y0037730D02*
X0073240Y0037730D01*
X0073240Y0038329D02*
X0073840Y0038329D01*
X0073840Y0038927D02*
X0073240Y0038927D01*
X0073240Y0039526D02*
X0073840Y0039526D01*
X0073840Y0040124D02*
X0073240Y0040124D01*
X0073240Y0040723D02*
X0073840Y0040723D01*
X0073840Y0041321D02*
X0073240Y0041321D01*
X0073240Y0041920D02*
X0073840Y0041920D01*
X0073840Y0042518D02*
X0073240Y0042518D01*
X0073240Y0044314D02*
X0073840Y0044314D01*
X0073840Y0044912D02*
X0073240Y0044912D01*
X0073240Y0045511D02*
X0073840Y0045511D01*
X0073840Y0046109D02*
X0073240Y0046109D01*
X0073240Y0046708D02*
X0073840Y0046708D01*
X0073840Y0047306D02*
X0073240Y0047306D01*
X0073240Y0047905D02*
X0073840Y0047905D01*
X0073840Y0048503D02*
X0073240Y0048503D01*
X0073240Y0049102D02*
X0073840Y0049102D01*
X0074183Y0050900D02*
X0075140Y0050900D01*
X0100823Y0025217D01*
X0100823Y0019949D01*
X0101350Y0018677D01*
X0102324Y0017703D01*
X0103596Y0017176D01*
X0104974Y0017176D01*
X0106246Y0017703D01*
X0107220Y0018677D01*
X0107747Y0019949D01*
X0107747Y0026051D01*
X0107220Y0027323D01*
X0106246Y0028297D01*
X0104974Y0028824D01*
X0103596Y0028824D01*
X0102324Y0028297D01*
X0102013Y0027987D01*
X0077120Y0052880D01*
X0077120Y0053837D01*
X0076747Y0054738D01*
X0076058Y0055427D01*
X0075157Y0055800D01*
X0074183Y0055800D01*
X0073282Y0055427D01*
X0072593Y0054738D01*
X0072220Y0053837D01*
X0072220Y0052863D01*
X0072593Y0051962D01*
X0073282Y0051273D01*
X0074183Y0050900D01*
X0075143Y0050897D02*
X0057320Y0050897D01*
X0057320Y0050299D02*
X0075741Y0050299D01*
X0077307Y0052693D02*
X0078327Y0052693D01*
X0078327Y0052485D02*
X0078971Y0051841D01*
X0083229Y0051841D01*
X0083873Y0052485D01*
X0083873Y0060089D01*
X0083229Y0060734D01*
X0078971Y0060734D01*
X0078327Y0060089D01*
X0078327Y0052485D01*
X0078718Y0052094D02*
X0077906Y0052094D01*
X0078504Y0051496D02*
X0093294Y0051496D01*
X0092696Y0052094D02*
X0083482Y0052094D01*
X0083873Y0052693D02*
X0092097Y0052693D01*
X0092020Y0052770D02*
X0095502Y0049288D01*
X0094931Y0049524D01*
X0093554Y0049524D01*
X0092281Y0048997D01*
X0091307Y0048023D01*
X0090780Y0046751D01*
X0090780Y0040649D01*
X0091307Y0039377D01*
X0092281Y0038403D01*
X0093554Y0037876D01*
X0094931Y0037876D01*
X0096204Y0038403D01*
X0097177Y0039377D01*
X0097705Y0040649D01*
X0097705Y0046751D01*
X0097468Y0047322D01*
X0100623Y0044167D01*
X0100623Y0040649D01*
X0101150Y0039377D01*
X0102124Y0038403D01*
X0103396Y0037876D01*
X0104774Y0037876D01*
X0106046Y0038403D01*
X0107020Y0039377D01*
X0107547Y0040649D01*
X0107547Y0046751D01*
X0107020Y0048023D01*
X0106046Y0048997D01*
X0104774Y0049524D01*
X0103396Y0049524D01*
X0102124Y0048997D01*
X0101150Y0048023D01*
X0101026Y0047724D01*
X0096909Y0051841D01*
X0098977Y0051841D01*
X0099621Y0052485D01*
X0099621Y0060089D01*
X0098977Y0060734D01*
X0094719Y0060734D01*
X0094075Y0060089D01*
X0094075Y0058425D01*
X0094000Y0058500D01*
X0088848Y0063652D01*
X0091103Y0063652D01*
X0091747Y0064296D01*
X0091747Y0071901D01*
X0091103Y0072545D01*
X0086845Y0072545D01*
X0086201Y0071901D01*
X0086201Y0066299D01*
X0073370Y0079130D01*
X0073370Y0080087D01*
X0072997Y0080988D01*
X0072308Y0081677D01*
X0071407Y0082050D01*
X0070433Y0082050D01*
X0069532Y0081677D01*
X0068843Y0080988D01*
X0068470Y0080087D01*
X0068470Y0079113D01*
X0068843Y0078212D01*
X0069532Y0077523D01*
X0070433Y0077150D01*
X0071390Y0077150D01*
X0092020Y0056520D01*
X0092020Y0052770D01*
X0092020Y0053291D02*
X0083873Y0053291D01*
X0083873Y0053890D02*
X0092020Y0053890D01*
X0092020Y0054488D02*
X0083873Y0054488D01*
X0083873Y0055087D02*
X0092020Y0055087D01*
X0092020Y0055685D02*
X0083873Y0055685D01*
X0083873Y0056284D02*
X0092020Y0056284D01*
X0091658Y0056882D02*
X0083873Y0056882D01*
X0083873Y0057481D02*
X0091059Y0057481D01*
X0090461Y0058079D02*
X0083873Y0058079D01*
X0083873Y0058678D02*
X0089862Y0058678D01*
X0089264Y0059276D02*
X0083873Y0059276D01*
X0083873Y0059875D02*
X0088665Y0059875D01*
X0088067Y0060473D02*
X0083489Y0060473D01*
X0085673Y0062868D02*
X0063570Y0062868D01*
X0063570Y0063466D02*
X0085074Y0063466D01*
X0084476Y0064065D02*
X0075767Y0064065D01*
X0075999Y0064296D02*
X0075999Y0071901D01*
X0075355Y0072545D01*
X0071097Y0072545D01*
X0070453Y0071901D01*
X0070453Y0064296D01*
X0071097Y0063652D01*
X0075355Y0063652D01*
X0075999Y0064296D01*
X0075999Y0064663D02*
X0083877Y0064663D01*
X0083278Y0065262D02*
X0075999Y0065262D01*
X0075999Y0065860D02*
X0082680Y0065860D01*
X0082081Y0066459D02*
X0075999Y0066459D01*
X0075999Y0067057D02*
X0081483Y0067057D01*
X0080884Y0067656D02*
X0075999Y0067656D01*
X0075999Y0068254D02*
X0080286Y0068254D01*
X0079687Y0068853D02*
X0075999Y0068853D01*
X0075999Y0069451D02*
X0079089Y0069451D01*
X0078490Y0070050D02*
X0075999Y0070050D01*
X0075999Y0070648D02*
X0077892Y0070648D01*
X0077293Y0071247D02*
X0075999Y0071247D01*
X0075999Y0071845D02*
X0076695Y0071845D01*
X0076096Y0072444D02*
X0075456Y0072444D01*
X0075498Y0073042D02*
X0063570Y0073042D01*
X0063570Y0072444D02*
X0070996Y0072444D01*
X0070453Y0071845D02*
X0063570Y0071845D01*
X0063570Y0071247D02*
X0070453Y0071247D01*
X0070453Y0070648D02*
X0063570Y0070648D01*
X0063570Y0070050D02*
X0070453Y0070050D01*
X0070453Y0069451D02*
X0063570Y0069451D01*
X0063570Y0068853D02*
X0070453Y0068853D01*
X0070453Y0068254D02*
X0063570Y0068254D01*
X0063570Y0067656D02*
X0070453Y0067656D01*
X0070453Y0067057D02*
X0063570Y0067057D01*
X0063570Y0066459D02*
X0070453Y0066459D01*
X0070453Y0065860D02*
X0063570Y0065860D01*
X0063570Y0065262D02*
X0070453Y0065262D01*
X0070453Y0064663D02*
X0063570Y0064663D01*
X0063570Y0064065D02*
X0070684Y0064065D01*
X0067481Y0060734D02*
X0063223Y0060734D01*
X0062579Y0060089D01*
X0062579Y0052485D01*
X0063223Y0051841D01*
X0067481Y0051841D01*
X0068125Y0052485D01*
X0068125Y0060089D01*
X0067481Y0060734D01*
X0067741Y0060473D02*
X0078711Y0060473D01*
X0078327Y0059875D02*
X0068125Y0059875D01*
X0068125Y0059276D02*
X0078327Y0059276D01*
X0078327Y0058678D02*
X0068125Y0058678D01*
X0068125Y0058079D02*
X0078327Y0058079D01*
X0078327Y0057481D02*
X0068125Y0057481D01*
X0068125Y0056882D02*
X0078327Y0056882D01*
X0078327Y0056284D02*
X0068125Y0056284D01*
X0068125Y0055685D02*
X0073906Y0055685D01*
X0072942Y0055087D02*
X0068125Y0055087D01*
X0068125Y0054488D02*
X0072490Y0054488D01*
X0072242Y0053890D02*
X0068125Y0053890D01*
X0068125Y0053291D02*
X0072220Y0053291D01*
X0072290Y0052693D02*
X0068125Y0052693D01*
X0067734Y0052094D02*
X0072538Y0052094D01*
X0073059Y0051496D02*
X0057320Y0051496D01*
X0057320Y0052094D02*
X0062970Y0052094D01*
X0062579Y0052693D02*
X0057320Y0052693D01*
X0057320Y0053291D02*
X0062579Y0053291D01*
X0062579Y0053890D02*
X0057320Y0053890D01*
X0057320Y0054488D02*
X0062579Y0054488D01*
X0062579Y0055087D02*
X0057320Y0055087D01*
X0057735Y0055685D02*
X0062579Y0055685D01*
X0062579Y0056284D02*
X0058334Y0056284D01*
X0058932Y0056882D02*
X0062579Y0056882D01*
X0062579Y0057481D02*
X0059531Y0057481D01*
X0060129Y0058079D02*
X0062579Y0058079D01*
X0062579Y0058678D02*
X0060728Y0058678D01*
X0061326Y0059276D02*
X0062579Y0059276D01*
X0062579Y0059875D02*
X0061925Y0059875D01*
X0062523Y0060473D02*
X0062963Y0060473D01*
X0063122Y0061072D02*
X0087468Y0061072D01*
X0086870Y0061670D02*
X0063570Y0061670D01*
X0063570Y0062269D02*
X0086271Y0062269D01*
X0089034Y0063466D02*
X0132870Y0063466D01*
X0132870Y0062868D02*
X0089632Y0062868D01*
X0090231Y0062269D02*
X0132870Y0062269D01*
X0132870Y0061670D02*
X0090829Y0061670D01*
X0091428Y0061072D02*
X0132870Y0061072D01*
X0132870Y0060473D02*
X0114985Y0060473D01*
X0114725Y0060734D02*
X0110467Y0060734D01*
X0109823Y0060089D01*
X0109823Y0052485D01*
X0110467Y0051841D01*
X0114725Y0051841D01*
X0115369Y0052485D01*
X0115369Y0060089D01*
X0114725Y0060734D01*
X0115369Y0059875D02*
X0132870Y0059875D01*
X0132870Y0059276D02*
X0115369Y0059276D01*
X0115369Y0058678D02*
X0132870Y0058678D01*
X0132870Y0058079D02*
X0115369Y0058079D01*
X0115369Y0057481D02*
X0132870Y0057481D01*
X0132870Y0056882D02*
X0115369Y0056882D01*
X0115369Y0056284D02*
X0132870Y0056284D01*
X0132870Y0055685D02*
X0115369Y0055685D01*
X0115369Y0055087D02*
X0132870Y0055087D01*
X0132870Y0054488D02*
X0115369Y0054488D01*
X0115369Y0053890D02*
X0132870Y0053890D01*
X0132870Y0053291D02*
X0115369Y0053291D01*
X0115369Y0052693D02*
X0132870Y0052693D01*
X0132870Y0052094D02*
X0114978Y0052094D01*
X0115636Y0049102D02*
X0121727Y0049102D01*
X0121435Y0048907D02*
X0122035Y0049308D01*
X0122702Y0049584D01*
X0123409Y0049724D01*
X0123470Y0049724D01*
X0123470Y0044000D01*
X0124070Y0044000D01*
X0127432Y0044000D01*
X0127432Y0046423D01*
X0127291Y0047130D01*
X0127015Y0047797D01*
X0126615Y0048397D01*
X0126104Y0048907D01*
X0125505Y0049308D01*
X0124838Y0049584D01*
X0124131Y0049724D01*
X0124070Y0049724D01*
X0124070Y0044000D01*
X0124070Y0043400D01*
X0127432Y0043400D01*
X0127432Y0040977D01*
X0127291Y0040270D01*
X0127015Y0039603D01*
X0126615Y0039003D01*
X0126104Y0038493D01*
X0125505Y0038092D01*
X0124838Y0037816D01*
X0124131Y0037676D01*
X0124070Y0037676D01*
X0124070Y0043400D01*
X0123470Y0043400D01*
X0123470Y0037676D01*
X0123409Y0037676D01*
X0122702Y0037816D01*
X0122035Y0038092D01*
X0121435Y0038493D01*
X0120925Y0039003D01*
X0120525Y0039603D01*
X0120248Y0040270D01*
X0120108Y0040977D01*
X0120108Y0043400D01*
X0123470Y0043400D01*
X0123470Y0044000D01*
X0120108Y0044000D01*
X0120108Y0046423D01*
X0120248Y0047130D01*
X0120525Y0047797D01*
X0120925Y0048397D01*
X0121435Y0048907D01*
X0121032Y0048503D02*
X0116383Y0048503D01*
X0116912Y0047905D02*
X0120597Y0047905D01*
X0120321Y0047306D02*
X0117160Y0047306D01*
X0117390Y0046708D02*
X0120164Y0046708D01*
X0120108Y0046109D02*
X0117390Y0046109D01*
X0117390Y0045511D02*
X0120108Y0045511D01*
X0120108Y0044912D02*
X0117390Y0044912D01*
X0117390Y0044314D02*
X0120108Y0044314D01*
X0120108Y0043117D02*
X0117390Y0043117D01*
X0117390Y0043715D02*
X0123470Y0043715D01*
X0123470Y0043117D02*
X0124070Y0043117D01*
X0124070Y0043715D02*
X0132870Y0043715D01*
X0132870Y0043117D02*
X0127432Y0043117D01*
X0127432Y0042518D02*
X0132870Y0042518D01*
X0132870Y0041920D02*
X0127432Y0041920D01*
X0127432Y0041321D02*
X0132870Y0041321D01*
X0132870Y0040723D02*
X0127382Y0040723D01*
X0127231Y0040124D02*
X0132870Y0040124D01*
X0132870Y0039526D02*
X0126964Y0039526D01*
X0126538Y0038927D02*
X0132870Y0038927D01*
X0132870Y0038329D02*
X0125858Y0038329D01*
X0124404Y0037730D02*
X0132870Y0037730D01*
X0132870Y0037132D02*
X0115427Y0037132D01*
X0115427Y0037730D02*
X0123136Y0037730D01*
X0123470Y0037730D02*
X0124070Y0037730D01*
X0124070Y0038329D02*
X0123470Y0038329D01*
X0123470Y0038927D02*
X0124070Y0038927D01*
X0124070Y0039526D02*
X0123470Y0039526D01*
X0123470Y0040124D02*
X0124070Y0040124D01*
X0124070Y0040723D02*
X0123470Y0040723D01*
X0123470Y0041321D02*
X0124070Y0041321D01*
X0124070Y0041920D02*
X0123470Y0041920D01*
X0123470Y0042518D02*
X0124070Y0042518D01*
X0124070Y0044314D02*
X0123470Y0044314D01*
X0123470Y0044912D02*
X0124070Y0044912D01*
X0124070Y0045511D02*
X0123470Y0045511D01*
X0123470Y0046109D02*
X0124070Y0046109D01*
X0124070Y0046708D02*
X0123470Y0046708D01*
X0123470Y0047306D02*
X0124070Y0047306D01*
X0124070Y0047905D02*
X0123470Y0047905D01*
X0123470Y0048503D02*
X0124070Y0048503D01*
X0124070Y0049102D02*
X0123470Y0049102D01*
X0123470Y0049700D02*
X0124070Y0049700D01*
X0124252Y0049700D02*
X0132870Y0049700D01*
X0132870Y0049102D02*
X0125813Y0049102D01*
X0126508Y0048503D02*
X0132870Y0048503D01*
X0132870Y0047905D02*
X0126943Y0047905D01*
X0127219Y0047306D02*
X0132870Y0047306D01*
X0132870Y0046708D02*
X0127375Y0046708D01*
X0127432Y0046109D02*
X0132870Y0046109D01*
X0132870Y0045511D02*
X0127432Y0045511D01*
X0127432Y0044912D02*
X0132870Y0044912D01*
X0132870Y0044314D02*
X0127432Y0044314D01*
X0123288Y0049700D02*
X0099050Y0049700D01*
X0099648Y0049102D02*
X0102376Y0049102D01*
X0101630Y0048503D02*
X0100247Y0048503D01*
X0100845Y0047905D02*
X0101101Y0047905D01*
X0099279Y0045511D02*
X0097705Y0045511D01*
X0097705Y0046109D02*
X0098681Y0046109D01*
X0098082Y0046708D02*
X0097705Y0046708D01*
X0097484Y0047306D02*
X0097475Y0047306D01*
X0097705Y0044912D02*
X0099878Y0044912D01*
X0100476Y0044314D02*
X0097705Y0044314D01*
X0097705Y0043715D02*
X0100623Y0043715D01*
X0100623Y0043117D02*
X0097705Y0043117D01*
X0097705Y0042518D02*
X0100623Y0042518D01*
X0100623Y0041920D02*
X0097705Y0041920D01*
X0097705Y0041321D02*
X0100623Y0041321D01*
X0100623Y0040723D02*
X0097705Y0040723D01*
X0097487Y0040124D02*
X0100840Y0040124D01*
X0101088Y0039526D02*
X0097239Y0039526D01*
X0096728Y0038927D02*
X0101599Y0038927D01*
X0102303Y0038329D02*
X0096025Y0038329D01*
X0094065Y0035934D02*
X0112427Y0035934D01*
X0112427Y0035336D02*
X0094664Y0035336D01*
X0095262Y0034737D02*
X0112427Y0034737D01*
X0112427Y0034139D02*
X0095861Y0034139D01*
X0096459Y0033540D02*
X0112427Y0033540D01*
X0112427Y0032942D02*
X0097058Y0032942D01*
X0097656Y0032343D02*
X0112427Y0032343D01*
X0112427Y0031745D02*
X0098255Y0031745D01*
X0098853Y0031146D02*
X0112427Y0031146D01*
X0112427Y0030548D02*
X0099452Y0030548D01*
X0100050Y0029949D02*
X0112427Y0029949D01*
X0112427Y0029351D02*
X0100649Y0029351D01*
X0101247Y0028752D02*
X0103422Y0028752D01*
X0102180Y0028154D02*
X0101846Y0028154D01*
X0099682Y0026358D02*
X0097777Y0026358D01*
X0097905Y0026051D02*
X0097377Y0027323D01*
X0096404Y0028297D01*
X0095131Y0028824D01*
X0093754Y0028824D01*
X0092481Y0028297D01*
X0091507Y0027323D01*
X0090980Y0026051D01*
X0090980Y0019949D01*
X0091507Y0018677D01*
X0092481Y0017703D01*
X0093754Y0017176D01*
X0095131Y0017176D01*
X0096404Y0017703D01*
X0097377Y0018677D01*
X0097905Y0019949D01*
X0097905Y0026051D01*
X0097905Y0025760D02*
X0100280Y0025760D01*
X0100823Y0025161D02*
X0097905Y0025161D01*
X0097905Y0024563D02*
X0100823Y0024563D01*
X0100823Y0023964D02*
X0097905Y0023964D01*
X0097905Y0023366D02*
X0100823Y0023366D01*
X0100823Y0022767D02*
X0097905Y0022767D01*
X0097905Y0022169D02*
X0100823Y0022169D01*
X0100823Y0021570D02*
X0097905Y0021570D01*
X0097905Y0020972D02*
X0100823Y0020972D01*
X0100823Y0020373D02*
X0097905Y0020373D01*
X0097832Y0019775D02*
X0100895Y0019775D01*
X0101143Y0019176D02*
X0097584Y0019176D01*
X0097279Y0018578D02*
X0101449Y0018578D01*
X0102047Y0017979D02*
X0096680Y0017979D01*
X0095626Y0017381D02*
X0103101Y0017381D01*
X0105469Y0017381D02*
X0112132Y0017381D01*
X0111890Y0017979D02*
X0106523Y0017979D01*
X0107121Y0018578D02*
X0111291Y0018578D01*
X0110985Y0019176D02*
X0107427Y0019176D01*
X0107675Y0019775D02*
X0110737Y0019775D01*
X0110665Y0020373D02*
X0107747Y0020373D01*
X0107747Y0020972D02*
X0110665Y0020972D01*
X0110665Y0021570D02*
X0107747Y0021570D01*
X0107747Y0022169D02*
X0110665Y0022169D01*
X0110665Y0022767D02*
X0107747Y0022767D01*
X0107747Y0023366D02*
X0110665Y0023366D01*
X0110665Y0023964D02*
X0107747Y0023964D01*
X0107747Y0024563D02*
X0110665Y0024563D01*
X0110665Y0025161D02*
X0107747Y0025161D01*
X0107747Y0025760D02*
X0110665Y0025760D01*
X0110793Y0026358D02*
X0107620Y0026358D01*
X0107372Y0026957D02*
X0111040Y0026957D01*
X0111424Y0027555D02*
X0106988Y0027555D01*
X0106390Y0028154D02*
X0112023Y0028154D01*
X0112427Y0028752D02*
X0105147Y0028752D01*
X0103420Y0024600D02*
X0103420Y0023350D01*
X0104285Y0023000D01*
X0103420Y0024600D02*
X0074670Y0053350D01*
X0076398Y0055087D02*
X0078327Y0055087D01*
X0078327Y0055685D02*
X0075434Y0055685D01*
X0076850Y0054488D02*
X0078327Y0054488D01*
X0078327Y0053890D02*
X0077098Y0053890D01*
X0077120Y0053291D02*
X0078327Y0053291D01*
X0079103Y0050897D02*
X0093893Y0050897D01*
X0094491Y0050299D02*
X0079701Y0050299D01*
X0080300Y0049700D02*
X0095090Y0049700D01*
X0092533Y0049102D02*
X0080898Y0049102D01*
X0081497Y0048503D02*
X0091787Y0048503D01*
X0091258Y0047905D02*
X0082095Y0047905D01*
X0082694Y0047306D02*
X0091010Y0047306D01*
X0090780Y0046708D02*
X0083292Y0046708D01*
X0083891Y0046109D02*
X0090780Y0046109D01*
X0090780Y0045511D02*
X0084489Y0045511D01*
X0085088Y0044912D02*
X0090780Y0044912D01*
X0090780Y0044314D02*
X0085686Y0044314D01*
X0086285Y0043715D02*
X0090780Y0043715D01*
X0090780Y0043117D02*
X0086883Y0043117D01*
X0087482Y0042518D02*
X0090780Y0042518D01*
X0090780Y0041920D02*
X0088080Y0041920D01*
X0088679Y0041321D02*
X0090780Y0041321D01*
X0090780Y0040723D02*
X0089277Y0040723D01*
X0089876Y0040124D02*
X0090998Y0040124D01*
X0091246Y0039526D02*
X0090474Y0039526D01*
X0091073Y0038927D02*
X0091757Y0038927D01*
X0091671Y0038329D02*
X0092460Y0038329D01*
X0092270Y0037730D02*
X0112427Y0037730D01*
X0112427Y0037132D02*
X0092868Y0037132D01*
X0093467Y0036533D02*
X0112427Y0036533D01*
X0112145Y0038329D02*
X0105867Y0038329D01*
X0106570Y0038927D02*
X0111442Y0038927D01*
X0110931Y0039526D02*
X0107082Y0039526D01*
X0107330Y0040124D02*
X0110683Y0040124D01*
X0110465Y0040723D02*
X0107547Y0040723D01*
X0107547Y0041321D02*
X0110465Y0041321D01*
X0110465Y0041920D02*
X0107547Y0041920D01*
X0107547Y0042518D02*
X0110465Y0042518D01*
X0110465Y0043117D02*
X0107547Y0043117D01*
X0107547Y0043715D02*
X0110465Y0043715D01*
X0110465Y0044314D02*
X0107547Y0044314D01*
X0107547Y0044912D02*
X0110465Y0044912D01*
X0110465Y0045511D02*
X0107547Y0045511D01*
X0107547Y0046109D02*
X0110465Y0046109D01*
X0110465Y0046708D02*
X0107547Y0046708D01*
X0107317Y0047306D02*
X0110695Y0047306D01*
X0110943Y0047905D02*
X0107069Y0047905D01*
X0106540Y0048503D02*
X0111472Y0048503D01*
X0112218Y0049102D02*
X0105794Y0049102D01*
X0110214Y0052094D02*
X0099230Y0052094D01*
X0099621Y0052693D02*
X0109823Y0052693D01*
X0109823Y0053291D02*
X0099621Y0053291D01*
X0099621Y0053890D02*
X0109823Y0053890D01*
X0109823Y0054488D02*
X0099621Y0054488D01*
X0099621Y0055087D02*
X0109823Y0055087D01*
X0109823Y0055685D02*
X0099621Y0055685D01*
X0099621Y0056284D02*
X0109823Y0056284D01*
X0109823Y0056882D02*
X0099621Y0056882D01*
X0099621Y0057481D02*
X0109823Y0057481D01*
X0109823Y0058079D02*
X0099621Y0058079D01*
X0099621Y0058678D02*
X0109823Y0058678D01*
X0109823Y0059276D02*
X0099621Y0059276D01*
X0099621Y0059875D02*
X0109823Y0059875D01*
X0110207Y0060473D02*
X0099237Y0060473D01*
X0102593Y0063652D02*
X0101949Y0064296D01*
X0101949Y0071901D01*
X0102593Y0072545D01*
X0106851Y0072545D01*
X0107495Y0071901D01*
X0107495Y0064296D01*
X0106851Y0063652D01*
X0102593Y0063652D01*
X0102180Y0064065D02*
X0091515Y0064065D01*
X0091747Y0064663D02*
X0101949Y0064663D01*
X0101949Y0065262D02*
X0091747Y0065262D01*
X0091747Y0065860D02*
X0101949Y0065860D01*
X0101949Y0066459D02*
X0091747Y0066459D01*
X0091747Y0067057D02*
X0101949Y0067057D01*
X0101949Y0067656D02*
X0091747Y0067656D01*
X0091747Y0068254D02*
X0101949Y0068254D01*
X0101949Y0068853D02*
X0091747Y0068853D01*
X0091747Y0069451D02*
X0101949Y0069451D01*
X0101949Y0070050D02*
X0091747Y0070050D01*
X0091747Y0070648D02*
X0101949Y0070648D01*
X0101949Y0071247D02*
X0091747Y0071247D01*
X0091747Y0071845D02*
X0101949Y0071845D01*
X0102492Y0072444D02*
X0091204Y0072444D01*
X0086744Y0072444D02*
X0080056Y0072444D01*
X0079458Y0073042D02*
X0111248Y0073042D01*
X0111846Y0072444D02*
X0106952Y0072444D01*
X0107495Y0071845D02*
X0112445Y0071845D01*
X0112270Y0072020D02*
X0113090Y0071200D01*
X0119130Y0071200D01*
X0123726Y0075796D01*
X0125045Y0075250D01*
X0126955Y0075250D01*
X0128719Y0075981D01*
X0130069Y0077331D01*
X0130800Y0079095D01*
X0130800Y0081005D01*
X0130069Y0082769D01*
X0128719Y0084119D01*
X0126955Y0084850D01*
X0125045Y0084850D01*
X0123281Y0084119D01*
X0121931Y0082769D01*
X0121200Y0081005D01*
X0121200Y0079095D01*
X0121746Y0077776D01*
X0117970Y0074000D01*
X0114250Y0074000D01*
X0103550Y0084700D01*
X0098884Y0084700D01*
X0098880Y0084710D01*
X0098180Y0085410D01*
X0097265Y0085789D01*
X0096275Y0085789D01*
X0095360Y0085410D01*
X0094660Y0084710D01*
X0094281Y0083795D01*
X0094281Y0082805D01*
X0094660Y0081890D01*
X0095360Y0081190D01*
X0096275Y0080811D01*
X0097265Y0080811D01*
X0098180Y0081190D01*
X0098880Y0081890D01*
X0098884Y0081900D01*
X0102390Y0081900D01*
X0112270Y0072020D01*
X0113043Y0071247D02*
X0107495Y0071247D01*
X0107495Y0070648D02*
X0132870Y0070648D01*
X0132870Y0070050D02*
X0107495Y0070050D01*
X0107495Y0069451D02*
X0132870Y0069451D01*
X0132870Y0068853D02*
X0107495Y0068853D01*
X0107495Y0068254D02*
X0132870Y0068254D01*
X0132870Y0067656D02*
X0107495Y0067656D01*
X0107495Y0067057D02*
X0132870Y0067057D01*
X0132870Y0066459D02*
X0107495Y0066459D01*
X0107495Y0065860D02*
X0132870Y0065860D01*
X0132870Y0065262D02*
X0107495Y0065262D01*
X0107495Y0064663D02*
X0132870Y0064663D01*
X0132870Y0064065D02*
X0107263Y0064065D01*
X0110649Y0073641D02*
X0078859Y0073641D01*
X0078261Y0074239D02*
X0110051Y0074239D01*
X0109452Y0074838D02*
X0077662Y0074838D01*
X0077064Y0075436D02*
X0108854Y0075436D01*
X0108255Y0076035D02*
X0076465Y0076035D01*
X0075867Y0076633D02*
X0107657Y0076633D01*
X0107058Y0077232D02*
X0075268Y0077232D01*
X0074670Y0077830D02*
X0106460Y0077830D01*
X0105861Y0078429D02*
X0074071Y0078429D01*
X0073473Y0079027D02*
X0105263Y0079027D01*
X0104664Y0079626D02*
X0073370Y0079626D01*
X0073313Y0080224D02*
X0104066Y0080224D01*
X0103467Y0080823D02*
X0097294Y0080823D01*
X0096246Y0080823D02*
X0073065Y0080823D01*
X0072563Y0081421D02*
X0095129Y0081421D01*
X0094606Y0082020D02*
X0071480Y0082020D01*
X0070360Y0082020D02*
X0063570Y0082020D01*
X0063570Y0082618D02*
X0094358Y0082618D01*
X0094281Y0083217D02*
X0063570Y0083217D01*
X0063570Y0083815D02*
X0094289Y0083815D01*
X0094537Y0084414D02*
X0063570Y0084414D01*
X0063570Y0085012D02*
X0094962Y0085012D01*
X0095845Y0085611D02*
X0063570Y0085611D01*
X0063570Y0086209D02*
X0104028Y0086209D01*
X0103981Y0086095D02*
X0103981Y0085105D01*
X0104360Y0084190D01*
X0105060Y0083490D01*
X0105975Y0083111D01*
X0106965Y0083111D01*
X0107880Y0083490D01*
X0108580Y0084190D01*
X0108584Y0084200D01*
X0109765Y0084200D01*
X0109855Y0084109D01*
X0110178Y0083715D01*
X0110258Y0083707D01*
X0110315Y0083650D01*
X0110825Y0083650D01*
X0111332Y0083599D01*
X0111394Y0083650D01*
X0112812Y0083650D01*
X0111931Y0082769D01*
X0111200Y0081005D01*
X0111200Y0079095D01*
X0111931Y0077331D01*
X0113281Y0075981D01*
X0115045Y0075250D01*
X0116955Y0075250D01*
X0118719Y0075981D01*
X0120069Y0077331D01*
X0120800Y0079095D01*
X0120800Y0081005D01*
X0120069Y0082769D01*
X0119188Y0083650D01*
X0121181Y0083650D01*
X0121227Y0083610D01*
X0121753Y0083650D01*
X0122280Y0083650D01*
X0122323Y0083693D01*
X0122383Y0083697D01*
X0122727Y0084097D01*
X0123100Y0084470D01*
X0123100Y0084531D01*
X0124067Y0085655D01*
X0125045Y0085250D01*
X0126955Y0085250D01*
X0128719Y0085981D01*
X0130069Y0087331D01*
X0130800Y0089095D01*
X0130800Y0091005D01*
X0130069Y0092769D01*
X0128719Y0094119D01*
X0126955Y0094850D01*
X0125045Y0094850D01*
X0123281Y0094119D01*
X0121931Y0092769D01*
X0121200Y0091005D01*
X0121200Y0089095D01*
X0121893Y0087422D01*
X0121057Y0086450D01*
X0119188Y0086450D01*
X0120069Y0087331D01*
X0120800Y0089095D01*
X0120800Y0091005D01*
X0120069Y0092769D01*
X0118719Y0094119D01*
X0116955Y0094850D01*
X0115045Y0094850D01*
X0113281Y0094119D01*
X0111931Y0092769D01*
X0111200Y0091005D01*
X0111200Y0089095D01*
X0111931Y0087331D01*
X0112812Y0086450D01*
X0111574Y0086450D01*
X0111484Y0086541D01*
X0111161Y0086935D01*
X0111081Y0086943D01*
X0111024Y0087000D01*
X0110514Y0087000D01*
X0110007Y0087051D01*
X0109945Y0087000D01*
X0108584Y0087000D01*
X0108580Y0087010D01*
X0107880Y0087710D01*
X0106965Y0088089D01*
X0105975Y0088089D01*
X0105060Y0087710D01*
X0104360Y0087010D01*
X0103981Y0086095D01*
X0103981Y0085611D02*
X0097695Y0085611D01*
X0098577Y0085012D02*
X0104019Y0085012D01*
X0103836Y0084414D02*
X0104267Y0084414D01*
X0104434Y0083815D02*
X0104735Y0083815D01*
X0105033Y0083217D02*
X0105719Y0083217D01*
X0105631Y0082618D02*
X0111868Y0082618D01*
X0111620Y0082020D02*
X0106230Y0082020D01*
X0106828Y0081421D02*
X0111373Y0081421D01*
X0111200Y0080823D02*
X0107427Y0080823D01*
X0108025Y0080224D02*
X0111200Y0080224D01*
X0111200Y0079626D02*
X0108624Y0079626D01*
X0109223Y0079027D02*
X0111228Y0079027D01*
X0111476Y0078429D02*
X0109821Y0078429D01*
X0110420Y0077830D02*
X0111724Y0077830D01*
X0112030Y0077232D02*
X0111018Y0077232D01*
X0111617Y0076633D02*
X0112628Y0076633D01*
X0112215Y0076035D02*
X0113227Y0076035D01*
X0112814Y0075436D02*
X0114596Y0075436D01*
X0113412Y0074838D02*
X0118808Y0074838D01*
X0119406Y0075436D02*
X0117404Y0075436D01*
X0118209Y0074239D02*
X0114011Y0074239D01*
X0113670Y0072600D02*
X0118550Y0072600D01*
X0126000Y0080050D01*
X0129371Y0076633D02*
X0132870Y0076633D01*
X0132870Y0076035D02*
X0128773Y0076035D01*
X0127404Y0075436D02*
X0132870Y0075436D01*
X0132870Y0074838D02*
X0122768Y0074838D01*
X0123366Y0075436D02*
X0124596Y0075436D01*
X0122169Y0074239D02*
X0132870Y0074239D01*
X0132870Y0073641D02*
X0121571Y0073641D01*
X0120972Y0073042D02*
X0132870Y0073042D01*
X0132870Y0072444D02*
X0120374Y0072444D01*
X0119775Y0071845D02*
X0132870Y0071845D01*
X0132870Y0071247D02*
X0119176Y0071247D01*
X0118773Y0076035D02*
X0120005Y0076035D01*
X0120603Y0076633D02*
X0119371Y0076633D01*
X0119970Y0077232D02*
X0121202Y0077232D01*
X0121724Y0077830D02*
X0120276Y0077830D01*
X0120524Y0078429D02*
X0121476Y0078429D01*
X0121228Y0079027D02*
X0120772Y0079027D01*
X0120800Y0079626D02*
X0121200Y0079626D01*
X0121200Y0080224D02*
X0120800Y0080224D01*
X0120800Y0080823D02*
X0121200Y0080823D01*
X0121373Y0081421D02*
X0120627Y0081421D01*
X0120379Y0082020D02*
X0121620Y0082020D01*
X0121868Y0082618D02*
X0120132Y0082618D01*
X0119621Y0083217D02*
X0122379Y0083217D01*
X0122485Y0083815D02*
X0122977Y0083815D01*
X0123044Y0084414D02*
X0123992Y0084414D01*
X0123514Y0085012D02*
X0132870Y0085012D01*
X0132870Y0084414D02*
X0128007Y0084414D01*
X0129023Y0083815D02*
X0132870Y0083815D01*
X0132870Y0083217D02*
X0129621Y0083217D01*
X0130132Y0082618D02*
X0132870Y0082618D01*
X0132870Y0082020D02*
X0130379Y0082020D01*
X0130627Y0081421D02*
X0132870Y0081421D01*
X0132870Y0080823D02*
X0130800Y0080823D01*
X0130800Y0080224D02*
X0132870Y0080224D01*
X0132870Y0079626D02*
X0130800Y0079626D01*
X0130772Y0079027D02*
X0132870Y0079027D01*
X0132870Y0078429D02*
X0130524Y0078429D01*
X0130276Y0077830D02*
X0132870Y0077830D01*
X0132870Y0077232D02*
X0129970Y0077232D01*
X0121700Y0085050D02*
X0126000Y0090050D01*
X0127826Y0085611D02*
X0132870Y0085611D01*
X0132870Y0086209D02*
X0128948Y0086209D01*
X0129546Y0086808D02*
X0132870Y0086808D01*
X0132870Y0087406D02*
X0130100Y0087406D01*
X0130348Y0088005D02*
X0132870Y0088005D01*
X0132870Y0088603D02*
X0130596Y0088603D01*
X0130800Y0089202D02*
X0132870Y0089202D01*
X0132870Y0089801D02*
X0130800Y0089801D01*
X0130800Y0090399D02*
X0132870Y0090399D01*
X0132870Y0090998D02*
X0130800Y0090998D01*
X0130555Y0091596D02*
X0132870Y0091596D01*
X0132870Y0092195D02*
X0130307Y0092195D01*
X0130045Y0092793D02*
X0132870Y0092793D01*
X0132870Y0093392D02*
X0129447Y0093392D01*
X0128848Y0093990D02*
X0132870Y0093990D01*
X0132870Y0094589D02*
X0127586Y0094589D01*
X0126955Y0095250D02*
X0128719Y0095981D01*
X0130069Y0097331D01*
X0130800Y0099095D01*
X0130800Y0101005D01*
X0130069Y0102769D01*
X0128719Y0104119D01*
X0126955Y0104850D01*
X0125045Y0104850D01*
X0123281Y0104119D01*
X0121931Y0102769D01*
X0121200Y0101005D01*
X0121200Y0099095D01*
X0121931Y0097331D01*
X0123281Y0095981D01*
X0125045Y0095250D01*
X0126955Y0095250D01*
X0128248Y0095786D02*
X0132870Y0095786D01*
X0132870Y0096384D02*
X0129122Y0096384D01*
X0129721Y0096983D02*
X0132870Y0096983D01*
X0132870Y0097581D02*
X0130173Y0097581D01*
X0130421Y0098180D02*
X0132870Y0098180D01*
X0132870Y0098778D02*
X0130669Y0098778D01*
X0130800Y0099377D02*
X0132870Y0099377D01*
X0132870Y0099975D02*
X0130800Y0099975D01*
X0130800Y0100574D02*
X0132870Y0100574D01*
X0132870Y0101172D02*
X0130731Y0101172D01*
X0130483Y0101771D02*
X0132870Y0101771D01*
X0132870Y0102369D02*
X0130235Y0102369D01*
X0129870Y0102968D02*
X0132870Y0102968D01*
X0132870Y0103566D02*
X0129272Y0103566D01*
X0128609Y0104165D02*
X0132870Y0104165D01*
X0132870Y0104763D02*
X0127164Y0104763D01*
X0124836Y0104763D02*
X0117674Y0104763D01*
X0117919Y0104684D02*
X0117171Y0104927D01*
X0116393Y0105050D01*
X0116300Y0105050D01*
X0116300Y0100350D01*
X0121000Y0100350D01*
X0121000Y0100444D01*
X0120877Y0101221D01*
X0120634Y0101969D01*
X0120276Y0102671D01*
X0119814Y0103307D01*
X0119257Y0103864D01*
X0118621Y0104326D01*
X0117919Y0104684D01*
X0118843Y0104165D02*
X0123391Y0104165D01*
X0122728Y0103566D02*
X0119555Y0103566D01*
X0120060Y0102968D02*
X0122129Y0102968D01*
X0121765Y0102369D02*
X0120430Y0102369D01*
X0120698Y0101771D02*
X0121517Y0101771D01*
X0121269Y0101172D02*
X0120885Y0101172D01*
X0120979Y0100574D02*
X0121200Y0100574D01*
X0121200Y0099975D02*
X0116300Y0099975D01*
X0116300Y0099750D02*
X0116300Y0100350D01*
X0115700Y0100350D01*
X0115700Y0105050D01*
X0115606Y0105050D01*
X0114829Y0104927D01*
X0114081Y0104684D01*
X0113379Y0104326D01*
X0112743Y0103864D01*
X0112186Y0103307D01*
X0111724Y0102671D01*
X0111366Y0101969D01*
X0111123Y0101221D01*
X0111000Y0100444D01*
X0111000Y0100350D01*
X0115700Y0100350D01*
X0115700Y0099750D01*
X0116300Y0099750D01*
X0121000Y0099750D01*
X0121000Y0099656D01*
X0120877Y0098879D01*
X0120634Y0098131D01*
X0120276Y0097429D01*
X0119814Y0096793D01*
X0119257Y0096236D01*
X0118621Y0095774D01*
X0117919Y0095416D01*
X0117171Y0095173D01*
X0116393Y0095050D01*
X0116300Y0095050D01*
X0116300Y0099750D01*
X0116300Y0099377D02*
X0115700Y0099377D01*
X0115700Y0099750D02*
X0115700Y0095050D01*
X0115606Y0095050D01*
X0114829Y0095173D01*
X0114081Y0095416D01*
X0113379Y0095774D01*
X0112743Y0096236D01*
X0112186Y0096793D01*
X0111724Y0097429D01*
X0111366Y0098131D01*
X0111123Y0098879D01*
X0111000Y0099656D01*
X0111000Y0099750D01*
X0115700Y0099750D01*
X0115700Y0099975D02*
X0063570Y0099975D01*
X0063570Y0099377D02*
X0111044Y0099377D01*
X0111156Y0098778D02*
X0063570Y0098778D01*
X0063570Y0098180D02*
X0111350Y0098180D01*
X0111646Y0097581D02*
X0063570Y0097581D01*
X0063570Y0096983D02*
X0112048Y0096983D01*
X0112595Y0096384D02*
X0063570Y0096384D01*
X0063570Y0095786D02*
X0113363Y0095786D01*
X0114786Y0095187D02*
X0063570Y0095187D01*
X0063570Y0094589D02*
X0114414Y0094589D01*
X0113152Y0093990D02*
X0063570Y0093990D01*
X0063570Y0093392D02*
X0112553Y0093392D01*
X0111955Y0092793D02*
X0063570Y0092793D01*
X0063570Y0092195D02*
X0111693Y0092195D01*
X0111445Y0091596D02*
X0063570Y0091596D01*
X0063570Y0090998D02*
X0111200Y0090998D01*
X0111200Y0090399D02*
X0063570Y0090399D01*
X0063570Y0089801D02*
X0111200Y0089801D01*
X0111200Y0089202D02*
X0063570Y0089202D01*
X0063570Y0088603D02*
X0111404Y0088603D01*
X0111652Y0088005D02*
X0107168Y0088005D01*
X0108183Y0087406D02*
X0111899Y0087406D01*
X0112454Y0086808D02*
X0111265Y0086808D01*
X0110445Y0085600D02*
X0110895Y0085050D01*
X0121700Y0085050D01*
X0121365Y0086808D02*
X0119546Y0086808D01*
X0120100Y0087406D02*
X0121880Y0087406D01*
X0121652Y0088005D02*
X0120348Y0088005D01*
X0120596Y0088603D02*
X0121404Y0088603D01*
X0121200Y0089202D02*
X0120800Y0089202D01*
X0120800Y0089801D02*
X0121200Y0089801D01*
X0121200Y0090399D02*
X0120800Y0090399D01*
X0120800Y0090998D02*
X0121200Y0090998D01*
X0121445Y0091596D02*
X0120555Y0091596D01*
X0120307Y0092195D02*
X0121693Y0092195D01*
X0121955Y0092793D02*
X0120045Y0092793D01*
X0119447Y0093392D02*
X0122553Y0093392D01*
X0123152Y0093990D02*
X0118848Y0093990D01*
X0117586Y0094589D02*
X0124414Y0094589D01*
X0123752Y0095786D02*
X0118637Y0095786D01*
X0119405Y0096384D02*
X0122878Y0096384D01*
X0122279Y0096983D02*
X0119952Y0096983D01*
X0120354Y0097581D02*
X0121827Y0097581D01*
X0121579Y0098180D02*
X0120650Y0098180D01*
X0120844Y0098778D02*
X0121331Y0098778D01*
X0121200Y0099377D02*
X0120956Y0099377D01*
X0117214Y0095187D02*
X0132870Y0095187D01*
X0132870Y0105362D02*
X0063570Y0105362D01*
X0063570Y0105960D02*
X0132870Y0105960D01*
X0132870Y0106559D02*
X0063570Y0106559D01*
X0063570Y0107157D02*
X0132870Y0107157D01*
X0132870Y0107756D02*
X0063570Y0107756D01*
X0063570Y0108354D02*
X0132870Y0108354D01*
X0132870Y0108953D02*
X0063570Y0108953D01*
X0064101Y0109551D02*
X0132870Y0109551D01*
X0132870Y0110150D02*
X0064700Y0110150D01*
X0065298Y0110748D02*
X0132870Y0110748D01*
X0132870Y0111347D02*
X0067382Y0111347D01*
X0067980Y0111945D02*
X0132870Y0111945D01*
X0132870Y0112544D02*
X0068238Y0112544D01*
X0068370Y0113142D02*
X0132870Y0113142D01*
X0132870Y0113741D02*
X0068370Y0113741D01*
X0068162Y0114339D02*
X0132870Y0114339D01*
X0132870Y0114938D02*
X0120810Y0114938D01*
X0121859Y0115537D02*
X0132870Y0115537D01*
X0132870Y0116135D02*
X0122457Y0116135D01*
X0122833Y0116734D02*
X0132870Y0116734D01*
X0132870Y0117332D02*
X0123081Y0117332D01*
X0123270Y0117931D02*
X0132870Y0117931D01*
X0132870Y0118529D02*
X0123270Y0118529D01*
X0123270Y0119128D02*
X0132870Y0119128D01*
X0132870Y0119726D02*
X0123109Y0119726D01*
X0122862Y0120325D02*
X0132870Y0120325D01*
X0132870Y0120923D02*
X0122525Y0120923D01*
X0121927Y0121522D02*
X0132870Y0121522D01*
X0132870Y0122120D02*
X0120973Y0122120D01*
X0121103Y0122719D02*
X0132870Y0122719D01*
X0132870Y0123317D02*
X0122048Y0123317D01*
X0122606Y0123916D02*
X0132870Y0123916D01*
X0132870Y0124514D02*
X0122992Y0124514D01*
X0123251Y0125113D02*
X0132870Y0125113D01*
X0132870Y0125711D02*
X0123406Y0125711D01*
X0119670Y0126908D02*
X0119070Y0126908D01*
X0119070Y0127507D02*
X0119670Y0127507D01*
X0119670Y0128105D02*
X0119070Y0128105D01*
X0119070Y0128704D02*
X0119670Y0128704D01*
X0119670Y0129302D02*
X0119070Y0129302D01*
X0119070Y0129901D02*
X0119670Y0129901D01*
X0114533Y0138280D02*
X0132870Y0138280D01*
X0132870Y0138878D02*
X0115380Y0138878D01*
X0115569Y0139477D02*
X0132870Y0139477D01*
X0132870Y0140075D02*
X0115569Y0140075D01*
X0115569Y0140674D02*
X0132870Y0140674D01*
X0132870Y0141272D02*
X0115569Y0141272D01*
X0115569Y0141871D02*
X0132870Y0141871D01*
X0132870Y0150849D02*
X0107433Y0150849D01*
X0107495Y0151447D02*
X0132870Y0151447D01*
X0132870Y0152046D02*
X0107495Y0152046D01*
X0107495Y0152644D02*
X0132870Y0152644D01*
X0132870Y0153243D02*
X0107495Y0153243D01*
X0107495Y0153841D02*
X0132870Y0153841D01*
X0132870Y0154440D02*
X0107495Y0154440D01*
X0107495Y0155038D02*
X0132870Y0155038D01*
X0132870Y0155637D02*
X0107495Y0155637D01*
X0107495Y0156235D02*
X0132870Y0156235D01*
X0132870Y0156834D02*
X0107495Y0156834D01*
X0107495Y0157432D02*
X0132870Y0157432D01*
X0112896Y0147258D02*
X0112296Y0147258D01*
X0112296Y0146659D02*
X0112896Y0146659D01*
X0112896Y0146061D02*
X0112296Y0146061D01*
X0112296Y0145462D02*
X0112896Y0145462D01*
X0112896Y0144864D02*
X0112296Y0144864D01*
X0112296Y0144265D02*
X0112896Y0144265D01*
X0112896Y0143667D02*
X0112296Y0143667D01*
X0112296Y0141871D02*
X0112896Y0141871D01*
X0112896Y0141272D02*
X0112296Y0141272D01*
X0112296Y0140674D02*
X0112896Y0140674D01*
X0112896Y0140075D02*
X0112296Y0140075D01*
X0112296Y0139477D02*
X0112896Y0139477D01*
X0112896Y0138878D02*
X0112296Y0138878D01*
X0112296Y0138280D02*
X0112896Y0138280D01*
X0109623Y0143667D02*
X0099621Y0143667D01*
X0099621Y0144265D02*
X0109623Y0144265D01*
X0109623Y0144864D02*
X0099621Y0144864D01*
X0099621Y0145462D02*
X0109623Y0145462D01*
X0109623Y0146061D02*
X0099621Y0146061D01*
X0099621Y0146659D02*
X0109687Y0146659D01*
X0110094Y0147258D02*
X0099067Y0147258D01*
X0102011Y0150849D02*
X0091685Y0150849D01*
X0091747Y0151447D02*
X0101949Y0151447D01*
X0101949Y0152046D02*
X0091747Y0152046D01*
X0091747Y0152644D02*
X0101949Y0152644D01*
X0101949Y0153243D02*
X0091747Y0153243D01*
X0091747Y0153841D02*
X0101949Y0153841D01*
X0101949Y0154440D02*
X0091747Y0154440D01*
X0091747Y0155038D02*
X0101949Y0155038D01*
X0101949Y0155637D02*
X0091747Y0155637D01*
X0091747Y0156235D02*
X0101949Y0156235D01*
X0101949Y0156834D02*
X0091747Y0156834D01*
X0091747Y0157432D02*
X0101949Y0157432D01*
X0094629Y0147258D02*
X0083319Y0147258D01*
X0083873Y0146659D02*
X0094075Y0146659D01*
X0094075Y0146061D02*
X0083873Y0146061D01*
X0083873Y0145462D02*
X0094075Y0145462D01*
X0094075Y0144864D02*
X0083873Y0144864D01*
X0083873Y0144265D02*
X0094075Y0144265D01*
X0094075Y0143667D02*
X0083873Y0143667D01*
X0083873Y0143068D02*
X0094075Y0143068D01*
X0094075Y0142470D02*
X0083873Y0142470D01*
X0083873Y0141871D02*
X0094075Y0141871D01*
X0094075Y0141272D02*
X0083873Y0141272D01*
X0083873Y0140674D02*
X0094075Y0140674D01*
X0094075Y0140075D02*
X0083873Y0140075D01*
X0083873Y0139477D02*
X0094075Y0139477D01*
X0094296Y0138878D02*
X0083652Y0138878D01*
X0078327Y0140075D02*
X0068125Y0140075D01*
X0068125Y0140674D02*
X0078327Y0140674D01*
X0078327Y0141272D02*
X0068125Y0141272D01*
X0068125Y0141871D02*
X0078327Y0141871D01*
X0078327Y0142470D02*
X0068125Y0142470D01*
X0068125Y0143068D02*
X0078327Y0143068D01*
X0078327Y0143667D02*
X0068125Y0143667D01*
X0068125Y0144265D02*
X0078327Y0144265D01*
X0078327Y0144864D02*
X0068125Y0144864D01*
X0068125Y0145462D02*
X0078327Y0145462D01*
X0078327Y0146061D02*
X0068125Y0146061D01*
X0068125Y0146659D02*
X0078327Y0146659D01*
X0078881Y0147258D02*
X0067571Y0147258D01*
X0075937Y0150849D02*
X0086262Y0150849D01*
X0086201Y0151447D02*
X0075999Y0151447D01*
X0075999Y0152046D02*
X0086201Y0152046D01*
X0086201Y0152644D02*
X0075999Y0152644D01*
X0075999Y0153243D02*
X0086201Y0153243D01*
X0086201Y0153841D02*
X0075999Y0153841D01*
X0075999Y0154440D02*
X0086201Y0154440D01*
X0086201Y0155038D02*
X0075999Y0155038D01*
X0075999Y0155637D02*
X0086201Y0155637D01*
X0086201Y0156235D02*
X0075999Y0156235D01*
X0075999Y0156834D02*
X0086201Y0156834D01*
X0086201Y0157432D02*
X0075999Y0157432D01*
X0075550Y0134689D02*
X0070036Y0134689D01*
X0067043Y0115537D02*
X0116881Y0115537D01*
X0116282Y0116135D02*
X0011470Y0116135D01*
X0011470Y0116734D02*
X0115906Y0116734D01*
X0115658Y0117332D02*
X0011470Y0117332D01*
X0039601Y0072545D02*
X0038957Y0071901D01*
X0038957Y0064296D01*
X0039601Y0063652D01*
X0043859Y0063652D01*
X0044503Y0064296D01*
X0044503Y0071901D01*
X0043859Y0072545D01*
X0039601Y0072545D01*
X0039500Y0072444D02*
X0011470Y0072444D01*
X0011470Y0071845D02*
X0038957Y0071845D01*
X0038957Y0071247D02*
X0011470Y0071247D01*
X0011470Y0070648D02*
X0038957Y0070648D01*
X0038957Y0070050D02*
X0011470Y0070050D01*
X0011470Y0069451D02*
X0038957Y0069451D01*
X0038957Y0068853D02*
X0011470Y0068853D01*
X0011470Y0068254D02*
X0038957Y0068254D01*
X0038957Y0067656D02*
X0011470Y0067656D01*
X0011470Y0067057D02*
X0038957Y0067057D01*
X0038957Y0066459D02*
X0011470Y0066459D01*
X0011470Y0065860D02*
X0038957Y0065860D01*
X0038957Y0065262D02*
X0011470Y0065262D01*
X0011470Y0064663D02*
X0038957Y0064663D01*
X0039188Y0064065D02*
X0011470Y0064065D01*
X0027746Y0054488D02*
X0046831Y0054488D01*
X0046831Y0053890D02*
X0028833Y0053890D01*
X0029431Y0053291D02*
X0046831Y0053291D01*
X0046831Y0052693D02*
X0029823Y0052693D01*
X0030070Y0052094D02*
X0047222Y0052094D01*
X0045842Y0049102D02*
X0052025Y0049102D01*
X0051350Y0048503D02*
X0046518Y0048503D01*
X0047017Y0047905D02*
X0050850Y0047905D01*
X0050602Y0047306D02*
X0047265Y0047306D01*
X0047475Y0046708D02*
X0050393Y0046708D01*
X0050393Y0046109D02*
X0047475Y0046109D01*
X0047475Y0045511D02*
X0050393Y0045511D01*
X0050393Y0044912D02*
X0047475Y0044912D01*
X0047475Y0044314D02*
X0050393Y0044314D01*
X0050393Y0043715D02*
X0047475Y0043715D01*
X0047475Y0043117D02*
X0050393Y0043117D01*
X0050393Y0042518D02*
X0047475Y0042518D01*
X0047475Y0041920D02*
X0050393Y0041920D01*
X0050393Y0041321D02*
X0047475Y0041321D01*
X0047475Y0040723D02*
X0050393Y0040723D01*
X0050631Y0040124D02*
X0047236Y0040124D01*
X0046988Y0039526D02*
X0050879Y0039526D01*
X0051419Y0038927D02*
X0046448Y0038927D01*
X0045674Y0038329D02*
X0052193Y0038329D01*
X0053855Y0043750D02*
X0054670Y0044600D01*
X0054670Y0047100D01*
X0055920Y0048350D01*
X0055920Y0055850D01*
X0062170Y0062100D01*
X0062170Y0109600D01*
X0065920Y0113350D01*
X0067797Y0114938D02*
X0117930Y0114938D01*
X0116300Y0104763D02*
X0115700Y0104763D01*
X0115700Y0104165D02*
X0116300Y0104165D01*
X0116300Y0103566D02*
X0115700Y0103566D01*
X0115700Y0102968D02*
X0116300Y0102968D01*
X0116300Y0102369D02*
X0115700Y0102369D01*
X0115700Y0101771D02*
X0116300Y0101771D01*
X0116300Y0101172D02*
X0115700Y0101172D01*
X0115700Y0100574D02*
X0116300Y0100574D01*
X0116300Y0098778D02*
X0115700Y0098778D01*
X0115700Y0098180D02*
X0116300Y0098180D01*
X0116300Y0097581D02*
X0115700Y0097581D01*
X0115700Y0096983D02*
X0116300Y0096983D01*
X0116300Y0096384D02*
X0115700Y0096384D01*
X0115700Y0095786D02*
X0116300Y0095786D01*
X0116300Y0095187D02*
X0115700Y0095187D01*
X0111021Y0100574D02*
X0063570Y0100574D01*
X0063570Y0101172D02*
X0111115Y0101172D01*
X0111302Y0101771D02*
X0063570Y0101771D01*
X0063570Y0102369D02*
X0111570Y0102369D01*
X0111939Y0102968D02*
X0063570Y0102968D01*
X0063570Y0103566D02*
X0112445Y0103566D01*
X0113157Y0104165D02*
X0063570Y0104165D01*
X0063570Y0104763D02*
X0114326Y0104763D01*
X0105772Y0088005D02*
X0063570Y0088005D01*
X0063570Y0087406D02*
X0104756Y0087406D01*
X0104276Y0086808D02*
X0063570Y0086808D01*
X0063570Y0081421D02*
X0069276Y0081421D01*
X0068775Y0080823D02*
X0063570Y0080823D01*
X0063570Y0080224D02*
X0068527Y0080224D01*
X0068470Y0079626D02*
X0063570Y0079626D01*
X0063570Y0079027D02*
X0068505Y0079027D01*
X0068753Y0078429D02*
X0063570Y0078429D01*
X0063570Y0077830D02*
X0069225Y0077830D01*
X0070235Y0077232D02*
X0063570Y0077232D01*
X0063570Y0076633D02*
X0071907Y0076633D01*
X0072505Y0076035D02*
X0063570Y0076035D01*
X0063570Y0075436D02*
X0073104Y0075436D01*
X0073702Y0074838D02*
X0063570Y0074838D01*
X0063570Y0074239D02*
X0074301Y0074239D01*
X0074899Y0073641D02*
X0063570Y0073641D01*
X0070920Y0079600D02*
X0093420Y0057100D01*
X0093420Y0053350D01*
X0103420Y0043350D01*
X0104085Y0043700D01*
X0098451Y0050299D02*
X0132870Y0050299D01*
X0132870Y0050897D02*
X0097853Y0050897D01*
X0097254Y0051496D02*
X0132870Y0051496D01*
X0120108Y0042518D02*
X0117390Y0042518D01*
X0117390Y0041920D02*
X0120108Y0041920D01*
X0120108Y0041321D02*
X0117390Y0041321D01*
X0117390Y0040723D02*
X0120158Y0040723D01*
X0120309Y0040124D02*
X0117172Y0040124D01*
X0116924Y0039526D02*
X0120576Y0039526D01*
X0121002Y0038927D02*
X0116413Y0038927D01*
X0115710Y0038329D02*
X0121682Y0038329D01*
X0115427Y0036533D02*
X0132870Y0036533D01*
X0132870Y0035934D02*
X0115427Y0035934D01*
X0115427Y0035336D02*
X0132870Y0035336D01*
X0132870Y0034737D02*
X0115427Y0034737D01*
X0115427Y0034139D02*
X0132870Y0034139D01*
X0132870Y0033540D02*
X0115427Y0033540D01*
X0115427Y0032942D02*
X0132870Y0032942D01*
X0132870Y0032343D02*
X0115427Y0032343D01*
X0115427Y0031745D02*
X0132870Y0031745D01*
X0132870Y0031146D02*
X0115427Y0031146D01*
X0115427Y0030548D02*
X0132870Y0030548D01*
X0132870Y0029949D02*
X0115427Y0029949D01*
X0115427Y0029351D02*
X0132870Y0029351D01*
X0132870Y0028752D02*
X0125355Y0028752D01*
X0125038Y0028884D02*
X0124331Y0029024D01*
X0124270Y0029024D01*
X0124270Y0023300D01*
X0127632Y0023300D01*
X0127632Y0025723D01*
X0127491Y0026430D01*
X0127215Y0027097D01*
X0126815Y0027697D01*
X0126304Y0028207D01*
X0125705Y0028608D01*
X0125038Y0028884D01*
X0124270Y0028752D02*
X0123670Y0028752D01*
X0123670Y0029024D02*
X0123609Y0029024D01*
X0122902Y0028884D01*
X0122235Y0028608D01*
X0121635Y0028207D01*
X0121125Y0027697D01*
X0120725Y0027097D01*
X0120448Y0026430D01*
X0120308Y0025723D01*
X0120308Y0023300D01*
X0123670Y0023300D01*
X0123670Y0029024D01*
X0123670Y0028154D02*
X0124270Y0028154D01*
X0124270Y0027555D02*
X0123670Y0027555D01*
X0123670Y0026957D02*
X0124270Y0026957D01*
X0124270Y0026358D02*
X0123670Y0026358D01*
X0123670Y0025760D02*
X0124270Y0025760D01*
X0124270Y0025161D02*
X0123670Y0025161D01*
X0123670Y0024563D02*
X0124270Y0024563D01*
X0124270Y0023964D02*
X0123670Y0023964D01*
X0123670Y0023366D02*
X0124270Y0023366D01*
X0124270Y0023300D02*
X0123670Y0023300D01*
X0123670Y0022700D01*
X0124270Y0022700D01*
X0124270Y0023300D01*
X0124270Y0022767D02*
X0132870Y0022767D01*
X0132870Y0022169D02*
X0127632Y0022169D01*
X0127632Y0022700D02*
X0127632Y0020277D01*
X0127491Y0019570D01*
X0127215Y0018903D01*
X0126815Y0018303D01*
X0126304Y0017793D01*
X0125705Y0017392D01*
X0125038Y0017116D01*
X0124331Y0016976D01*
X0124270Y0016976D01*
X0124270Y0022700D01*
X0127632Y0022700D01*
X0127632Y0023366D02*
X0132870Y0023366D01*
X0132870Y0023964D02*
X0127632Y0023964D01*
X0127632Y0024563D02*
X0132870Y0024563D01*
X0132870Y0025161D02*
X0127632Y0025161D01*
X0127625Y0025760D02*
X0132870Y0025760D01*
X0132870Y0026358D02*
X0127506Y0026358D01*
X0127273Y0026957D02*
X0132870Y0026957D01*
X0132870Y0027555D02*
X0126909Y0027555D01*
X0126357Y0028154D02*
X0132870Y0028154D01*
X0132870Y0021570D02*
X0127632Y0021570D01*
X0127632Y0020972D02*
X0132870Y0020972D01*
X0132870Y0020373D02*
X0127632Y0020373D01*
X0127532Y0019775D02*
X0132870Y0019775D01*
X0132870Y0019176D02*
X0127328Y0019176D01*
X0126998Y0018578D02*
X0132870Y0018578D01*
X0132870Y0017979D02*
X0126490Y0017979D01*
X0125676Y0017381D02*
X0132870Y0017381D01*
X0132870Y0016782D02*
X0115473Y0016782D01*
X0115671Y0017381D02*
X0122264Y0017381D01*
X0122235Y0017392D02*
X0122902Y0017116D01*
X0123609Y0016976D01*
X0123670Y0016976D01*
X0123670Y0022700D01*
X0120308Y0022700D01*
X0120308Y0020277D01*
X0120448Y0019570D01*
X0120725Y0018903D01*
X0121125Y0018303D01*
X0121635Y0017793D01*
X0122235Y0017392D01*
X0121449Y0017979D02*
X0116365Y0017979D01*
X0116964Y0018578D02*
X0120942Y0018578D01*
X0120611Y0019176D02*
X0117269Y0019176D01*
X0117517Y0019775D02*
X0120408Y0019775D01*
X0120308Y0020373D02*
X0117590Y0020373D01*
X0117590Y0020972D02*
X0120308Y0020972D01*
X0120308Y0021570D02*
X0117590Y0021570D01*
X0117590Y0022169D02*
X0120308Y0022169D01*
X0120308Y0023366D02*
X0117590Y0023366D01*
X0117590Y0023964D02*
X0120308Y0023964D01*
X0120308Y0024563D02*
X0117590Y0024563D01*
X0117590Y0025161D02*
X0120308Y0025161D01*
X0120315Y0025760D02*
X0117590Y0025760D01*
X0117462Y0026358D02*
X0120434Y0026358D01*
X0120667Y0026957D02*
X0117214Y0026957D01*
X0116831Y0027555D02*
X0121031Y0027555D01*
X0121582Y0028154D02*
X0116232Y0028154D01*
X0115427Y0028752D02*
X0122585Y0028752D01*
X0123670Y0022767D02*
X0117590Y0022767D01*
X0123670Y0022169D02*
X0124270Y0022169D01*
X0124270Y0021570D02*
X0123670Y0021570D01*
X0123670Y0020972D02*
X0124270Y0020972D01*
X0124270Y0020373D02*
X0123670Y0020373D01*
X0123670Y0019775D02*
X0124270Y0019775D01*
X0124270Y0019176D02*
X0123670Y0019176D01*
X0123670Y0018578D02*
X0124270Y0018578D01*
X0124270Y0017979D02*
X0123670Y0017979D01*
X0123670Y0017381D02*
X0124270Y0017381D01*
X0132870Y0016184D02*
X0114978Y0016184D01*
X0114536Y0015585D02*
X0132870Y0015585D01*
X0132870Y0014987D02*
X0114094Y0014987D01*
X0113652Y0014388D02*
X0132870Y0014388D01*
X0132870Y0013790D02*
X0113281Y0013790D01*
X0112768Y0013191D02*
X0132870Y0013191D01*
X0132870Y0012593D02*
X0011470Y0012593D01*
X0011470Y0013191D02*
X0071153Y0013191D01*
X0070559Y0013790D02*
X0011470Y0013790D01*
X0011470Y0014388D02*
X0019624Y0014388D01*
X0020559Y0014001D02*
X0017582Y0015234D01*
X0015304Y0017512D01*
X0014071Y0020489D01*
X0014071Y0023711D01*
X0015304Y0026688D01*
X0017582Y0028966D01*
X0020559Y0030199D01*
X0023781Y0030199D01*
X0026758Y0028966D01*
X0029036Y0026688D01*
X0030269Y0023711D01*
X0030269Y0020489D01*
X0029036Y0017512D01*
X0026758Y0015234D01*
X0023781Y0014001D01*
X0020559Y0014001D01*
X0018179Y0014987D02*
X0011470Y0014987D01*
X0011470Y0015585D02*
X0017231Y0015585D01*
X0016632Y0016184D02*
X0011470Y0016184D01*
X0011470Y0016782D02*
X0016034Y0016782D01*
X0015435Y0017381D02*
X0011470Y0017381D01*
X0011470Y0017979D02*
X0015110Y0017979D01*
X0014862Y0018578D02*
X0011470Y0018578D01*
X0011470Y0019176D02*
X0014614Y0019176D01*
X0014367Y0019775D02*
X0011470Y0019775D01*
X0011470Y0020373D02*
X0014119Y0020373D01*
X0014071Y0020972D02*
X0011470Y0020972D01*
X0011470Y0021570D02*
X0014071Y0021570D01*
X0014071Y0022169D02*
X0011470Y0022169D01*
X0011470Y0022767D02*
X0014071Y0022767D01*
X0014071Y0023366D02*
X0011470Y0023366D01*
X0011470Y0023964D02*
X0014176Y0023964D01*
X0014424Y0024563D02*
X0011470Y0024563D01*
X0011470Y0025161D02*
X0014671Y0025161D01*
X0014919Y0025760D02*
X0011470Y0025760D01*
X0011470Y0026358D02*
X0015167Y0026358D01*
X0015573Y0026957D02*
X0011470Y0026957D01*
X0011470Y0027555D02*
X0016171Y0027555D01*
X0016770Y0028154D02*
X0011470Y0028154D01*
X0011470Y0028752D02*
X0017368Y0028752D01*
X0018511Y0029351D02*
X0011470Y0029351D01*
X0011470Y0029949D02*
X0019956Y0029949D01*
X0024384Y0029949D02*
X0062197Y0029949D01*
X0062197Y0029351D02*
X0025829Y0029351D01*
X0026972Y0028752D02*
X0042838Y0028752D01*
X0043254Y0028924D02*
X0041981Y0028397D01*
X0041007Y0027423D01*
X0040480Y0026151D01*
X0040480Y0020049D01*
X0041007Y0018777D01*
X0041981Y0017803D01*
X0043254Y0017276D01*
X0044631Y0017276D01*
X0045904Y0017803D01*
X0046877Y0018777D01*
X0047405Y0020049D01*
X0047405Y0026151D01*
X0046877Y0027423D01*
X0045904Y0028397D01*
X0044631Y0028924D01*
X0043254Y0028924D01*
X0041738Y0028154D02*
X0027570Y0028154D01*
X0028169Y0027555D02*
X0041139Y0027555D01*
X0040814Y0026957D02*
X0028767Y0026957D01*
X0029173Y0026358D02*
X0040566Y0026358D01*
X0040480Y0025760D02*
X0029421Y0025760D01*
X0029668Y0025161D02*
X0040480Y0025161D01*
X0040480Y0024563D02*
X0029916Y0024563D01*
X0030164Y0023964D02*
X0040480Y0023964D01*
X0040480Y0023366D02*
X0030269Y0023366D01*
X0030269Y0022767D02*
X0040480Y0022767D01*
X0040480Y0022169D02*
X0030269Y0022169D01*
X0030269Y0021570D02*
X0040480Y0021570D01*
X0040480Y0020972D02*
X0030269Y0020972D01*
X0030221Y0020373D02*
X0040480Y0020373D01*
X0040594Y0019775D02*
X0029973Y0019775D01*
X0029725Y0019176D02*
X0040842Y0019176D01*
X0041206Y0018578D02*
X0029477Y0018578D01*
X0029230Y0017979D02*
X0041805Y0017979D01*
X0043000Y0017381D02*
X0028905Y0017381D01*
X0028306Y0016782D02*
X0067623Y0016782D01*
X0067047Y0017381D02*
X0064570Y0017381D01*
X0065765Y0017979D02*
X0066472Y0017979D01*
X0068212Y0016184D02*
X0027708Y0016184D01*
X0027109Y0015585D02*
X0068800Y0015585D01*
X0069388Y0014987D02*
X0026161Y0014987D01*
X0024716Y0014388D02*
X0069977Y0014388D01*
X0071830Y0016782D02*
X0111690Y0016782D01*
X0111248Y0016184D02*
X0072418Y0016184D01*
X0072402Y0017216D02*
X0073109Y0017076D01*
X0073170Y0017076D01*
X0073170Y0022800D01*
X0073770Y0022800D01*
X0073770Y0023400D01*
X0077132Y0023400D01*
X0077132Y0025823D01*
X0076991Y0026530D01*
X0076715Y0027197D01*
X0076315Y0027797D01*
X0075804Y0028307D01*
X0075205Y0028708D01*
X0074538Y0028984D01*
X0073831Y0029124D01*
X0073770Y0029124D01*
X0073770Y0023400D01*
X0073170Y0023400D01*
X0073170Y0029124D01*
X0073109Y0029124D01*
X0072402Y0028984D01*
X0071735Y0028708D01*
X0071135Y0028307D01*
X0070625Y0027797D01*
X0070225Y0027197D01*
X0069948Y0026530D01*
X0069808Y0025823D01*
X0069808Y0023400D01*
X0073170Y0023400D01*
X0073170Y0022800D01*
X0069808Y0022800D01*
X0069808Y0020377D01*
X0069948Y0019670D01*
X0070225Y0019003D01*
X0070625Y0018403D01*
X0071135Y0017893D01*
X0071735Y0017492D01*
X0072402Y0017216D01*
X0072005Y0017381D02*
X0071242Y0017381D01*
X0071049Y0017979D02*
X0070654Y0017979D01*
X0070509Y0018578D02*
X0070065Y0018578D01*
X0070153Y0019176D02*
X0069483Y0019176D01*
X0069928Y0019775D02*
X0068907Y0019775D01*
X0068331Y0020373D02*
X0069809Y0020373D01*
X0069808Y0020972D02*
X0067756Y0020972D01*
X0067180Y0021570D02*
X0069808Y0021570D01*
X0069808Y0022169D02*
X0067090Y0022169D01*
X0067090Y0022767D02*
X0069808Y0022767D01*
X0069808Y0023964D02*
X0067090Y0023964D01*
X0067090Y0023366D02*
X0073170Y0023366D01*
X0073170Y0023964D02*
X0073770Y0023964D01*
X0073770Y0023366D02*
X0090980Y0023366D01*
X0090980Y0023964D02*
X0077132Y0023964D01*
X0077132Y0024563D02*
X0090980Y0024563D01*
X0090980Y0025161D02*
X0077132Y0025161D01*
X0077132Y0025760D02*
X0090980Y0025760D01*
X0091108Y0026358D02*
X0077026Y0026358D01*
X0076815Y0026957D02*
X0091355Y0026957D01*
X0091739Y0027555D02*
X0076476Y0027555D01*
X0075957Y0028154D02*
X0092338Y0028154D01*
X0093580Y0028752D02*
X0075097Y0028752D01*
X0073770Y0028752D02*
X0073170Y0028752D01*
X0073170Y0028154D02*
X0073770Y0028154D01*
X0073770Y0027555D02*
X0073170Y0027555D01*
X0073170Y0026957D02*
X0073770Y0026957D01*
X0073770Y0026358D02*
X0073170Y0026358D01*
X0073170Y0025760D02*
X0073770Y0025760D01*
X0073770Y0025161D02*
X0073170Y0025161D01*
X0073170Y0024563D02*
X0073770Y0024563D01*
X0073770Y0022800D02*
X0077132Y0022800D01*
X0077132Y0020377D01*
X0076991Y0019670D01*
X0076715Y0019003D01*
X0076315Y0018403D01*
X0075804Y0017893D01*
X0075205Y0017492D01*
X0074538Y0017216D01*
X0073831Y0017076D01*
X0073770Y0017076D01*
X0073770Y0022800D01*
X0073770Y0022767D02*
X0073170Y0022767D01*
X0073170Y0022169D02*
X0073770Y0022169D01*
X0073770Y0021570D02*
X0073170Y0021570D01*
X0073170Y0020972D02*
X0073770Y0020972D01*
X0073770Y0020373D02*
X0073170Y0020373D01*
X0073170Y0019775D02*
X0073770Y0019775D01*
X0073770Y0019176D02*
X0073170Y0019176D01*
X0073170Y0018578D02*
X0073770Y0018578D01*
X0073770Y0017979D02*
X0073170Y0017979D01*
X0073170Y0017381D02*
X0073770Y0017381D01*
X0074935Y0017381D02*
X0093259Y0017381D01*
X0092205Y0017979D02*
X0075890Y0017979D01*
X0076431Y0018578D02*
X0091606Y0018578D01*
X0091300Y0019176D02*
X0076787Y0019176D01*
X0077012Y0019775D02*
X0091052Y0019775D01*
X0090980Y0020373D02*
X0077131Y0020373D01*
X0077132Y0020972D02*
X0090980Y0020972D01*
X0090980Y0021570D02*
X0077132Y0021570D01*
X0077132Y0022169D02*
X0090980Y0022169D01*
X0090980Y0022767D02*
X0077132Y0022767D01*
X0071843Y0028752D02*
X0065197Y0028752D01*
X0065197Y0029351D02*
X0096689Y0029351D01*
X0096091Y0029949D02*
X0065197Y0029949D01*
X0065197Y0030548D02*
X0095492Y0030548D01*
X0094894Y0031146D02*
X0065197Y0031146D01*
X0065197Y0031745D02*
X0094295Y0031745D01*
X0093697Y0032343D02*
X0065197Y0032343D01*
X0065197Y0032942D02*
X0093098Y0032942D01*
X0092500Y0033540D02*
X0065197Y0033540D01*
X0065197Y0034139D02*
X0091901Y0034139D01*
X0091303Y0034737D02*
X0065197Y0034737D01*
X0065197Y0035336D02*
X0090704Y0035336D01*
X0090106Y0035934D02*
X0065197Y0035934D01*
X0065197Y0036533D02*
X0089507Y0036533D01*
X0087712Y0038329D02*
X0075553Y0038329D01*
X0076258Y0038927D02*
X0087113Y0038927D01*
X0086514Y0039526D02*
X0076700Y0039526D01*
X0076980Y0040124D02*
X0085916Y0040124D01*
X0085317Y0040723D02*
X0077142Y0040723D01*
X0077202Y0041321D02*
X0084719Y0041321D01*
X0084120Y0041920D02*
X0077202Y0041920D01*
X0077202Y0042518D02*
X0083522Y0042518D01*
X0071422Y0049102D02*
X0065527Y0049102D01*
X0066203Y0048503D02*
X0070752Y0048503D01*
X0070333Y0047905D02*
X0066702Y0047905D01*
X0066950Y0047306D02*
X0070071Y0047306D01*
X0069924Y0046708D02*
X0067160Y0046708D01*
X0067160Y0046109D02*
X0069878Y0046109D01*
X0069878Y0045511D02*
X0067160Y0045511D01*
X0067160Y0044912D02*
X0069878Y0044912D01*
X0069878Y0044314D02*
X0067160Y0044314D01*
X0062197Y0037132D02*
X0011470Y0037132D01*
X0011470Y0036533D02*
X0062197Y0036533D01*
X0062197Y0035934D02*
X0011470Y0035934D01*
X0011470Y0035336D02*
X0062197Y0035336D01*
X0062197Y0034737D02*
X0011470Y0034737D01*
X0011470Y0034139D02*
X0062197Y0034139D01*
X0062197Y0033540D02*
X0011470Y0033540D01*
X0011470Y0032942D02*
X0062197Y0032942D01*
X0062197Y0032343D02*
X0011470Y0032343D01*
X0011470Y0031745D02*
X0062197Y0031745D01*
X0062197Y0031146D02*
X0011470Y0031146D01*
X0011470Y0030548D02*
X0062197Y0030548D01*
X0062197Y0028752D02*
X0054889Y0028752D01*
X0054474Y0028924D02*
X0053096Y0028924D01*
X0051824Y0028397D01*
X0050850Y0027423D01*
X0050323Y0026151D01*
X0050323Y0020049D01*
X0050850Y0018777D01*
X0051824Y0017803D01*
X0053096Y0017276D01*
X0054474Y0017276D01*
X0055746Y0017803D01*
X0056720Y0018777D01*
X0057247Y0020049D01*
X0057247Y0026151D01*
X0056720Y0027423D01*
X0055746Y0028397D01*
X0054474Y0028924D01*
X0055990Y0028154D02*
X0061423Y0028154D01*
X0060824Y0027555D02*
X0056588Y0027555D01*
X0056913Y0026957D02*
X0060499Y0026957D01*
X0060251Y0026358D02*
X0057161Y0026358D01*
X0057247Y0025760D02*
X0060165Y0025760D01*
X0060165Y0025161D02*
X0057247Y0025161D01*
X0057247Y0024563D02*
X0060165Y0024563D01*
X0060165Y0023964D02*
X0057247Y0023964D01*
X0057247Y0023366D02*
X0060165Y0023366D01*
X0060165Y0022767D02*
X0057247Y0022767D01*
X0057247Y0022169D02*
X0060165Y0022169D01*
X0060165Y0021570D02*
X0057247Y0021570D01*
X0057247Y0020972D02*
X0060165Y0020972D01*
X0060165Y0020373D02*
X0057247Y0020373D01*
X0057133Y0019775D02*
X0060279Y0019775D01*
X0060527Y0019176D02*
X0056886Y0019176D01*
X0056521Y0018578D02*
X0060891Y0018578D01*
X0061490Y0017979D02*
X0055923Y0017979D01*
X0054727Y0017381D02*
X0062685Y0017381D01*
X0067090Y0024563D02*
X0069808Y0024563D01*
X0069808Y0025161D02*
X0067090Y0025161D01*
X0067090Y0025760D02*
X0069808Y0025760D01*
X0069914Y0026358D02*
X0067004Y0026358D01*
X0066756Y0026957D02*
X0070125Y0026957D01*
X0070464Y0027555D02*
X0066431Y0027555D01*
X0065832Y0028154D02*
X0070982Y0028154D01*
X0052681Y0028752D02*
X0045046Y0028752D01*
X0046147Y0028154D02*
X0051580Y0028154D01*
X0050982Y0027555D02*
X0046746Y0027555D01*
X0047071Y0026957D02*
X0050657Y0026957D01*
X0050409Y0026358D02*
X0047319Y0026358D01*
X0047405Y0025760D02*
X0050323Y0025760D01*
X0050323Y0025161D02*
X0047405Y0025161D01*
X0047405Y0024563D02*
X0050323Y0024563D01*
X0050323Y0023964D02*
X0047405Y0023964D01*
X0047405Y0023366D02*
X0050323Y0023366D01*
X0050323Y0022767D02*
X0047405Y0022767D01*
X0047405Y0022169D02*
X0050323Y0022169D01*
X0050323Y0021570D02*
X0047405Y0021570D01*
X0047405Y0020972D02*
X0050323Y0020972D01*
X0050323Y0020373D02*
X0047405Y0020373D01*
X0047291Y0019775D02*
X0050436Y0019775D01*
X0050684Y0019176D02*
X0047043Y0019176D01*
X0046679Y0018578D02*
X0051049Y0018578D01*
X0051647Y0017979D02*
X0046080Y0017979D01*
X0044885Y0017381D02*
X0052843Y0017381D01*
X0041036Y0039526D02*
X0028614Y0039526D01*
X0029329Y0040124D02*
X0040788Y0040124D01*
X0040550Y0040723D02*
X0029810Y0040723D01*
X0030135Y0041321D02*
X0040550Y0041321D01*
X0040550Y0041920D02*
X0030342Y0041920D01*
X0030451Y0042518D02*
X0040550Y0042518D01*
X0040550Y0043117D02*
X0026670Y0043117D01*
X0029978Y0044912D02*
X0040550Y0044912D01*
X0040550Y0044314D02*
X0030242Y0044314D01*
X0030402Y0043715D02*
X0040550Y0043715D01*
X0040550Y0045511D02*
X0029587Y0045511D01*
X0029015Y0046109D02*
X0040550Y0046109D01*
X0040550Y0046708D02*
X0028052Y0046708D01*
X0028037Y0047306D02*
X0040759Y0047306D01*
X0041007Y0047905D02*
X0028953Y0047905D01*
X0029552Y0048503D02*
X0041507Y0048503D01*
X0042183Y0049102D02*
X0029872Y0049102D01*
X0030120Y0049700D02*
X0054520Y0049700D01*
X0054520Y0050299D02*
X0030270Y0050299D01*
X0030270Y0050897D02*
X0054520Y0050897D01*
X0054520Y0051496D02*
X0030270Y0051496D01*
X0044271Y0064065D02*
X0054936Y0064065D01*
X0054705Y0064663D02*
X0044503Y0064663D01*
X0044503Y0065262D02*
X0054705Y0065262D01*
X0054705Y0065860D02*
X0044503Y0065860D01*
X0044503Y0066459D02*
X0054705Y0066459D01*
X0054705Y0067057D02*
X0044503Y0067057D01*
X0044503Y0067656D02*
X0054705Y0067656D01*
X0054705Y0068254D02*
X0044503Y0068254D01*
X0044503Y0068853D02*
X0054705Y0068853D01*
X0054705Y0069451D02*
X0044503Y0069451D01*
X0044503Y0070050D02*
X0054705Y0070050D01*
X0054705Y0070648D02*
X0044503Y0070648D01*
X0044503Y0071247D02*
X0054705Y0071247D01*
X0054705Y0071845D02*
X0044503Y0071845D01*
X0043960Y0072444D02*
X0055248Y0072444D01*
X0051993Y0060473D02*
X0058564Y0060473D01*
X0057965Y0059875D02*
X0052377Y0059875D01*
X0052377Y0059276D02*
X0057366Y0059276D01*
X0056768Y0058678D02*
X0052377Y0058678D01*
X0052377Y0058079D02*
X0056169Y0058079D01*
X0055571Y0057481D02*
X0052377Y0057481D01*
X0052377Y0056882D02*
X0054972Y0056882D01*
X0054520Y0056284D02*
X0052377Y0056284D01*
X0052377Y0055685D02*
X0054520Y0055685D01*
X0054520Y0055087D02*
X0052377Y0055087D01*
X0052377Y0054488D02*
X0054520Y0054488D01*
X0054520Y0053890D02*
X0052377Y0053890D01*
X0052377Y0053291D02*
X0054520Y0053291D01*
X0054520Y0052693D02*
X0052377Y0052693D01*
X0051986Y0052094D02*
X0054520Y0052094D01*
X0080655Y0071845D02*
X0086201Y0071845D01*
X0086201Y0071247D02*
X0081253Y0071247D01*
X0081852Y0070648D02*
X0086201Y0070648D01*
X0086201Y0070050D02*
X0082450Y0070050D01*
X0083049Y0069451D02*
X0086201Y0069451D01*
X0086201Y0068853D02*
X0083647Y0068853D01*
X0084246Y0068254D02*
X0086201Y0068254D01*
X0086201Y0067656D02*
X0084844Y0067656D01*
X0085443Y0067057D02*
X0086201Y0067057D01*
X0086201Y0066459D02*
X0086041Y0066459D01*
X0092026Y0060473D02*
X0094459Y0060473D01*
X0094075Y0059875D02*
X0092625Y0059875D01*
X0093223Y0059276D02*
X0094075Y0059276D01*
X0094075Y0058678D02*
X0093822Y0058678D01*
X0113670Y0072600D02*
X0102970Y0083300D01*
X0096770Y0083300D01*
X0098411Y0081421D02*
X0102869Y0081421D01*
X0107221Y0083217D02*
X0112379Y0083217D01*
X0110096Y0083815D02*
X0108205Y0083815D01*
X0106470Y0085600D02*
X0110445Y0085600D01*
X0124029Y0085611D02*
X0124174Y0085611D01*
X0097288Y0028752D02*
X0095305Y0028752D01*
X0096547Y0028154D02*
X0097886Y0028154D01*
X0098485Y0027555D02*
X0097146Y0027555D01*
X0097529Y0026957D02*
X0099083Y0026957D01*
X0132870Y0011994D02*
X0011470Y0011994D01*
D15*
X0030570Y0074500D03*
X0044570Y0093600D03*
X0022970Y0095500D03*
X0039970Y0120600D03*
X0056470Y0122300D03*
X0068870Y0136900D03*
X0076770Y0132500D03*
X0057470Y0141100D03*
X0102070Y0116000D03*
X0106470Y0085600D03*
X0096770Y0083300D03*
D16*
X0113927Y0043700D02*
X0113927Y0023200D01*
X0114127Y0023000D01*
X0114127Y0017557D01*
X0111870Y0014500D01*
X0071970Y0014500D01*
X0068670Y0017857D01*
X0063627Y0023100D01*
X0063697Y0023170D01*
X0063697Y0043750D01*
X0039970Y0120600D02*
X0041770Y0122400D01*
X0041770Y0122500D01*
X0041730Y0122540D01*
X0041730Y0154713D01*
D17*
X0065920Y0113350D03*
X0070920Y0079600D03*
X0074670Y0053350D03*
M02*
