G75*
%MOIN*%
%OFA0B0*%
%FSLAX25Y25*%
%IPPOS*%
%LPD*%
%AMOC8*
5,1,8,0,0,1.08239X$1,22.5*
%
%ADD10R,0.05000X0.02200*%
%ADD11R,0.02200X0.05000*%
%ADD12R,0.02362X0.08661*%
%ADD13C,0.01772*%
%ADD14R,0.04331X0.03937*%
%ADD15R,0.06299X0.07087*%
%ADD16R,0.03150X0.03543*%
%ADD17R,0.03937X0.04331*%
%ADD18C,0.01181*%
D10*
X0061070Y0094676D03*
X0061070Y0097826D03*
X0061070Y0100976D03*
X0061070Y0104125D03*
X0061070Y0107275D03*
X0061070Y0110424D03*
X0061070Y0113574D03*
X0061070Y0116724D03*
X0094870Y0116724D03*
X0094870Y0113574D03*
X0094870Y0110424D03*
X0094870Y0107275D03*
X0094870Y0104125D03*
X0094870Y0100976D03*
X0094870Y0097826D03*
X0094870Y0094676D03*
D11*
X0088994Y0088800D03*
X0085844Y0088800D03*
X0082694Y0088800D03*
X0079545Y0088800D03*
X0076395Y0088800D03*
X0073246Y0088800D03*
X0070096Y0088800D03*
X0066946Y0088800D03*
X0066946Y0122600D03*
X0070096Y0122600D03*
X0073246Y0122600D03*
X0076395Y0122600D03*
X0079545Y0122600D03*
X0082694Y0122600D03*
X0085844Y0122600D03*
X0088994Y0122600D03*
D12*
X0032970Y0103036D03*
X0027970Y0103036D03*
X0022970Y0103036D03*
X0017970Y0103036D03*
X0017970Y0082564D03*
X0022970Y0082564D03*
X0027970Y0082564D03*
X0032970Y0082564D03*
D13*
X0045204Y0085316D02*
X0049254Y0089366D01*
X0052595Y0086025D02*
X0048545Y0081975D01*
X0051886Y0078634D02*
X0055936Y0082684D01*
D14*
X0051316Y0099500D03*
X0044623Y0099500D03*
X0025616Y0114700D03*
X0018923Y0114700D03*
X0043670Y0127254D03*
X0043670Y0133946D03*
X0051870Y0133946D03*
X0051870Y0127254D03*
X0025116Y0070300D03*
X0018423Y0070300D03*
X0107570Y0130954D03*
X0107570Y0137646D03*
X0107570Y0143754D03*
X0107570Y0150446D03*
D15*
X0031482Y0124600D03*
X0020458Y0124600D03*
D16*
X0118630Y0146837D03*
X0126110Y0146837D03*
X0122370Y0138569D03*
D17*
X0038623Y0058200D03*
X0045316Y0058200D03*
X0045216Y0067300D03*
X0038523Y0067300D03*
X0050970Y0107454D03*
X0050970Y0114146D03*
X0088623Y0132800D03*
X0095316Y0132800D03*
X0103570Y0110846D03*
X0103570Y0104154D03*
X0103570Y0097746D03*
X0103570Y0091054D03*
X0120023Y0068000D03*
X0126716Y0068000D03*
X0126816Y0058900D03*
X0120123Y0058900D03*
D18*
X0044901Y0139922D02*
X0044901Y0142678D01*
X0044901Y0139922D02*
X0042145Y0139922D01*
X0042145Y0142678D01*
X0044901Y0142678D01*
X0044901Y0141102D02*
X0042145Y0141102D01*
X0042145Y0142282D02*
X0044901Y0142282D01*
X0044801Y0148322D02*
X0044801Y0151078D01*
X0044801Y0148322D02*
X0042045Y0148322D01*
X0042045Y0151078D01*
X0044801Y0151078D01*
X0044801Y0149502D02*
X0042045Y0149502D01*
X0042045Y0150682D02*
X0044801Y0150682D01*
X0037895Y0151078D02*
X0037895Y0148322D01*
X0035139Y0148322D01*
X0035139Y0151078D01*
X0037895Y0151078D01*
X0037895Y0149502D02*
X0035139Y0149502D01*
X0035139Y0150682D02*
X0037895Y0150682D01*
X0037995Y0142678D02*
X0037995Y0139922D01*
X0035239Y0139922D01*
X0035239Y0142678D01*
X0037995Y0142678D01*
X0037995Y0141102D02*
X0035239Y0141102D01*
X0035239Y0142282D02*
X0037995Y0142282D01*
M02*
